<?xml version="1.0" encoding="utf-8" standalone="no"?>
<!DOCTYPE svg PUBLIC "-//W3C//DTD SVG 1.1//EN"
  "http://www.w3.org/Graphics/SVG/1.1/DTD/svg11.dtd">
<svg xmlns:xlink="http://www.w3.org/1999/xlink" width="568.433125pt" height="351.034375pt" viewBox="0 0 568.433125 351.034375" xmlns="http://www.w3.org/2000/svg" version="1.1">
 <metadata>
  <rdf:RDF xmlns:dc="http://purl.org/dc/elements/1.1/" xmlns:cc="http://creativecommons.org/ns#" xmlns:rdf="http://www.w3.org/1999/02/22-rdf-syntax-ns#">
   <cc:Work>
    <dc:type rdf:resource="http://purl.org/dc/dcmitype/StillImage"/>
    <dc:date>2025-09-01T22:00:03.934163</dc:date>
    <dc:format>image/svg+xml</dc:format>
    <dc:creator>
     <cc:Agent>
      <dc:title>Matplotlib v3.10.3, https://matplotlib.org/</dc:title>
     </cc:Agent>
    </dc:creator>
   </cc:Work>
  </rdf:RDF>
 </metadata>
 <defs>
  <style type="text/css">*{stroke-linejoin: round; stroke-linecap: butt}</style>
 </defs>
 <g id="figure_1">
  <g id="patch_1">
   <path d="M 0 351.034375 
L 568.433125 351.034375 
L 568.433125 0 
L 0 0 
z
" style="fill: #ffffff"/>
  </g>
  <g id="axes_1">
   <g id="patch_2">
    <path d="M 40.603125 313.478125 
L 561.233125 313.478125 
L 561.233125 22.318125 
L 40.603125 22.318125 
z
" style="fill: #ffffff"/>
   </g>
   <g id="matplotlib.axis_1">
    <g id="xtick_1">
     <g id="line2d_1">
      <defs>
       <path id="m3eda3a5847" d="M 0 0 
L 0 3.5 
" style="stroke: #000000; stroke-width: 0.8"/>
      </defs>
      <g>
       <use xlink:href="#m3eda3a5847" x="64.268125" y="313.478125" style="stroke: #000000; stroke-width: 0.8"/>
      </g>
     </g>
     <g id="text_1">
      <!-- 0 -->
      <g transform="translate(61.086875 328.076563) scale(0.1 -0.1)">
       <defs>
        <path id="DejaVuSans-30" d="M 2034 4250 
Q 1547 4250 1301 3770 
Q 1056 3291 1056 2328 
Q 1056 1369 1301 889 
Q 1547 409 2034 409 
Q 2525 409 2770 889 
Q 3016 1369 3016 2328 
Q 3016 3291 2770 3770 
Q 2525 4250 2034 4250 
z
M 2034 4750 
Q 2819 4750 3233 4129 
Q 3647 3509 3647 2328 
Q 3647 1150 3233 529 
Q 2819 -91 2034 -91 
Q 1250 -91 836 529 
Q 422 1150 422 2328 
Q 422 3509 836 4129 
Q 1250 4750 2034 4750 
z
" transform="scale(0.015625)"/>
       </defs>
       <use xlink:href="#DejaVuSans-30"/>
      </g>
     </g>
    </g>
    <g id="xtick_2">
     <g id="line2d_2">
      <g>
       <use xlink:href="#m3eda3a5847" x="127.798326" y="313.478125" style="stroke: #000000; stroke-width: 0.8"/>
      </g>
     </g>
     <g id="text_2">
      <!-- 20 -->
      <g transform="translate(121.435826 328.076563) scale(0.1 -0.1)">
       <defs>
        <path id="DejaVuSans-32" d="M 1228 531 
L 3431 531 
L 3431 0 
L 469 0 
L 469 531 
Q 828 903 1448 1529 
Q 2069 2156 2228 2338 
Q 2531 2678 2651 2914 
Q 2772 3150 2772 3378 
Q 2772 3750 2511 3984 
Q 2250 4219 1831 4219 
Q 1534 4219 1204 4116 
Q 875 4013 500 3803 
L 500 4441 
Q 881 4594 1212 4672 
Q 1544 4750 1819 4750 
Q 2544 4750 2975 4387 
Q 3406 4025 3406 3419 
Q 3406 3131 3298 2873 
Q 3191 2616 2906 2266 
Q 2828 2175 2409 1742 
Q 1991 1309 1228 531 
z
" transform="scale(0.015625)"/>
       </defs>
       <use xlink:href="#DejaVuSans-32"/>
       <use xlink:href="#DejaVuSans-30" transform="translate(63.623047 0)"/>
      </g>
     </g>
    </g>
    <g id="xtick_3">
     <g id="line2d_3">
      <g>
       <use xlink:href="#m3eda3a5847" x="191.328528" y="313.478125" style="stroke: #000000; stroke-width: 0.8"/>
      </g>
     </g>
     <g id="text_3">
      <!-- 40 -->
      <g transform="translate(184.966028 328.076563) scale(0.1 -0.1)">
       <defs>
        <path id="DejaVuSans-34" d="M 2419 4116 
L 825 1625 
L 2419 1625 
L 2419 4116 
z
M 2253 4666 
L 3047 4666 
L 3047 1625 
L 3713 1625 
L 3713 1100 
L 3047 1100 
L 3047 0 
L 2419 0 
L 2419 1100 
L 313 1100 
L 313 1709 
L 2253 4666 
z
" transform="scale(0.015625)"/>
       </defs>
       <use xlink:href="#DejaVuSans-34"/>
       <use xlink:href="#DejaVuSans-30" transform="translate(63.623047 0)"/>
      </g>
     </g>
    </g>
    <g id="xtick_4">
     <g id="line2d_4">
      <g>
       <use xlink:href="#m3eda3a5847" x="254.858729" y="313.478125" style="stroke: #000000; stroke-width: 0.8"/>
      </g>
     </g>
     <g id="text_4">
      <!-- 60 -->
      <g transform="translate(248.496229 328.076563) scale(0.1 -0.1)">
       <defs>
        <path id="DejaVuSans-36" d="M 2113 2584 
Q 1688 2584 1439 2293 
Q 1191 2003 1191 1497 
Q 1191 994 1439 701 
Q 1688 409 2113 409 
Q 2538 409 2786 701 
Q 3034 994 3034 1497 
Q 3034 2003 2786 2293 
Q 2538 2584 2113 2584 
z
M 3366 4563 
L 3366 3988 
Q 3128 4100 2886 4159 
Q 2644 4219 2406 4219 
Q 1781 4219 1451 3797 
Q 1122 3375 1075 2522 
Q 1259 2794 1537 2939 
Q 1816 3084 2150 3084 
Q 2853 3084 3261 2657 
Q 3669 2231 3669 1497 
Q 3669 778 3244 343 
Q 2819 -91 2113 -91 
Q 1303 -91 875 529 
Q 447 1150 447 2328 
Q 447 3434 972 4092 
Q 1497 4750 2381 4750 
Q 2619 4750 2861 4703 
Q 3103 4656 3366 4563 
z
" transform="scale(0.015625)"/>
       </defs>
       <use xlink:href="#DejaVuSans-36"/>
       <use xlink:href="#DejaVuSans-30" transform="translate(63.623047 0)"/>
      </g>
     </g>
    </g>
    <g id="xtick_5">
     <g id="line2d_5">
      <g>
       <use xlink:href="#m3eda3a5847" x="318.38893" y="313.478125" style="stroke: #000000; stroke-width: 0.8"/>
      </g>
     </g>
     <g id="text_5">
      <!-- 80 -->
      <g transform="translate(312.02643 328.076563) scale(0.1 -0.1)">
       <defs>
        <path id="DejaVuSans-38" d="M 2034 2216 
Q 1584 2216 1326 1975 
Q 1069 1734 1069 1313 
Q 1069 891 1326 650 
Q 1584 409 2034 409 
Q 2484 409 2743 651 
Q 3003 894 3003 1313 
Q 3003 1734 2745 1975 
Q 2488 2216 2034 2216 
z
M 1403 2484 
Q 997 2584 770 2862 
Q 544 3141 544 3541 
Q 544 4100 942 4425 
Q 1341 4750 2034 4750 
Q 2731 4750 3128 4425 
Q 3525 4100 3525 3541 
Q 3525 3141 3298 2862 
Q 3072 2584 2669 2484 
Q 3125 2378 3379 2068 
Q 3634 1759 3634 1313 
Q 3634 634 3220 271 
Q 2806 -91 2034 -91 
Q 1263 -91 848 271 
Q 434 634 434 1313 
Q 434 1759 690 2068 
Q 947 2378 1403 2484 
z
M 1172 3481 
Q 1172 3119 1398 2916 
Q 1625 2713 2034 2713 
Q 2441 2713 2670 2916 
Q 2900 3119 2900 3481 
Q 2900 3844 2670 4047 
Q 2441 4250 2034 4250 
Q 1625 4250 1398 4047 
Q 1172 3844 1172 3481 
z
" transform="scale(0.015625)"/>
       </defs>
       <use xlink:href="#DejaVuSans-38"/>
       <use xlink:href="#DejaVuSans-30" transform="translate(63.623047 0)"/>
      </g>
     </g>
    </g>
    <g id="xtick_6">
     <g id="line2d_6">
      <g>
       <use xlink:href="#m3eda3a5847" x="381.919132" y="313.478125" style="stroke: #000000; stroke-width: 0.8"/>
      </g>
     </g>
     <g id="text_6">
      <!-- 100 -->
      <g transform="translate(372.375382 328.076563) scale(0.1 -0.1)">
       <defs>
        <path id="DejaVuSans-31" d="M 794 531 
L 1825 531 
L 1825 4091 
L 703 3866 
L 703 4441 
L 1819 4666 
L 2450 4666 
L 2450 531 
L 3481 531 
L 3481 0 
L 794 0 
L 794 531 
z
" transform="scale(0.015625)"/>
       </defs>
       <use xlink:href="#DejaVuSans-31"/>
       <use xlink:href="#DejaVuSans-30" transform="translate(63.623047 0)"/>
       <use xlink:href="#DejaVuSans-30" transform="translate(127.246094 0)"/>
      </g>
     </g>
    </g>
    <g id="xtick_7">
     <g id="line2d_7">
      <g>
       <use xlink:href="#m3eda3a5847" x="445.449333" y="313.478125" style="stroke: #000000; stroke-width: 0.8"/>
      </g>
     </g>
     <g id="text_7">
      <!-- 120 -->
      <g transform="translate(435.905583 328.076563) scale(0.1 -0.1)">
       <use xlink:href="#DejaVuSans-31"/>
       <use xlink:href="#DejaVuSans-32" transform="translate(63.623047 0)"/>
       <use xlink:href="#DejaVuSans-30" transform="translate(127.246094 0)"/>
      </g>
     </g>
    </g>
    <g id="xtick_8">
     <g id="line2d_8">
      <g>
       <use xlink:href="#m3eda3a5847" x="508.979534" y="313.478125" style="stroke: #000000; stroke-width: 0.8"/>
      </g>
     </g>
     <g id="text_8">
      <!-- 140 -->
      <g transform="translate(499.435784 328.076563) scale(0.1 -0.1)">
       <use xlink:href="#DejaVuSans-31"/>
       <use xlink:href="#DejaVuSans-34" transform="translate(63.623047 0)"/>
       <use xlink:href="#DejaVuSans-30" transform="translate(127.246094 0)"/>
      </g>
     </g>
    </g>
    <g id="text_9">
     <!-- FL training round -->
     <g transform="translate(258.194688 341.754687) scale(0.1 -0.1)">
      <defs>
       <path id="DejaVuSans-46" d="M 628 4666 
L 3309 4666 
L 3309 4134 
L 1259 4134 
L 1259 2759 
L 3109 2759 
L 3109 2228 
L 1259 2228 
L 1259 0 
L 628 0 
L 628 4666 
z
" transform="scale(0.015625)"/>
       <path id="DejaVuSans-4c" d="M 628 4666 
L 1259 4666 
L 1259 531 
L 3531 531 
L 3531 0 
L 628 0 
L 628 4666 
z
" transform="scale(0.015625)"/>
       <path id="DejaVuSans-20" transform="scale(0.015625)"/>
       <path id="DejaVuSans-74" d="M 1172 4494 
L 1172 3500 
L 2356 3500 
L 2356 3053 
L 1172 3053 
L 1172 1153 
Q 1172 725 1289 603 
Q 1406 481 1766 481 
L 2356 481 
L 2356 0 
L 1766 0 
Q 1100 0 847 248 
Q 594 497 594 1153 
L 594 3053 
L 172 3053 
L 172 3500 
L 594 3500 
L 594 4494 
L 1172 4494 
z
" transform="scale(0.015625)"/>
       <path id="DejaVuSans-72" d="M 2631 2963 
Q 2534 3019 2420 3045 
Q 2306 3072 2169 3072 
Q 1681 3072 1420 2755 
Q 1159 2438 1159 1844 
L 1159 0 
L 581 0 
L 581 3500 
L 1159 3500 
L 1159 2956 
Q 1341 3275 1631 3429 
Q 1922 3584 2338 3584 
Q 2397 3584 2469 3576 
Q 2541 3569 2628 3553 
L 2631 2963 
z
" transform="scale(0.015625)"/>
       <path id="DejaVuSans-61" d="M 2194 1759 
Q 1497 1759 1228 1600 
Q 959 1441 959 1056 
Q 959 750 1161 570 
Q 1363 391 1709 391 
Q 2188 391 2477 730 
Q 2766 1069 2766 1631 
L 2766 1759 
L 2194 1759 
z
M 3341 1997 
L 3341 0 
L 2766 0 
L 2766 531 
Q 2569 213 2275 61 
Q 1981 -91 1556 -91 
Q 1019 -91 701 211 
Q 384 513 384 1019 
Q 384 1609 779 1909 
Q 1175 2209 1959 2209 
L 2766 2209 
L 2766 2266 
Q 2766 2663 2505 2880 
Q 2244 3097 1772 3097 
Q 1472 3097 1187 3025 
Q 903 2953 641 2809 
L 641 3341 
Q 956 3463 1253 3523 
Q 1550 3584 1831 3584 
Q 2591 3584 2966 3190 
Q 3341 2797 3341 1997 
z
" transform="scale(0.015625)"/>
       <path id="DejaVuSans-69" d="M 603 3500 
L 1178 3500 
L 1178 0 
L 603 0 
L 603 3500 
z
M 603 4863 
L 1178 4863 
L 1178 4134 
L 603 4134 
L 603 4863 
z
" transform="scale(0.015625)"/>
       <path id="DejaVuSans-6e" d="M 3513 2113 
L 3513 0 
L 2938 0 
L 2938 2094 
Q 2938 2591 2744 2837 
Q 2550 3084 2163 3084 
Q 1697 3084 1428 2787 
Q 1159 2491 1159 1978 
L 1159 0 
L 581 0 
L 581 3500 
L 1159 3500 
L 1159 2956 
Q 1366 3272 1645 3428 
Q 1925 3584 2291 3584 
Q 2894 3584 3203 3211 
Q 3513 2838 3513 2113 
z
" transform="scale(0.015625)"/>
       <path id="DejaVuSans-67" d="M 2906 1791 
Q 2906 2416 2648 2759 
Q 2391 3103 1925 3103 
Q 1463 3103 1205 2759 
Q 947 2416 947 1791 
Q 947 1169 1205 825 
Q 1463 481 1925 481 
Q 2391 481 2648 825 
Q 2906 1169 2906 1791 
z
M 3481 434 
Q 3481 -459 3084 -895 
Q 2688 -1331 1869 -1331 
Q 1566 -1331 1297 -1286 
Q 1028 -1241 775 -1147 
L 775 -588 
Q 1028 -725 1275 -790 
Q 1522 -856 1778 -856 
Q 2344 -856 2625 -561 
Q 2906 -266 2906 331 
L 2906 616 
Q 2728 306 2450 153 
Q 2172 0 1784 0 
Q 1141 0 747 490 
Q 353 981 353 1791 
Q 353 2603 747 3093 
Q 1141 3584 1784 3584 
Q 2172 3584 2450 3431 
Q 2728 3278 2906 2969 
L 2906 3500 
L 3481 3500 
L 3481 434 
z
" transform="scale(0.015625)"/>
       <path id="DejaVuSans-6f" d="M 1959 3097 
Q 1497 3097 1228 2736 
Q 959 2375 959 1747 
Q 959 1119 1226 758 
Q 1494 397 1959 397 
Q 2419 397 2687 759 
Q 2956 1122 2956 1747 
Q 2956 2369 2687 2733 
Q 2419 3097 1959 3097 
z
M 1959 3584 
Q 2709 3584 3137 3096 
Q 3566 2609 3566 1747 
Q 3566 888 3137 398 
Q 2709 -91 1959 -91 
Q 1206 -91 779 398 
Q 353 888 353 1747 
Q 353 2609 779 3096 
Q 1206 3584 1959 3584 
z
" transform="scale(0.015625)"/>
       <path id="DejaVuSans-75" d="M 544 1381 
L 544 3500 
L 1119 3500 
L 1119 1403 
Q 1119 906 1312 657 
Q 1506 409 1894 409 
Q 2359 409 2629 706 
Q 2900 1003 2900 1516 
L 2900 3500 
L 3475 3500 
L 3475 0 
L 2900 0 
L 2900 538 
Q 2691 219 2414 64 
Q 2138 -91 1772 -91 
Q 1169 -91 856 284 
Q 544 659 544 1381 
z
M 1991 3584 
L 1991 3584 
z
" transform="scale(0.015625)"/>
       <path id="DejaVuSans-64" d="M 2906 2969 
L 2906 4863 
L 3481 4863 
L 3481 0 
L 2906 0 
L 2906 525 
Q 2725 213 2448 61 
Q 2172 -91 1784 -91 
Q 1150 -91 751 415 
Q 353 922 353 1747 
Q 353 2572 751 3078 
Q 1150 3584 1784 3584 
Q 2172 3584 2448 3432 
Q 2725 3281 2906 2969 
z
M 947 1747 
Q 947 1113 1208 752 
Q 1469 391 1925 391 
Q 2381 391 2643 752 
Q 2906 1113 2906 1747 
Q 2906 2381 2643 2742 
Q 2381 3103 1925 3103 
Q 1469 3103 1208 2742 
Q 947 2381 947 1747 
z
" transform="scale(0.015625)"/>
      </defs>
      <use xlink:href="#DejaVuSans-46"/>
      <use xlink:href="#DejaVuSans-4c" transform="translate(57.519531 0)"/>
      <use xlink:href="#DejaVuSans-20" transform="translate(113.232422 0)"/>
      <use xlink:href="#DejaVuSans-74" transform="translate(145.019531 0)"/>
      <use xlink:href="#DejaVuSans-72" transform="translate(184.228516 0)"/>
      <use xlink:href="#DejaVuSans-61" transform="translate(225.341797 0)"/>
      <use xlink:href="#DejaVuSans-69" transform="translate(286.621094 0)"/>
      <use xlink:href="#DejaVuSans-6e" transform="translate(314.404297 0)"/>
      <use xlink:href="#DejaVuSans-69" transform="translate(377.783203 0)"/>
      <use xlink:href="#DejaVuSans-6e" transform="translate(405.566406 0)"/>
      <use xlink:href="#DejaVuSans-67" transform="translate(468.945312 0)"/>
      <use xlink:href="#DejaVuSans-20" transform="translate(532.421875 0)"/>
      <use xlink:href="#DejaVuSans-72" transform="translate(564.208984 0)"/>
      <use xlink:href="#DejaVuSans-6f" transform="translate(603.072266 0)"/>
      <use xlink:href="#DejaVuSans-75" transform="translate(664.253906 0)"/>
      <use xlink:href="#DejaVuSans-6e" transform="translate(727.632812 0)"/>
      <use xlink:href="#DejaVuSans-64" transform="translate(791.011719 0)"/>
     </g>
    </g>
   </g>
   <g id="matplotlib.axis_2">
    <g id="ytick_1">
     <g id="line2d_9">
      <defs>
       <path id="mc7164ed4ba" d="M 0 0 
L -3.5 0 
" style="stroke: #000000; stroke-width: 0.8"/>
      </defs>
      <g>
       <use xlink:href="#mc7164ed4ba" x="40.603125" y="300.24358" style="stroke: #000000; stroke-width: 0.8"/>
      </g>
     </g>
     <g id="text_10">
      <!-- 10 -->
      <g transform="translate(20.878125 304.042798) scale(0.1 -0.1)">
       <use xlink:href="#DejaVuSans-31"/>
       <use xlink:href="#DejaVuSans-30" transform="translate(63.623047 0)"/>
      </g>
     </g>
    </g>
    <g id="ytick_2">
     <g id="line2d_10">
      <g>
       <use xlink:href="#mc7164ed4ba" x="40.603125" y="263.13044" style="stroke: #000000; stroke-width: 0.8"/>
      </g>
     </g>
     <g id="text_11">
      <!-- 20 -->
      <g transform="translate(20.878125 266.929659) scale(0.1 -0.1)">
       <use xlink:href="#DejaVuSans-32"/>
       <use xlink:href="#DejaVuSans-30" transform="translate(63.623047 0)"/>
      </g>
     </g>
    </g>
    <g id="ytick_3">
     <g id="line2d_11">
      <g>
       <use xlink:href="#mc7164ed4ba" x="40.603125" y="226.017301" style="stroke: #000000; stroke-width: 0.8"/>
      </g>
     </g>
     <g id="text_12">
      <!-- 30 -->
      <g transform="translate(20.878125 229.81652) scale(0.1 -0.1)">
       <defs>
        <path id="DejaVuSans-33" d="M 2597 2516 
Q 3050 2419 3304 2112 
Q 3559 1806 3559 1356 
Q 3559 666 3084 287 
Q 2609 -91 1734 -91 
Q 1441 -91 1130 -33 
Q 819 25 488 141 
L 488 750 
Q 750 597 1062 519 
Q 1375 441 1716 441 
Q 2309 441 2620 675 
Q 2931 909 2931 1356 
Q 2931 1769 2642 2001 
Q 2353 2234 1838 2234 
L 1294 2234 
L 1294 2753 
L 1863 2753 
Q 2328 2753 2575 2939 
Q 2822 3125 2822 3475 
Q 2822 3834 2567 4026 
Q 2313 4219 1838 4219 
Q 1578 4219 1281 4162 
Q 984 4106 628 3988 
L 628 4550 
Q 988 4650 1302 4700 
Q 1616 4750 1894 4750 
Q 2613 4750 3031 4423 
Q 3450 4097 3450 3541 
Q 3450 3153 3228 2886 
Q 3006 2619 2597 2516 
z
" transform="scale(0.015625)"/>
       </defs>
       <use xlink:href="#DejaVuSans-33"/>
       <use xlink:href="#DejaVuSans-30" transform="translate(63.623047 0)"/>
      </g>
     </g>
    </g>
    <g id="ytick_4">
     <g id="line2d_12">
      <g>
       <use xlink:href="#mc7164ed4ba" x="40.603125" y="188.904162" style="stroke: #000000; stroke-width: 0.8"/>
      </g>
     </g>
     <g id="text_13">
      <!-- 40 -->
      <g transform="translate(20.878125 192.703381) scale(0.1 -0.1)">
       <use xlink:href="#DejaVuSans-34"/>
       <use xlink:href="#DejaVuSans-30" transform="translate(63.623047 0)"/>
      </g>
     </g>
    </g>
    <g id="ytick_5">
     <g id="line2d_13">
      <g>
       <use xlink:href="#mc7164ed4ba" x="40.603125" y="151.791023" style="stroke: #000000; stroke-width: 0.8"/>
      </g>
     </g>
     <g id="text_14">
      <!-- 50 -->
      <g transform="translate(20.878125 155.590241) scale(0.1 -0.1)">
       <defs>
        <path id="DejaVuSans-35" d="M 691 4666 
L 3169 4666 
L 3169 4134 
L 1269 4134 
L 1269 2991 
Q 1406 3038 1543 3061 
Q 1681 3084 1819 3084 
Q 2600 3084 3056 2656 
Q 3513 2228 3513 1497 
Q 3513 744 3044 326 
Q 2575 -91 1722 -91 
Q 1428 -91 1123 -41 
Q 819 9 494 109 
L 494 744 
Q 775 591 1075 516 
Q 1375 441 1709 441 
Q 2250 441 2565 725 
Q 2881 1009 2881 1497 
Q 2881 1984 2565 2268 
Q 2250 2553 1709 2553 
Q 1456 2553 1204 2497 
Q 953 2441 691 2322 
L 691 4666 
z
" transform="scale(0.015625)"/>
       </defs>
       <use xlink:href="#DejaVuSans-35"/>
       <use xlink:href="#DejaVuSans-30" transform="translate(63.623047 0)"/>
      </g>
     </g>
    </g>
    <g id="ytick_6">
     <g id="line2d_14">
      <g>
       <use xlink:href="#mc7164ed4ba" x="40.603125" y="114.677883" style="stroke: #000000; stroke-width: 0.8"/>
      </g>
     </g>
     <g id="text_15">
      <!-- 60 -->
      <g transform="translate(20.878125 118.477102) scale(0.1 -0.1)">
       <use xlink:href="#DejaVuSans-36"/>
       <use xlink:href="#DejaVuSans-30" transform="translate(63.623047 0)"/>
      </g>
     </g>
    </g>
    <g id="ytick_7">
     <g id="line2d_15">
      <g>
       <use xlink:href="#mc7164ed4ba" x="40.603125" y="77.564744" style="stroke: #000000; stroke-width: 0.8"/>
      </g>
     </g>
     <g id="text_16">
      <!-- 70 -->
      <g transform="translate(20.878125 81.363963) scale(0.1 -0.1)">
       <defs>
        <path id="DejaVuSans-37" d="M 525 4666 
L 3525 4666 
L 3525 4397 
L 1831 0 
L 1172 0 
L 2766 4134 
L 525 4134 
L 525 4666 
z
" transform="scale(0.015625)"/>
       </defs>
       <use xlink:href="#DejaVuSans-37"/>
       <use xlink:href="#DejaVuSans-30" transform="translate(63.623047 0)"/>
      </g>
     </g>
    </g>
    <g id="ytick_8">
     <g id="line2d_16">
      <g>
       <use xlink:href="#mc7164ed4ba" x="40.603125" y="40.451605" style="stroke: #000000; stroke-width: 0.8"/>
      </g>
     </g>
     <g id="text_17">
      <!-- 80 -->
      <g transform="translate(20.878125 44.250824) scale(0.1 -0.1)">
       <use xlink:href="#DejaVuSans-38"/>
       <use xlink:href="#DejaVuSans-30" transform="translate(63.623047 0)"/>
      </g>
     </g>
    </g>
    <g id="text_18">
     <!-- test accuracy (%) -->
     <g transform="translate(14.798438 211.889531) rotate(-90) scale(0.1 -0.1)">
      <defs>
       <path id="DejaVuSans-65" d="M 3597 1894 
L 3597 1613 
L 953 1613 
Q 991 1019 1311 708 
Q 1631 397 2203 397 
Q 2534 397 2845 478 
Q 3156 559 3463 722 
L 3463 178 
Q 3153 47 2828 -22 
Q 2503 -91 2169 -91 
Q 1331 -91 842 396 
Q 353 884 353 1716 
Q 353 2575 817 3079 
Q 1281 3584 2069 3584 
Q 2775 3584 3186 3129 
Q 3597 2675 3597 1894 
z
M 3022 2063 
Q 3016 2534 2758 2815 
Q 2500 3097 2075 3097 
Q 1594 3097 1305 2825 
Q 1016 2553 972 2059 
L 3022 2063 
z
" transform="scale(0.015625)"/>
       <path id="DejaVuSans-73" d="M 2834 3397 
L 2834 2853 
Q 2591 2978 2328 3040 
Q 2066 3103 1784 3103 
Q 1356 3103 1142 2972 
Q 928 2841 928 2578 
Q 928 2378 1081 2264 
Q 1234 2150 1697 2047 
L 1894 2003 
Q 2506 1872 2764 1633 
Q 3022 1394 3022 966 
Q 3022 478 2636 193 
Q 2250 -91 1575 -91 
Q 1294 -91 989 -36 
Q 684 19 347 128 
L 347 722 
Q 666 556 975 473 
Q 1284 391 1588 391 
Q 1994 391 2212 530 
Q 2431 669 2431 922 
Q 2431 1156 2273 1281 
Q 2116 1406 1581 1522 
L 1381 1569 
Q 847 1681 609 1914 
Q 372 2147 372 2553 
Q 372 3047 722 3315 
Q 1072 3584 1716 3584 
Q 2034 3584 2315 3537 
Q 2597 3491 2834 3397 
z
" transform="scale(0.015625)"/>
       <path id="DejaVuSans-63" d="M 3122 3366 
L 3122 2828 
Q 2878 2963 2633 3030 
Q 2388 3097 2138 3097 
Q 1578 3097 1268 2742 
Q 959 2388 959 1747 
Q 959 1106 1268 751 
Q 1578 397 2138 397 
Q 2388 397 2633 464 
Q 2878 531 3122 666 
L 3122 134 
Q 2881 22 2623 -34 
Q 2366 -91 2075 -91 
Q 1284 -91 818 406 
Q 353 903 353 1747 
Q 353 2603 823 3093 
Q 1294 3584 2113 3584 
Q 2378 3584 2631 3529 
Q 2884 3475 3122 3366 
z
" transform="scale(0.015625)"/>
       <path id="DejaVuSans-79" d="M 2059 -325 
Q 1816 -950 1584 -1140 
Q 1353 -1331 966 -1331 
L 506 -1331 
L 506 -850 
L 844 -850 
Q 1081 -850 1212 -737 
Q 1344 -625 1503 -206 
L 1606 56 
L 191 3500 
L 800 3500 
L 1894 763 
L 2988 3500 
L 3597 3500 
L 2059 -325 
z
" transform="scale(0.015625)"/>
       <path id="DejaVuSans-28" d="M 1984 4856 
Q 1566 4138 1362 3434 
Q 1159 2731 1159 2009 
Q 1159 1288 1364 580 
Q 1569 -128 1984 -844 
L 1484 -844 
Q 1016 -109 783 600 
Q 550 1309 550 2009 
Q 550 2706 781 3412 
Q 1013 4119 1484 4856 
L 1984 4856 
z
" transform="scale(0.015625)"/>
       <path id="DejaVuSans-25" d="M 4653 2053 
Q 4381 2053 4226 1822 
Q 4072 1591 4072 1178 
Q 4072 772 4226 539 
Q 4381 306 4653 306 
Q 4919 306 5073 539 
Q 5228 772 5228 1178 
Q 5228 1588 5073 1820 
Q 4919 2053 4653 2053 
z
M 4653 2450 
Q 5147 2450 5437 2106 
Q 5728 1763 5728 1178 
Q 5728 594 5436 251 
Q 5144 -91 4653 -91 
Q 4153 -91 3862 251 
Q 3572 594 3572 1178 
Q 3572 1766 3864 2108 
Q 4156 2450 4653 2450 
z
M 1428 4353 
Q 1159 4353 1004 4120 
Q 850 3888 850 3481 
Q 850 3069 1003 2837 
Q 1156 2606 1428 2606 
Q 1700 2606 1854 2837 
Q 2009 3069 2009 3481 
Q 2009 3884 1853 4118 
Q 1697 4353 1428 4353 
z
M 4250 4750 
L 4750 4750 
L 1831 -91 
L 1331 -91 
L 4250 4750 
z
M 1428 4750 
Q 1922 4750 2215 4408 
Q 2509 4066 2509 3481 
Q 2509 2891 2217 2550 
Q 1925 2209 1428 2209 
Q 931 2209 642 2551 
Q 353 2894 353 3481 
Q 353 4063 643 4406 
Q 934 4750 1428 4750 
z
" transform="scale(0.015625)"/>
       <path id="DejaVuSans-29" d="M 513 4856 
L 1013 4856 
Q 1481 4119 1714 3412 
Q 1947 2706 1947 2009 
Q 1947 1309 1714 600 
Q 1481 -109 1013 -844 
L 513 -844 
Q 928 -128 1133 580 
Q 1338 1288 1338 2009 
Q 1338 2731 1133 3434 
Q 928 4138 513 4856 
z
" transform="scale(0.015625)"/>
      </defs>
      <use xlink:href="#DejaVuSans-74"/>
      <use xlink:href="#DejaVuSans-65" transform="translate(39.208984 0)"/>
      <use xlink:href="#DejaVuSans-73" transform="translate(100.732422 0)"/>
      <use xlink:href="#DejaVuSans-74" transform="translate(152.832031 0)"/>
      <use xlink:href="#DejaVuSans-20" transform="translate(192.041016 0)"/>
      <use xlink:href="#DejaVuSans-61" transform="translate(223.828125 0)"/>
      <use xlink:href="#DejaVuSans-63" transform="translate(285.107422 0)"/>
      <use xlink:href="#DejaVuSans-63" transform="translate(340.087891 0)"/>
      <use xlink:href="#DejaVuSans-75" transform="translate(395.068359 0)"/>
      <use xlink:href="#DejaVuSans-72" transform="translate(458.447266 0)"/>
      <use xlink:href="#DejaVuSans-61" transform="translate(499.560547 0)"/>
      <use xlink:href="#DejaVuSans-63" transform="translate(560.839844 0)"/>
      <use xlink:href="#DejaVuSans-79" transform="translate(615.820312 0)"/>
      <use xlink:href="#DejaVuSans-20" transform="translate(675 0)"/>
      <use xlink:href="#DejaVuSans-28" transform="translate(706.787109 0)"/>
      <use xlink:href="#DejaVuSans-25" transform="translate(745.800781 0)"/>
      <use xlink:href="#DejaVuSans-29" transform="translate(840.820312 0)"/>
     </g>
    </g>
   </g>
   <g id="line2d_17">
    <path d="M 64.268125 264.577853 
L 67.444635 145.25911 
L 70.621145 142.290059 
L 73.797655 112.525321 
L 76.974165 160.586837 
L 80.150675 126.182956 
L 83.327185 80.125551 
L 86.503695 87.585292 
L 89.680206 83.243054 
L 92.856716 76.302897 
L 96.033226 61.531868 
L 99.209736 60.232908 
L 102.386246 98.422328 
L 105.562756 86.694576 
L 108.739266 73.630751 
L 111.915776 74.966824 
L 115.092286 59.750437 
L 118.268796 65.168956 
L 121.445306 57.89478 
L 124.621816 79.791532 
L 127.798326 57.041178 
L 130.974836 80.533795 
L 134.151346 51.214415 
L 137.327857 49.395871 
L 140.504367 50.509266 
L 143.680877 62.608149 
L 146.857387 48.839174 
L 150.033897 67.247291 
L 153.210407 44.979408 
L 156.386917 43.272203 
L 159.563427 42.715506 
L 162.739937 48.579382 
L 165.916447 64.575145 
L 169.092957 44.422711 
L 172.269467 41.750565 
L 175.445977 42.975298 
L 178.622487 48.876287 
L 181.798997 54.035014 
L 184.975508 41.676338 
L 188.152018 37.334101 
L 191.328528 46.204141 
L 194.505038 51.399981 
L 197.681548 40.191813 
L 200.858058 41.490773 
L 204.034568 37.185649 
L 207.211078 35.998028 
L 210.387588 53.181412 
L 213.564098 40.674284 
L 216.740608 39.523776 
L 219.917118 39.004192 
L 223.093628 53.478317 
L 226.270138 51.140189 
L 229.446648 195.176282 
L 232.623159 300.24358 
L 537.568125 300.24358 
L 537.568125 300.24358 
" clip-path="url(#pa2867da7a0)" style="fill: none; stroke: #1f77b4; stroke-width: 2; stroke-linecap: square"/>
   </g>
   <g id="line2d_18">
    <path d="M 64.268125 259.530466 
L 67.444635 290.185919 
L 70.621145 226.870903 
L 73.797655 195.361848 
L 76.974165 161.81157 
L 80.150675 164.595056 
L 83.327185 144.034376 
L 86.503695 142.846756 
L 89.680206 118.983007 
L 92.856716 160.586837 
L 96.033226 169.753782 
L 99.209736 156.764183 
L 102.386246 121.580927 
L 105.562756 125.997391 
L 108.739266 115.568599 
L 111.915776 122.842774 
L 115.092286 104.47177 
L 118.268796 108.108858 
L 121.445306 114.974788 
L 124.621816 111.44904 
L 127.798326 120.615986 
L 130.974836 98.533668 
L 134.151346 106.587219 
L 137.327857 112.413982 
L 140.504367 112.562434 
L 143.680877 107.218142 
L 146.857387 79.086383 
L 150.033897 100.57489 
L 153.210407 110.409872 
L 156.386917 86.509011 
L 159.563427 109.630496 
L 162.739937 92.892471 
L 165.916447 79.271948 
L 169.092957 106.587219 
L 172.269467 118.797442 
L 175.445977 73.185394 
L 178.622487 85.024485 
L 181.798997 71.700868 
L 184.975508 69.140061 
L 188.152018 72.962715 
L 191.328528 80.645135 
L 194.505038 78.381233 
L 197.681548 72.146226 
L 200.858058 67.284405 
L 204.034568 68.06378 
L 207.211078 84.096657 
L 210.387588 98.607894 
L 213.564098 73.630751 
L 216.740608 80.719361 
L 219.917118 73.667864 
L 223.093628 60.047342 
L 226.270138 74.781259 
L 229.446648 81.053379 
L 232.623159 65.836992 
L 235.799669 68.397799 
L 238.976179 65.725653 
L 242.152689 79.160609 
L 245.329199 65.428748 
L 248.505709 92.113095 
L 251.682219 70.513248 
L 254.858729 69.399853 
L 258.035239 54.888616 
L 261.211749 57.931893 
L 264.388259 64.946277 
L 267.564769 62.311244 
L 270.741279 60.752492 
L 273.917789 53.292751 
L 277.094299 55.927784 
L 280.27081 51.177302 
L 283.44732 60.418474 
L 286.62383 64.018448 
L 289.80034 49.692777 
L 292.97685 52.698941 
L 296.15336 55.371087 
L 299.32987 56.632934 
L 302.50638 58.896835 
L 305.68289 57.709215 
L 308.8594 53.626769 
L 312.03591 61.08651 
L 315.21242 60.752492 
L 318.38893 55.4082 
L 321.56544 60.121569 
L 324.741951 57.746328 
L 327.918461 48.987627 
L 331.094971 56.039123 
L 334.271481 53.849448 
L 337.447991 54.962842 
L 340.624501 47.577328 
L 343.801011 65.651426 
L 346.977521 66.653481 
L 350.154031 55.630879 
L 353.330541 70.327682 
L 356.507051 50.880397 
L 359.683561 72.443131 
L 362.860071 51.214415 
L 366.036581 49.841229 
L 369.213091 56.632934 
L 375.566112 54.035014 
L 378.742622 53.886561 
L 381.919132 54.665937 
L 385.095642 61.568981 
L 388.272152 59.78755 
L 391.448662 56.929839 
L 394.625172 61.940112 
L 397.801682 47.985572 
L 400.978192 55.259747 
L 404.154702 54.331919 
L 407.331212 47.243309 
L 410.507722 68.138007 
L 413.684232 60.863831 
L 416.860742 44.979408 
L 420.037253 60.863831 
L 423.213763 51.62266 
L 426.390273 55.037069 
L 429.566783 48.245364 
L 432.743293 48.579382 
L 435.919803 51.437094 
L 439.096313 42.975298 
L 442.272823 43.272203 
L 448.625843 48.059798 
L 451.802353 45.83301 
L 454.978863 43.160864 
L 458.155373 45.202087 
L 461.331883 53.51543 
L 464.508393 49.878342 
L 467.684904 45.610331 
L 470.861414 46.092802 
L 474.037924 41.639225 
L 477.214434 45.090747 
L 480.390944 43.94024 
L 483.567454 47.391762 
L 486.743964 58.228799 
L 489.920474 64.87205 
L 493.096984 43.791787 
L 496.273494 58.525704 
L 499.450004 48.059798 
L 502.626514 59.008174 
L 505.803024 60.752492 
L 508.979534 49.061853 
L 512.156044 45.721671 
L 515.332555 60.529813 
L 518.509065 51.437094 
L 521.685575 57.375196 
L 524.862085 46.018576 
L 528.038595 52.21647 
L 531.215105 51.399981 
L 534.391615 51.956678 
L 537.568125 46.760839 
L 537.568125 46.760839 
" clip-path="url(#pa2867da7a0)" style="fill: none; stroke: #ff7f0e; stroke-width: 2; stroke-linecap: square"/>
   </g>
   <g id="line2d_19">
    <path d="M 64.268125 300.24358 
L 67.444635 244.499644 
L 70.621145 173.947567 
L 73.797655 176.397034 
L 76.974165 116.162409 
L 80.150675 120.244854 
L 83.327185 133.086 
L 86.503695 104.211978 
L 89.680206 94.30277 
L 92.856716 115.976843 
L 96.033226 96.529558 
L 99.209736 76.154445 
L 102.386246 109.222252 
L 105.562756 129.820044 
L 108.739266 64.649372 
L 111.915776 109.370704 
L 115.092286 87.177047 
L 118.268796 95.824409 
L 121.445306 95.416164 
L 124.621816 75.375069 
L 127.798326 69.659645 
L 130.974836 73.96477 
L 134.151346 68.583364 
L 137.327857 60.529813 
L 140.504367 94.414109 
L 143.680877 99.572836 
L 146.857387 56.373142 
L 150.033897 63.573091 
L 153.210407 57.263857 
L 156.386917 57.152517 
L 159.563427 52.105131 
L 162.739937 62.051452 
L 165.916447 56.70716 
L 169.092957 65.057616 
L 172.269467 64.538032 
L 175.445977 61.902999 
L 178.622487 51.103076 
L 181.798997 45.090747 
L 184.975508 62.459696 
L 188.152018 70.439021 
L 191.328528 73.185394 
L 194.505038 57.263857 
L 197.681548 52.21647 
L 200.858058 46.53816 
L 204.034568 48.31959 
L 207.211078 54.962842 
L 210.387588 47.13197 
L 213.564098 42.715506 
L 216.740608 57.078291 
L 219.917118 68.583364 
L 223.093628 43.23509 
L 226.270138 60.789605 
L 229.446648 130.191176 
L 232.623159 300.058014 
L 238.976179 300.13224 
L 248.505709 300.169353 
L 537.568125 300.24358 
L 537.568125 300.24358 
" clip-path="url(#pa2867da7a0)" style="fill: none; stroke: #2ca02c; stroke-width: 2; stroke-linecap: square"/>
   </g>
   <g id="line2d_20">
    <path d="M 64.268125 274.412835 
L 67.444635 270.367502 
L 70.621145 234.367757 
L 73.797655 212.619458 
L 76.974165 228.058524 
L 80.150675 186.232016 
L 83.327185 183.968114 
L 86.503695 172.240362 
L 89.680206 148.228161 
L 92.856716 129.374686 
L 96.033226 144.479734 
L 99.209736 96.232653 
L 102.386246 86.583237 
L 105.562756 105.251146 
L 108.739266 79.271948 
L 111.915776 99.201704 
L 115.092286 93.486281 
L 118.268796 84.02243 
L 121.445306 102.653226 
L 124.621816 79.865759 
L 127.798326 101.242927 
L 130.974836 87.622405 
L 134.151346 118.352084 
L 137.327857 89.663627 
L 140.504367 91.296606 
L 143.680877 98.867686 
L 146.857387 89.440949 
L 150.033897 141.510683 
L 153.210407 91.296606 
L 156.386917 70.958605 
L 159.563427 60.789605 
L 162.739937 56.410255 
L 165.916447 61.457642 
L 169.092957 84.393562 
L 172.269467 84.764693 
L 175.445977 77.787423 
L 178.622487 63.239072 
L 181.798997 60.232908 
L 184.975508 65.836992 
L 188.152018 73.333846 
L 191.328528 78.047215 
L 194.505038 65.985445 
L 197.681548 74.410127 
L 200.858058 78.826591 
L 204.034568 61.420529 
L 207.211078 71.441076 
L 210.387588 65.354521 
L 213.564098 68.620478 
L 216.740608 69.770985 
L 219.917118 55.333974 
L 223.093628 60.641153 
L 226.270138 51.771112 
L 229.446648 73.408072 
L 232.623159 89.626514 
L 235.799669 300.24358 
L 537.568125 300.24358 
L 537.568125 300.24358 
" clip-path="url(#pa2867da7a0)" style="fill: none; stroke: #d62728; stroke-width: 2; stroke-linecap: square"/>
   </g>
   <g id="line2d_21">
    <path d="M 64.268125 287.736452 
L 67.444635 177.918673 
L 70.621145 149.935366 
L 73.797655 138.393179 
L 76.974165 114.418091 
L 80.150675 119.317026 
L 83.327185 87.91931 
L 86.503695 75.189503 
L 89.680206 95.675956 
L 92.856716 69.696759 
L 96.033226 62.942167 
L 99.209736 95.750182 
L 102.386246 64.797824 
L 105.562756 64.38958 
L 108.739266 62.867941 
L 111.915776 68.323572 
L 115.092286 84.170883 
L 118.268796 62.199904 
L 121.445306 56.039123 
L 124.621816 48.616495 
L 127.798326 62.348357 
L 130.974836 56.076236 
L 134.151346 56.855612 
L 137.327857 68.954496 
L 140.504367 82.72347 
L 143.680877 56.929839 
L 146.857387 55.556653 
L 150.033897 50.063908 
L 153.210407 74.150335 
L 156.386917 55.037069 
L 159.563427 48.282477 
L 162.739937 39.746455 
L 165.916447 41.676338 
L 169.092957 59.639098 
L 172.269467 49.136079 
L 175.445977 53.070072 
L 178.622487 46.575273 
L 181.798997 42.381488 
L 184.975508 59.824664 
L 188.152018 43.680448 
L 191.328528 35.55267 
L 194.505038 58.59993 
L 197.681548 37.705233 
L 200.858058 56.224689 
L 204.034568 43.531995 
L 207.211078 36.703178 
L 210.387588 74.150335 
L 213.564098 44.756729 
L 216.740608 35.701123 
L 219.917118 44.496937 
L 223.093628 52.105131 
L 226.270138 56.70716 
L 229.446648 112.376869 
L 232.623159 300.24358 
L 537.568125 300.24358 
L 537.568125 300.24358 
" clip-path="url(#pa2867da7a0)" style="fill: none; stroke: #9467bd; stroke-width: 2; stroke-linecap: square"/>
   </g>
   <g id="line2d_22">
    <path d="M 64.268125 236.780111 
L 67.444635 300.24358 
L 70.621145 270.293276 
L 73.797655 285.286984 
L 76.974165 255.856265 
L 80.150675 228.615221 
L 83.327185 267.695356 
L 86.503695 220.635896 
L 89.680206 199.889651 
L 92.856716 252.812988 
L 96.033226 267.509791 
L 99.209736 244.351192 
L 102.386246 204.009209 
L 105.562756 209.353502 
L 108.739266 201.040158 
L 111.915776 198.256673 
L 115.092286 154.760074 
L 118.268796 189.646425 
L 121.445306 178.512483 
L 124.621816 174.838282 
L 127.798326 162.628059 
L 130.974836 162.40538 
L 134.151346 139.951931 
L 137.327857 160.995081 
L 140.504367 121.952059 
L 143.680877 179.922782 
L 146.857387 161.92291 
L 150.033897 153.052869 
L 153.210407 136.871541 
L 156.386917 147.411672 
L 159.563427 154.574508 
L 162.739937 140.731307 
L 165.916447 133.939603 
L 169.092957 138.578745 
L 172.269467 120.059289 
L 175.445977 145.96426 
L 178.622487 116.830445 
L 181.798997 104.026412 
L 184.975508 127.556143 
L 188.152018 110.15008 
L 191.328528 100.797569 
L 194.505038 111.263475 
L 197.681548 140.285949 
L 200.858058 116.904672 
L 204.034568 120.207741 
L 207.211078 132.009719 
L 210.387588 146.966314 
L 213.564098 121.543814 
L 216.740608 120.727325 
L 219.917118 114.492318 
L 223.093628 78.418346 
L 226.270138 84.838919 
L 229.446648 85.618295 
L 232.623159 143.440566 
L 235.799669 100.129533 
L 238.976179 101.836737 
L 242.152689 81.832755 
L 245.329199 68.249346 
L 248.505709 97.086255 
L 251.682219 100.537777 
L 254.858729 91.370832 
L 258.035239 95.045033 
L 261.211749 100.946022 
L 264.388259 78.715251 
L 267.564769 104.880015 
L 270.741279 96.715124 
L 273.917789 92.595565 
L 277.094299 80.94204 
L 280.27081 77.972989 
L 283.44732 106.624332 
L 286.62383 92.187321 
L 289.80034 107.811953 
L 292.97685 124.958223 
L 296.15336 71.069945 
L 299.32987 117.498482 
L 302.50638 110.558325 
L 305.68289 102.319208 
L 308.8594 127.667482 
L 312.03591 93.968752 
L 315.21242 85.469843 
L 318.38893 100.240872 
L 321.56544 85.061598 
L 324.741951 97.902744 
L 327.918461 81.647189 
L 331.094971 82.797697 
L 334.271481 80.125551 
L 337.447991 94.636788 
L 340.624501 89.478062 
L 343.801011 74.076109 
L 346.977521 95.898635 
L 350.154031 95.972861 
L 353.330541 102.467661 
L 356.507051 85.544069 
L 359.683561 106.995463 
L 362.860071 96.381106 
L 366.036581 69.993664 
L 369.213091 76.674029 
L 372.389602 82.83481 
L 375.566112 58.822609 
L 378.742622 94.042978 
L 381.919132 106.735672 
L 385.095642 88.104876 
L 388.272152 65.614313 
L 391.448662 74.44724 
L 394.625172 57.152517 
L 397.801682 58.859722 
L 400.978192 95.193485 
L 404.154702 100.166646 
L 407.331212 69.47408 
L 410.507722 54.480371 
L 413.684232 61.606094 
L 416.860742 98.719233 
L 420.037253 59.750437 
L 423.213763 52.21647 
L 426.390273 75.931766 
L 429.566783 66.839047 
L 432.743293 74.818372 
L 435.919803 90.777022 
L 439.096313 52.364923 
L 442.272823 71.923547 
L 445.449333 96.492445 
L 448.625843 73.519412 
L 451.802353 48.171138 
L 454.978863 46.092802 
L 458.155373 60.938058 
L 461.331883 120.987117 
L 464.508393 78.381233 
L 467.684904 59.119514 
L 470.861414 75.820427 
L 474.037924 61.346302 
L 477.214434 106.030522 
L 480.390944 95.341938 
L 483.567454 62.051452 
L 489.920474 67.507083 
L 493.096984 69.102948 
L 496.273494 54.294806 
L 499.450004 64.018448 
L 502.626514 76.154445 
L 505.803024 73.704978 
L 508.979534 54.81439 
L 512.156044 67.395744 
L 515.332555 59.973116 
L 518.509065 75.783313 
L 521.685575 74.669919 
L 524.862085 60.975171 
L 528.038595 49.432985 
L 531.215105 42.418601 
L 534.391615 44.64539 
L 537.568125 38.85574 
L 537.568125 38.85574 
" clip-path="url(#pa2867da7a0)" style="fill: none; stroke: #8c564b; stroke-width: 2; stroke-linecap: square"/>
   </g>
   <g id="line2d_23">
    <path d="M 64.268125 168.863067 
L 67.444635 233.068798 
L 70.621145 185.081508 
L 73.797655 191.8361 
L 76.974165 105.993409 
L 80.150675 102.727452 
L 83.327185 150.826081 
L 86.503695 109.964515 
L 89.680206 96.381106 
L 92.856716 96.047087 
L 96.033226 68.026667 
L 99.209736 79.383288 
L 102.386246 108.591328 
L 105.562756 78.715251 
L 108.739266 72.740036 
L 111.915776 78.826591 
L 115.092286 83.688412 
L 118.268796 89.032704 
L 121.445306 73.85343 
L 124.621816 69.511193 
L 127.798326 85.655408 
L 130.974836 63.610204 
L 134.151346 64.092675 
L 137.327857 83.688412 
L 140.504367 64.463806 
L 143.680877 63.313299 
L 146.857387 79.234835 
L 150.033897 66.28235 
L 153.210407 71.181284 
L 156.386917 62.682375 
L 159.563427 56.744273 
L 162.739937 59.416419 
L 165.916447 67.841102 
L 169.092957 51.02885 
L 172.269467 68.991609 
L 175.445977 62.867941 
L 178.622487 57.189631 
L 181.798997 69.47408 
L 184.975508 61.79166 
L 188.152018 50.360813 
L 191.328528 61.309189 
L 194.505038 49.098966 
L 197.681548 51.733999 
L 200.858058 47.391762 
L 204.034568 51.919565 
L 207.211078 61.531868 
L 210.387588 60.752492 
L 213.564098 49.878342 
L 216.740608 67.915328 
L 219.917118 61.865886 
L 223.093628 49.358758 
L 226.270138 48.764948 
L 229.446648 64.760711 
L 232.623159 56.670047 
L 235.799669 79.457514 
L 238.976179 68.212233 
L 242.152689 60.4927 
L 245.329199 53.366977 
L 248.505709 66.133897 
L 251.682219 50.731944 
L 254.858729 68.17512 
L 258.035239 60.975171 
L 261.211749 72.406018 
L 264.388259 47.391762 
L 267.564769 46.204141 
L 270.741279 46.872178 
L 273.917789 45.647444 
L 277.094299 58.562817 
L 280.27081 60.195795 
L 283.44732 77.824536 
L 286.62383 67.46997 
L 289.80034 75.449295 
L 292.97685 62.051452 
L 296.15336 55.705105 
L 299.32987 55.259747 
L 302.50638 54.591711 
L 305.68289 70.364795 
L 308.8594 51.288641 
L 312.03591 67.321518 
L 315.21242 73.185394 
L 318.38893 62.942167 
L 321.56544 45.350539 
L 324.741951 42.121696 
L 327.918461 42.604167 
L 331.094971 50.546379 
L 334.271481 51.585547 
L 337.447991 47.614441 
L 340.624501 47.614441 
L 343.801011 61.19785 
L 346.977521 46.983517 
L 350.154031 67.247291 
L 353.330541 61.643207 
L 356.507051 50.175247 
L 359.683561 58.451477 
L 362.860071 47.911346 
L 366.036581 51.325755 
L 369.213091 47.540214 
L 372.389602 56.336028 
L 375.566112 49.136079 
L 378.742622 47.911346 
L 381.919132 58.303025 
L 385.095642 47.243309 
L 388.272152 50.954623 
L 391.448662 54.888616 
L 394.625172 48.171138 
L 397.801682 65.540087 
L 400.978192 46.352594 
L 404.154702 52.624715 
L 407.331212 50.249474 
L 410.507722 51.956678 
L 413.684232 44.682503 
L 416.860742 56.484481 
L 420.037253 47.688667 
L 423.213763 50.694831 
L 426.390273 53.144298 
L 429.566783 44.682503 
L 432.743293 46.167028 
L 435.919803 54.10924 
L 439.096313 57.004065 
L 442.272823 59.119514 
L 445.449333 48.208251 
L 448.625843 56.892726 
L 451.802353 54.777277 
L 454.978863 49.804116 
L 458.155373 60.678266 
L 461.331883 46.055689 
L 464.508393 45.498992 
L 467.684904 48.208251 
L 470.861414 60.604039 
L 474.037924 71.663755 
L 477.214434 45.795897 
L 480.390944 52.995846 
L 483.567454 54.220579 
L 486.743964 61.79166 
L 489.920474 53.181412 
L 493.096984 49.61855 
L 499.450004 60.381361 
L 502.626514 55.593766 
L 505.803024 55.482426 
L 508.979534 65.354521 
L 512.156044 72.777149 
L 515.332555 61.717434 
L 518.509065 64.27824 
L 521.685575 54.294806 
L 524.862085 74.55858 
L 528.038595 67.432857 
L 531.215105 49.432985 
L 534.391615 65.874105 
L 537.568125 80.682248 
L 537.568125 80.682248 
" clip-path="url(#pa2867da7a0)" style="fill: none; stroke: #e377c2; stroke-width: 2; stroke-linecap: square"/>
   </g>
   <g id="line2d_24">
    <path d="M 64.268125 255.44802 
L 67.444635 192.170118 
L 70.621145 177.139297 
L 73.797655 133.716924 
L 76.974165 124.21596 
L 80.150675 110.001628 
L 83.327185 110.632551 
L 86.503695 91.407945 
L 92.856716 119.799497 
L 96.033226 64.87205 
L 99.209736 88.141989 
L 102.386246 83.094602 
L 105.562756 83.42862 
L 108.739266 70.06789 
L 111.915776 68.249346 
L 115.092286 62.199904 
L 118.268796 65.874105 
L 121.445306 62.867941 
L 124.621816 69.548306 
L 127.798326 57.709215 
L 130.974836 69.325627 
L 134.151346 58.043233 
L 137.327857 62.348357 
L 140.504367 74.410127 
L 143.680877 83.799751 
L 146.857387 53.144298 
L 150.033897 50.472152 
L 153.210407 51.362868 
L 156.386917 54.925729 
L 159.563427 48.950514 
L 162.739937 79.568854 
L 165.916447 48.764948 
L 172.269467 47.577328 
L 175.445977 49.321645 
L 178.622487 84.950259 
L 181.798997 46.723725 
L 184.975508 58.822609 
L 188.152018 43.569109 
L 191.328528 57.820554 
L 194.505038 53.40409 
L 197.681548 58.711269 
L 200.858058 61.383415 
L 204.034568 48.653609 
L 207.211078 46.872178 
L 210.387588 43.828901 
L 213.564098 58.191685 
L 216.740608 40.674284 
L 219.917118 40.228926 
L 223.093628 38.633061 
L 226.270138 92.818244 
L 229.446648 104.47177 
L 232.623159 224.792567 
L 235.799669 300.24358 
L 537.568125 300.24358 
L 537.568125 300.24358 
" clip-path="url(#pa2867da7a0)" style="fill: none; stroke: #7f7f7f; stroke-width: 2; stroke-linecap: square"/>
   </g>
   <g id="patch_3">
    <path d="M 40.603125 313.478125 
L 40.603125 22.318125 
" style="fill: none; stroke: #000000; stroke-width: 0.8; stroke-linejoin: miter; stroke-linecap: square"/>
   </g>
   <g id="patch_4">
    <path d="M 561.233125 313.478125 
L 561.233125 22.318125 
" style="fill: none; stroke: #000000; stroke-width: 0.8; stroke-linejoin: miter; stroke-linecap: square"/>
   </g>
   <g id="patch_5">
    <path d="M 40.603125 313.478125 
L 561.233125 313.478125 
" style="fill: none; stroke: #000000; stroke-width: 0.8; stroke-linejoin: miter; stroke-linecap: square"/>
   </g>
   <g id="patch_6">
    <path d="M 40.603125 22.318125 
L 561.233125 22.318125 
" style="fill: none; stroke: #000000; stroke-width: 0.8; stroke-linejoin: miter; stroke-linecap: square"/>
   </g>
   <g id="text_19">
    <!-- fmnist, SCALING attack, clients=100 -->
    <g transform="translate(191.209063 16.318125) scale(0.12 -0.12)">
     <defs>
      <path id="DejaVuSans-66" d="M 2375 4863 
L 2375 4384 
L 1825 4384 
Q 1516 4384 1395 4259 
Q 1275 4134 1275 3809 
L 1275 3500 
L 2222 3500 
L 2222 3053 
L 1275 3053 
L 1275 0 
L 697 0 
L 697 3053 
L 147 3053 
L 147 3500 
L 697 3500 
L 697 3744 
Q 697 4328 969 4595 
Q 1241 4863 1831 4863 
L 2375 4863 
z
" transform="scale(0.015625)"/>
      <path id="DejaVuSans-6d" d="M 3328 2828 
Q 3544 3216 3844 3400 
Q 4144 3584 4550 3584 
Q 5097 3584 5394 3201 
Q 5691 2819 5691 2113 
L 5691 0 
L 5113 0 
L 5113 2094 
Q 5113 2597 4934 2840 
Q 4756 3084 4391 3084 
Q 3944 3084 3684 2787 
Q 3425 2491 3425 1978 
L 3425 0 
L 2847 0 
L 2847 2094 
Q 2847 2600 2669 2842 
Q 2491 3084 2119 3084 
Q 1678 3084 1418 2786 
Q 1159 2488 1159 1978 
L 1159 0 
L 581 0 
L 581 3500 
L 1159 3500 
L 1159 2956 
Q 1356 3278 1631 3431 
Q 1906 3584 2284 3584 
Q 2666 3584 2933 3390 
Q 3200 3197 3328 2828 
z
" transform="scale(0.015625)"/>
      <path id="DejaVuSans-2c" d="M 750 794 
L 1409 794 
L 1409 256 
L 897 -744 
L 494 -744 
L 750 256 
L 750 794 
z
" transform="scale(0.015625)"/>
      <path id="DejaVuSans-53" d="M 3425 4513 
L 3425 3897 
Q 3066 4069 2747 4153 
Q 2428 4238 2131 4238 
Q 1616 4238 1336 4038 
Q 1056 3838 1056 3469 
Q 1056 3159 1242 3001 
Q 1428 2844 1947 2747 
L 2328 2669 
Q 3034 2534 3370 2195 
Q 3706 1856 3706 1288 
Q 3706 609 3251 259 
Q 2797 -91 1919 -91 
Q 1588 -91 1214 -16 
Q 841 59 441 206 
L 441 856 
Q 825 641 1194 531 
Q 1563 422 1919 422 
Q 2459 422 2753 634 
Q 3047 847 3047 1241 
Q 3047 1584 2836 1778 
Q 2625 1972 2144 2069 
L 1759 2144 
Q 1053 2284 737 2584 
Q 422 2884 422 3419 
Q 422 4038 858 4394 
Q 1294 4750 2059 4750 
Q 2388 4750 2728 4690 
Q 3069 4631 3425 4513 
z
" transform="scale(0.015625)"/>
      <path id="DejaVuSans-43" d="M 4122 4306 
L 4122 3641 
Q 3803 3938 3442 4084 
Q 3081 4231 2675 4231 
Q 1875 4231 1450 3742 
Q 1025 3253 1025 2328 
Q 1025 1406 1450 917 
Q 1875 428 2675 428 
Q 3081 428 3442 575 
Q 3803 722 4122 1019 
L 4122 359 
Q 3791 134 3420 21 
Q 3050 -91 2638 -91 
Q 1578 -91 968 557 
Q 359 1206 359 2328 
Q 359 3453 968 4101 
Q 1578 4750 2638 4750 
Q 3056 4750 3426 4639 
Q 3797 4528 4122 4306 
z
" transform="scale(0.015625)"/>
      <path id="DejaVuSans-41" d="M 2188 4044 
L 1331 1722 
L 3047 1722 
L 2188 4044 
z
M 1831 4666 
L 2547 4666 
L 4325 0 
L 3669 0 
L 3244 1197 
L 1141 1197 
L 716 0 
L 50 0 
L 1831 4666 
z
" transform="scale(0.015625)"/>
      <path id="DejaVuSans-49" d="M 628 4666 
L 1259 4666 
L 1259 0 
L 628 0 
L 628 4666 
z
" transform="scale(0.015625)"/>
      <path id="DejaVuSans-4e" d="M 628 4666 
L 1478 4666 
L 3547 763 
L 3547 4666 
L 4159 4666 
L 4159 0 
L 3309 0 
L 1241 3903 
L 1241 0 
L 628 0 
L 628 4666 
z
" transform="scale(0.015625)"/>
      <path id="DejaVuSans-47" d="M 3809 666 
L 3809 1919 
L 2778 1919 
L 2778 2438 
L 4434 2438 
L 4434 434 
Q 4069 175 3628 42 
Q 3188 -91 2688 -91 
Q 1594 -91 976 548 
Q 359 1188 359 2328 
Q 359 3472 976 4111 
Q 1594 4750 2688 4750 
Q 3144 4750 3555 4637 
Q 3966 4525 4313 4306 
L 4313 3634 
Q 3963 3931 3569 4081 
Q 3175 4231 2741 4231 
Q 1884 4231 1454 3753 
Q 1025 3275 1025 2328 
Q 1025 1384 1454 906 
Q 1884 428 2741 428 
Q 3075 428 3337 486 
Q 3600 544 3809 666 
z
" transform="scale(0.015625)"/>
      <path id="DejaVuSans-6b" d="M 581 4863 
L 1159 4863 
L 1159 1991 
L 2875 3500 
L 3609 3500 
L 1753 1863 
L 3688 0 
L 2938 0 
L 1159 1709 
L 1159 0 
L 581 0 
L 581 4863 
z
" transform="scale(0.015625)"/>
      <path id="DejaVuSans-6c" d="M 603 4863 
L 1178 4863 
L 1178 0 
L 603 0 
L 603 4863 
z
" transform="scale(0.015625)"/>
      <path id="DejaVuSans-3d" d="M 678 2906 
L 4684 2906 
L 4684 2381 
L 678 2381 
L 678 2906 
z
M 678 1631 
L 4684 1631 
L 4684 1100 
L 678 1100 
L 678 1631 
z
" transform="scale(0.015625)"/>
     </defs>
     <use xlink:href="#DejaVuSans-66"/>
     <use xlink:href="#DejaVuSans-6d" transform="translate(35.205078 0)"/>
     <use xlink:href="#DejaVuSans-6e" transform="translate(132.617188 0)"/>
     <use xlink:href="#DejaVuSans-69" transform="translate(195.996094 0)"/>
     <use xlink:href="#DejaVuSans-73" transform="translate(223.779297 0)"/>
     <use xlink:href="#DejaVuSans-74" transform="translate(275.878906 0)"/>
     <use xlink:href="#DejaVuSans-2c" transform="translate(315.087891 0)"/>
     <use xlink:href="#DejaVuSans-20" transform="translate(346.875 0)"/>
     <use xlink:href="#DejaVuSans-53" transform="translate(378.662109 0)"/>
     <use xlink:href="#DejaVuSans-43" transform="translate(442.138672 0)"/>
     <use xlink:href="#DejaVuSans-41" transform="translate(511.962891 0)"/>
     <use xlink:href="#DejaVuSans-4c" transform="translate(580.371094 0)"/>
     <use xlink:href="#DejaVuSans-49" transform="translate(636.083984 0)"/>
     <use xlink:href="#DejaVuSans-4e" transform="translate(665.576172 0)"/>
     <use xlink:href="#DejaVuSans-47" transform="translate(740.380859 0)"/>
     <use xlink:href="#DejaVuSans-20" transform="translate(817.871094 0)"/>
     <use xlink:href="#DejaVuSans-61" transform="translate(849.658203 0)"/>
     <use xlink:href="#DejaVuSans-74" transform="translate(910.9375 0)"/>
     <use xlink:href="#DejaVuSans-74" transform="translate(950.146484 0)"/>
     <use xlink:href="#DejaVuSans-61" transform="translate(989.355469 0)"/>
     <use xlink:href="#DejaVuSans-63" transform="translate(1050.634766 0)"/>
     <use xlink:href="#DejaVuSans-6b" transform="translate(1105.615234 0)"/>
     <use xlink:href="#DejaVuSans-2c" transform="translate(1163.525391 0)"/>
     <use xlink:href="#DejaVuSans-20" transform="translate(1195.3125 0)"/>
     <use xlink:href="#DejaVuSans-63" transform="translate(1227.099609 0)"/>
     <use xlink:href="#DejaVuSans-6c" transform="translate(1282.080078 0)"/>
     <use xlink:href="#DejaVuSans-69" transform="translate(1309.863281 0)"/>
     <use xlink:href="#DejaVuSans-65" transform="translate(1337.646484 0)"/>
     <use xlink:href="#DejaVuSans-6e" transform="translate(1399.169922 0)"/>
     <use xlink:href="#DejaVuSans-74" transform="translate(1462.548828 0)"/>
     <use xlink:href="#DejaVuSans-73" transform="translate(1501.757812 0)"/>
     <use xlink:href="#DejaVuSans-3d" transform="translate(1553.857422 0)"/>
     <use xlink:href="#DejaVuSans-31" transform="translate(1637.646484 0)"/>
     <use xlink:href="#DejaVuSans-30" transform="translate(1701.269531 0)"/>
     <use xlink:href="#DejaVuSans-30" transform="translate(1764.892578 0)"/>
    </g>
   </g>
   <g id="legend_1">
    <g id="patch_7">
     <path d="M 444.24875 228.110625 
L 554.233125 228.110625 
Q 556.233125 228.110625 556.233125 226.110625 
L 556.233125 109.685625 
Q 556.233125 107.685625 554.233125 107.685625 
L 444.24875 107.685625 
Q 442.24875 107.685625 442.24875 109.685625 
L 442.24875 226.110625 
Q 442.24875 228.110625 444.24875 228.110625 
z
" style="fill: #ffffff; opacity: 0.8; stroke: #cccccc; stroke-linejoin: miter"/>
    </g>
    <g id="line2d_25">
     <path d="M 446.24875 115.784063 
L 456.24875 115.784063 
L 466.24875 115.784063 
" style="fill: none; stroke: #1f77b4; stroke-width: 2; stroke-linecap: square"/>
    </g>
    <g id="text_20">
     <!-- Average -->
     <g transform="translate(474.24875 119.284063) scale(0.1 -0.1)">
      <defs>
       <path id="DejaVuSans-76" d="M 191 3500 
L 800 3500 
L 1894 563 
L 2988 3500 
L 3597 3500 
L 2284 0 
L 1503 0 
L 191 3500 
z
" transform="scale(0.015625)"/>
      </defs>
      <use xlink:href="#DejaVuSans-41"/>
      <use xlink:href="#DejaVuSans-76" transform="translate(62.533203 0)"/>
      <use xlink:href="#DejaVuSans-65" transform="translate(121.712891 0)"/>
      <use xlink:href="#DejaVuSans-72" transform="translate(183.236328 0)"/>
      <use xlink:href="#DejaVuSans-61" transform="translate(224.349609 0)"/>
      <use xlink:href="#DejaVuSans-67" transform="translate(285.628906 0)"/>
      <use xlink:href="#DejaVuSans-65" transform="translate(349.105469 0)"/>
     </g>
    </g>
    <g id="line2d_26">
     <path d="M 446.24875 130.462188 
L 456.24875 130.462188 
L 466.24875 130.462188 
" style="fill: none; stroke: #ff7f0e; stroke-width: 2; stroke-linecap: square"/>
    </g>
    <g id="text_21">
     <!-- Clip Median -->
     <g transform="translate(474.24875 133.962188) scale(0.1 -0.1)">
      <defs>
       <path id="DejaVuSans-70" d="M 1159 525 
L 1159 -1331 
L 581 -1331 
L 581 3500 
L 1159 3500 
L 1159 2969 
Q 1341 3281 1617 3432 
Q 1894 3584 2278 3584 
Q 2916 3584 3314 3078 
Q 3713 2572 3713 1747 
Q 3713 922 3314 415 
Q 2916 -91 2278 -91 
Q 1894 -91 1617 61 
Q 1341 213 1159 525 
z
M 3116 1747 
Q 3116 2381 2855 2742 
Q 2594 3103 2138 3103 
Q 1681 3103 1420 2742 
Q 1159 2381 1159 1747 
Q 1159 1113 1420 752 
Q 1681 391 2138 391 
Q 2594 391 2855 752 
Q 3116 1113 3116 1747 
z
" transform="scale(0.015625)"/>
       <path id="DejaVuSans-4d" d="M 628 4666 
L 1569 4666 
L 2759 1491 
L 3956 4666 
L 4897 4666 
L 4897 0 
L 4281 0 
L 4281 4097 
L 3078 897 
L 2444 897 
L 1241 4097 
L 1241 0 
L 628 0 
L 628 4666 
z
" transform="scale(0.015625)"/>
      </defs>
      <use xlink:href="#DejaVuSans-43"/>
      <use xlink:href="#DejaVuSans-6c" transform="translate(69.824219 0)"/>
      <use xlink:href="#DejaVuSans-69" transform="translate(97.607422 0)"/>
      <use xlink:href="#DejaVuSans-70" transform="translate(125.390625 0)"/>
      <use xlink:href="#DejaVuSans-20" transform="translate(188.867188 0)"/>
      <use xlink:href="#DejaVuSans-4d" transform="translate(220.654297 0)"/>
      <use xlink:href="#DejaVuSans-65" transform="translate(306.933594 0)"/>
      <use xlink:href="#DejaVuSans-64" transform="translate(368.457031 0)"/>
      <use xlink:href="#DejaVuSans-69" transform="translate(431.933594 0)"/>
      <use xlink:href="#DejaVuSans-61" transform="translate(459.716797 0)"/>
      <use xlink:href="#DejaVuSans-6e" transform="translate(520.996094 0)"/>
     </g>
    </g>
    <g id="line2d_27">
     <path d="M 446.24875 145.140313 
L 456.24875 145.140313 
L 466.24875 145.140313 
" style="fill: none; stroke: #2ca02c; stroke-width: 2; stroke-linecap: square"/>
    </g>
    <g id="text_22">
     <!-- Cosine Defense -->
     <g transform="translate(474.24875 148.640313) scale(0.1 -0.1)">
      <defs>
       <path id="DejaVuSans-44" d="M 1259 4147 
L 1259 519 
L 2022 519 
Q 2988 519 3436 956 
Q 3884 1394 3884 2338 
Q 3884 3275 3436 3711 
Q 2988 4147 2022 4147 
L 1259 4147 
z
M 628 4666 
L 1925 4666 
Q 3281 4666 3915 4102 
Q 4550 3538 4550 2338 
Q 4550 1131 3912 565 
Q 3275 0 1925 0 
L 628 0 
L 628 4666 
z
" transform="scale(0.015625)"/>
      </defs>
      <use xlink:href="#DejaVuSans-43"/>
      <use xlink:href="#DejaVuSans-6f" transform="translate(69.824219 0)"/>
      <use xlink:href="#DejaVuSans-73" transform="translate(131.005859 0)"/>
      <use xlink:href="#DejaVuSans-69" transform="translate(183.105469 0)"/>
      <use xlink:href="#DejaVuSans-6e" transform="translate(210.888672 0)"/>
      <use xlink:href="#DejaVuSans-65" transform="translate(274.267578 0)"/>
      <use xlink:href="#DejaVuSans-20" transform="translate(335.791016 0)"/>
      <use xlink:href="#DejaVuSans-44" transform="translate(367.578125 0)"/>
      <use xlink:href="#DejaVuSans-65" transform="translate(444.580078 0)"/>
      <use xlink:href="#DejaVuSans-66" transform="translate(506.103516 0)"/>
      <use xlink:href="#DejaVuSans-65" transform="translate(541.308594 0)"/>
      <use xlink:href="#DejaVuSans-6e" transform="translate(602.832031 0)"/>
      <use xlink:href="#DejaVuSans-73" transform="translate(666.210938 0)"/>
      <use xlink:href="#DejaVuSans-65" transform="translate(718.310547 0)"/>
     </g>
    </g>
    <g id="line2d_28">
     <path d="M 446.24875 159.818438 
L 456.24875 159.818438 
L 466.24875 159.818438 
" style="fill: none; stroke: #d62728; stroke-width: 2; stroke-linecap: square"/>
    </g>
    <g id="text_23">
     <!-- DDFed -->
     <g transform="translate(474.24875 163.318438) scale(0.1 -0.1)">
      <use xlink:href="#DejaVuSans-44"/>
      <use xlink:href="#DejaVuSans-44" transform="translate(77.001953 0)"/>
      <use xlink:href="#DejaVuSans-46" transform="translate(154.003906 0)"/>
      <use xlink:href="#DejaVuSans-65" transform="translate(206.023438 0)"/>
      <use xlink:href="#DejaVuSans-64" transform="translate(267.546875 0)"/>
     </g>
    </g>
    <g id="line2d_29">
     <path d="M 446.24875 174.496563 
L 456.24875 174.496563 
L 466.24875 174.496563 
" style="fill: none; stroke: #9467bd; stroke-width: 2; stroke-linecap: square"/>
    </g>
    <g id="text_24">
     <!-- FedAvg -->
     <g transform="translate(474.24875 177.996563) scale(0.1 -0.1)">
      <use xlink:href="#DejaVuSans-46"/>
      <use xlink:href="#DejaVuSans-65" transform="translate(52.019531 0)"/>
      <use xlink:href="#DejaVuSans-64" transform="translate(113.542969 0)"/>
      <use xlink:href="#DejaVuSans-41" transform="translate(177.019531 0)"/>
      <use xlink:href="#DejaVuSans-76" transform="translate(239.552734 0)"/>
      <use xlink:href="#DejaVuSans-67" transform="translate(298.732422 0)"/>
     </g>
    </g>
    <g id="line2d_30">
     <path d="M 446.24875 189.174688 
L 456.24875 189.174688 
L 466.24875 189.174688 
" style="fill: none; stroke: #8c564b; stroke-width: 2; stroke-linecap: square"/>
    </g>
    <g id="text_25">
     <!-- Krum -->
     <g transform="translate(474.24875 192.674688) scale(0.1 -0.1)">
      <defs>
       <path id="DejaVuSans-4b" d="M 628 4666 
L 1259 4666 
L 1259 2694 
L 3353 4666 
L 4166 4666 
L 1850 2491 
L 4331 0 
L 3500 0 
L 1259 2247 
L 1259 0 
L 628 0 
L 628 4666 
z
" transform="scale(0.015625)"/>
      </defs>
      <use xlink:href="#DejaVuSans-4b"/>
      <use xlink:href="#DejaVuSans-72" transform="translate(65.576172 0)"/>
      <use xlink:href="#DejaVuSans-75" transform="translate(106.689453 0)"/>
      <use xlink:href="#DejaVuSans-6d" transform="translate(170.068359 0)"/>
     </g>
    </g>
    <g id="line2d_31">
     <path d="M 446.24875 203.852813 
L 456.24875 203.852813 
L 466.24875 203.852813 
" style="fill: none; stroke: #e377c2; stroke-width: 2; stroke-linecap: square"/>
    </g>
    <g id="text_26">
     <!-- OUR -->
     <g transform="translate(474.24875 207.352813) scale(0.1 -0.1)">
      <defs>
       <path id="DejaVuSans-4f" d="M 2522 4238 
Q 1834 4238 1429 3725 
Q 1025 3213 1025 2328 
Q 1025 1447 1429 934 
Q 1834 422 2522 422 
Q 3209 422 3611 934 
Q 4013 1447 4013 2328 
Q 4013 3213 3611 3725 
Q 3209 4238 2522 4238 
z
M 2522 4750 
Q 3503 4750 4090 4092 
Q 4678 3434 4678 2328 
Q 4678 1225 4090 567 
Q 3503 -91 2522 -91 
Q 1538 -91 948 565 
Q 359 1222 359 2328 
Q 359 3434 948 4092 
Q 1538 4750 2522 4750 
z
" transform="scale(0.015625)"/>
       <path id="DejaVuSans-55" d="M 556 4666 
L 1191 4666 
L 1191 1831 
Q 1191 1081 1462 751 
Q 1734 422 2344 422 
Q 2950 422 3222 751 
Q 3494 1081 3494 1831 
L 3494 4666 
L 4128 4666 
L 4128 1753 
Q 4128 841 3676 375 
Q 3225 -91 2344 -91 
Q 1459 -91 1007 375 
Q 556 841 556 1753 
L 556 4666 
z
" transform="scale(0.015625)"/>
       <path id="DejaVuSans-52" d="M 2841 2188 
Q 3044 2119 3236 1894 
Q 3428 1669 3622 1275 
L 4263 0 
L 3584 0 
L 2988 1197 
Q 2756 1666 2539 1819 
Q 2322 1972 1947 1972 
L 1259 1972 
L 1259 0 
L 628 0 
L 628 4666 
L 2053 4666 
Q 2853 4666 3247 4331 
Q 3641 3997 3641 3322 
Q 3641 2881 3436 2590 
Q 3231 2300 2841 2188 
z
M 1259 4147 
L 1259 2491 
L 2053 2491 
Q 2509 2491 2742 2702 
Q 2975 2913 2975 3322 
Q 2975 3731 2742 3939 
Q 2509 4147 2053 4147 
L 1259 4147 
z
" transform="scale(0.015625)"/>
      </defs>
      <use xlink:href="#DejaVuSans-4f"/>
      <use xlink:href="#DejaVuSans-55" transform="translate(78.710938 0)"/>
      <use xlink:href="#DejaVuSans-52" transform="translate(151.904297 0)"/>
     </g>
    </g>
    <g id="line2d_32">
     <path d="M 446.24875 218.530938 
L 456.24875 218.530938 
L 466.24875 218.530938 
" style="fill: none; stroke: #7f7f7f; stroke-width: 2; stroke-linecap: square"/>
    </g>
    <g id="text_27">
     <!-- Trimmed Mean -->
     <g transform="translate(474.24875 222.030938) scale(0.1 -0.1)">
      <defs>
       <path id="DejaVuSans-54" d="M -19 4666 
L 3928 4666 
L 3928 4134 
L 2272 4134 
L 2272 0 
L 1638 0 
L 1638 4134 
L -19 4134 
L -19 4666 
z
" transform="scale(0.015625)"/>
      </defs>
      <use xlink:href="#DejaVuSans-54"/>
      <use xlink:href="#DejaVuSans-72" transform="translate(46.333984 0)"/>
      <use xlink:href="#DejaVuSans-69" transform="translate(87.447266 0)"/>
      <use xlink:href="#DejaVuSans-6d" transform="translate(115.230469 0)"/>
      <use xlink:href="#DejaVuSans-6d" transform="translate(212.642578 0)"/>
      <use xlink:href="#DejaVuSans-65" transform="translate(310.054688 0)"/>
      <use xlink:href="#DejaVuSans-64" transform="translate(371.578125 0)"/>
      <use xlink:href="#DejaVuSans-20" transform="translate(435.054688 0)"/>
      <use xlink:href="#DejaVuSans-4d" transform="translate(466.841797 0)"/>
      <use xlink:href="#DejaVuSans-65" transform="translate(553.121094 0)"/>
      <use xlink:href="#DejaVuSans-61" transform="translate(614.644531 0)"/>
      <use xlink:href="#DejaVuSans-6e" transform="translate(675.923828 0)"/>
     </g>
    </g>
   </g>
  </g>
 </g>
 <defs>
  <clipPath id="pa2867da7a0">
   <rect x="40.603125" y="22.318125" width="520.63" height="291.16"/>
  </clipPath>
 </defs>
</svg>
