<?xml version="1.0" encoding="utf-8" standalone="no"?>
<!DOCTYPE svg PUBLIC "-//W3C//DTD SVG 1.1//EN"
  "http://www.w3.org/Graphics/SVG/1.1/DTD/svg11.dtd">
<svg xmlns:xlink="http://www.w3.org/1999/xlink" width="568.433125pt" height="351.034375pt" viewBox="0 0 568.433125 351.034375" xmlns="http://www.w3.org/2000/svg" version="1.1">
 <metadata>
  <rdf:RDF xmlns:dc="http://purl.org/dc/elements/1.1/" xmlns:cc="http://creativecommons.org/ns#" xmlns:rdf="http://www.w3.org/1999/02/22-rdf-syntax-ns#">
   <cc:Work>
    <dc:type rdf:resource="http://purl.org/dc/dcmitype/StillImage"/>
    <dc:date>2025-09-01T22:00:03.574532</dc:date>
    <dc:format>image/svg+xml</dc:format>
    <dc:creator>
     <cc:Agent>
      <dc:title>Matplotlib v3.10.3, https://matplotlib.org/</dc:title>
     </cc:Agent>
    </dc:creator>
   </cc:Work>
  </rdf:RDF>
 </metadata>
 <defs>
  <style type="text/css">*{stroke-linejoin: round; stroke-linecap: butt}</style>
 </defs>
 <g id="figure_1">
  <g id="patch_1">
   <path d="M 0 351.034375 
L 568.433125 351.034375 
L 568.433125 0 
L 0 0 
z
" style="fill: #ffffff"/>
  </g>
  <g id="axes_1">
   <g id="patch_2">
    <path d="M 40.603125 313.478125 
L 561.233125 313.478125 
L 561.233125 22.318125 
L 40.603125 22.318125 
z
" style="fill: #ffffff"/>
   </g>
   <g id="matplotlib.axis_1">
    <g id="xtick_1">
     <g id="line2d_1">
      <defs>
       <path id="m0bb3d82039" d="M 0 0 
L 0 3.5 
" style="stroke: #000000; stroke-width: 0.8"/>
      </defs>
      <g>
       <use xlink:href="#m0bb3d82039" x="64.268125" y="313.478125" style="stroke: #000000; stroke-width: 0.8"/>
      </g>
     </g>
     <g id="text_1">
      <!-- 0 -->
      <g transform="translate(61.086875 328.076563) scale(0.1 -0.1)">
       <defs>
        <path id="DejaVuSans-30" d="M 2034 4250 
Q 1547 4250 1301 3770 
Q 1056 3291 1056 2328 
Q 1056 1369 1301 889 
Q 1547 409 2034 409 
Q 2525 409 2770 889 
Q 3016 1369 3016 2328 
Q 3016 3291 2770 3770 
Q 2525 4250 2034 4250 
z
M 2034 4750 
Q 2819 4750 3233 4129 
Q 3647 3509 3647 2328 
Q 3647 1150 3233 529 
Q 2819 -91 2034 -91 
Q 1250 -91 836 529 
Q 422 1150 422 2328 
Q 422 3509 836 4129 
Q 1250 4750 2034 4750 
z
" transform="scale(0.015625)"/>
       </defs>
       <use xlink:href="#DejaVuSans-30"/>
      </g>
     </g>
    </g>
    <g id="xtick_2">
     <g id="line2d_2">
      <g>
       <use xlink:href="#m0bb3d82039" x="127.798326" y="313.478125" style="stroke: #000000; stroke-width: 0.8"/>
      </g>
     </g>
     <g id="text_2">
      <!-- 20 -->
      <g transform="translate(121.435826 328.076563) scale(0.1 -0.1)">
       <defs>
        <path id="DejaVuSans-32" d="M 1228 531 
L 3431 531 
L 3431 0 
L 469 0 
L 469 531 
Q 828 903 1448 1529 
Q 2069 2156 2228 2338 
Q 2531 2678 2651 2914 
Q 2772 3150 2772 3378 
Q 2772 3750 2511 3984 
Q 2250 4219 1831 4219 
Q 1534 4219 1204 4116 
Q 875 4013 500 3803 
L 500 4441 
Q 881 4594 1212 4672 
Q 1544 4750 1819 4750 
Q 2544 4750 2975 4387 
Q 3406 4025 3406 3419 
Q 3406 3131 3298 2873 
Q 3191 2616 2906 2266 
Q 2828 2175 2409 1742 
Q 1991 1309 1228 531 
z
" transform="scale(0.015625)"/>
       </defs>
       <use xlink:href="#DejaVuSans-32"/>
       <use xlink:href="#DejaVuSans-30" transform="translate(63.623047 0)"/>
      </g>
     </g>
    </g>
    <g id="xtick_3">
     <g id="line2d_3">
      <g>
       <use xlink:href="#m0bb3d82039" x="191.328528" y="313.478125" style="stroke: #000000; stroke-width: 0.8"/>
      </g>
     </g>
     <g id="text_3">
      <!-- 40 -->
      <g transform="translate(184.966028 328.076563) scale(0.1 -0.1)">
       <defs>
        <path id="DejaVuSans-34" d="M 2419 4116 
L 825 1625 
L 2419 1625 
L 2419 4116 
z
M 2253 4666 
L 3047 4666 
L 3047 1625 
L 3713 1625 
L 3713 1100 
L 3047 1100 
L 3047 0 
L 2419 0 
L 2419 1100 
L 313 1100 
L 313 1709 
L 2253 4666 
z
" transform="scale(0.015625)"/>
       </defs>
       <use xlink:href="#DejaVuSans-34"/>
       <use xlink:href="#DejaVuSans-30" transform="translate(63.623047 0)"/>
      </g>
     </g>
    </g>
    <g id="xtick_4">
     <g id="line2d_4">
      <g>
       <use xlink:href="#m0bb3d82039" x="254.858729" y="313.478125" style="stroke: #000000; stroke-width: 0.8"/>
      </g>
     </g>
     <g id="text_4">
      <!-- 60 -->
      <g transform="translate(248.496229 328.076563) scale(0.1 -0.1)">
       <defs>
        <path id="DejaVuSans-36" d="M 2113 2584 
Q 1688 2584 1439 2293 
Q 1191 2003 1191 1497 
Q 1191 994 1439 701 
Q 1688 409 2113 409 
Q 2538 409 2786 701 
Q 3034 994 3034 1497 
Q 3034 2003 2786 2293 
Q 2538 2584 2113 2584 
z
M 3366 4563 
L 3366 3988 
Q 3128 4100 2886 4159 
Q 2644 4219 2406 4219 
Q 1781 4219 1451 3797 
Q 1122 3375 1075 2522 
Q 1259 2794 1537 2939 
Q 1816 3084 2150 3084 
Q 2853 3084 3261 2657 
Q 3669 2231 3669 1497 
Q 3669 778 3244 343 
Q 2819 -91 2113 -91 
Q 1303 -91 875 529 
Q 447 1150 447 2328 
Q 447 3434 972 4092 
Q 1497 4750 2381 4750 
Q 2619 4750 2861 4703 
Q 3103 4656 3366 4563 
z
" transform="scale(0.015625)"/>
       </defs>
       <use xlink:href="#DejaVuSans-36"/>
       <use xlink:href="#DejaVuSans-30" transform="translate(63.623047 0)"/>
      </g>
     </g>
    </g>
    <g id="xtick_5">
     <g id="line2d_5">
      <g>
       <use xlink:href="#m0bb3d82039" x="318.38893" y="313.478125" style="stroke: #000000; stroke-width: 0.8"/>
      </g>
     </g>
     <g id="text_5">
      <!-- 80 -->
      <g transform="translate(312.02643 328.076563) scale(0.1 -0.1)">
       <defs>
        <path id="DejaVuSans-38" d="M 2034 2216 
Q 1584 2216 1326 1975 
Q 1069 1734 1069 1313 
Q 1069 891 1326 650 
Q 1584 409 2034 409 
Q 2484 409 2743 651 
Q 3003 894 3003 1313 
Q 3003 1734 2745 1975 
Q 2488 2216 2034 2216 
z
M 1403 2484 
Q 997 2584 770 2862 
Q 544 3141 544 3541 
Q 544 4100 942 4425 
Q 1341 4750 2034 4750 
Q 2731 4750 3128 4425 
Q 3525 4100 3525 3541 
Q 3525 3141 3298 2862 
Q 3072 2584 2669 2484 
Q 3125 2378 3379 2068 
Q 3634 1759 3634 1313 
Q 3634 634 3220 271 
Q 2806 -91 2034 -91 
Q 1263 -91 848 271 
Q 434 634 434 1313 
Q 434 1759 690 2068 
Q 947 2378 1403 2484 
z
M 1172 3481 
Q 1172 3119 1398 2916 
Q 1625 2713 2034 2713 
Q 2441 2713 2670 2916 
Q 2900 3119 2900 3481 
Q 2900 3844 2670 4047 
Q 2441 4250 2034 4250 
Q 1625 4250 1398 4047 
Q 1172 3844 1172 3481 
z
" transform="scale(0.015625)"/>
       </defs>
       <use xlink:href="#DejaVuSans-38"/>
       <use xlink:href="#DejaVuSans-30" transform="translate(63.623047 0)"/>
      </g>
     </g>
    </g>
    <g id="xtick_6">
     <g id="line2d_6">
      <g>
       <use xlink:href="#m0bb3d82039" x="381.919132" y="313.478125" style="stroke: #000000; stroke-width: 0.8"/>
      </g>
     </g>
     <g id="text_6">
      <!-- 100 -->
      <g transform="translate(372.375382 328.076563) scale(0.1 -0.1)">
       <defs>
        <path id="DejaVuSans-31" d="M 794 531 
L 1825 531 
L 1825 4091 
L 703 3866 
L 703 4441 
L 1819 4666 
L 2450 4666 
L 2450 531 
L 3481 531 
L 3481 0 
L 794 0 
L 794 531 
z
" transform="scale(0.015625)"/>
       </defs>
       <use xlink:href="#DejaVuSans-31"/>
       <use xlink:href="#DejaVuSans-30" transform="translate(63.623047 0)"/>
       <use xlink:href="#DejaVuSans-30" transform="translate(127.246094 0)"/>
      </g>
     </g>
    </g>
    <g id="xtick_7">
     <g id="line2d_7">
      <g>
       <use xlink:href="#m0bb3d82039" x="445.449333" y="313.478125" style="stroke: #000000; stroke-width: 0.8"/>
      </g>
     </g>
     <g id="text_7">
      <!-- 120 -->
      <g transform="translate(435.905583 328.076563) scale(0.1 -0.1)">
       <use xlink:href="#DejaVuSans-31"/>
       <use xlink:href="#DejaVuSans-32" transform="translate(63.623047 0)"/>
       <use xlink:href="#DejaVuSans-30" transform="translate(127.246094 0)"/>
      </g>
     </g>
    </g>
    <g id="xtick_8">
     <g id="line2d_8">
      <g>
       <use xlink:href="#m0bb3d82039" x="508.979534" y="313.478125" style="stroke: #000000; stroke-width: 0.8"/>
      </g>
     </g>
     <g id="text_8">
      <!-- 140 -->
      <g transform="translate(499.435784 328.076563) scale(0.1 -0.1)">
       <use xlink:href="#DejaVuSans-31"/>
       <use xlink:href="#DejaVuSans-34" transform="translate(63.623047 0)"/>
       <use xlink:href="#DejaVuSans-30" transform="translate(127.246094 0)"/>
      </g>
     </g>
    </g>
    <g id="text_9">
     <!-- FL training round -->
     <g transform="translate(258.194688 341.754687) scale(0.1 -0.1)">
      <defs>
       <path id="DejaVuSans-46" d="M 628 4666 
L 3309 4666 
L 3309 4134 
L 1259 4134 
L 1259 2759 
L 3109 2759 
L 3109 2228 
L 1259 2228 
L 1259 0 
L 628 0 
L 628 4666 
z
" transform="scale(0.015625)"/>
       <path id="DejaVuSans-4c" d="M 628 4666 
L 1259 4666 
L 1259 531 
L 3531 531 
L 3531 0 
L 628 0 
L 628 4666 
z
" transform="scale(0.015625)"/>
       <path id="DejaVuSans-20" transform="scale(0.015625)"/>
       <path id="DejaVuSans-74" d="M 1172 4494 
L 1172 3500 
L 2356 3500 
L 2356 3053 
L 1172 3053 
L 1172 1153 
Q 1172 725 1289 603 
Q 1406 481 1766 481 
L 2356 481 
L 2356 0 
L 1766 0 
Q 1100 0 847 248 
Q 594 497 594 1153 
L 594 3053 
L 172 3053 
L 172 3500 
L 594 3500 
L 594 4494 
L 1172 4494 
z
" transform="scale(0.015625)"/>
       <path id="DejaVuSans-72" d="M 2631 2963 
Q 2534 3019 2420 3045 
Q 2306 3072 2169 3072 
Q 1681 3072 1420 2755 
Q 1159 2438 1159 1844 
L 1159 0 
L 581 0 
L 581 3500 
L 1159 3500 
L 1159 2956 
Q 1341 3275 1631 3429 
Q 1922 3584 2338 3584 
Q 2397 3584 2469 3576 
Q 2541 3569 2628 3553 
L 2631 2963 
z
" transform="scale(0.015625)"/>
       <path id="DejaVuSans-61" d="M 2194 1759 
Q 1497 1759 1228 1600 
Q 959 1441 959 1056 
Q 959 750 1161 570 
Q 1363 391 1709 391 
Q 2188 391 2477 730 
Q 2766 1069 2766 1631 
L 2766 1759 
L 2194 1759 
z
M 3341 1997 
L 3341 0 
L 2766 0 
L 2766 531 
Q 2569 213 2275 61 
Q 1981 -91 1556 -91 
Q 1019 -91 701 211 
Q 384 513 384 1019 
Q 384 1609 779 1909 
Q 1175 2209 1959 2209 
L 2766 2209 
L 2766 2266 
Q 2766 2663 2505 2880 
Q 2244 3097 1772 3097 
Q 1472 3097 1187 3025 
Q 903 2953 641 2809 
L 641 3341 
Q 956 3463 1253 3523 
Q 1550 3584 1831 3584 
Q 2591 3584 2966 3190 
Q 3341 2797 3341 1997 
z
" transform="scale(0.015625)"/>
       <path id="DejaVuSans-69" d="M 603 3500 
L 1178 3500 
L 1178 0 
L 603 0 
L 603 3500 
z
M 603 4863 
L 1178 4863 
L 1178 4134 
L 603 4134 
L 603 4863 
z
" transform="scale(0.015625)"/>
       <path id="DejaVuSans-6e" d="M 3513 2113 
L 3513 0 
L 2938 0 
L 2938 2094 
Q 2938 2591 2744 2837 
Q 2550 3084 2163 3084 
Q 1697 3084 1428 2787 
Q 1159 2491 1159 1978 
L 1159 0 
L 581 0 
L 581 3500 
L 1159 3500 
L 1159 2956 
Q 1366 3272 1645 3428 
Q 1925 3584 2291 3584 
Q 2894 3584 3203 3211 
Q 3513 2838 3513 2113 
z
" transform="scale(0.015625)"/>
       <path id="DejaVuSans-67" d="M 2906 1791 
Q 2906 2416 2648 2759 
Q 2391 3103 1925 3103 
Q 1463 3103 1205 2759 
Q 947 2416 947 1791 
Q 947 1169 1205 825 
Q 1463 481 1925 481 
Q 2391 481 2648 825 
Q 2906 1169 2906 1791 
z
M 3481 434 
Q 3481 -459 3084 -895 
Q 2688 -1331 1869 -1331 
Q 1566 -1331 1297 -1286 
Q 1028 -1241 775 -1147 
L 775 -588 
Q 1028 -725 1275 -790 
Q 1522 -856 1778 -856 
Q 2344 -856 2625 -561 
Q 2906 -266 2906 331 
L 2906 616 
Q 2728 306 2450 153 
Q 2172 0 1784 0 
Q 1141 0 747 490 
Q 353 981 353 1791 
Q 353 2603 747 3093 
Q 1141 3584 1784 3584 
Q 2172 3584 2450 3431 
Q 2728 3278 2906 2969 
L 2906 3500 
L 3481 3500 
L 3481 434 
z
" transform="scale(0.015625)"/>
       <path id="DejaVuSans-6f" d="M 1959 3097 
Q 1497 3097 1228 2736 
Q 959 2375 959 1747 
Q 959 1119 1226 758 
Q 1494 397 1959 397 
Q 2419 397 2687 759 
Q 2956 1122 2956 1747 
Q 2956 2369 2687 2733 
Q 2419 3097 1959 3097 
z
M 1959 3584 
Q 2709 3584 3137 3096 
Q 3566 2609 3566 1747 
Q 3566 888 3137 398 
Q 2709 -91 1959 -91 
Q 1206 -91 779 398 
Q 353 888 353 1747 
Q 353 2609 779 3096 
Q 1206 3584 1959 3584 
z
" transform="scale(0.015625)"/>
       <path id="DejaVuSans-75" d="M 544 1381 
L 544 3500 
L 1119 3500 
L 1119 1403 
Q 1119 906 1312 657 
Q 1506 409 1894 409 
Q 2359 409 2629 706 
Q 2900 1003 2900 1516 
L 2900 3500 
L 3475 3500 
L 3475 0 
L 2900 0 
L 2900 538 
Q 2691 219 2414 64 
Q 2138 -91 1772 -91 
Q 1169 -91 856 284 
Q 544 659 544 1381 
z
M 1991 3584 
L 1991 3584 
z
" transform="scale(0.015625)"/>
       <path id="DejaVuSans-64" d="M 2906 2969 
L 2906 4863 
L 3481 4863 
L 3481 0 
L 2906 0 
L 2906 525 
Q 2725 213 2448 61 
Q 2172 -91 1784 -91 
Q 1150 -91 751 415 
Q 353 922 353 1747 
Q 353 2572 751 3078 
Q 1150 3584 1784 3584 
Q 2172 3584 2448 3432 
Q 2725 3281 2906 2969 
z
M 947 1747 
Q 947 1113 1208 752 
Q 1469 391 1925 391 
Q 2381 391 2643 752 
Q 2906 1113 2906 1747 
Q 2906 2381 2643 2742 
Q 2381 3103 1925 3103 
Q 1469 3103 1208 2742 
Q 947 2381 947 1747 
z
" transform="scale(0.015625)"/>
      </defs>
      <use xlink:href="#DejaVuSans-46"/>
      <use xlink:href="#DejaVuSans-4c" transform="translate(57.519531 0)"/>
      <use xlink:href="#DejaVuSans-20" transform="translate(113.232422 0)"/>
      <use xlink:href="#DejaVuSans-74" transform="translate(145.019531 0)"/>
      <use xlink:href="#DejaVuSans-72" transform="translate(184.228516 0)"/>
      <use xlink:href="#DejaVuSans-61" transform="translate(225.341797 0)"/>
      <use xlink:href="#DejaVuSans-69" transform="translate(286.621094 0)"/>
      <use xlink:href="#DejaVuSans-6e" transform="translate(314.404297 0)"/>
      <use xlink:href="#DejaVuSans-69" transform="translate(377.783203 0)"/>
      <use xlink:href="#DejaVuSans-6e" transform="translate(405.566406 0)"/>
      <use xlink:href="#DejaVuSans-67" transform="translate(468.945312 0)"/>
      <use xlink:href="#DejaVuSans-20" transform="translate(532.421875 0)"/>
      <use xlink:href="#DejaVuSans-72" transform="translate(564.208984 0)"/>
      <use xlink:href="#DejaVuSans-6f" transform="translate(603.072266 0)"/>
      <use xlink:href="#DejaVuSans-75" transform="translate(664.253906 0)"/>
      <use xlink:href="#DejaVuSans-6e" transform="translate(727.632812 0)"/>
      <use xlink:href="#DejaVuSans-64" transform="translate(791.011719 0)"/>
     </g>
    </g>
   </g>
   <g id="matplotlib.axis_2">
    <g id="ytick_1">
     <g id="line2d_9">
      <defs>
       <path id="m398ea938f9" d="M 0 0 
L -3.5 0 
" style="stroke: #000000; stroke-width: 0.8"/>
      </defs>
      <g>
       <use xlink:href="#m398ea938f9" x="40.603125" y="300.24358" style="stroke: #000000; stroke-width: 0.8"/>
      </g>
     </g>
     <g id="text_10">
      <!-- 10 -->
      <g transform="translate(20.878125 304.042798) scale(0.1 -0.1)">
       <use xlink:href="#DejaVuSans-31"/>
       <use xlink:href="#DejaVuSans-30" transform="translate(63.623047 0)"/>
      </g>
     </g>
    </g>
    <g id="ytick_2">
     <g id="line2d_10">
      <g>
       <use xlink:href="#m398ea938f9" x="40.603125" y="265.774129" style="stroke: #000000; stroke-width: 0.8"/>
      </g>
     </g>
     <g id="text_11">
      <!-- 20 -->
      <g transform="translate(20.878125 269.573348) scale(0.1 -0.1)">
       <use xlink:href="#DejaVuSans-32"/>
       <use xlink:href="#DejaVuSans-30" transform="translate(63.623047 0)"/>
      </g>
     </g>
    </g>
    <g id="ytick_3">
     <g id="line2d_11">
      <g>
       <use xlink:href="#m398ea938f9" x="40.603125" y="231.304679" style="stroke: #000000; stroke-width: 0.8"/>
      </g>
     </g>
     <g id="text_12">
      <!-- 30 -->
      <g transform="translate(20.878125 235.103898) scale(0.1 -0.1)">
       <defs>
        <path id="DejaVuSans-33" d="M 2597 2516 
Q 3050 2419 3304 2112 
Q 3559 1806 3559 1356 
Q 3559 666 3084 287 
Q 2609 -91 1734 -91 
Q 1441 -91 1130 -33 
Q 819 25 488 141 
L 488 750 
Q 750 597 1062 519 
Q 1375 441 1716 441 
Q 2309 441 2620 675 
Q 2931 909 2931 1356 
Q 2931 1769 2642 2001 
Q 2353 2234 1838 2234 
L 1294 2234 
L 1294 2753 
L 1863 2753 
Q 2328 2753 2575 2939 
Q 2822 3125 2822 3475 
Q 2822 3834 2567 4026 
Q 2313 4219 1838 4219 
Q 1578 4219 1281 4162 
Q 984 4106 628 3988 
L 628 4550 
Q 988 4650 1302 4700 
Q 1616 4750 1894 4750 
Q 2613 4750 3031 4423 
Q 3450 4097 3450 3541 
Q 3450 3153 3228 2886 
Q 3006 2619 2597 2516 
z
" transform="scale(0.015625)"/>
       </defs>
       <use xlink:href="#DejaVuSans-33"/>
       <use xlink:href="#DejaVuSans-30" transform="translate(63.623047 0)"/>
      </g>
     </g>
    </g>
    <g id="ytick_4">
     <g id="line2d_12">
      <g>
       <use xlink:href="#m398ea938f9" x="40.603125" y="196.835229" style="stroke: #000000; stroke-width: 0.8"/>
      </g>
     </g>
     <g id="text_13">
      <!-- 40 -->
      <g transform="translate(20.878125 200.634447) scale(0.1 -0.1)">
       <use xlink:href="#DejaVuSans-34"/>
       <use xlink:href="#DejaVuSans-30" transform="translate(63.623047 0)"/>
      </g>
     </g>
    </g>
    <g id="ytick_5">
     <g id="line2d_13">
      <g>
       <use xlink:href="#m398ea938f9" x="40.603125" y="162.365778" style="stroke: #000000; stroke-width: 0.8"/>
      </g>
     </g>
     <g id="text_14">
      <!-- 50 -->
      <g transform="translate(20.878125 166.164997) scale(0.1 -0.1)">
       <defs>
        <path id="DejaVuSans-35" d="M 691 4666 
L 3169 4666 
L 3169 4134 
L 1269 4134 
L 1269 2991 
Q 1406 3038 1543 3061 
Q 1681 3084 1819 3084 
Q 2600 3084 3056 2656 
Q 3513 2228 3513 1497 
Q 3513 744 3044 326 
Q 2575 -91 1722 -91 
Q 1428 -91 1123 -41 
Q 819 9 494 109 
L 494 744 
Q 775 591 1075 516 
Q 1375 441 1709 441 
Q 2250 441 2565 725 
Q 2881 1009 2881 1497 
Q 2881 1984 2565 2268 
Q 2250 2553 1709 2553 
Q 1456 2553 1204 2497 
Q 953 2441 691 2322 
L 691 4666 
z
" transform="scale(0.015625)"/>
       </defs>
       <use xlink:href="#DejaVuSans-35"/>
       <use xlink:href="#DejaVuSans-30" transform="translate(63.623047 0)"/>
      </g>
     </g>
    </g>
    <g id="ytick_6">
     <g id="line2d_14">
      <g>
       <use xlink:href="#m398ea938f9" x="40.603125" y="127.896328" style="stroke: #000000; stroke-width: 0.8"/>
      </g>
     </g>
     <g id="text_15">
      <!-- 60 -->
      <g transform="translate(20.878125 131.695547) scale(0.1 -0.1)">
       <use xlink:href="#DejaVuSans-36"/>
       <use xlink:href="#DejaVuSans-30" transform="translate(63.623047 0)"/>
      </g>
     </g>
    </g>
    <g id="ytick_7">
     <g id="line2d_15">
      <g>
       <use xlink:href="#m398ea938f9" x="40.603125" y="93.426878" style="stroke: #000000; stroke-width: 0.8"/>
      </g>
     </g>
     <g id="text_16">
      <!-- 70 -->
      <g transform="translate(20.878125 97.226096) scale(0.1 -0.1)">
       <defs>
        <path id="DejaVuSans-37" d="M 525 4666 
L 3525 4666 
L 3525 4397 
L 1831 0 
L 1172 0 
L 2766 4134 
L 525 4134 
L 525 4666 
z
" transform="scale(0.015625)"/>
       </defs>
       <use xlink:href="#DejaVuSans-37"/>
       <use xlink:href="#DejaVuSans-30" transform="translate(63.623047 0)"/>
      </g>
     </g>
    </g>
    <g id="ytick_8">
     <g id="line2d_16">
      <g>
       <use xlink:href="#m398ea938f9" x="40.603125" y="58.957427" style="stroke: #000000; stroke-width: 0.8"/>
      </g>
     </g>
     <g id="text_17">
      <!-- 80 -->
      <g transform="translate(20.878125 62.756646) scale(0.1 -0.1)">
       <use xlink:href="#DejaVuSans-38"/>
       <use xlink:href="#DejaVuSans-30" transform="translate(63.623047 0)"/>
      </g>
     </g>
    </g>
    <g id="ytick_9">
     <g id="line2d_17">
      <g>
       <use xlink:href="#m398ea938f9" x="40.603125" y="24.487977" style="stroke: #000000; stroke-width: 0.8"/>
      </g>
     </g>
     <g id="text_18">
      <!-- 90 -->
      <g transform="translate(20.878125 28.287196) scale(0.1 -0.1)">
       <defs>
        <path id="DejaVuSans-39" d="M 703 97 
L 703 672 
Q 941 559 1184 500 
Q 1428 441 1663 441 
Q 2288 441 2617 861 
Q 2947 1281 2994 2138 
Q 2813 1869 2534 1725 
Q 2256 1581 1919 1581 
Q 1219 1581 811 2004 
Q 403 2428 403 3163 
Q 403 3881 828 4315 
Q 1253 4750 1959 4750 
Q 2769 4750 3195 4129 
Q 3622 3509 3622 2328 
Q 3622 1225 3098 567 
Q 2575 -91 1691 -91 
Q 1453 -91 1209 -44 
Q 966 3 703 97 
z
M 1959 2075 
Q 2384 2075 2632 2365 
Q 2881 2656 2881 3163 
Q 2881 3666 2632 3958 
Q 2384 4250 1959 4250 
Q 1534 4250 1286 3958 
Q 1038 3666 1038 3163 
Q 1038 2656 1286 2365 
Q 1534 2075 1959 2075 
z
" transform="scale(0.015625)"/>
       </defs>
       <use xlink:href="#DejaVuSans-39"/>
       <use xlink:href="#DejaVuSans-30" transform="translate(63.623047 0)"/>
      </g>
     </g>
    </g>
    <g id="text_19">
     <!-- test accuracy (%) -->
     <g transform="translate(14.798438 211.889531) rotate(-90) scale(0.1 -0.1)">
      <defs>
       <path id="DejaVuSans-65" d="M 3597 1894 
L 3597 1613 
L 953 1613 
Q 991 1019 1311 708 
Q 1631 397 2203 397 
Q 2534 397 2845 478 
Q 3156 559 3463 722 
L 3463 178 
Q 3153 47 2828 -22 
Q 2503 -91 2169 -91 
Q 1331 -91 842 396 
Q 353 884 353 1716 
Q 353 2575 817 3079 
Q 1281 3584 2069 3584 
Q 2775 3584 3186 3129 
Q 3597 2675 3597 1894 
z
M 3022 2063 
Q 3016 2534 2758 2815 
Q 2500 3097 2075 3097 
Q 1594 3097 1305 2825 
Q 1016 2553 972 2059 
L 3022 2063 
z
" transform="scale(0.015625)"/>
       <path id="DejaVuSans-73" d="M 2834 3397 
L 2834 2853 
Q 2591 2978 2328 3040 
Q 2066 3103 1784 3103 
Q 1356 3103 1142 2972 
Q 928 2841 928 2578 
Q 928 2378 1081 2264 
Q 1234 2150 1697 2047 
L 1894 2003 
Q 2506 1872 2764 1633 
Q 3022 1394 3022 966 
Q 3022 478 2636 193 
Q 2250 -91 1575 -91 
Q 1294 -91 989 -36 
Q 684 19 347 128 
L 347 722 
Q 666 556 975 473 
Q 1284 391 1588 391 
Q 1994 391 2212 530 
Q 2431 669 2431 922 
Q 2431 1156 2273 1281 
Q 2116 1406 1581 1522 
L 1381 1569 
Q 847 1681 609 1914 
Q 372 2147 372 2553 
Q 372 3047 722 3315 
Q 1072 3584 1716 3584 
Q 2034 3584 2315 3537 
Q 2597 3491 2834 3397 
z
" transform="scale(0.015625)"/>
       <path id="DejaVuSans-63" d="M 3122 3366 
L 3122 2828 
Q 2878 2963 2633 3030 
Q 2388 3097 2138 3097 
Q 1578 3097 1268 2742 
Q 959 2388 959 1747 
Q 959 1106 1268 751 
Q 1578 397 2138 397 
Q 2388 397 2633 464 
Q 2878 531 3122 666 
L 3122 134 
Q 2881 22 2623 -34 
Q 2366 -91 2075 -91 
Q 1284 -91 818 406 
Q 353 903 353 1747 
Q 353 2603 823 3093 
Q 1294 3584 2113 3584 
Q 2378 3584 2631 3529 
Q 2884 3475 3122 3366 
z
" transform="scale(0.015625)"/>
       <path id="DejaVuSans-79" d="M 2059 -325 
Q 1816 -950 1584 -1140 
Q 1353 -1331 966 -1331 
L 506 -1331 
L 506 -850 
L 844 -850 
Q 1081 -850 1212 -737 
Q 1344 -625 1503 -206 
L 1606 56 
L 191 3500 
L 800 3500 
L 1894 763 
L 2988 3500 
L 3597 3500 
L 2059 -325 
z
" transform="scale(0.015625)"/>
       <path id="DejaVuSans-28" d="M 1984 4856 
Q 1566 4138 1362 3434 
Q 1159 2731 1159 2009 
Q 1159 1288 1364 580 
Q 1569 -128 1984 -844 
L 1484 -844 
Q 1016 -109 783 600 
Q 550 1309 550 2009 
Q 550 2706 781 3412 
Q 1013 4119 1484 4856 
L 1984 4856 
z
" transform="scale(0.015625)"/>
       <path id="DejaVuSans-25" d="M 4653 2053 
Q 4381 2053 4226 1822 
Q 4072 1591 4072 1178 
Q 4072 772 4226 539 
Q 4381 306 4653 306 
Q 4919 306 5073 539 
Q 5228 772 5228 1178 
Q 5228 1588 5073 1820 
Q 4919 2053 4653 2053 
z
M 4653 2450 
Q 5147 2450 5437 2106 
Q 5728 1763 5728 1178 
Q 5728 594 5436 251 
Q 5144 -91 4653 -91 
Q 4153 -91 3862 251 
Q 3572 594 3572 1178 
Q 3572 1766 3864 2108 
Q 4156 2450 4653 2450 
z
M 1428 4353 
Q 1159 4353 1004 4120 
Q 850 3888 850 3481 
Q 850 3069 1003 2837 
Q 1156 2606 1428 2606 
Q 1700 2606 1854 2837 
Q 2009 3069 2009 3481 
Q 2009 3884 1853 4118 
Q 1697 4353 1428 4353 
z
M 4250 4750 
L 4750 4750 
L 1831 -91 
L 1331 -91 
L 4250 4750 
z
M 1428 4750 
Q 1922 4750 2215 4408 
Q 2509 4066 2509 3481 
Q 2509 2891 2217 2550 
Q 1925 2209 1428 2209 
Q 931 2209 642 2551 
Q 353 2894 353 3481 
Q 353 4063 643 4406 
Q 934 4750 1428 4750 
z
" transform="scale(0.015625)"/>
       <path id="DejaVuSans-29" d="M 513 4856 
L 1013 4856 
Q 1481 4119 1714 3412 
Q 1947 2706 1947 2009 
Q 1947 1309 1714 600 
Q 1481 -109 1013 -844 
L 513 -844 
Q 928 -128 1133 580 
Q 1338 1288 1338 2009 
Q 1338 2731 1133 3434 
Q 928 4138 513 4856 
z
" transform="scale(0.015625)"/>
      </defs>
      <use xlink:href="#DejaVuSans-74"/>
      <use xlink:href="#DejaVuSans-65" transform="translate(39.208984 0)"/>
      <use xlink:href="#DejaVuSans-73" transform="translate(100.732422 0)"/>
      <use xlink:href="#DejaVuSans-74" transform="translate(152.832031 0)"/>
      <use xlink:href="#DejaVuSans-20" transform="translate(192.041016 0)"/>
      <use xlink:href="#DejaVuSans-61" transform="translate(223.828125 0)"/>
      <use xlink:href="#DejaVuSans-63" transform="translate(285.107422 0)"/>
      <use xlink:href="#DejaVuSans-63" transform="translate(340.087891 0)"/>
      <use xlink:href="#DejaVuSans-75" transform="translate(395.068359 0)"/>
      <use xlink:href="#DejaVuSans-72" transform="translate(458.447266 0)"/>
      <use xlink:href="#DejaVuSans-61" transform="translate(499.560547 0)"/>
      <use xlink:href="#DejaVuSans-63" transform="translate(560.839844 0)"/>
      <use xlink:href="#DejaVuSans-79" transform="translate(615.820312 0)"/>
      <use xlink:href="#DejaVuSans-20" transform="translate(675 0)"/>
      <use xlink:href="#DejaVuSans-28" transform="translate(706.787109 0)"/>
      <use xlink:href="#DejaVuSans-25" transform="translate(745.800781 0)"/>
      <use xlink:href="#DejaVuSans-29" transform="translate(840.820312 0)"/>
     </g>
    </g>
   </g>
   <g id="line2d_18">
    <path d="M 64.268125 264.981332 
L 67.444635 207.796514 
L 70.621145 146.337484 
L 73.797655 125.621344 
L 76.974165 137.237549 
L 80.150675 127.79292 
L 83.327185 102.871507 
L 86.503695 96.149964 
L 89.680206 95.357167 
L 92.856716 106.869963 
L 96.033226 109.730928 
L 99.209736 112.143789 
L 102.386246 80.569773 
L 105.562756 91.737874 
L 108.739266 97.873437 
L 111.915776 94.219675 
L 115.092286 101.010157 
L 118.268796 72.400513 
L 121.445306 75.985336 
L 124.621816 78.673953 
L 127.798326 125.8971 
L 130.974836 81.638326 
L 134.151346 87.877296 
L 137.327857 85.843598 
L 140.504367 71.745593 
L 143.680877 69.987651 
L 146.857387 63.438456 
L 150.033897 79.914853 
L 153.210407 64.575948 
L 156.386917 69.608487 
L 159.563427 65.610031 
L 162.739937 66.368359 
L 165.916447 57.50971 
L 169.092957 76.33003 
L 172.269467 62.025208 
L 175.445977 62.611189 
L 178.622487 63.059292 
L 181.798997 78.22585 
L 184.975508 57.268424 
L 188.152018 75.778519 
L 191.328528 62.369903 
L 194.505038 56.096463 
L 197.681548 71.469838 
L 200.858058 71.29749 
L 204.034568 61.680514 
L 207.211078 71.711124 
L 210.387588 54.855563 
L 213.564098 61.714983 
L 216.740608 52.718457 
L 219.917118 61.508167 
L 223.093628 82.327715 
L 226.270138 54.097235 
L 229.446648 55.993055 
L 232.623159 53.855949 
L 235.799669 74.847844 
L 238.976179 74.296333 
L 242.152689 62.921414 
L 245.329199 74.330802 
L 248.505709 62.886945 
L 251.682219 62.128617 
L 254.858729 71.435368 
L 258.035239 59.681286 
L 261.211749 78.811831 
L 264.388259 66.506237 
L 267.564769 79.845914 
L 270.741279 61.887331 
L 273.917789 59.922572 
L 277.094299 67.230095 
L 280.27081 55.02791 
L 283.44732 55.924116 
L 289.80034 75.158069 
L 292.97685 59.853633 
L 296.15336 59.922572 
L 299.32987 85.257618 
L 302.50638 55.613891 
L 305.68289 56.820321 
L 308.8594 60.784308 
L 312.03591 58.509324 
L 315.21242 58.061222 
L 318.38893 54.821093 
L 321.56544 56.992669 
L 324.741951 62.921414 
L 327.918461 56.096463 
L 331.094971 53.511254 
L 334.271481 60.749839 
L 337.447991 53.063151 
L 340.624501 70.228937 
L 343.801011 62.955883 
L 346.977521 72.469452 
L 350.154031 67.643729 
L 353.330541 63.403986 
L 356.507051 75.847458 
L 359.683561 66.575176 
L 362.860071 67.643729 
L 366.036581 63.81762 
L 369.213091 60.6809 
L 372.389602 70.918326 
L 375.566112 66.781992 
L 378.742622 75.985336 
L 381.919132 72.124757 
L 385.095642 58.957427 
L 388.272152 70.780449 
L 391.448662 61.818392 
L 394.625172 56.716913 
L 397.801682 60.956655 
L 400.978192 59.198713 
L 404.154702 58.233569 
L 407.331212 58.578263 
L 410.507722 55.993055 
L 413.684232 67.264565 
L 416.860742 61.680514 
L 420.037253 56.682444 
L 423.213763 60.611961 
L 426.390273 62.818006 
L 429.566783 60.405144 
L 432.743293 70.745979 
L 435.919803 66.644115 
L 439.096313 64.575948 
L 442.272823 59.336591 
L 445.449333 55.958585 
L 448.625843 59.784694 
L 451.802353 58.199099 
L 458.155373 59.164244 
L 461.331883 73.262249 
L 464.508393 61.749453 
L 467.684904 54.37299 
L 470.861414 62.335433 
L 474.037924 71.469838 
L 477.214434 61.060064 
L 480.390944 60.543022 
L 483.567454 53.063151 
L 486.743964 62.852475 
L 489.920474 63.852089 
L 493.096984 59.715755 
L 496.273494 60.267266 
L 499.450004 56.716913 
L 502.626514 60.6809 
L 505.803024 54.235113 
L 508.979534 59.888102 
L 512.156044 61.818392 
L 515.332555 69.746365 
L 518.509065 58.819549 
L 521.685575 54.786624 
L 524.862085 56.785852 
L 528.038595 54.890032 
L 531.215105 54.269582 
L 534.391615 53.235498 
L 537.568125 56.510096 
L 537.568125 56.510096 
" clip-path="url(#p8cd2f3422f)" style="fill: none; stroke: #1f77b4; stroke-width: 2; stroke-linecap: square"/>
   </g>
   <g id="line2d_19">
    <path d="M 64.268125 300.24358 
L 67.444635 245.747379 
L 70.621145 253.503005 
L 73.797655 154.920377 
L 76.974165 204.763202 
L 80.150675 158.229444 
L 83.327185 175.636517 
L 86.503695 137.961407 
L 89.680206 125.207711 
L 92.856716 147.750731 
L 96.033226 141.132597 
L 99.209736 147.19922 
L 102.386246 127.827389 
L 105.562756 121.416071 
L 108.739266 153.645007 
L 111.915776 135.203851 
L 115.092286 113.936201 
L 118.268796 111.661217 
L 121.445306 146.371953 
L 124.621816 137.513305 
L 127.798326 93.461347 
L 130.974836 115.521795 
L 134.151346 107.111249 
L 137.327857 130.136842 
L 140.504367 124.897486 
L 143.680877 102.147648 
L 146.857387 109.007069 
L 150.033897 111.557808 
L 153.210407 99.769256 
L 156.386917 93.25453 
L 159.563427 101.837423 
L 162.739937 91.599997 
L 165.916447 97.66662 
L 169.092957 95.598453 
L 172.269467 103.388549 
L 175.445977 89.704177 
L 178.622487 84.49929 
L 181.798997 86.705335 
L 184.975508 95.529514 
L 188.152018 87.153438 
L 191.328528 90.359096 
L 194.505038 77.398583 
L 197.681548 85.912537 
L 200.858058 86.39511 
L 204.034568 83.327329 
L 207.211078 124.518322 
L 210.387588 91.427649 
L 213.564098 88.463277 
L 216.740608 93.013244 
L 219.917118 93.082183 
L 223.093628 95.80527 
L 226.270138 88.325399 
L 229.446648 96.081025 
L 232.623159 80.604242 
L 235.799669 90.048871 
L 238.976179 88.084113 
L 242.152689 89.118196 
L 245.329199 79.122056 
L 248.505709 94.805656 
L 251.682219 99.665848 
L 254.858729 76.95048 
L 258.035239 76.123213 
L 261.211749 91.324241 
L 264.388259 79.294403 
L 267.564769 78.191381 
L 270.741279 82.155367 
L 273.917789 90.393566 
L 277.094299 84.120126 
L 280.27081 73.744821 
L 283.44732 79.776975 
L 286.62383 72.60733 
L 289.80034 76.33003 
L 292.97685 80.948937 
L 296.15336 85.77466 
L 299.32987 92.978775 
L 302.50638 74.951252 
L 305.68289 98.873051 
L 308.8594 92.771958 
L 312.03591 81.36257 
L 315.21242 82.982634 
L 318.38893 78.019033 
L 321.56544 78.087972 
L 324.741951 80.845528 
L 327.918461 86.291701 
L 331.094971 80.776589 
L 334.271481 77.501992 
L 337.447991 74.744435 
L 340.624501 67.264565 
L 343.801011 81.121284 
L 346.977521 81.603856 
L 350.154031 72.297105 
L 353.330541 76.743664 
L 356.507051 82.224306 
L 359.683561 94.805656 
L 362.860071 77.846686 
L 366.036581 74.46868 
L 369.213091 75.330416 
L 372.389602 71.745593 
L 375.566112 99.459031 
L 378.742622 84.189065 
L 381.919132 77.433053 
L 385.095642 71.573246 
L 388.272152 78.087972 
L 391.448662 76.881541 
L 394.625172 75.847458 
L 397.801682 75.020191 
L 400.978192 78.605014 
L 404.154702 72.676268 
L 407.331212 73.434596 
L 410.507722 65.610031 
L 413.684232 69.746365 
L 416.860742 94.598839 
L 420.037253 81.948551 
L 423.213763 62.714597 
L 426.390273 83.568615 
L 429.566783 59.957041 
L 432.743293 68.677812 
L 435.919803 69.815304 
L 439.096313 81.052345 
L 442.272823 64.610417 
L 445.449333 73.710352 
L 448.625843 68.574404 
L 451.802353 76.019805 
L 454.978863 68.126301 
L 458.155373 79.432281 
L 461.331883 67.161156 
L 464.508393 64.472539 
L 467.684904 81.293631 
L 470.861414 75.054661 
L 474.037924 68.298648 
L 477.214434 85.636782 
L 480.390944 67.299034 
L 483.567454 82.982634 
L 486.743964 77.743278 
L 489.920474 59.233183 
L 493.096984 75.054661 
L 496.273494 71.469838 
L 499.450004 83.947779 
L 502.626514 62.955883 
L 505.803024 67.057748 
L 508.979534 83.361798 
L 512.156044 73.020963 
L 515.332555 75.261477 
L 518.509065 73.81376 
L 521.685575 70.401285 
L 524.862085 77.846686 
L 528.038595 69.711896 
L 531.215105 70.67704 
L 534.391615 71.159613 
L 537.568125 87.911766 
L 537.568125 87.911766 
" clip-path="url(#p8cd2f3422f)" style="fill: none; stroke: #ff7f0e; stroke-width: 2; stroke-linecap: square"/>
   </g>
   <g id="line2d_20">
    <path d="M 64.268125 291.695156 
L 67.444635 272.426733 
L 70.621145 206.245388 
L 73.797655 182.599346 
L 76.974165 147.785201 
L 80.150675 155.540827 
L 83.327185 177.566806 
L 86.503695 109.317294 
L 89.680206 119.761538 
L 92.856716 109.834336 
L 96.033226 111.006297 
L 99.209736 110.006683 
L 102.386246 100.872279 
L 105.562756 124.552791 
L 108.739266 104.526041 
L 111.915776 81.914081 
L 115.092286 85.567843 
L 118.268796 80.397425 
L 124.621816 86.739804 
L 127.798326 135.238321 
L 130.974836 103.388549 
L 134.151346 72.710738 
L 137.327857 86.498518 
L 140.504367 78.501606 
L 143.680877 84.981862 
L 146.857387 81.845142 
L 150.033897 79.397811 
L 153.210407 83.809901 
L 156.386917 72.262635 
L 159.563427 78.984178 
L 162.739937 74.020577 
L 165.916447 77.812217 
L 169.092957 73.296719 
L 172.269467 103.629835 
L 175.445977 72.503921 
L 178.622487 83.499676 
L 181.798997 73.951638 
L 184.975508 81.3281 
L 188.152018 69.677426 
L 191.328528 77.639869 
L 194.505038 80.70765 
L 197.681548 61.060064 
L 200.858058 69.263793 
L 204.034568 81.845142 
L 207.211078 71.29749 
L 210.387588 61.542636 
L 213.564098 76.467908 
L 216.740608 77.295175 
L 219.917118 64.334661 
L 223.093628 63.989967 
L 226.270138 63.78315 
L 229.446648 83.499676 
L 232.623159 64.610417 
L 235.799669 59.129774 
L 238.976179 94.874594 
L 242.152689 60.02598 
L 245.329199 61.129003 
L 248.505709 76.33003 
L 251.682219 55.338135 
L 254.858729 67.885015 
L 258.035239 65.644501 
L 261.211749 67.850545 
L 264.388259 61.956269 
L 267.564769 60.336205 
L 270.741279 69.677426 
L 273.917789 97.080639 
L 277.094299 62.128617 
L 280.27081 78.605014 
L 283.44732 59.784694 
L 286.62383 59.095305 
L 289.80034 70.366815 
L 292.97685 52.408232 
L 296.15336 62.921414 
L 299.32987 69.711896 
L 302.50638 54.510868 
L 305.68289 50.477942 
L 308.8594 59.612347 
L 312.03591 51.960129 
L 315.21242 48.340837 
L 318.38893 48.409775 
L 324.741951 80.466364 
L 327.918461 51.23627 
L 331.094971 64.817234 
L 334.271481 49.064695 
L 337.447991 103.457488 
L 340.624501 55.372604 
L 343.801011 91.910222 
L 346.977521 55.855177 
L 350.154031 53.924887 
L 353.330541 64.748295 
L 356.507051 54.37299 
L 359.683561 63.921028 
L 362.860071 88.428807 
L 366.036581 58.13016 
L 369.213091 47.341222 
L 372.389602 43.515113 
L 375.566112 45.066239 
L 378.742622 60.853247 
L 381.919132 66.781992 
L 385.095642 60.474083 
L 388.272152 43.549583 
L 391.448662 41.24013 
L 394.625172 41.895049 
L 397.801682 42.894663 
L 400.978192 46.376078 
L 404.154702 61.30135 
L 407.331212 48.375306 
L 410.507722 49.823023 
L 413.684232 48.857878 
L 416.860742 42.032927 
L 420.037253 47.823795 
L 423.213763 50.960515 
L 426.390273 46.410547 
L 429.566783 104.56051 
L 432.743293 44.204502 
L 435.919803 58.233569 
L 439.096313 54.304051 
L 442.272823 42.860194 
L 445.449333 44.238972 
L 448.625843 44.135564 
L 451.802353 53.373376 
L 454.978863 90.876138 
L 458.155373 53.718071 
L 461.331883 39.482188 
L 464.508393 84.981862 
L 467.684904 42.894663 
L 474.037924 40.481802 
L 477.214434 46.720772 
L 480.390944 48.616592 
L 486.743964 65.506623 
L 489.920474 43.687461 
L 493.096984 62.818006 
L 496.273494 60.370675 
L 499.450004 39.792413 
L 502.626514 39.516657 
L 505.803024 43.204888 
L 508.979534 41.24013 
L 512.156044 38.827268 
L 515.332555 42.101866 
L 518.509065 40.068168 
L 521.685575 51.994598 
L 524.862085 44.756014 
L 528.038595 48.409775 
L 531.215105 35.55267 
L 534.391615 47.996142 
L 537.568125 45.548811 
L 537.568125 45.548811 
" clip-path="url(#p8cd2f3422f)" style="fill: none; stroke: #2ca02c; stroke-width: 2; stroke-linecap: square"/>
   </g>
   <g id="line2d_21">
    <path d="M 64.268125 253.020433 
L 67.444635 262.292715 
L 70.621145 208.313556 
L 73.797655 145.648095 
L 76.974165 192.147383 
L 80.150675 198.179537 
L 83.327185 222.204744 
L 86.503695 206.107511 
L 89.680206 146.440892 
L 92.856716 165.468029 
L 96.033226 153.576068 
L 99.209736 128.172083 
L 102.386246 126.034978 
L 105.562756 142.028803 
L 108.739266 91.048485 
L 111.915776 111.799095 
L 115.092286 112.764239 
L 118.268796 148.060956 
L 121.445306 119.037679 
L 124.621816 138.340571 
L 127.798326 100.18289 
L 130.974836 99.631379 
L 134.151346 103.388549 
L 137.327857 129.930025 
L 140.504367 97.528742 
L 143.680877 79.742506 
L 146.857387 72.779677 
L 150.033897 99.976073 
L 153.210407 108.593436 
L 156.386917 94.426492 
L 159.563427 84.326943 
L 162.739937 72.641799 
L 165.916447 83.84437 
L 169.092957 88.325399 
L 172.269467 104.629449 
L 175.445977 65.368745 
L 178.622487 78.432667 
L 184.975508 109.386233 
L 188.152018 81.190223 
L 191.328528 69.298262 
L 194.505038 99.631379 
L 197.681548 72.124757 
L 200.858058 66.29942 
L 204.034568 88.118582 
L 207.211078 73.19331 
L 210.387588 73.951638 
L 213.564098 93.392408 
L 216.740608 84.223534 
L 219.917118 95.012472 
L 223.093628 75.295947 
L 226.270138 222.721786 
L 229.446648 135.858771 
L 232.623159 147.612853 
L 235.799669 85.809129 
L 238.976179 100.527584 
L 242.152689 74.951252 
L 245.329199 67.230095 
L 248.505709 179.255809 
L 251.682219 166.950215 
L 254.858729 102.66469 
L 258.035239 111.695686 
L 261.211749 83.154981 
L 264.388259 83.740962 
L 267.564769 82.706879 
L 270.741279 75.640641 
L 273.917789 72.193696 
L 277.094299 85.223148 
L 280.27081 74.261863 
L 283.44732 78.019033 
L 286.62383 75.158069 
L 289.80034 70.159999 
L 292.97685 75.192538 
L 296.15336 103.112793 
L 299.32987 75.468294 
L 302.50638 69.884243 
L 305.68289 63.128231 
L 308.8594 71.469838 
L 312.03591 67.609259 
L 315.21242 67.471381 
L 318.38893 80.879998 
L 321.56544 64.058906 
L 324.741951 69.194854 
L 327.918461 93.047714 
L 331.094971 70.918326 
L 334.271481 66.91987 
L 337.447991 59.474469 
L 340.624501 71.090674 
L 343.801011 67.505851 
L 346.977521 77.501992 
L 350.154031 71.29749 
L 353.330541 62.921414 
L 356.507051 60.198327 
L 359.683561 90.393566 
L 362.860071 70.470224 
L 366.036581 108.455558 
L 369.213091 66.437298 
L 372.389602 63.472925 
L 375.566112 106.732085 
L 378.742622 62.57672 
L 381.919132 61.956269 
L 385.095642 69.815304 
L 388.272152 69.229323 
L 391.448662 68.505465 
L 394.625172 63.714211 
L 397.801682 59.164244 
L 400.978192 64.644887 
L 404.154702 67.54032 
L 407.331212 75.158069 
L 410.507722 60.232797 
L 413.684232 58.509324 
L 416.860742 70.883857 
L 420.037253 60.232797 
L 423.213763 56.30328 
L 426.390273 67.747137 
L 429.566783 70.849388 
L 432.743293 64.472539 
L 435.919803 67.299034 
L 439.096313 57.371833 
L 442.272823 99.390092 
L 445.449333 67.230095 
L 448.625843 63.645272 
L 451.802353 58.716141 
L 454.978863 58.474855 
L 458.155373 56.441157 
L 461.331883 70.194468 
L 464.508393 103.595365 
L 467.684904 58.13016 
L 470.861414 59.40553 
L 474.037924 63.369517 
L 477.214434 49.960901 
L 480.390944 50.512412 
L 483.567454 56.130932 
L 486.743964 54.821093 
L 489.920474 67.092218 
L 493.096984 59.819163 
L 496.273494 85.016332 
L 499.450004 52.373762 
L 502.626514 69.229323 
L 505.803024 64.575948 
L 508.979534 54.097235 
L 512.156044 57.613119 
L 515.332555 53.511254 
L 518.509065 56.751382 
L 521.685575 63.507395 
L 524.862085 62.714597 
L 528.038595 70.642571 
L 531.215105 93.151122 
L 534.391615 55.096849 
L 537.568125 51.718843 
L 537.568125 51.718843 
" clip-path="url(#p8cd2f3422f)" style="fill: none; stroke: #d62728; stroke-width: 2; stroke-linecap: square"/>
   </g>
   <g id="line2d_22">
    <path d="M 64.268125 215.345323 
L 67.444635 140.236391 
L 70.621145 138.581857 
L 73.797655 150.025715 
L 76.974165 155.98893 
L 80.150675 98.735173 
L 83.327185 100.630993 
L 86.503695 96.149964 
L 89.680206 92.117038 
L 92.856716 95.357167 
L 96.033226 95.874209 
L 99.209736 70.125529 
L 102.386246 76.881541 
L 105.562756 99.045398 
L 111.915776 70.297876 
L 115.092286 82.01749 
L 118.268796 66.506237 
L 121.445306 68.264179 
L 124.621816 71.125143 
L 127.798326 82.396653 
L 130.974836 66.885401 
L 134.151346 98.183662 
L 137.327857 65.506623 
L 140.504367 109.868805 
L 143.680877 67.367973 
L 146.857387 84.878454 
L 150.033897 67.333504 
L 153.210407 71.538777 
L 156.386917 70.05659 
L 159.563427 66.644115 
L 162.739937 70.228937 
L 165.916447 58.716141 
L 169.092957 83.051573 
L 172.269467 76.812603 
L 175.445977 71.33196 
L 178.622487 59.095305 
L 181.798997 73.606944 
L 184.975508 87.222377 
L 188.152018 69.574018 
L 191.328528 62.335433 
L 194.505038 86.808743 
L 197.681548 57.888874 
L 200.858058 59.646816 
L 204.034568 58.302508 
L 207.211078 65.920256 
L 210.387588 64.920642 
L 213.564098 61.232411 
L 216.740608 50.374534 
L 219.917118 86.429579 
L 223.093628 53.614662 
L 226.270138 59.371061 
L 229.446648 61.749453 
L 232.623159 58.268038 
L 235.799669 53.338907 
L 238.976179 57.130546 
L 242.152689 57.578649 
L 245.329199 50.02984 
L 248.505709 60.439614 
L 251.682219 64.920642 
L 254.858729 54.545338 
L 258.035239 63.610803 
L 261.211749 82.741348 
L 264.388259 76.502377 
L 267.564769 58.095691 
L 270.741279 54.717685 
L 273.917789 69.918712 
L 277.094299 56.441157 
L 280.27081 57.682058 
L 283.44732 91.462119 
L 286.62383 59.336591 
L 289.80034 74.43421 
L 292.97685 62.818006 
L 296.15336 59.474469 
L 299.32987 72.60733 
L 302.50638 61.232411 
L 305.68289 83.22392 
L 308.8594 54.958971 
L 312.03591 56.88926 
L 315.21242 64.851703 
L 318.38893 76.916011 
L 321.56544 65.02405 
L 324.741951 68.608873 
L 327.918461 75.537233 
L 331.094971 65.02405 
L 334.271481 65.541092 
L 337.447991 66.29942 
L 340.624501 60.094919 
L 343.801011 75.812988 
L 346.977521 76.881541 
L 350.154031 54.614276 
L 353.330541 81.879612 
L 356.507051 51.960129 
L 359.683561 80.466364 
L 362.860071 58.440385 
L 366.036581 76.019805 
L 369.213091 63.852089 
L 372.389602 65.67897 
L 375.566112 64.748295 
L 378.742622 69.160385 
L 381.919132 55.786238 
L 385.095642 52.546109 
L 388.272152 63.921028 
L 391.448662 72.469452 
L 394.625172 75.74405 
L 397.801682 66.91987 
L 400.978192 59.164244 
L 404.154702 65.67897 
L 407.331212 86.636396 
L 410.507722 80.673181 
L 413.684232 62.886945 
L 416.860742 66.264951 
L 420.037253 60.198327 
L 423.213763 74.813374 
L 426.390273 55.269196 
L 429.566783 61.680514 
L 432.743293 64.162314 
L 435.919803 60.784308 
L 439.096313 54.786624 
L 442.272823 61.542636 
L 445.449333 58.578263 
L 448.625843 73.434596 
L 451.802353 55.889646 
L 454.978863 56.441157 
L 458.155373 74.158455 
L 461.331883 72.228166 
L 464.508393 56.199871 
L 467.684904 72.262635 
L 470.861414 59.302122 
L 474.037924 59.40553 
L 477.214434 61.749453 
L 480.390944 63.81762 
L 483.567454 59.164244 
L 486.743964 61.370289 
L 489.920474 61.163472 
L 493.096984 59.060836 
L 496.273494 58.371447 
L 499.450004 77.467522 
L 502.626514 65.437684 
L 505.803024 65.541092 
L 508.979534 71.883471 
L 512.156044 59.095305 
L 515.332555 60.163858 
L 518.509065 59.40553 
L 521.685575 61.508167 
L 524.862085 61.783922 
L 528.038595 53.718071 
L 531.215105 56.061993 
L 534.391615 54.717685 
L 537.568125 77.226236 
L 537.568125 77.226236 
" clip-path="url(#p8cd2f3422f)" style="fill: none; stroke: #9467bd; stroke-width: 2; stroke-linecap: square"/>
   </g>
   <g id="line2d_23">
    <path d="M 64.268125 300.24358 
L 67.444635 277.803967 
L 70.621145 240.232267 
L 73.797655 250.124999 
L 76.974165 238.922427 
L 80.150675 207.003716 
L 83.327185 200.178765 
L 86.503695 234.579277 
L 89.680206 198.420823 
L 92.856716 196.249248 
L 96.033226 227.823264 
L 99.209736 222.032397 
L 102.386246 185.598188 
L 105.562756 200.557929 
L 108.739266 169.638832 
L 111.915776 183.116387 
L 115.092286 169.673302 
L 118.268796 201.040501 
L 121.445306 210.933234 
L 124.621816 208.899536 
L 127.798326 210.588539 
L 130.974836 195.215164 
L 134.151346 186.425455 
L 137.327857 209.485517 
L 140.504367 166.502112 
L 143.680877 178.497481 
L 146.857387 203.591241 
L 150.033897 195.077287 
L 153.210407 149.508673 
L 156.386917 153.713946 
L 159.563427 170.672916 
L 162.739937 166.122948 
L 165.916447 146.613239 
L 169.092957 168.397932 
L 172.269467 196.73182 
L 175.445977 176.119089 
L 178.622487 174.395616 
L 181.798997 199.627254 
L 184.975508 189.148541 
L 188.152018 127.827389 
L 191.328528 140.064044 
L 194.505038 128.103145 
L 197.681548 126.586489 
L 200.858058 119.658129 
L 204.034568 127.655042 
L 207.211078 118.003596 
L 210.387588 123.34636 
L 213.564098 103.767713 
L 216.740608 91.427649 
L 219.917118 123.174013 
L 223.093628 133.618257 
L 226.270138 125.552405 
L 229.446648 81.36257 
L 232.623159 84.189065 
L 235.799669 133.756134 
L 238.976179 144.028031 
L 242.152689 174.947128 
L 245.329199 124.00128 
L 248.505709 123.863402 
L 251.682219 101.630607 
L 254.858729 157.540055 
L 258.035239 110.592664 
L 261.211749 91.462119 
L 264.388259 107.524883 
L 267.564769 118.830862 
L 270.741279 132.067131 
L 273.917789 100.975687 
L 277.094299 88.670093 
L 280.27081 102.285526 
L 283.44732 90.083341 
L 286.62383 109.972214 
L 289.80034 115.418387 
L 292.97685 113.074464 
L 296.15336 113.31575 
L 299.32987 106.249513 
L 302.50638 106.525269 
L 305.68289 93.220061 
L 308.8594 104.56051 
L 312.03591 87.084499 
L 315.21242 85.533373 
L 318.38893 85.188679 
L 321.56544 81.500448 
L 324.741951 76.3645 
L 327.918461 74.330802 
L 331.094971 81.879612 
L 334.271481 101.182504 
L 337.447991 113.039995 
L 340.624501 127.930797 
L 343.801011 110.730542 
L 346.977521 87.842827 
L 350.154031 98.183662 
L 353.330541 101.975301 
L 356.507051 136.375813 
L 359.683561 109.765397 
L 362.860071 85.533373 
L 366.036581 83.87884 
L 369.213091 80.74212 
L 372.389602 91.117424 
L 375.566112 79.673567 
L 378.742622 80.397425 
L 381.919132 71.745593 
L 385.095642 103.974529 
L 388.272152 83.947779 
L 391.448662 81.534917 
L 394.625172 80.052731 
L 397.801682 98.356009 
L 400.978192 112.212728 
L 404.154702 95.012472 
L 407.331212 106.801024 
L 410.507722 134.135298 
L 413.684232 86.429579 
L 416.860742 75.778519 
L 420.037253 94.150736 
L 423.213763 122.070991 
L 426.390273 93.530286 
L 429.566783 86.670865 
L 432.743293 92.737489 
L 435.919803 94.667778 
L 439.096313 112.488484 
L 442.272823 112.281667 
L 445.449333 101.768485 
L 448.625843 83.706493 
L 451.802353 96.149964 
L 454.978863 106.111635 
L 458.155373 82.60347 
L 461.331883 103.629835 
L 464.508393 96.839353 
L 467.684904 96.598067 
L 470.861414 81.190223 
L 474.037924 81.534917 
L 477.214434 97.287456 
L 480.390944 104.388163 
L 483.567454 90.290158 
L 486.743964 79.50122 
L 489.920474 81.672795 
L 493.096984 85.154209 
L 496.273494 75.468294 
L 499.450004 89.256074 
L 502.626514 88.049643 
L 505.803024 74.537619 
L 508.979534 98.252601 
L 512.156044 108.558966 
L 515.332555 84.878454 
L 518.509065 83.327329 
L 521.685575 83.361798 
L 524.862085 120.24411 
L 528.038595 93.633694 
L 531.215105 76.33003 
L 537.568125 63.024822 
L 537.568125 63.024822 
" clip-path="url(#p8cd2f3422f)" style="fill: none; stroke: #8c564b; stroke-width: 2; stroke-linecap: square"/>
   </g>
   <g id="line2d_24">
    <path d="M 64.268125 299.829946 
L 67.444635 233.510724 
L 70.621145 194.284489 
L 73.797655 175.222883 
L 76.974165 168.742627 
L 80.150675 133.756134 
L 83.327185 112.281667 
L 86.503695 110.523725 
L 89.680206 111.557808 
L 92.856716 127.861858 
L 96.033226 99.769256 
L 99.209736 101.458259 
L 102.386246 96.908292 
L 105.562756 85.74019 
L 108.739266 84.981862 
L 111.915776 81.190223 
L 115.092286 88.049643 
L 118.268796 102.630221 
L 121.445306 86.774274 
L 124.621816 87.222377 
L 127.798326 73.503535 
L 130.974836 76.433439 
L 134.151346 94.357553 
L 137.327857 83.051573 
L 140.504367 80.225078 
L 143.680877 99.079867 
L 146.857387 102.837038 
L 150.033897 76.123213 
L 153.210407 82.844756 
L 156.386917 90.083341 
L 159.563427 85.809129 
L 162.739937 76.433439 
L 165.916447 64.989581 
L 169.092957 83.913309 
L 172.269467 69.332732 
L 175.445977 77.260705 
L 178.622487 72.917555 
L 181.798997 75.261477 
L 184.975508 72.779677 
L 188.152018 66.023665 
L 191.328528 83.982248 
L 194.505038 79.983792 
L 197.681548 103.078324 
L 200.858058 100.355237 
L 204.034568 72.814146 
L 207.211078 64.162314 
L 210.387588 61.404758 
L 213.564098 64.817234 
L 216.740608 66.781992 
L 219.917118 65.67897 
L 223.093628 70.71151 
L 226.270138 84.568229 
L 229.446648 66.264951 
L 232.623159 73.606944 
L 235.799669 72.469452 
L 242.152689 72.503921 
L 245.329199 76.502377 
L 248.505709 89.53183 
L 251.682219 79.949322 
L 254.858729 67.264565 
L 258.035239 61.439228 
L 261.211749 81.845142 
L 264.388259 78.742892 
L 267.564769 62.886945 
L 270.741279 68.884629 
L 273.917789 63.576334 
L 277.094299 61.749453 
L 280.27081 60.474083 
L 283.44732 61.714983 
L 286.62383 60.06045 
L 289.80034 70.987265 
L 292.97685 60.06045 
L 296.15336 55.372604 
L 299.32987 75.261477 
L 302.50638 93.806042 
L 305.68289 77.674339 
L 308.8594 57.613119 
L 312.03591 65.713439 
L 315.21242 58.509324 
L 318.38893 57.923344 
L 321.56544 59.508938 
L 324.741951 67.712668 
L 327.918461 77.984564 
L 331.094971 88.807971 
L 334.271481 78.363728 
L 337.447991 54.614276 
L 340.624501 89.53183 
L 343.801011 74.158455 
L 346.977521 64.265723 
L 350.154031 73.158841 
L 353.330541 69.229323 
L 356.507051 101.354851 
L 359.683561 67.471381 
L 362.860071 60.198327 
L 366.036581 70.228937 
L 369.213091 59.44 
L 372.389602 58.819549 
L 375.566112 52.304823 
L 378.742622 62.714597 
L 381.919132 82.706879 
L 385.095642 70.987265 
L 388.272152 60.577491 
L 391.448662 63.335047 
L 397.801682 60.336205 
L 400.978192 70.573632 
L 404.154702 63.81762 
L 407.331212 66.264951 
L 410.507722 54.614276 
L 413.684232 76.571316 
L 416.860742 52.132476 
L 423.213763 71.607716 
L 426.390273 67.712668 
L 429.566783 74.709966 
L 432.743293 60.784308 
L 435.919803 57.165016 
L 439.096313 61.990739 
L 442.272823 60.887716 
L 445.449333 54.614276 
L 448.625843 54.958971 
L 451.802353 53.304437 
L 454.978863 76.95048 
L 458.155373 51.89119 
L 461.331883 49.891962 
L 464.508393 55.64836 
L 467.684904 61.680514 
L 470.861414 60.474083 
L 474.037924 56.406688 
L 477.214434 53.304437 
L 480.390944 59.646816 
L 483.567454 57.578649 
L 486.743964 52.925273 
L 489.920474 50.02984 
L 493.096984 67.264565 
L 496.273494 66.196012 
L 499.450004 58.888488 
L 502.626514 55.993055 
L 505.803024 52.339293 
L 508.979534 50.236656 
L 512.156044 56.234341 
L 515.332555 69.642957 
L 518.509065 61.611575 
L 521.685575 55.613891 
L 524.862085 65.713439 
L 528.038595 68.16077 
L 531.215105 55.476013 
L 534.391615 52.752926 
L 537.568125 53.924887 
L 537.568125 53.924887 
" clip-path="url(#p8cd2f3422f)" style="fill: none; stroke: #e377c2; stroke-width: 2; stroke-linecap: square"/>
   </g>
   <g id="line2d_25">
    <path d="M 64.268125 219.998699 
L 67.444635 209.726803 
L 70.621145 151.335554 
L 73.797655 139.443594 
L 76.974165 117.865718 
L 80.150675 106.215044 
L 83.327185 97.907906 
L 86.503695 83.87884 
L 89.680206 91.255302 
L 92.856716 77.295175 
L 96.033226 76.571316 
L 99.209736 80.294017 
L 102.386246 81.465978 
L 105.562756 92.151508 
L 108.739266 83.809901 
L 111.915776 87.739418 
L 115.092286 82.879226 
L 118.268796 76.98495 
L 121.445306 90.531444 
L 124.621816 86.188293 
L 127.798326 88.704563 
L 130.974836 76.605786 
L 134.151346 90.048871 
L 137.327857 76.709194 
L 140.504367 73.296719 
L 143.680877 66.885401 
L 146.857387 67.092218 
L 150.033897 66.092603 
L 153.210407 73.951638 
L 156.386917 73.641413 
L 159.563427 66.816462 
L 162.739937 69.401671 
L 165.916447 81.431509 
L 169.092957 84.637168 
L 172.269467 68.333118 
L 175.445977 67.712668 
L 178.622487 68.505465 
L 181.798997 66.540706 
L 184.975508 74.330802 
L 188.152018 79.122056 
L 191.328528 65.127459 
L 194.505038 81.98302 
L 197.681548 79.294403 
L 200.858058 59.336591 
L 204.034568 59.612347 
L 207.211078 74.055046 
L 210.387588 55.234727 
L 213.564098 58.233569 
L 216.740608 62.749067 
L 219.917118 74.606558 
L 223.093628 72.297105 
L 226.270138 62.680128 
L 229.446648 56.372218 
L 232.623159 64.886173 
L 235.799669 57.785466 
L 238.976179 52.890804 
L 242.152689 62.611189 
L 245.329199 66.264951 
L 248.505709 74.744435 
L 251.682219 57.130546 
L 254.858729 59.508938 
L 258.035239 61.542636 
L 261.211749 70.05659 
L 264.388259 80.225078 
L 267.564769 70.608101 
L 270.741279 53.649132 
L 273.917789 60.198327 
L 277.094299 69.608487 
L 280.27081 61.197942 
L 283.44732 54.648746 
L 286.62383 53.201029 
L 289.80034 59.44 
L 292.97685 59.164244 
L 296.15336 60.818778 
L 299.32987 71.228552 
L 302.50638 67.850545 
L 305.68289 58.16463 
L 308.8594 60.163858 
L 312.03591 55.269196 
L 315.21242 61.646044 
L 318.38893 65.127459 
L 321.56544 56.475627 
L 324.741951 60.853247 
L 327.918461 53.924887 
L 331.094971 64.265723 
L 334.271481 68.229709 
L 337.447991 53.511254 
L 340.624501 79.018647 
L 343.801011 57.992283 
L 346.977521 55.407074 
L 350.154031 51.374148 
L 353.330541 50.61582 
L 356.507051 59.681286 
L 359.683561 66.644115 
L 362.860071 60.715369 
L 366.036581 55.131318 
L 369.213091 55.303665 
L 372.389602 53.614662 
L 375.566112 56.234341 
L 378.742622 58.095691 
L 381.919132 59.750225 
L 385.095642 74.055046 
L 388.272152 67.781607 
L 391.448662 49.616206 
L 394.625172 55.613891 
L 397.801682 55.820707 
L 400.978192 49.960901 
L 404.154702 58.199099 
L 407.331212 54.683215 
L 410.507722 53.373376 
L 413.684232 56.30328 
L 416.860742 47.582509 
L 420.037253 61.473697 
L 423.213763 52.477171 
L 426.390273 56.92373 
L 429.566783 56.096463 
L 432.743293 51.408618 
L 435.919803 64.058906 
L 439.096313 53.063151 
L 442.272823 50.374534 
L 445.449333 55.165788 
L 448.625843 51.684373 
L 451.802353 55.786238 
L 454.978863 57.854405 
L 458.155373 57.199485 
L 461.331883 50.443473 
L 464.508393 49.202573 
L 467.684904 59.474469 
L 470.861414 51.615434 
L 474.037924 54.37299 
L 477.214434 55.751768 
L 480.390944 50.822637 
L 483.567454 58.612733 
L 486.743964 62.783536 
L 489.920474 48.444245 
L 493.096984 53.993826 
L 496.273494 67.333504 
L 499.450004 51.546495 
L 502.626514 52.270354 
L 505.803024 50.02984 
L 508.979534 51.27074 
L 512.156044 46.065853 
L 515.332555 50.271126 
L 518.509065 47.341222 
L 521.685575 49.99537 
L 524.862085 57.199485 
L 528.038595 54.855563 
L 531.215105 46.651833 
L 534.391615 49.616206 
L 537.568125 57.750996 
L 537.568125 57.750996 
" clip-path="url(#p8cd2f3422f)" style="fill: none; stroke: #7f7f7f; stroke-width: 2; stroke-linecap: square"/>
   </g>
   <g id="patch_3">
    <path d="M 40.603125 313.478125 
L 40.603125 22.318125 
" style="fill: none; stroke: #000000; stroke-width: 0.8; stroke-linejoin: miter; stroke-linecap: square"/>
   </g>
   <g id="patch_4">
    <path d="M 561.233125 313.478125 
L 561.233125 22.318125 
" style="fill: none; stroke: #000000; stroke-width: 0.8; stroke-linejoin: miter; stroke-linecap: square"/>
   </g>
   <g id="patch_5">
    <path d="M 40.603125 313.478125 
L 561.233125 313.478125 
" style="fill: none; stroke: #000000; stroke-width: 0.8; stroke-linejoin: miter; stroke-linecap: square"/>
   </g>
   <g id="patch_6">
    <path d="M 40.603125 22.318125 
L 561.233125 22.318125 
" style="fill: none; stroke: #000000; stroke-width: 0.8; stroke-linejoin: miter; stroke-linecap: square"/>
   </g>
   <g id="text_20">
    <!-- fmnist, ALIE attack, clients=100 -->
    <g transform="translate(204.554375 16.318125) scale(0.12 -0.12)">
     <defs>
      <path id="DejaVuSans-66" d="M 2375 4863 
L 2375 4384 
L 1825 4384 
Q 1516 4384 1395 4259 
Q 1275 4134 1275 3809 
L 1275 3500 
L 2222 3500 
L 2222 3053 
L 1275 3053 
L 1275 0 
L 697 0 
L 697 3053 
L 147 3053 
L 147 3500 
L 697 3500 
L 697 3744 
Q 697 4328 969 4595 
Q 1241 4863 1831 4863 
L 2375 4863 
z
" transform="scale(0.015625)"/>
      <path id="DejaVuSans-6d" d="M 3328 2828 
Q 3544 3216 3844 3400 
Q 4144 3584 4550 3584 
Q 5097 3584 5394 3201 
Q 5691 2819 5691 2113 
L 5691 0 
L 5113 0 
L 5113 2094 
Q 5113 2597 4934 2840 
Q 4756 3084 4391 3084 
Q 3944 3084 3684 2787 
Q 3425 2491 3425 1978 
L 3425 0 
L 2847 0 
L 2847 2094 
Q 2847 2600 2669 2842 
Q 2491 3084 2119 3084 
Q 1678 3084 1418 2786 
Q 1159 2488 1159 1978 
L 1159 0 
L 581 0 
L 581 3500 
L 1159 3500 
L 1159 2956 
Q 1356 3278 1631 3431 
Q 1906 3584 2284 3584 
Q 2666 3584 2933 3390 
Q 3200 3197 3328 2828 
z
" transform="scale(0.015625)"/>
      <path id="DejaVuSans-2c" d="M 750 794 
L 1409 794 
L 1409 256 
L 897 -744 
L 494 -744 
L 750 256 
L 750 794 
z
" transform="scale(0.015625)"/>
      <path id="DejaVuSans-41" d="M 2188 4044 
L 1331 1722 
L 3047 1722 
L 2188 4044 
z
M 1831 4666 
L 2547 4666 
L 4325 0 
L 3669 0 
L 3244 1197 
L 1141 1197 
L 716 0 
L 50 0 
L 1831 4666 
z
" transform="scale(0.015625)"/>
      <path id="DejaVuSans-49" d="M 628 4666 
L 1259 4666 
L 1259 0 
L 628 0 
L 628 4666 
z
" transform="scale(0.015625)"/>
      <path id="DejaVuSans-45" d="M 628 4666 
L 3578 4666 
L 3578 4134 
L 1259 4134 
L 1259 2753 
L 3481 2753 
L 3481 2222 
L 1259 2222 
L 1259 531 
L 3634 531 
L 3634 0 
L 628 0 
L 628 4666 
z
" transform="scale(0.015625)"/>
      <path id="DejaVuSans-6b" d="M 581 4863 
L 1159 4863 
L 1159 1991 
L 2875 3500 
L 3609 3500 
L 1753 1863 
L 3688 0 
L 2938 0 
L 1159 1709 
L 1159 0 
L 581 0 
L 581 4863 
z
" transform="scale(0.015625)"/>
      <path id="DejaVuSans-6c" d="M 603 4863 
L 1178 4863 
L 1178 0 
L 603 0 
L 603 4863 
z
" transform="scale(0.015625)"/>
      <path id="DejaVuSans-3d" d="M 678 2906 
L 4684 2906 
L 4684 2381 
L 678 2381 
L 678 2906 
z
M 678 1631 
L 4684 1631 
L 4684 1100 
L 678 1100 
L 678 1631 
z
" transform="scale(0.015625)"/>
     </defs>
     <use xlink:href="#DejaVuSans-66"/>
     <use xlink:href="#DejaVuSans-6d" transform="translate(35.205078 0)"/>
     <use xlink:href="#DejaVuSans-6e" transform="translate(132.617188 0)"/>
     <use xlink:href="#DejaVuSans-69" transform="translate(195.996094 0)"/>
     <use xlink:href="#DejaVuSans-73" transform="translate(223.779297 0)"/>
     <use xlink:href="#DejaVuSans-74" transform="translate(275.878906 0)"/>
     <use xlink:href="#DejaVuSans-2c" transform="translate(315.087891 0)"/>
     <use xlink:href="#DejaVuSans-20" transform="translate(346.875 0)"/>
     <use xlink:href="#DejaVuSans-41" transform="translate(378.662109 0)"/>
     <use xlink:href="#DejaVuSans-4c" transform="translate(447.070312 0)"/>
     <use xlink:href="#DejaVuSans-49" transform="translate(502.783203 0)"/>
     <use xlink:href="#DejaVuSans-45" transform="translate(532.275391 0)"/>
     <use xlink:href="#DejaVuSans-20" transform="translate(595.458984 0)"/>
     <use xlink:href="#DejaVuSans-61" transform="translate(627.246094 0)"/>
     <use xlink:href="#DejaVuSans-74" transform="translate(688.525391 0)"/>
     <use xlink:href="#DejaVuSans-74" transform="translate(727.734375 0)"/>
     <use xlink:href="#DejaVuSans-61" transform="translate(766.943359 0)"/>
     <use xlink:href="#DejaVuSans-63" transform="translate(828.222656 0)"/>
     <use xlink:href="#DejaVuSans-6b" transform="translate(883.203125 0)"/>
     <use xlink:href="#DejaVuSans-2c" transform="translate(941.113281 0)"/>
     <use xlink:href="#DejaVuSans-20" transform="translate(972.900391 0)"/>
     <use xlink:href="#DejaVuSans-63" transform="translate(1004.6875 0)"/>
     <use xlink:href="#DejaVuSans-6c" transform="translate(1059.667969 0)"/>
     <use xlink:href="#DejaVuSans-69" transform="translate(1087.451172 0)"/>
     <use xlink:href="#DejaVuSans-65" transform="translate(1115.234375 0)"/>
     <use xlink:href="#DejaVuSans-6e" transform="translate(1176.757812 0)"/>
     <use xlink:href="#DejaVuSans-74" transform="translate(1240.136719 0)"/>
     <use xlink:href="#DejaVuSans-73" transform="translate(1279.345703 0)"/>
     <use xlink:href="#DejaVuSans-3d" transform="translate(1331.445312 0)"/>
     <use xlink:href="#DejaVuSans-31" transform="translate(1415.234375 0)"/>
     <use xlink:href="#DejaVuSans-30" transform="translate(1478.857422 0)"/>
     <use xlink:href="#DejaVuSans-30" transform="translate(1542.480469 0)"/>
    </g>
   </g>
   <g id="legend_1">
    <g id="patch_7">
     <path d="M 444.24875 308.478125 
L 554.233125 308.478125 
Q 556.233125 308.478125 556.233125 306.478125 
L 556.233125 190.053125 
Q 556.233125 188.053125 554.233125 188.053125 
L 444.24875 188.053125 
Q 442.24875 188.053125 442.24875 190.053125 
L 442.24875 306.478125 
Q 442.24875 308.478125 444.24875 308.478125 
z
" style="fill: #ffffff; opacity: 0.8; stroke: #cccccc; stroke-linejoin: miter"/>
    </g>
    <g id="line2d_26">
     <path d="M 446.24875 196.151563 
L 456.24875 196.151563 
L 466.24875 196.151563 
" style="fill: none; stroke: #1f77b4; stroke-width: 2; stroke-linecap: square"/>
    </g>
    <g id="text_21">
     <!-- Average -->
     <g transform="translate(474.24875 199.651563) scale(0.1 -0.1)">
      <defs>
       <path id="DejaVuSans-76" d="M 191 3500 
L 800 3500 
L 1894 563 
L 2988 3500 
L 3597 3500 
L 2284 0 
L 1503 0 
L 191 3500 
z
" transform="scale(0.015625)"/>
      </defs>
      <use xlink:href="#DejaVuSans-41"/>
      <use xlink:href="#DejaVuSans-76" transform="translate(62.533203 0)"/>
      <use xlink:href="#DejaVuSans-65" transform="translate(121.712891 0)"/>
      <use xlink:href="#DejaVuSans-72" transform="translate(183.236328 0)"/>
      <use xlink:href="#DejaVuSans-61" transform="translate(224.349609 0)"/>
      <use xlink:href="#DejaVuSans-67" transform="translate(285.628906 0)"/>
      <use xlink:href="#DejaVuSans-65" transform="translate(349.105469 0)"/>
     </g>
    </g>
    <g id="line2d_27">
     <path d="M 446.24875 210.829688 
L 456.24875 210.829688 
L 466.24875 210.829688 
" style="fill: none; stroke: #ff7f0e; stroke-width: 2; stroke-linecap: square"/>
    </g>
    <g id="text_22">
     <!-- Clip Median -->
     <g transform="translate(474.24875 214.329688) scale(0.1 -0.1)">
      <defs>
       <path id="DejaVuSans-43" d="M 4122 4306 
L 4122 3641 
Q 3803 3938 3442 4084 
Q 3081 4231 2675 4231 
Q 1875 4231 1450 3742 
Q 1025 3253 1025 2328 
Q 1025 1406 1450 917 
Q 1875 428 2675 428 
Q 3081 428 3442 575 
Q 3803 722 4122 1019 
L 4122 359 
Q 3791 134 3420 21 
Q 3050 -91 2638 -91 
Q 1578 -91 968 557 
Q 359 1206 359 2328 
Q 359 3453 968 4101 
Q 1578 4750 2638 4750 
Q 3056 4750 3426 4639 
Q 3797 4528 4122 4306 
z
" transform="scale(0.015625)"/>
       <path id="DejaVuSans-70" d="M 1159 525 
L 1159 -1331 
L 581 -1331 
L 581 3500 
L 1159 3500 
L 1159 2969 
Q 1341 3281 1617 3432 
Q 1894 3584 2278 3584 
Q 2916 3584 3314 3078 
Q 3713 2572 3713 1747 
Q 3713 922 3314 415 
Q 2916 -91 2278 -91 
Q 1894 -91 1617 61 
Q 1341 213 1159 525 
z
M 3116 1747 
Q 3116 2381 2855 2742 
Q 2594 3103 2138 3103 
Q 1681 3103 1420 2742 
Q 1159 2381 1159 1747 
Q 1159 1113 1420 752 
Q 1681 391 2138 391 
Q 2594 391 2855 752 
Q 3116 1113 3116 1747 
z
" transform="scale(0.015625)"/>
       <path id="DejaVuSans-4d" d="M 628 4666 
L 1569 4666 
L 2759 1491 
L 3956 4666 
L 4897 4666 
L 4897 0 
L 4281 0 
L 4281 4097 
L 3078 897 
L 2444 897 
L 1241 4097 
L 1241 0 
L 628 0 
L 628 4666 
z
" transform="scale(0.015625)"/>
      </defs>
      <use xlink:href="#DejaVuSans-43"/>
      <use xlink:href="#DejaVuSans-6c" transform="translate(69.824219 0)"/>
      <use xlink:href="#DejaVuSans-69" transform="translate(97.607422 0)"/>
      <use xlink:href="#DejaVuSans-70" transform="translate(125.390625 0)"/>
      <use xlink:href="#DejaVuSans-20" transform="translate(188.867188 0)"/>
      <use xlink:href="#DejaVuSans-4d" transform="translate(220.654297 0)"/>
      <use xlink:href="#DejaVuSans-65" transform="translate(306.933594 0)"/>
      <use xlink:href="#DejaVuSans-64" transform="translate(368.457031 0)"/>
      <use xlink:href="#DejaVuSans-69" transform="translate(431.933594 0)"/>
      <use xlink:href="#DejaVuSans-61" transform="translate(459.716797 0)"/>
      <use xlink:href="#DejaVuSans-6e" transform="translate(520.996094 0)"/>
     </g>
    </g>
    <g id="line2d_28">
     <path d="M 446.24875 225.507812 
L 456.24875 225.507812 
L 466.24875 225.507812 
" style="fill: none; stroke: #2ca02c; stroke-width: 2; stroke-linecap: square"/>
    </g>
    <g id="text_23">
     <!-- Cosine Defense -->
     <g transform="translate(474.24875 229.007812) scale(0.1 -0.1)">
      <defs>
       <path id="DejaVuSans-44" d="M 1259 4147 
L 1259 519 
L 2022 519 
Q 2988 519 3436 956 
Q 3884 1394 3884 2338 
Q 3884 3275 3436 3711 
Q 2988 4147 2022 4147 
L 1259 4147 
z
M 628 4666 
L 1925 4666 
Q 3281 4666 3915 4102 
Q 4550 3538 4550 2338 
Q 4550 1131 3912 565 
Q 3275 0 1925 0 
L 628 0 
L 628 4666 
z
" transform="scale(0.015625)"/>
      </defs>
      <use xlink:href="#DejaVuSans-43"/>
      <use xlink:href="#DejaVuSans-6f" transform="translate(69.824219 0)"/>
      <use xlink:href="#DejaVuSans-73" transform="translate(131.005859 0)"/>
      <use xlink:href="#DejaVuSans-69" transform="translate(183.105469 0)"/>
      <use xlink:href="#DejaVuSans-6e" transform="translate(210.888672 0)"/>
      <use xlink:href="#DejaVuSans-65" transform="translate(274.267578 0)"/>
      <use xlink:href="#DejaVuSans-20" transform="translate(335.791016 0)"/>
      <use xlink:href="#DejaVuSans-44" transform="translate(367.578125 0)"/>
      <use xlink:href="#DejaVuSans-65" transform="translate(444.580078 0)"/>
      <use xlink:href="#DejaVuSans-66" transform="translate(506.103516 0)"/>
      <use xlink:href="#DejaVuSans-65" transform="translate(541.308594 0)"/>
      <use xlink:href="#DejaVuSans-6e" transform="translate(602.832031 0)"/>
      <use xlink:href="#DejaVuSans-73" transform="translate(666.210938 0)"/>
      <use xlink:href="#DejaVuSans-65" transform="translate(718.310547 0)"/>
     </g>
    </g>
    <g id="line2d_29">
     <path d="M 446.24875 240.185938 
L 456.24875 240.185938 
L 466.24875 240.185938 
" style="fill: none; stroke: #d62728; stroke-width: 2; stroke-linecap: square"/>
    </g>
    <g id="text_24">
     <!-- DDFed -->
     <g transform="translate(474.24875 243.685938) scale(0.1 -0.1)">
      <use xlink:href="#DejaVuSans-44"/>
      <use xlink:href="#DejaVuSans-44" transform="translate(77.001953 0)"/>
      <use xlink:href="#DejaVuSans-46" transform="translate(154.003906 0)"/>
      <use xlink:href="#DejaVuSans-65" transform="translate(206.023438 0)"/>
      <use xlink:href="#DejaVuSans-64" transform="translate(267.546875 0)"/>
     </g>
    </g>
    <g id="line2d_30">
     <path d="M 446.24875 254.864063 
L 456.24875 254.864063 
L 466.24875 254.864063 
" style="fill: none; stroke: #9467bd; stroke-width: 2; stroke-linecap: square"/>
    </g>
    <g id="text_25">
     <!-- FedAvg -->
     <g transform="translate(474.24875 258.364063) scale(0.1 -0.1)">
      <use xlink:href="#DejaVuSans-46"/>
      <use xlink:href="#DejaVuSans-65" transform="translate(52.019531 0)"/>
      <use xlink:href="#DejaVuSans-64" transform="translate(113.542969 0)"/>
      <use xlink:href="#DejaVuSans-41" transform="translate(177.019531 0)"/>
      <use xlink:href="#DejaVuSans-76" transform="translate(239.552734 0)"/>
      <use xlink:href="#DejaVuSans-67" transform="translate(298.732422 0)"/>
     </g>
    </g>
    <g id="line2d_31">
     <path d="M 446.24875 269.542188 
L 456.24875 269.542188 
L 466.24875 269.542188 
" style="fill: none; stroke: #8c564b; stroke-width: 2; stroke-linecap: square"/>
    </g>
    <g id="text_26">
     <!-- Krum -->
     <g transform="translate(474.24875 273.042188) scale(0.1 -0.1)">
      <defs>
       <path id="DejaVuSans-4b" d="M 628 4666 
L 1259 4666 
L 1259 2694 
L 3353 4666 
L 4166 4666 
L 1850 2491 
L 4331 0 
L 3500 0 
L 1259 2247 
L 1259 0 
L 628 0 
L 628 4666 
z
" transform="scale(0.015625)"/>
      </defs>
      <use xlink:href="#DejaVuSans-4b"/>
      <use xlink:href="#DejaVuSans-72" transform="translate(65.576172 0)"/>
      <use xlink:href="#DejaVuSans-75" transform="translate(106.689453 0)"/>
      <use xlink:href="#DejaVuSans-6d" transform="translate(170.068359 0)"/>
     </g>
    </g>
    <g id="line2d_32">
     <path d="M 446.24875 284.220312 
L 456.24875 284.220312 
L 466.24875 284.220312 
" style="fill: none; stroke: #e377c2; stroke-width: 2; stroke-linecap: square"/>
    </g>
    <g id="text_27">
     <!-- OUR -->
     <g transform="translate(474.24875 287.720312) scale(0.1 -0.1)">
      <defs>
       <path id="DejaVuSans-4f" d="M 2522 4238 
Q 1834 4238 1429 3725 
Q 1025 3213 1025 2328 
Q 1025 1447 1429 934 
Q 1834 422 2522 422 
Q 3209 422 3611 934 
Q 4013 1447 4013 2328 
Q 4013 3213 3611 3725 
Q 3209 4238 2522 4238 
z
M 2522 4750 
Q 3503 4750 4090 4092 
Q 4678 3434 4678 2328 
Q 4678 1225 4090 567 
Q 3503 -91 2522 -91 
Q 1538 -91 948 565 
Q 359 1222 359 2328 
Q 359 3434 948 4092 
Q 1538 4750 2522 4750 
z
" transform="scale(0.015625)"/>
       <path id="DejaVuSans-55" d="M 556 4666 
L 1191 4666 
L 1191 1831 
Q 1191 1081 1462 751 
Q 1734 422 2344 422 
Q 2950 422 3222 751 
Q 3494 1081 3494 1831 
L 3494 4666 
L 4128 4666 
L 4128 1753 
Q 4128 841 3676 375 
Q 3225 -91 2344 -91 
Q 1459 -91 1007 375 
Q 556 841 556 1753 
L 556 4666 
z
" transform="scale(0.015625)"/>
       <path id="DejaVuSans-52" d="M 2841 2188 
Q 3044 2119 3236 1894 
Q 3428 1669 3622 1275 
L 4263 0 
L 3584 0 
L 2988 1197 
Q 2756 1666 2539 1819 
Q 2322 1972 1947 1972 
L 1259 1972 
L 1259 0 
L 628 0 
L 628 4666 
L 2053 4666 
Q 2853 4666 3247 4331 
Q 3641 3997 3641 3322 
Q 3641 2881 3436 2590 
Q 3231 2300 2841 2188 
z
M 1259 4147 
L 1259 2491 
L 2053 2491 
Q 2509 2491 2742 2702 
Q 2975 2913 2975 3322 
Q 2975 3731 2742 3939 
Q 2509 4147 2053 4147 
L 1259 4147 
z
" transform="scale(0.015625)"/>
      </defs>
      <use xlink:href="#DejaVuSans-4f"/>
      <use xlink:href="#DejaVuSans-55" transform="translate(78.710938 0)"/>
      <use xlink:href="#DejaVuSans-52" transform="translate(151.904297 0)"/>
     </g>
    </g>
    <g id="line2d_33">
     <path d="M 446.24875 298.898438 
L 456.24875 298.898438 
L 466.24875 298.898438 
" style="fill: none; stroke: #7f7f7f; stroke-width: 2; stroke-linecap: square"/>
    </g>
    <g id="text_28">
     <!-- Trimmed Mean -->
     <g transform="translate(474.24875 302.398438) scale(0.1 -0.1)">
      <defs>
       <path id="DejaVuSans-54" d="M -19 4666 
L 3928 4666 
L 3928 4134 
L 2272 4134 
L 2272 0 
L 1638 0 
L 1638 4134 
L -19 4134 
L -19 4666 
z
" transform="scale(0.015625)"/>
      </defs>
      <use xlink:href="#DejaVuSans-54"/>
      <use xlink:href="#DejaVuSans-72" transform="translate(46.333984 0)"/>
      <use xlink:href="#DejaVuSans-69" transform="translate(87.447266 0)"/>
      <use xlink:href="#DejaVuSans-6d" transform="translate(115.230469 0)"/>
      <use xlink:href="#DejaVuSans-6d" transform="translate(212.642578 0)"/>
      <use xlink:href="#DejaVuSans-65" transform="translate(310.054688 0)"/>
      <use xlink:href="#DejaVuSans-64" transform="translate(371.578125 0)"/>
      <use xlink:href="#DejaVuSans-20" transform="translate(435.054688 0)"/>
      <use xlink:href="#DejaVuSans-4d" transform="translate(466.841797 0)"/>
      <use xlink:href="#DejaVuSans-65" transform="translate(553.121094 0)"/>
      <use xlink:href="#DejaVuSans-61" transform="translate(614.644531 0)"/>
      <use xlink:href="#DejaVuSans-6e" transform="translate(675.923828 0)"/>
     </g>
    </g>
   </g>
  </g>
 </g>
 <defs>
  <clipPath id="p8cd2f3422f">
   <rect x="40.603125" y="22.318125" width="520.63" height="291.16"/>
  </clipPath>
 </defs>
</svg>
