<?xml version="1.0" encoding="utf-8" standalone="no"?>
<!DOCTYPE svg PUBLIC "-//W3C//DTD SVG 1.1//EN"
  "http://www.w3.org/Graphics/SVG/1.1/DTD/svg11.dtd">
<svg xmlns:xlink="http://www.w3.org/1999/xlink" width="568.495625pt" height="351.034375pt" viewBox="0 0 568.495625 351.034375" xmlns="http://www.w3.org/2000/svg" version="1.1">
 <metadata>
  <rdf:RDF xmlns:dc="http://purl.org/dc/elements/1.1/" xmlns:cc="http://creativecommons.org/ns#" xmlns:rdf="http://www.w3.org/1999/02/22-rdf-syntax-ns#">
   <cc:Work>
    <dc:type rdf:resource="http://purl.org/dc/dcmitype/StillImage"/>
    <dc:date>2025-09-01T22:00:04.498529</dc:date>
    <dc:format>image/svg+xml</dc:format>
    <dc:creator>
     <cc:Agent>
      <dc:title>Matplotlib v3.10.3, https://matplotlib.org/</dc:title>
     </cc:Agent>
    </dc:creator>
   </cc:Work>
  </rdf:RDF>
 </metadata>
 <defs>
  <style type="text/css">*{stroke-linejoin: round; stroke-linecap: butt}</style>
 </defs>
 <g id="figure_1">
  <g id="patch_1">
   <path d="M 0 351.034375 
L 568.495625 351.034375 
L 568.495625 0 
L 0 0 
z
" style="fill: #ffffff"/>
  </g>
  <g id="axes_1">
   <g id="patch_2">
    <path d="M 46.965625 313.478125 
L 561.295625 313.478125 
L 561.295625 22.318125 
L 46.965625 22.318125 
z
" style="fill: #ffffff"/>
   </g>
   <g id="matplotlib.axis_1">
    <g id="xtick_1">
     <g id="line2d_1">
      <defs>
       <path id="mfa957a3126" d="M 0 0 
L 0 3.5 
" style="stroke: #000000; stroke-width: 0.8"/>
      </defs>
      <g>
       <use xlink:href="#mfa957a3126" x="70.344261" y="313.478125" style="stroke: #000000; stroke-width: 0.8"/>
      </g>
     </g>
     <g id="text_1">
      <!-- 0 -->
      <g transform="translate(67.163011 328.076563) scale(0.1 -0.1)">
       <defs>
        <path id="DejaVuSans-30" d="M 2034 4250 
Q 1547 4250 1301 3770 
Q 1056 3291 1056 2328 
Q 1056 1369 1301 889 
Q 1547 409 2034 409 
Q 2525 409 2770 889 
Q 3016 1369 3016 2328 
Q 3016 3291 2770 3770 
Q 2525 4250 2034 4250 
z
M 2034 4750 
Q 2819 4750 3233 4129 
Q 3647 3509 3647 2328 
Q 3647 1150 3233 529 
Q 2819 -91 2034 -91 
Q 1250 -91 836 529 
Q 422 1150 422 2328 
Q 422 3509 836 4129 
Q 1250 4750 2034 4750 
z
" transform="scale(0.015625)"/>
       </defs>
       <use xlink:href="#DejaVuSans-30"/>
      </g>
     </g>
    </g>
    <g id="xtick_2">
     <g id="line2d_2">
      <g>
       <use xlink:href="#mfa957a3126" x="133.105701" y="313.478125" style="stroke: #000000; stroke-width: 0.8"/>
      </g>
     </g>
     <g id="text_2">
      <!-- 20 -->
      <g transform="translate(126.743201 328.076563) scale(0.1 -0.1)">
       <defs>
        <path id="DejaVuSans-32" d="M 1228 531 
L 3431 531 
L 3431 0 
L 469 0 
L 469 531 
Q 828 903 1448 1529 
Q 2069 2156 2228 2338 
Q 2531 2678 2651 2914 
Q 2772 3150 2772 3378 
Q 2772 3750 2511 3984 
Q 2250 4219 1831 4219 
Q 1534 4219 1204 4116 
Q 875 4013 500 3803 
L 500 4441 
Q 881 4594 1212 4672 
Q 1544 4750 1819 4750 
Q 2544 4750 2975 4387 
Q 3406 4025 3406 3419 
Q 3406 3131 3298 2873 
Q 3191 2616 2906 2266 
Q 2828 2175 2409 1742 
Q 1991 1309 1228 531 
z
" transform="scale(0.015625)"/>
       </defs>
       <use xlink:href="#DejaVuSans-32"/>
       <use xlink:href="#DejaVuSans-30" transform="translate(63.623047 0)"/>
      </g>
     </g>
    </g>
    <g id="xtick_3">
     <g id="line2d_3">
      <g>
       <use xlink:href="#mfa957a3126" x="195.867141" y="313.478125" style="stroke: #000000; stroke-width: 0.8"/>
      </g>
     </g>
     <g id="text_3">
      <!-- 40 -->
      <g transform="translate(189.504641 328.076563) scale(0.1 -0.1)">
       <defs>
        <path id="DejaVuSans-34" d="M 2419 4116 
L 825 1625 
L 2419 1625 
L 2419 4116 
z
M 2253 4666 
L 3047 4666 
L 3047 1625 
L 3713 1625 
L 3713 1100 
L 3047 1100 
L 3047 0 
L 2419 0 
L 2419 1100 
L 313 1100 
L 313 1709 
L 2253 4666 
z
" transform="scale(0.015625)"/>
       </defs>
       <use xlink:href="#DejaVuSans-34"/>
       <use xlink:href="#DejaVuSans-30" transform="translate(63.623047 0)"/>
      </g>
     </g>
    </g>
    <g id="xtick_4">
     <g id="line2d_4">
      <g>
       <use xlink:href="#mfa957a3126" x="258.628581" y="313.478125" style="stroke: #000000; stroke-width: 0.8"/>
      </g>
     </g>
     <g id="text_4">
      <!-- 60 -->
      <g transform="translate(252.266081 328.076563) scale(0.1 -0.1)">
       <defs>
        <path id="DejaVuSans-36" d="M 2113 2584 
Q 1688 2584 1439 2293 
Q 1191 2003 1191 1497 
Q 1191 994 1439 701 
Q 1688 409 2113 409 
Q 2538 409 2786 701 
Q 3034 994 3034 1497 
Q 3034 2003 2786 2293 
Q 2538 2584 2113 2584 
z
M 3366 4563 
L 3366 3988 
Q 3128 4100 2886 4159 
Q 2644 4219 2406 4219 
Q 1781 4219 1451 3797 
Q 1122 3375 1075 2522 
Q 1259 2794 1537 2939 
Q 1816 3084 2150 3084 
Q 2853 3084 3261 2657 
Q 3669 2231 3669 1497 
Q 3669 778 3244 343 
Q 2819 -91 2113 -91 
Q 1303 -91 875 529 
Q 447 1150 447 2328 
Q 447 3434 972 4092 
Q 1497 4750 2381 4750 
Q 2619 4750 2861 4703 
Q 3103 4656 3366 4563 
z
" transform="scale(0.015625)"/>
       </defs>
       <use xlink:href="#DejaVuSans-36"/>
       <use xlink:href="#DejaVuSans-30" transform="translate(63.623047 0)"/>
      </g>
     </g>
    </g>
    <g id="xtick_5">
     <g id="line2d_5">
      <g>
       <use xlink:href="#mfa957a3126" x="321.390021" y="313.478125" style="stroke: #000000; stroke-width: 0.8"/>
      </g>
     </g>
     <g id="text_5">
      <!-- 80 -->
      <g transform="translate(315.027521 328.076563) scale(0.1 -0.1)">
       <defs>
        <path id="DejaVuSans-38" d="M 2034 2216 
Q 1584 2216 1326 1975 
Q 1069 1734 1069 1313 
Q 1069 891 1326 650 
Q 1584 409 2034 409 
Q 2484 409 2743 651 
Q 3003 894 3003 1313 
Q 3003 1734 2745 1975 
Q 2488 2216 2034 2216 
z
M 1403 2484 
Q 997 2584 770 2862 
Q 544 3141 544 3541 
Q 544 4100 942 4425 
Q 1341 4750 2034 4750 
Q 2731 4750 3128 4425 
Q 3525 4100 3525 3541 
Q 3525 3141 3298 2862 
Q 3072 2584 2669 2484 
Q 3125 2378 3379 2068 
Q 3634 1759 3634 1313 
Q 3634 634 3220 271 
Q 2806 -91 2034 -91 
Q 1263 -91 848 271 
Q 434 634 434 1313 
Q 434 1759 690 2068 
Q 947 2378 1403 2484 
z
M 1172 3481 
Q 1172 3119 1398 2916 
Q 1625 2713 2034 2713 
Q 2441 2713 2670 2916 
Q 2900 3119 2900 3481 
Q 2900 3844 2670 4047 
Q 2441 4250 2034 4250 
Q 1625 4250 1398 4047 
Q 1172 3844 1172 3481 
z
" transform="scale(0.015625)"/>
       </defs>
       <use xlink:href="#DejaVuSans-38"/>
       <use xlink:href="#DejaVuSans-30" transform="translate(63.623047 0)"/>
      </g>
     </g>
    </g>
    <g id="xtick_6">
     <g id="line2d_6">
      <g>
       <use xlink:href="#mfa957a3126" x="384.151461" y="313.478125" style="stroke: #000000; stroke-width: 0.8"/>
      </g>
     </g>
     <g id="text_6">
      <!-- 100 -->
      <g transform="translate(374.607711 328.076563) scale(0.1 -0.1)">
       <defs>
        <path id="DejaVuSans-31" d="M 794 531 
L 1825 531 
L 1825 4091 
L 703 3866 
L 703 4441 
L 1819 4666 
L 2450 4666 
L 2450 531 
L 3481 531 
L 3481 0 
L 794 0 
L 794 531 
z
" transform="scale(0.015625)"/>
       </defs>
       <use xlink:href="#DejaVuSans-31"/>
       <use xlink:href="#DejaVuSans-30" transform="translate(63.623047 0)"/>
       <use xlink:href="#DejaVuSans-30" transform="translate(127.246094 0)"/>
      </g>
     </g>
    </g>
    <g id="xtick_7">
     <g id="line2d_7">
      <g>
       <use xlink:href="#mfa957a3126" x="446.912901" y="313.478125" style="stroke: #000000; stroke-width: 0.8"/>
      </g>
     </g>
     <g id="text_7">
      <!-- 120 -->
      <g transform="translate(437.369151 328.076563) scale(0.1 -0.1)">
       <use xlink:href="#DejaVuSans-31"/>
       <use xlink:href="#DejaVuSans-32" transform="translate(63.623047 0)"/>
       <use xlink:href="#DejaVuSans-30" transform="translate(127.246094 0)"/>
      </g>
     </g>
    </g>
    <g id="xtick_8">
     <g id="line2d_8">
      <g>
       <use xlink:href="#mfa957a3126" x="509.674341" y="313.478125" style="stroke: #000000; stroke-width: 0.8"/>
      </g>
     </g>
     <g id="text_8">
      <!-- 140 -->
      <g transform="translate(500.130591 328.076563) scale(0.1 -0.1)">
       <use xlink:href="#DejaVuSans-31"/>
       <use xlink:href="#DejaVuSans-34" transform="translate(63.623047 0)"/>
       <use xlink:href="#DejaVuSans-30" transform="translate(127.246094 0)"/>
      </g>
     </g>
    </g>
    <g id="text_9">
     <!-- FL training round -->
     <g transform="translate(261.407187 341.754687) scale(0.1 -0.1)">
      <defs>
       <path id="DejaVuSans-46" d="M 628 4666 
L 3309 4666 
L 3309 4134 
L 1259 4134 
L 1259 2759 
L 3109 2759 
L 3109 2228 
L 1259 2228 
L 1259 0 
L 628 0 
L 628 4666 
z
" transform="scale(0.015625)"/>
       <path id="DejaVuSans-4c" d="M 628 4666 
L 1259 4666 
L 1259 531 
L 3531 531 
L 3531 0 
L 628 0 
L 628 4666 
z
" transform="scale(0.015625)"/>
       <path id="DejaVuSans-20" transform="scale(0.015625)"/>
       <path id="DejaVuSans-74" d="M 1172 4494 
L 1172 3500 
L 2356 3500 
L 2356 3053 
L 1172 3053 
L 1172 1153 
Q 1172 725 1289 603 
Q 1406 481 1766 481 
L 2356 481 
L 2356 0 
L 1766 0 
Q 1100 0 847 248 
Q 594 497 594 1153 
L 594 3053 
L 172 3053 
L 172 3500 
L 594 3500 
L 594 4494 
L 1172 4494 
z
" transform="scale(0.015625)"/>
       <path id="DejaVuSans-72" d="M 2631 2963 
Q 2534 3019 2420 3045 
Q 2306 3072 2169 3072 
Q 1681 3072 1420 2755 
Q 1159 2438 1159 1844 
L 1159 0 
L 581 0 
L 581 3500 
L 1159 3500 
L 1159 2956 
Q 1341 3275 1631 3429 
Q 1922 3584 2338 3584 
Q 2397 3584 2469 3576 
Q 2541 3569 2628 3553 
L 2631 2963 
z
" transform="scale(0.015625)"/>
       <path id="DejaVuSans-61" d="M 2194 1759 
Q 1497 1759 1228 1600 
Q 959 1441 959 1056 
Q 959 750 1161 570 
Q 1363 391 1709 391 
Q 2188 391 2477 730 
Q 2766 1069 2766 1631 
L 2766 1759 
L 2194 1759 
z
M 3341 1997 
L 3341 0 
L 2766 0 
L 2766 531 
Q 2569 213 2275 61 
Q 1981 -91 1556 -91 
Q 1019 -91 701 211 
Q 384 513 384 1019 
Q 384 1609 779 1909 
Q 1175 2209 1959 2209 
L 2766 2209 
L 2766 2266 
Q 2766 2663 2505 2880 
Q 2244 3097 1772 3097 
Q 1472 3097 1187 3025 
Q 903 2953 641 2809 
L 641 3341 
Q 956 3463 1253 3523 
Q 1550 3584 1831 3584 
Q 2591 3584 2966 3190 
Q 3341 2797 3341 1997 
z
" transform="scale(0.015625)"/>
       <path id="DejaVuSans-69" d="M 603 3500 
L 1178 3500 
L 1178 0 
L 603 0 
L 603 3500 
z
M 603 4863 
L 1178 4863 
L 1178 4134 
L 603 4134 
L 603 4863 
z
" transform="scale(0.015625)"/>
       <path id="DejaVuSans-6e" d="M 3513 2113 
L 3513 0 
L 2938 0 
L 2938 2094 
Q 2938 2591 2744 2837 
Q 2550 3084 2163 3084 
Q 1697 3084 1428 2787 
Q 1159 2491 1159 1978 
L 1159 0 
L 581 0 
L 581 3500 
L 1159 3500 
L 1159 2956 
Q 1366 3272 1645 3428 
Q 1925 3584 2291 3584 
Q 2894 3584 3203 3211 
Q 3513 2838 3513 2113 
z
" transform="scale(0.015625)"/>
       <path id="DejaVuSans-67" d="M 2906 1791 
Q 2906 2416 2648 2759 
Q 2391 3103 1925 3103 
Q 1463 3103 1205 2759 
Q 947 2416 947 1791 
Q 947 1169 1205 825 
Q 1463 481 1925 481 
Q 2391 481 2648 825 
Q 2906 1169 2906 1791 
z
M 3481 434 
Q 3481 -459 3084 -895 
Q 2688 -1331 1869 -1331 
Q 1566 -1331 1297 -1286 
Q 1028 -1241 775 -1147 
L 775 -588 
Q 1028 -725 1275 -790 
Q 1522 -856 1778 -856 
Q 2344 -856 2625 -561 
Q 2906 -266 2906 331 
L 2906 616 
Q 2728 306 2450 153 
Q 2172 0 1784 0 
Q 1141 0 747 490 
Q 353 981 353 1791 
Q 353 2603 747 3093 
Q 1141 3584 1784 3584 
Q 2172 3584 2450 3431 
Q 2728 3278 2906 2969 
L 2906 3500 
L 3481 3500 
L 3481 434 
z
" transform="scale(0.015625)"/>
       <path id="DejaVuSans-6f" d="M 1959 3097 
Q 1497 3097 1228 2736 
Q 959 2375 959 1747 
Q 959 1119 1226 758 
Q 1494 397 1959 397 
Q 2419 397 2687 759 
Q 2956 1122 2956 1747 
Q 2956 2369 2687 2733 
Q 2419 3097 1959 3097 
z
M 1959 3584 
Q 2709 3584 3137 3096 
Q 3566 2609 3566 1747 
Q 3566 888 3137 398 
Q 2709 -91 1959 -91 
Q 1206 -91 779 398 
Q 353 888 353 1747 
Q 353 2609 779 3096 
Q 1206 3584 1959 3584 
z
" transform="scale(0.015625)"/>
       <path id="DejaVuSans-75" d="M 544 1381 
L 544 3500 
L 1119 3500 
L 1119 1403 
Q 1119 906 1312 657 
Q 1506 409 1894 409 
Q 2359 409 2629 706 
Q 2900 1003 2900 1516 
L 2900 3500 
L 3475 3500 
L 3475 0 
L 2900 0 
L 2900 538 
Q 2691 219 2414 64 
Q 2138 -91 1772 -91 
Q 1169 -91 856 284 
Q 544 659 544 1381 
z
M 1991 3584 
L 1991 3584 
z
" transform="scale(0.015625)"/>
       <path id="DejaVuSans-64" d="M 2906 2969 
L 2906 4863 
L 3481 4863 
L 3481 0 
L 2906 0 
L 2906 525 
Q 2725 213 2448 61 
Q 2172 -91 1784 -91 
Q 1150 -91 751 415 
Q 353 922 353 1747 
Q 353 2572 751 3078 
Q 1150 3584 1784 3584 
Q 2172 3584 2448 3432 
Q 2725 3281 2906 2969 
z
M 947 1747 
Q 947 1113 1208 752 
Q 1469 391 1925 391 
Q 2381 391 2643 752 
Q 2906 1113 2906 1747 
Q 2906 2381 2643 2742 
Q 2381 3103 1925 3103 
Q 1469 3103 1208 2742 
Q 947 2381 947 1747 
z
" transform="scale(0.015625)"/>
      </defs>
      <use xlink:href="#DejaVuSans-46"/>
      <use xlink:href="#DejaVuSans-4c" transform="translate(57.519531 0)"/>
      <use xlink:href="#DejaVuSans-20" transform="translate(113.232422 0)"/>
      <use xlink:href="#DejaVuSans-74" transform="translate(145.019531 0)"/>
      <use xlink:href="#DejaVuSans-72" transform="translate(184.228516 0)"/>
      <use xlink:href="#DejaVuSans-61" transform="translate(225.341797 0)"/>
      <use xlink:href="#DejaVuSans-69" transform="translate(286.621094 0)"/>
      <use xlink:href="#DejaVuSans-6e" transform="translate(314.404297 0)"/>
      <use xlink:href="#DejaVuSans-69" transform="translate(377.783203 0)"/>
      <use xlink:href="#DejaVuSans-6e" transform="translate(405.566406 0)"/>
      <use xlink:href="#DejaVuSans-67" transform="translate(468.945312 0)"/>
      <use xlink:href="#DejaVuSans-20" transform="translate(532.421875 0)"/>
      <use xlink:href="#DejaVuSans-72" transform="translate(564.208984 0)"/>
      <use xlink:href="#DejaVuSans-6f" transform="translate(603.072266 0)"/>
      <use xlink:href="#DejaVuSans-75" transform="translate(664.253906 0)"/>
      <use xlink:href="#DejaVuSans-6e" transform="translate(727.632812 0)"/>
      <use xlink:href="#DejaVuSans-64" transform="translate(791.011719 0)"/>
     </g>
    </g>
   </g>
   <g id="matplotlib.axis_2">
    <g id="ytick_1">
     <g id="line2d_9">
      <defs>
       <path id="mfbfe41f7cb" d="M 0 0 
L -3.5 0 
" style="stroke: #000000; stroke-width: 0.8"/>
      </defs>
      <g>
       <use xlink:href="#mfbfe41f7cb" x="46.965625" y="267.350183" style="stroke: #000000; stroke-width: 0.8"/>
      </g>
     </g>
     <g id="text_10">
      <!-- 20 -->
      <g transform="translate(27.240625 271.149401) scale(0.1 -0.1)">
       <use xlink:href="#DejaVuSans-32"/>
       <use xlink:href="#DejaVuSans-30" transform="translate(63.623047 0)"/>
      </g>
     </g>
    </g>
    <g id="ytick_2">
     <g id="line2d_10">
      <g>
       <use xlink:href="#mfbfe41f7cb" x="46.965625" y="207.97582" style="stroke: #000000; stroke-width: 0.8"/>
      </g>
     </g>
     <g id="text_11">
      <!-- 40 -->
      <g transform="translate(27.240625 211.775039) scale(0.1 -0.1)">
       <use xlink:href="#DejaVuSans-34"/>
       <use xlink:href="#DejaVuSans-30" transform="translate(63.623047 0)"/>
      </g>
     </g>
    </g>
    <g id="ytick_3">
     <g id="line2d_11">
      <g>
       <use xlink:href="#mfbfe41f7cb" x="46.965625" y="148.601457" style="stroke: #000000; stroke-width: 0.8"/>
      </g>
     </g>
     <g id="text_12">
      <!-- 60 -->
      <g transform="translate(27.240625 152.400676) scale(0.1 -0.1)">
       <use xlink:href="#DejaVuSans-36"/>
       <use xlink:href="#DejaVuSans-30" transform="translate(63.623047 0)"/>
      </g>
     </g>
    </g>
    <g id="ytick_4">
     <g id="line2d_12">
      <g>
       <use xlink:href="#mfbfe41f7cb" x="46.965625" y="89.227094" style="stroke: #000000; stroke-width: 0.8"/>
      </g>
     </g>
     <g id="text_13">
      <!-- 80 -->
      <g transform="translate(27.240625 93.026313) scale(0.1 -0.1)">
       <use xlink:href="#DejaVuSans-38"/>
       <use xlink:href="#DejaVuSans-30" transform="translate(63.623047 0)"/>
      </g>
     </g>
    </g>
    <g id="ytick_5">
     <g id="line2d_13">
      <g>
       <use xlink:href="#mfbfe41f7cb" x="46.965625" y="29.852732" style="stroke: #000000; stroke-width: 0.8"/>
      </g>
     </g>
     <g id="text_14">
      <!-- 100 -->
      <g transform="translate(20.878125 33.65195) scale(0.1 -0.1)">
       <use xlink:href="#DejaVuSans-31"/>
       <use xlink:href="#DejaVuSans-30" transform="translate(63.623047 0)"/>
       <use xlink:href="#DejaVuSans-30" transform="translate(127.246094 0)"/>
      </g>
     </g>
    </g>
    <g id="text_15">
     <!-- test accuracy (%) -->
     <g transform="translate(14.798438 211.889531) rotate(-90) scale(0.1 -0.1)">
      <defs>
       <path id="DejaVuSans-65" d="M 3597 1894 
L 3597 1613 
L 953 1613 
Q 991 1019 1311 708 
Q 1631 397 2203 397 
Q 2534 397 2845 478 
Q 3156 559 3463 722 
L 3463 178 
Q 3153 47 2828 -22 
Q 2503 -91 2169 -91 
Q 1331 -91 842 396 
Q 353 884 353 1716 
Q 353 2575 817 3079 
Q 1281 3584 2069 3584 
Q 2775 3584 3186 3129 
Q 3597 2675 3597 1894 
z
M 3022 2063 
Q 3016 2534 2758 2815 
Q 2500 3097 2075 3097 
Q 1594 3097 1305 2825 
Q 1016 2553 972 2059 
L 3022 2063 
z
" transform="scale(0.015625)"/>
       <path id="DejaVuSans-73" d="M 2834 3397 
L 2834 2853 
Q 2591 2978 2328 3040 
Q 2066 3103 1784 3103 
Q 1356 3103 1142 2972 
Q 928 2841 928 2578 
Q 928 2378 1081 2264 
Q 1234 2150 1697 2047 
L 1894 2003 
Q 2506 1872 2764 1633 
Q 3022 1394 3022 966 
Q 3022 478 2636 193 
Q 2250 -91 1575 -91 
Q 1294 -91 989 -36 
Q 684 19 347 128 
L 347 722 
Q 666 556 975 473 
Q 1284 391 1588 391 
Q 1994 391 2212 530 
Q 2431 669 2431 922 
Q 2431 1156 2273 1281 
Q 2116 1406 1581 1522 
L 1381 1569 
Q 847 1681 609 1914 
Q 372 2147 372 2553 
Q 372 3047 722 3315 
Q 1072 3584 1716 3584 
Q 2034 3584 2315 3537 
Q 2597 3491 2834 3397 
z
" transform="scale(0.015625)"/>
       <path id="DejaVuSans-63" d="M 3122 3366 
L 3122 2828 
Q 2878 2963 2633 3030 
Q 2388 3097 2138 3097 
Q 1578 3097 1268 2742 
Q 959 2388 959 1747 
Q 959 1106 1268 751 
Q 1578 397 2138 397 
Q 2388 397 2633 464 
Q 2878 531 3122 666 
L 3122 134 
Q 2881 22 2623 -34 
Q 2366 -91 2075 -91 
Q 1284 -91 818 406 
Q 353 903 353 1747 
Q 353 2603 823 3093 
Q 1294 3584 2113 3584 
Q 2378 3584 2631 3529 
Q 2884 3475 3122 3366 
z
" transform="scale(0.015625)"/>
       <path id="DejaVuSans-79" d="M 2059 -325 
Q 1816 -950 1584 -1140 
Q 1353 -1331 966 -1331 
L 506 -1331 
L 506 -850 
L 844 -850 
Q 1081 -850 1212 -737 
Q 1344 -625 1503 -206 
L 1606 56 
L 191 3500 
L 800 3500 
L 1894 763 
L 2988 3500 
L 3597 3500 
L 2059 -325 
z
" transform="scale(0.015625)"/>
       <path id="DejaVuSans-28" d="M 1984 4856 
Q 1566 4138 1362 3434 
Q 1159 2731 1159 2009 
Q 1159 1288 1364 580 
Q 1569 -128 1984 -844 
L 1484 -844 
Q 1016 -109 783 600 
Q 550 1309 550 2009 
Q 550 2706 781 3412 
Q 1013 4119 1484 4856 
L 1984 4856 
z
" transform="scale(0.015625)"/>
       <path id="DejaVuSans-25" d="M 4653 2053 
Q 4381 2053 4226 1822 
Q 4072 1591 4072 1178 
Q 4072 772 4226 539 
Q 4381 306 4653 306 
Q 4919 306 5073 539 
Q 5228 772 5228 1178 
Q 5228 1588 5073 1820 
Q 4919 2053 4653 2053 
z
M 4653 2450 
Q 5147 2450 5437 2106 
Q 5728 1763 5728 1178 
Q 5728 594 5436 251 
Q 5144 -91 4653 -91 
Q 4153 -91 3862 251 
Q 3572 594 3572 1178 
Q 3572 1766 3864 2108 
Q 4156 2450 4653 2450 
z
M 1428 4353 
Q 1159 4353 1004 4120 
Q 850 3888 850 3481 
Q 850 3069 1003 2837 
Q 1156 2606 1428 2606 
Q 1700 2606 1854 2837 
Q 2009 3069 2009 3481 
Q 2009 3884 1853 4118 
Q 1697 4353 1428 4353 
z
M 4250 4750 
L 4750 4750 
L 1831 -91 
L 1331 -91 
L 4250 4750 
z
M 1428 4750 
Q 1922 4750 2215 4408 
Q 2509 4066 2509 3481 
Q 2509 2891 2217 2550 
Q 1925 2209 1428 2209 
Q 931 2209 642 2551 
Q 353 2894 353 3481 
Q 353 4063 643 4406 
Q 934 4750 1428 4750 
z
" transform="scale(0.015625)"/>
       <path id="DejaVuSans-29" d="M 513 4856 
L 1013 4856 
Q 1481 4119 1714 3412 
Q 1947 2706 1947 2009 
Q 1947 1309 1714 600 
Q 1481 -109 1013 -844 
L 513 -844 
Q 928 -128 1133 580 
Q 1338 1288 1338 2009 
Q 1338 2731 1133 3434 
Q 928 4138 513 4856 
z
" transform="scale(0.015625)"/>
      </defs>
      <use xlink:href="#DejaVuSans-74"/>
      <use xlink:href="#DejaVuSans-65" transform="translate(39.208984 0)"/>
      <use xlink:href="#DejaVuSans-73" transform="translate(100.732422 0)"/>
      <use xlink:href="#DejaVuSans-74" transform="translate(152.832031 0)"/>
      <use xlink:href="#DejaVuSans-20" transform="translate(192.041016 0)"/>
      <use xlink:href="#DejaVuSans-61" transform="translate(223.828125 0)"/>
      <use xlink:href="#DejaVuSans-63" transform="translate(285.107422 0)"/>
      <use xlink:href="#DejaVuSans-63" transform="translate(340.087891 0)"/>
      <use xlink:href="#DejaVuSans-75" transform="translate(395.068359 0)"/>
      <use xlink:href="#DejaVuSans-72" transform="translate(458.447266 0)"/>
      <use xlink:href="#DejaVuSans-61" transform="translate(499.560547 0)"/>
      <use xlink:href="#DejaVuSans-63" transform="translate(560.839844 0)"/>
      <use xlink:href="#DejaVuSans-79" transform="translate(615.820312 0)"/>
      <use xlink:href="#DejaVuSans-20" transform="translate(675 0)"/>
      <use xlink:href="#DejaVuSans-28" transform="translate(706.787109 0)"/>
      <use xlink:href="#DejaVuSans-25" transform="translate(745.800781 0)"/>
      <use xlink:href="#DejaVuSans-29" transform="translate(840.820312 0)"/>
     </g>
    </g>
   </g>
   <g id="line2d_14">
    <path d="M 70.344261 297.809231 
L 73.482333 238.93955 
L 76.620405 150.085816 
L 79.758477 142.307775 
L 82.896549 67.377329 
L 86.034621 55.591518 
L 89.172693 62.775816 
L 92.310765 51.999369 
L 95.448837 50.544697 
L 98.586909 48.674405 
L 101.724981 49.654082 
L 104.863053 48.763466 
L 108.001125 45.943184 
L 111.139197 44.636948 
L 114.277269 42.796343 
L 117.415341 43.716645 
L 120.553413 42.707281 
L 123.691485 42.054163 
L 129.967629 41.519794 
L 133.105701 39.471378 
L 136.243773 39.293255 
L 139.381845 40.599491 
L 142.519917 39.144819 
L 145.657989 38.907322 
L 148.796061 40.094809 
L 151.934133 38.758886 
L 158.210277 38.640137 
L 161.348349 37.690148 
L 164.486421 38.40264 
L 167.624493 38.462014 
L 170.762565 37.957332 
L 173.900637 37.749522 
L 177.038709 37.096404 
L 180.176781 36.888594 
L 183.314853 37.482337 
L 186.452925 37.096404 
L 192.729069 37.155778 
L 195.867141 36.829219 
L 199.005213 37.155778 
L 202.143285 37.749522 
L 205.281357 36.591722 
L 208.419429 36.324537 
L 214.695573 36.235476 
L 217.833645 35.849542 
L 220.971717 36.443286 
L 224.109789 37.185465 
L 227.247861 36.116727 
L 230.385933 39.293255 
L 233.524005 128.443861 
L 236.662077 297.631108 
L 537.916989 297.631108 
L 537.916989 297.631108 
" clip-path="url(#p583a845c46)" style="fill: none; stroke: #1f77b4; stroke-width: 2; stroke-linecap: square"/>
   </g>
   <g id="line2d_15">
    <path d="M 70.344261 262.511172 
L 73.482333 270.704834 
L 76.620405 269.754844 
L 79.758477 216.258543 
L 82.896549 226.500621 
L 86.034621 138.448441 
L 89.172693 119.745517 
L 92.310765 124.792338 
L 95.448837 111.878414 
L 98.586909 92.284874 
L 101.724981 78.242837 
L 104.863053 77.678781 
L 108.001125 98.994177 
L 111.139197 98.22231 
L 114.277269 78.658458 
L 117.415341 73.285078 
L 120.553413 57.550872 
L 123.691485 58.263364 
L 126.829557 60.786775 
L 129.967629 55.324333 
L 133.105701 50.366574 
L 136.243773 57.521185 
L 139.381845 53.157169 
L 142.519917 52.593113 
L 145.657989 58.352426 
L 148.796061 56.749318 
L 151.934133 58.916482 
L 155.072205 51.969682 
L 158.210277 56.927441 
L 161.348349 51.494687 
L 164.486421 50.455636 
L 167.624493 49.713456 
L 170.762565 50.3072 
L 173.900637 45.913497 
L 177.038709 55.710267 
L 180.176781 46.655676 
L 183.314853 48.941589 
L 186.452925 47.24942 
L 189.590997 49.950953 
L 192.729069 49.000964 
L 195.867141 46.269743 
L 199.005213 45.171317 
L 202.143285 50.633759 
L 205.281357 49.624394 
L 208.419429 44.043204 
L 211.557501 46.240056 
L 214.695573 44.547886 
L 217.833645 47.694728 
L 220.971717 45.201004 
L 224.109789 45.319753 
L 227.247861 43.419774 
L 230.385933 44.429138 
L 233.524005 48.40722 
L 236.662077 42.885404 
L 239.800149 42.261973 
L 242.938221 43.835394 
L 246.076293 43.538522 
L 249.214365 44.161953 
L 252.352437 43.122902 
L 255.490509 42.440097 
L 258.628581 42.202599 
L 261.766653 41.786979 
L 264.904725 42.143225 
L 268.042797 41.994789 
L 271.180869 42.558845 
L 274.318941 42.172912 
L 277.457013 42.647907 
L 280.595085 41.965102 
L 283.733157 41.015112 
L 286.871229 42.647907 
L 290.009301 42.410409 
L 293.147373 41.222922 
L 296.285445 42.291661 
L 299.423517 40.896363 
L 305.699661 41.519794 
L 311.975805 41.727604 
L 315.113877 41.608855 
L 318.251949 41.965102 
L 321.390021 40.569804 
L 324.528093 41.074486 
L 327.666165 40.658866 
L 330.804237 40.391681 
L 333.942309 40.92605 
L 337.080381 40.480743 
L 340.218453 40.51043 
L 343.356525 40.777614 
L 346.494597 40.154184 
L 349.632669 40.065122 
L 352.770741 40.688553 
L 355.908813 39.857312 
L 359.046885 40.391681 
L 362.184957 40.243245 
L 365.323029 41.015112 
L 368.461101 40.480743 
L 371.599173 41.371358 
L 374.737245 40.866676 
L 377.875317 41.341671 
L 381.013389 40.451055 
L 384.151461 39.76825 
L 387.289533 40.71824 
L 390.427605 40.035435 
L 393.565677 40.51043 
L 396.703749 39.797937 
L 399.841821 40.480743 
L 402.979893 39.590127 
L 406.117965 40.243245 
L 409.256037 39.827625 
L 412.394109 39.97606 
L 415.532181 40.777614 
L 418.670253 40.005748 
L 421.808325 39.501066 
L 424.946397 39.649501 
L 428.084469 40.391681 
L 431.222541 40.361994 
L 434.360613 40.599491 
L 437.498685 39.441691 
L 440.636757 40.154184 
L 443.774829 40.599491 
L 446.912901 39.649501 
L 450.050973 40.065122 
L 453.189045 39.412004 
L 456.327117 39.412004 
L 462.603261 39.738563 
L 465.741333 39.708876 
L 468.879405 39.471378 
L 472.017477 39.679189 
L 475.155549 39.679189 
L 478.293621 39.322942 
L 481.431693 39.233881 
L 484.569765 39.501066 
L 487.707837 39.501066 
L 493.983981 39.35263 
L 500.260125 39.382317 
L 503.398197 39.738563 
L 506.536269 39.827625 
L 509.674341 39.263568 
L 512.812413 40.243245 
L 515.950485 39.412004 
L 522.226629 40.391681 
L 525.364701 39.916686 
L 528.502773 39.679189 
L 531.640845 39.233881 
L 534.778917 39.115132 
L 537.916989 39.115132 
L 537.916989 39.115132 
" clip-path="url(#p583a845c46)" style="fill: none; stroke: #ff7f0e; stroke-width: 2; stroke-linecap: square"/>
   </g>
   <g id="line2d_16">
    <path d="M 70.344261 297.809231 
L 73.482333 264.233029 
L 76.620405 228.341226 
L 79.758477 279.373491 
L 82.896549 225.253759 
L 86.034621 132.214133 
L 89.172693 73.819447 
L 92.310765 89.37553 
L 95.448837 86.792745 
L 98.586909 64.73517 
L 101.724981 87.05993 
L 104.863053 59.688349 
L 108.001125 57.135251 
L 111.139197 62.657067 
L 114.277269 54.849338 
L 117.415341 60.51959 
L 120.553413 48.050974 
L 123.691485 50.663446 
L 126.829557 50.663446 
L 129.967629 50.93063 
L 133.105701 46.625989 
L 136.243773 45.379127 
L 139.381845 45.082256 
L 142.519917 46.180681 
L 145.657989 47.961912 
L 148.796061 44.429138 
L 151.934133 45.557251 
L 155.072205 42.885404 
L 158.210277 52.266554 
L 161.348349 44.726009 
L 164.486421 46.032245 
L 167.624493 41.935414 
L 170.762565 46.240056 
L 173.900637 43.627584 
L 177.038709 43.24165 
L 180.176781 42.024476 
L 183.314853 43.597897 
L 186.452925 42.143225 
L 189.590997 41.697917 
L 192.729069 41.757291 
L 195.867141 41.044799 
L 199.005213 39.827625 
L 202.143285 40.391681 
L 205.281357 41.757291 
L 208.419429 41.697917 
L 211.557501 38.372953 
L 214.695573 39.827625 
L 217.833645 38.729199 
L 220.971717 40.065122 
L 224.109789 39.916686 
L 227.247861 39.293255 
L 230.385933 40.154184 
L 233.524005 296.206123 
L 236.662077 300.24358 
L 239.800149 300.24358 
L 242.938221 296.770179 
L 246.076293 293.029594 
L 537.916989 293.029594 
L 537.916989 293.029594 
" clip-path="url(#p583a845c46)" style="fill: none; stroke: #2ca02c; stroke-width: 2; stroke-linecap: square"/>
   </g>
   <g id="line2d_17">
    <path d="M 70.344261 300.24358 
L 73.482333 275.395409 
L 76.620405 295.374882 
L 79.758477 189.926014 
L 82.896549 168.194997 
L 86.034621 188.768214 
L 89.172693 148.928016 
L 92.310765 122.23924 
L 95.448837 97.005136 
L 98.586909 64.764857 
L 101.724981 110.839362 
L 104.863053 63.428934 
L 108.001125 72.542898 
L 111.139197 65.982031 
L 114.277269 68.386693 
L 117.415341 61.350831 
L 120.553413 48.674405 
L 123.691485 48.555656 
L 126.829557 47.338481 
L 129.967629 45.794748 
L 133.105701 50.633759 
L 136.243773 51.999369 
L 139.381845 48.050974 
L 142.519917 53.810287 
L 145.657989 48.229097 
L 148.796061 53.246231 
L 151.934133 47.160358 
L 155.072205 47.308794 
L 158.210277 46.240056 
L 161.348349 42.707281 
L 164.486421 43.301025 
L 167.624493 43.390086 
L 170.762565 41.965102 
L 173.900637 44.726009 
L 177.038709 43.686958 
L 180.176781 44.696322 
L 183.314853 41.697917 
L 186.452925 41.786979 
L 189.590997 40.688553 
L 192.729069 44.280702 
L 195.867141 46.150994 
L 199.005213 40.599491 
L 202.143285 42.588532 
L 205.281357 39.501066 
L 208.419429 42.410409 
L 211.557501 42.974466 
L 214.695573 41.519794 
L 217.833645 39.144819 
L 220.971717 39.501066 
L 224.109789 40.065122 
L 227.247861 46.061933 
L 230.385933 44.280702 
L 233.524005 46.29943 
L 236.662077 44.844758 
L 239.800149 71.622596 
L 242.938221 65.566411 
L 246.076293 99.201987 
L 249.214365 49.980641 
L 252.352437 52.949359 
L 255.490509 46.566615 
L 258.628581 49.535333 
L 261.766653 40.985425 
L 264.904725 297.631108 
L 271.180869 297.631108 
L 274.318941 297.809231 
L 280.595085 297.809231 
L 283.733157 296.740492 
L 286.871229 297.631108 
L 290.009301 296.087374 
L 293.147373 297.809231 
L 296.285445 296.206123 
L 299.423517 296.206123 
L 302.561589 297.631108 
L 305.699661 297.631108 
L 308.837733 296.770179 
L 311.975805 300.24358 
L 315.113877 296.740492 
L 318.251949 298.284226 
L 321.390021 297.809231 
L 324.528093 297.809231 
L 327.666165 296.740492 
L 330.804237 296.740492 
L 333.942309 297.631108 
L 337.080381 297.631108 
L 340.218453 296.740492 
L 343.356525 300.24358 
L 346.494597 298.284226 
L 349.632669 293.029594 
L 352.770741 296.087374 
L 355.908813 296.206123 
L 359.046885 293.029594 
L 362.184957 296.740492 
L 365.323029 296.740492 
L 368.461101 296.206123 
L 371.599173 296.740492 
L 374.737245 293.029594 
L 381.013389 293.029594 
L 384.151461 298.284226 
L 387.289533 296.770179 
L 390.427605 296.087374 
L 393.565677 297.631108 
L 396.703749 297.809231 
L 399.841821 297.631108 
L 409.256037 297.631108 
L 412.394109 293.029594 
L 415.532181 297.631108 
L 418.670253 296.087374 
L 421.808325 296.740492 
L 424.946397 293.029594 
L 428.084469 298.284226 
L 431.222541 296.087374 
L 434.360613 297.631108 
L 437.498685 293.029594 
L 440.636757 300.24358 
L 443.774829 293.029594 
L 446.912901 298.284226 
L 450.050973 297.631108 
L 453.189045 293.029594 
L 459.465189 293.029594 
L 462.603261 296.206123 
L 465.741333 297.631108 
L 468.879405 296.206123 
L 472.017477 296.206123 
L 475.155549 297.809231 
L 478.293621 296.206123 
L 481.431693 296.206123 
L 484.569765 293.029594 
L 487.707837 297.571733 
L 490.845909 298.284226 
L 493.983981 297.571733 
L 497.122053 297.809231 
L 500.260125 300.24358 
L 503.398197 296.770179 
L 506.536269 293.029594 
L 509.674341 297.631108 
L 512.812413 296.740492 
L 515.950485 296.740492 
L 519.088557 293.029594 
L 522.226629 296.206123 
L 525.364701 296.740492 
L 528.502773 293.029594 
L 531.640845 293.029594 
L 534.778917 297.631108 
L 537.916989 296.770179 
L 537.916989 296.770179 
" clip-path="url(#p583a845c46)" style="fill: none; stroke: #d62728; stroke-width: 2; stroke-linecap: square"/>
   </g>
   <g id="line2d_18">
    <path d="M 70.344261 262.184613 
L 73.482333 79.460012 
L 76.620405 76.194422 
L 79.758477 53.394666 
L 82.896549 54.314969 
L 86.034621 47.546292 
L 89.172693 48.169723 
L 92.310765 46.922861 
L 95.448837 43.419774 
L 101.724981 45.88381 
L 104.863053 43.301025 
L 108.001125 40.332307 
L 111.139197 41.163548 
L 114.277269 42.647907 
L 117.415341 40.272932 
L 120.553413 44.369763 
L 123.691485 40.243245 
L 126.829557 38.105768 
L 129.967629 39.115132 
L 133.105701 40.540117 
L 136.243773 38.580763 
L 142.519917 39.797937 
L 145.657989 38.135455 
L 148.796061 37.601086 
L 151.934133 39.97606 
L 155.072205 39.501066 
L 158.210277 38.729199 
L 161.348349 36.977655 
L 164.486421 37.482337 
L 167.624493 37.779209 
L 170.762565 38.19483 
L 173.900637 36.50266 
L 177.038709 37.957332 
L 180.176781 36.769845 
L 183.314853 36.947968 
L 186.452925 38.105768 
L 189.590997 37.096404 
L 192.729069 36.532347 
L 195.867141 35.55267 
L 199.005213 37.03703 
L 202.143285 37.868271 
L 205.281357 36.50266 
L 208.419429 37.007342 
L 211.557501 35.701106 
L 214.695573 36.116727 
L 217.833645 36.651096 
L 220.971717 39.144819 
L 224.109789 39.233881 
L 227.247861 38.491701 
L 230.385933 36.383912 
L 233.524005 194.70565 
L 236.662077 298.224851 
L 239.800149 292.97022 
L 246.076293 293.029594 
L 249.214365 297.631108 
L 537.916989 297.631108 
L 537.916989 297.631108 
" clip-path="url(#p583a845c46)" style="fill: none; stroke: #9467bd; stroke-width: 2; stroke-linecap: square"/>
   </g>
   <g id="line2d_19">
    <path d="M 70.344261 297.809231 
L 76.620405 297.809231 
L 79.758477 290.149938 
L 82.896549 283.796881 
L 86.034621 296.057687 
L 89.172693 236.000519 
L 92.310765 295.760815 
L 95.448837 240.809842 
L 98.586909 300.24358 
L 101.724981 181.376105 
L 104.863053 164.395038 
L 108.001125 171.668397 
L 111.139197 217.921026 
L 114.277269 139.784364 
L 117.415341 151.688924 
L 120.553413 246.598843 
L 123.691485 203.55243 
L 126.829557 157.181053 
L 129.967629 181.732352 
L 133.105701 168.937176 
L 136.243773 153.885775 
L 139.381845 117.667414 
L 142.519917 107.633147 
L 145.657989 143.851508 
L 148.796061 87.920858 
L 151.934133 73.433514 
L 155.072205 110.750301 
L 158.210277 118.350219 
L 161.348349 74.056945 
L 164.486421 84.091212 
L 167.624493 86.584935 
L 170.762565 85.100576 
L 173.900637 97.212946 
L 177.038709 69.57418 
L 180.176781 110.394055 
L 183.314853 86.288063 
L 186.452925 73.344452 
L 189.590997 86.584935 
L 192.729069 73.522575 
L 195.867141 68.119508 
L 199.005213 77.560032 
L 202.143285 70.167924 
L 205.281357 71.385098 
L 208.419429 72.097591 
L 211.557501 59.985221 
L 214.695573 80.855309 
L 217.833645 68.41638 
L 220.971717 75.333493 
L 224.109789 79.786571 
L 227.247861 60.757087 
L 230.385933 68.00076 
L 233.524005 57.580559 
L 236.662077 48.674405 
L 239.800149 57.283687 
L 242.938221 54.849338 
L 246.076293 62.924252 
L 249.214365 61.024272 
L 252.352437 116.45024 
L 255.490509 51.791559 
L 258.628581 70.999165 
L 261.766653 86.584935 
L 264.904725 62.775816 
L 268.042797 62.033636 
L 271.180869 100.923844 
L 274.318941 81.924048 
L 277.457013 72.216339 
L 280.595085 52.83061 
L 286.871229 110.987798 
L 290.009301 57.847744 
L 293.147373 63.339872 
L 296.285445 47.991599 
L 299.423517 75.214745 
L 302.561589 52.979046 
L 305.699661 67.525765 
L 308.837733 54.404031 
L 311.975805 45.468189 
L 315.113877 44.607261 
L 318.251949 49.238461 
L 321.390021 47.04161 
L 324.528093 50.425948 
L 327.666165 46.744738 
L 330.804237 44.577574 
L 333.942309 43.24165 
L 337.080381 52.949359 
L 340.218453 44.666635 
L 343.356525 47.338481 
L 346.494597 44.696322 
L 349.632669 44.340076 
L 352.770741 44.93382 
L 355.908813 44.161953 
L 359.046885 53.869661 
L 362.184957 70.019488 
L 365.323029 74.888186 
L 368.461101 52.207179 
L 371.599173 48.585343 
L 374.737245 44.19164 
L 377.875317 55.324333 
L 381.013389 48.19941 
L 384.151461 64.289862 
L 387.289533 43.390086 
L 390.427605 48.466594 
L 393.565677 43.924456 
L 396.703749 46.804112 
L 399.841821 46.804112 
L 402.979893 49.475959 
L 406.117965 48.19941 
L 409.256037 44.993194 
L 412.394109 45.379127 
L 415.532181 47.932225 
L 418.670253 54.19622 
L 421.808325 51.346251 
L 424.946397 44.577574 
L 428.084469 44.844758 
L 431.222541 44.043204 
L 434.360613 43.77602 
L 437.498685 46.150994 
L 440.636757 44.844758 
L 443.774829 44.666635 
L 446.912901 43.24165 
L 450.050973 44.161953 
L 453.189045 49.238461 
L 456.327117 47.24942 
L 459.465189 43.330712 
L 462.603261 48.40722 
L 465.741333 44.726009 
L 468.879405 45.111943 
L 472.017477 46.09162 
L 475.155549 56.927441 
L 478.293621 41.994789 
L 481.431693 40.92605 
L 484.569765 42.558845 
L 487.707837 48.466594 
L 490.845909 48.080661 
L 493.983981 46.358804 
L 497.122053 43.835394 
L 500.260125 47.961912 
L 503.398197 44.815071 
L 506.536269 45.586938 
L 509.674341 40.569804 
L 512.812413 40.688553 
L 515.950485 41.015112 
L 519.088557 40.599491 
L 522.226629 41.015112 
L 525.364701 41.163548 
L 528.502773 42.974466 
L 531.640845 43.063527 
L 534.778917 41.935414 
L 537.916989 41.074486 
L 537.916989 41.074486 
" clip-path="url(#p583a845c46)" style="fill: none; stroke: #8c564b; stroke-width: 2; stroke-linecap: square"/>
   </g>
   <g id="line2d_20">
    <path d="M 70.344261 296.740492 
L 73.482333 272.545439 
L 76.620405 214.655436 
L 79.758477 188.501029 
L 82.896549 133.015687 
L 86.034621 116.598676 
L 92.310765 92.047377 
L 95.448837 74.324129 
L 98.586909 66.546088 
L 101.724981 72.394463 
L 104.863053 57.343062 
L 108.001125 63.280498 
L 111.139197 55.829015 
L 114.277269 51.702497 
L 117.415341 46.833799 
L 120.553413 46.952548 
L 123.691485 48.377533 
L 126.829557 44.93382 
L 129.967629 46.685363 
L 133.105701 44.666635 
L 136.243773 46.121307 
L 139.381845 43.77602 
L 142.519917 42.766656 
L 145.657989 47.04161 
L 148.796061 47.071297 
L 151.934133 43.063527 
L 155.072205 42.736968 
L 158.210277 41.757291 
L 161.348349 42.558845 
L 164.486421 41.638543 
L 167.624493 43.152589 
L 170.762565 41.935414 
L 173.900637 41.401045 
L 177.038709 43.24165 
L 180.176781 40.391681 
L 183.314853 40.421368 
L 186.452925 41.935414 
L 189.590997 40.540117 
L 192.729069 41.490107 
L 195.867141 40.896363 
L 199.005213 39.797937 
L 202.143285 39.76825 
L 205.281357 39.115132 
L 208.419429 38.758886 
L 211.557501 39.293255 
L 214.695573 40.272932 
L 217.833645 40.51043 
L 220.971717 39.144819 
L 224.109789 38.996383 
L 227.247861 38.61045 
L 230.385933 40.243245 
L 233.524005 39.97606 
L 236.662077 38.432327 
L 239.800149 40.391681 
L 242.938221 38.61045 
L 246.076293 41.282296 
L 249.214365 39.115132 
L 252.352437 39.738563 
L 255.490509 37.66046 
L 258.628581 50.604071 
L 261.766653 38.81826 
L 264.904725 38.254204 
L 274.318941 38.283891 
L 277.457013 39.797937 
L 280.595085 38.580763 
L 283.733157 37.571399 
L 286.871229 39.263568 
L 290.009301 40.213558 
L 293.147373 37.749522 
L 296.285445 39.085445 
L 299.423517 38.847948 
L 302.561589 38.016707 
L 305.699661 38.135455 
L 308.837733 37.779209 
L 311.975805 39.115132 
L 315.113877 38.016707 
L 318.251949 38.313578 
L 321.390021 43.122902 
L 324.528093 39.115132 
L 327.666165 37.808896 
L 330.804237 40.332307 
L 333.942309 38.491701 
L 337.080381 38.283891 
L 340.218453 38.788573 
L 343.356525 38.372953 
L 346.494597 38.462014 
L 349.632669 39.471378 
L 352.770741 39.085445 
L 355.908813 38.254204 
L 359.046885 38.669824 
L 362.184957 39.233881 
L 365.323029 38.758886 
L 368.461101 39.115132 
L 371.599173 40.361994 
L 374.737245 38.758886 
L 377.875317 41.015112 
L 381.013389 43.746333 
L 384.151461 44.132266 
L 387.289533 40.540117 
L 390.427605 37.24484 
L 393.565677 38.076081 
L 396.703749 40.065122 
L 399.841821 39.97606 
L 402.979893 39.263568 
L 406.117965 39.530753 
L 409.256037 38.907322 
L 412.394109 38.729199 
L 415.532181 38.758886 
L 418.670253 39.382317 
L 421.808325 39.293255 
L 424.946397 37.512024 
L 428.084469 39.085445 
L 431.222541 38.580763 
L 434.360613 39.233881 
L 437.498685 39.56044 
L 440.636757 38.105768 
L 443.774829 44.726009 
L 446.912901 39.174507 
L 450.050973 39.293255 
L 453.189045 39.233881 
L 456.327117 38.283891 
L 459.465189 40.154184 
L 462.603261 45.230692 
L 465.741333 41.965102 
L 468.879405 43.538522 
L 472.017477 39.916686 
L 475.155549 39.827625 
L 478.293621 38.462014 
L 481.431693 38.254204 
L 484.569765 37.838583 
L 487.707837 38.551076 
L 490.845909 38.729199 
L 493.983981 38.521389 
L 497.122053 39.322942 
L 500.260125 38.61045 
L 503.398197 38.372953 
L 506.536269 40.035435 
L 509.674341 42.172912 
L 512.812413 48.169723 
L 515.950485 41.163548 
L 519.088557 43.568209 
L 522.226629 43.063527 
L 525.364701 41.549481 
L 528.502773 39.649501 
L 531.640845 38.521389 
L 537.916989 41.311984 
L 537.916989 41.311984 
" clip-path="url(#p583a845c46)" style="fill: none; stroke: #e377c2; stroke-width: 2; stroke-linecap: square"/>
   </g>
   <g id="line2d_21">
    <path d="M 70.344261 270.289214 
L 76.620405 162.762243 
L 79.758477 140.081236 
L 82.896549 144.415565 
L 86.034621 100.923844 
L 89.172693 95.609838 
L 92.310765 74.94756 
L 95.448837 58.233677 
L 98.586909 54.997774 
L 101.724981 53.899349 
L 104.863053 54.968087 
L 108.001125 52.414989 
L 111.139197 49.208774 
L 114.277269 50.93063 
L 117.415341 48.40722 
L 120.553413 44.458825 
L 123.691485 47.575979 
L 126.829557 43.77602 
L 129.967629 45.14163 
L 133.105701 42.61822 
L 136.243773 45.230692 
L 139.381845 43.271338 
L 142.519917 41.846353 
L 145.657989 42.321348 
L 148.796061 44.547886 
L 151.934133 41.905727 
L 155.072205 41.608855 
L 158.210277 41.46042 
L 161.348349 43.03384 
L 164.486421 39.738563 
L 167.624493 40.985425 
L 170.762565 39.738563 
L 173.900637 38.758886 
L 177.038709 40.124496 
L 180.176781 38.669824 
L 183.314853 38.343266 
L 186.452925 39.144819 
L 189.590997 39.026071 
L 192.729069 38.40264 
L 195.867141 38.254204 
L 199.005213 38.551076 
L 202.143285 37.155778 
L 205.281357 37.45265 
L 208.419429 37.24484 
L 211.557501 37.868271 
L 214.695573 37.868271 
L 217.833645 37.719835 
L 220.971717 36.740158 
L 224.109789 37.422963 
L 227.247861 36.947968 
L 230.385933 39.35263 
L 233.524005 63.161749 
L 236.662077 297.631108 
L 537.916989 297.631108 
L 537.916989 297.631108 
" clip-path="url(#p583a845c46)" style="fill: none; stroke: #7f7f7f; stroke-width: 2; stroke-linecap: square"/>
   </g>
   <g id="patch_3">
    <path d="M 46.965625 313.478125 
L 46.965625 22.318125 
" style="fill: none; stroke: #000000; stroke-width: 0.8; stroke-linejoin: miter; stroke-linecap: square"/>
   </g>
   <g id="patch_4">
    <path d="M 561.295625 313.478125 
L 561.295625 22.318125 
" style="fill: none; stroke: #000000; stroke-width: 0.8; stroke-linejoin: miter; stroke-linecap: square"/>
   </g>
   <g id="patch_5">
    <path d="M 46.965625 313.478125 
L 561.295625 313.478125 
" style="fill: none; stroke: #000000; stroke-width: 0.8; stroke-linejoin: miter; stroke-linecap: square"/>
   </g>
   <g id="patch_6">
    <path d="M 46.965625 22.318125 
L 561.295625 22.318125 
" style="fill: none; stroke: #000000; stroke-width: 0.8; stroke-linejoin: miter; stroke-linecap: square"/>
   </g>
   <g id="text_16">
    <!-- mnist, SCALING attack, clients=100 -->
    <g transform="translate(196.53375 16.318125) scale(0.12 -0.12)">
     <defs>
      <path id="DejaVuSans-6d" d="M 3328 2828 
Q 3544 3216 3844 3400 
Q 4144 3584 4550 3584 
Q 5097 3584 5394 3201 
Q 5691 2819 5691 2113 
L 5691 0 
L 5113 0 
L 5113 2094 
Q 5113 2597 4934 2840 
Q 4756 3084 4391 3084 
Q 3944 3084 3684 2787 
Q 3425 2491 3425 1978 
L 3425 0 
L 2847 0 
L 2847 2094 
Q 2847 2600 2669 2842 
Q 2491 3084 2119 3084 
Q 1678 3084 1418 2786 
Q 1159 2488 1159 1978 
L 1159 0 
L 581 0 
L 581 3500 
L 1159 3500 
L 1159 2956 
Q 1356 3278 1631 3431 
Q 1906 3584 2284 3584 
Q 2666 3584 2933 3390 
Q 3200 3197 3328 2828 
z
" transform="scale(0.015625)"/>
      <path id="DejaVuSans-2c" d="M 750 794 
L 1409 794 
L 1409 256 
L 897 -744 
L 494 -744 
L 750 256 
L 750 794 
z
" transform="scale(0.015625)"/>
      <path id="DejaVuSans-53" d="M 3425 4513 
L 3425 3897 
Q 3066 4069 2747 4153 
Q 2428 4238 2131 4238 
Q 1616 4238 1336 4038 
Q 1056 3838 1056 3469 
Q 1056 3159 1242 3001 
Q 1428 2844 1947 2747 
L 2328 2669 
Q 3034 2534 3370 2195 
Q 3706 1856 3706 1288 
Q 3706 609 3251 259 
Q 2797 -91 1919 -91 
Q 1588 -91 1214 -16 
Q 841 59 441 206 
L 441 856 
Q 825 641 1194 531 
Q 1563 422 1919 422 
Q 2459 422 2753 634 
Q 3047 847 3047 1241 
Q 3047 1584 2836 1778 
Q 2625 1972 2144 2069 
L 1759 2144 
Q 1053 2284 737 2584 
Q 422 2884 422 3419 
Q 422 4038 858 4394 
Q 1294 4750 2059 4750 
Q 2388 4750 2728 4690 
Q 3069 4631 3425 4513 
z
" transform="scale(0.015625)"/>
      <path id="DejaVuSans-43" d="M 4122 4306 
L 4122 3641 
Q 3803 3938 3442 4084 
Q 3081 4231 2675 4231 
Q 1875 4231 1450 3742 
Q 1025 3253 1025 2328 
Q 1025 1406 1450 917 
Q 1875 428 2675 428 
Q 3081 428 3442 575 
Q 3803 722 4122 1019 
L 4122 359 
Q 3791 134 3420 21 
Q 3050 -91 2638 -91 
Q 1578 -91 968 557 
Q 359 1206 359 2328 
Q 359 3453 968 4101 
Q 1578 4750 2638 4750 
Q 3056 4750 3426 4639 
Q 3797 4528 4122 4306 
z
" transform="scale(0.015625)"/>
      <path id="DejaVuSans-41" d="M 2188 4044 
L 1331 1722 
L 3047 1722 
L 2188 4044 
z
M 1831 4666 
L 2547 4666 
L 4325 0 
L 3669 0 
L 3244 1197 
L 1141 1197 
L 716 0 
L 50 0 
L 1831 4666 
z
" transform="scale(0.015625)"/>
      <path id="DejaVuSans-49" d="M 628 4666 
L 1259 4666 
L 1259 0 
L 628 0 
L 628 4666 
z
" transform="scale(0.015625)"/>
      <path id="DejaVuSans-4e" d="M 628 4666 
L 1478 4666 
L 3547 763 
L 3547 4666 
L 4159 4666 
L 4159 0 
L 3309 0 
L 1241 3903 
L 1241 0 
L 628 0 
L 628 4666 
z
" transform="scale(0.015625)"/>
      <path id="DejaVuSans-47" d="M 3809 666 
L 3809 1919 
L 2778 1919 
L 2778 2438 
L 4434 2438 
L 4434 434 
Q 4069 175 3628 42 
Q 3188 -91 2688 -91 
Q 1594 -91 976 548 
Q 359 1188 359 2328 
Q 359 3472 976 4111 
Q 1594 4750 2688 4750 
Q 3144 4750 3555 4637 
Q 3966 4525 4313 4306 
L 4313 3634 
Q 3963 3931 3569 4081 
Q 3175 4231 2741 4231 
Q 1884 4231 1454 3753 
Q 1025 3275 1025 2328 
Q 1025 1384 1454 906 
Q 1884 428 2741 428 
Q 3075 428 3337 486 
Q 3600 544 3809 666 
z
" transform="scale(0.015625)"/>
      <path id="DejaVuSans-6b" d="M 581 4863 
L 1159 4863 
L 1159 1991 
L 2875 3500 
L 3609 3500 
L 1753 1863 
L 3688 0 
L 2938 0 
L 1159 1709 
L 1159 0 
L 581 0 
L 581 4863 
z
" transform="scale(0.015625)"/>
      <path id="DejaVuSans-6c" d="M 603 4863 
L 1178 4863 
L 1178 0 
L 603 0 
L 603 4863 
z
" transform="scale(0.015625)"/>
      <path id="DejaVuSans-3d" d="M 678 2906 
L 4684 2906 
L 4684 2381 
L 678 2381 
L 678 2906 
z
M 678 1631 
L 4684 1631 
L 4684 1100 
L 678 1100 
L 678 1631 
z
" transform="scale(0.015625)"/>
     </defs>
     <use xlink:href="#DejaVuSans-6d"/>
     <use xlink:href="#DejaVuSans-6e" transform="translate(97.412109 0)"/>
     <use xlink:href="#DejaVuSans-69" transform="translate(160.791016 0)"/>
     <use xlink:href="#DejaVuSans-73" transform="translate(188.574219 0)"/>
     <use xlink:href="#DejaVuSans-74" transform="translate(240.673828 0)"/>
     <use xlink:href="#DejaVuSans-2c" transform="translate(279.882812 0)"/>
     <use xlink:href="#DejaVuSans-20" transform="translate(311.669922 0)"/>
     <use xlink:href="#DejaVuSans-53" transform="translate(343.457031 0)"/>
     <use xlink:href="#DejaVuSans-43" transform="translate(406.933594 0)"/>
     <use xlink:href="#DejaVuSans-41" transform="translate(476.757812 0)"/>
     <use xlink:href="#DejaVuSans-4c" transform="translate(545.166016 0)"/>
     <use xlink:href="#DejaVuSans-49" transform="translate(600.878906 0)"/>
     <use xlink:href="#DejaVuSans-4e" transform="translate(630.371094 0)"/>
     <use xlink:href="#DejaVuSans-47" transform="translate(705.175781 0)"/>
     <use xlink:href="#DejaVuSans-20" transform="translate(782.666016 0)"/>
     <use xlink:href="#DejaVuSans-61" transform="translate(814.453125 0)"/>
     <use xlink:href="#DejaVuSans-74" transform="translate(875.732422 0)"/>
     <use xlink:href="#DejaVuSans-74" transform="translate(914.941406 0)"/>
     <use xlink:href="#DejaVuSans-61" transform="translate(954.150391 0)"/>
     <use xlink:href="#DejaVuSans-63" transform="translate(1015.429688 0)"/>
     <use xlink:href="#DejaVuSans-6b" transform="translate(1070.410156 0)"/>
     <use xlink:href="#DejaVuSans-2c" transform="translate(1128.320312 0)"/>
     <use xlink:href="#DejaVuSans-20" transform="translate(1160.107422 0)"/>
     <use xlink:href="#DejaVuSans-63" transform="translate(1191.894531 0)"/>
     <use xlink:href="#DejaVuSans-6c" transform="translate(1246.875 0)"/>
     <use xlink:href="#DejaVuSans-69" transform="translate(1274.658203 0)"/>
     <use xlink:href="#DejaVuSans-65" transform="translate(1302.441406 0)"/>
     <use xlink:href="#DejaVuSans-6e" transform="translate(1363.964844 0)"/>
     <use xlink:href="#DejaVuSans-74" transform="translate(1427.34375 0)"/>
     <use xlink:href="#DejaVuSans-73" transform="translate(1466.552734 0)"/>
     <use xlink:href="#DejaVuSans-3d" transform="translate(1518.652344 0)"/>
     <use xlink:href="#DejaVuSans-31" transform="translate(1602.441406 0)"/>
     <use xlink:href="#DejaVuSans-30" transform="translate(1666.064453 0)"/>
     <use xlink:href="#DejaVuSans-30" transform="translate(1729.6875 0)"/>
    </g>
   </g>
   <g id="legend_1">
    <g id="patch_7">
     <path d="M 444.31125 228.110625 
L 554.295625 228.110625 
Q 556.295625 228.110625 556.295625 226.110625 
L 556.295625 109.685625 
Q 556.295625 107.685625 554.295625 107.685625 
L 444.31125 107.685625 
Q 442.31125 107.685625 442.31125 109.685625 
L 442.31125 226.110625 
Q 442.31125 228.110625 444.31125 228.110625 
z
" style="fill: #ffffff; opacity: 0.8; stroke: #cccccc; stroke-linejoin: miter"/>
    </g>
    <g id="line2d_22">
     <path d="M 446.31125 115.784063 
L 456.31125 115.784063 
L 466.31125 115.784063 
" style="fill: none; stroke: #1f77b4; stroke-width: 2; stroke-linecap: square"/>
    </g>
    <g id="text_17">
     <!-- Average -->
     <g transform="translate(474.31125 119.284063) scale(0.1 -0.1)">
      <defs>
       <path id="DejaVuSans-76" d="M 191 3500 
L 800 3500 
L 1894 563 
L 2988 3500 
L 3597 3500 
L 2284 0 
L 1503 0 
L 191 3500 
z
" transform="scale(0.015625)"/>
      </defs>
      <use xlink:href="#DejaVuSans-41"/>
      <use xlink:href="#DejaVuSans-76" transform="translate(62.533203 0)"/>
      <use xlink:href="#DejaVuSans-65" transform="translate(121.712891 0)"/>
      <use xlink:href="#DejaVuSans-72" transform="translate(183.236328 0)"/>
      <use xlink:href="#DejaVuSans-61" transform="translate(224.349609 0)"/>
      <use xlink:href="#DejaVuSans-67" transform="translate(285.628906 0)"/>
      <use xlink:href="#DejaVuSans-65" transform="translate(349.105469 0)"/>
     </g>
    </g>
    <g id="line2d_23">
     <path d="M 446.31125 130.462188 
L 456.31125 130.462188 
L 466.31125 130.462188 
" style="fill: none; stroke: #ff7f0e; stroke-width: 2; stroke-linecap: square"/>
    </g>
    <g id="text_18">
     <!-- Clip Median -->
     <g transform="translate(474.31125 133.962188) scale(0.1 -0.1)">
      <defs>
       <path id="DejaVuSans-70" d="M 1159 525 
L 1159 -1331 
L 581 -1331 
L 581 3500 
L 1159 3500 
L 1159 2969 
Q 1341 3281 1617 3432 
Q 1894 3584 2278 3584 
Q 2916 3584 3314 3078 
Q 3713 2572 3713 1747 
Q 3713 922 3314 415 
Q 2916 -91 2278 -91 
Q 1894 -91 1617 61 
Q 1341 213 1159 525 
z
M 3116 1747 
Q 3116 2381 2855 2742 
Q 2594 3103 2138 3103 
Q 1681 3103 1420 2742 
Q 1159 2381 1159 1747 
Q 1159 1113 1420 752 
Q 1681 391 2138 391 
Q 2594 391 2855 752 
Q 3116 1113 3116 1747 
z
" transform="scale(0.015625)"/>
       <path id="DejaVuSans-4d" d="M 628 4666 
L 1569 4666 
L 2759 1491 
L 3956 4666 
L 4897 4666 
L 4897 0 
L 4281 0 
L 4281 4097 
L 3078 897 
L 2444 897 
L 1241 4097 
L 1241 0 
L 628 0 
L 628 4666 
z
" transform="scale(0.015625)"/>
      </defs>
      <use xlink:href="#DejaVuSans-43"/>
      <use xlink:href="#DejaVuSans-6c" transform="translate(69.824219 0)"/>
      <use xlink:href="#DejaVuSans-69" transform="translate(97.607422 0)"/>
      <use xlink:href="#DejaVuSans-70" transform="translate(125.390625 0)"/>
      <use xlink:href="#DejaVuSans-20" transform="translate(188.867188 0)"/>
      <use xlink:href="#DejaVuSans-4d" transform="translate(220.654297 0)"/>
      <use xlink:href="#DejaVuSans-65" transform="translate(306.933594 0)"/>
      <use xlink:href="#DejaVuSans-64" transform="translate(368.457031 0)"/>
      <use xlink:href="#DejaVuSans-69" transform="translate(431.933594 0)"/>
      <use xlink:href="#DejaVuSans-61" transform="translate(459.716797 0)"/>
      <use xlink:href="#DejaVuSans-6e" transform="translate(520.996094 0)"/>
     </g>
    </g>
    <g id="line2d_24">
     <path d="M 446.31125 145.140313 
L 456.31125 145.140313 
L 466.31125 145.140313 
" style="fill: none; stroke: #2ca02c; stroke-width: 2; stroke-linecap: square"/>
    </g>
    <g id="text_19">
     <!-- Cosine Defense -->
     <g transform="translate(474.31125 148.640313) scale(0.1 -0.1)">
      <defs>
       <path id="DejaVuSans-44" d="M 1259 4147 
L 1259 519 
L 2022 519 
Q 2988 519 3436 956 
Q 3884 1394 3884 2338 
Q 3884 3275 3436 3711 
Q 2988 4147 2022 4147 
L 1259 4147 
z
M 628 4666 
L 1925 4666 
Q 3281 4666 3915 4102 
Q 4550 3538 4550 2338 
Q 4550 1131 3912 565 
Q 3275 0 1925 0 
L 628 0 
L 628 4666 
z
" transform="scale(0.015625)"/>
       <path id="DejaVuSans-66" d="M 2375 4863 
L 2375 4384 
L 1825 4384 
Q 1516 4384 1395 4259 
Q 1275 4134 1275 3809 
L 1275 3500 
L 2222 3500 
L 2222 3053 
L 1275 3053 
L 1275 0 
L 697 0 
L 697 3053 
L 147 3053 
L 147 3500 
L 697 3500 
L 697 3744 
Q 697 4328 969 4595 
Q 1241 4863 1831 4863 
L 2375 4863 
z
" transform="scale(0.015625)"/>
      </defs>
      <use xlink:href="#DejaVuSans-43"/>
      <use xlink:href="#DejaVuSans-6f" transform="translate(69.824219 0)"/>
      <use xlink:href="#DejaVuSans-73" transform="translate(131.005859 0)"/>
      <use xlink:href="#DejaVuSans-69" transform="translate(183.105469 0)"/>
      <use xlink:href="#DejaVuSans-6e" transform="translate(210.888672 0)"/>
      <use xlink:href="#DejaVuSans-65" transform="translate(274.267578 0)"/>
      <use xlink:href="#DejaVuSans-20" transform="translate(335.791016 0)"/>
      <use xlink:href="#DejaVuSans-44" transform="translate(367.578125 0)"/>
      <use xlink:href="#DejaVuSans-65" transform="translate(444.580078 0)"/>
      <use xlink:href="#DejaVuSans-66" transform="translate(506.103516 0)"/>
      <use xlink:href="#DejaVuSans-65" transform="translate(541.308594 0)"/>
      <use xlink:href="#DejaVuSans-6e" transform="translate(602.832031 0)"/>
      <use xlink:href="#DejaVuSans-73" transform="translate(666.210938 0)"/>
      <use xlink:href="#DejaVuSans-65" transform="translate(718.310547 0)"/>
     </g>
    </g>
    <g id="line2d_25">
     <path d="M 446.31125 159.818438 
L 456.31125 159.818438 
L 466.31125 159.818438 
" style="fill: none; stroke: #d62728; stroke-width: 2; stroke-linecap: square"/>
    </g>
    <g id="text_20">
     <!-- DDFed -->
     <g transform="translate(474.31125 163.318438) scale(0.1 -0.1)">
      <use xlink:href="#DejaVuSans-44"/>
      <use xlink:href="#DejaVuSans-44" transform="translate(77.001953 0)"/>
      <use xlink:href="#DejaVuSans-46" transform="translate(154.003906 0)"/>
      <use xlink:href="#DejaVuSans-65" transform="translate(206.023438 0)"/>
      <use xlink:href="#DejaVuSans-64" transform="translate(267.546875 0)"/>
     </g>
    </g>
    <g id="line2d_26">
     <path d="M 446.31125 174.496563 
L 456.31125 174.496563 
L 466.31125 174.496563 
" style="fill: none; stroke: #9467bd; stroke-width: 2; stroke-linecap: square"/>
    </g>
    <g id="text_21">
     <!-- FedAvg -->
     <g transform="translate(474.31125 177.996563) scale(0.1 -0.1)">
      <use xlink:href="#DejaVuSans-46"/>
      <use xlink:href="#DejaVuSans-65" transform="translate(52.019531 0)"/>
      <use xlink:href="#DejaVuSans-64" transform="translate(113.542969 0)"/>
      <use xlink:href="#DejaVuSans-41" transform="translate(177.019531 0)"/>
      <use xlink:href="#DejaVuSans-76" transform="translate(239.552734 0)"/>
      <use xlink:href="#DejaVuSans-67" transform="translate(298.732422 0)"/>
     </g>
    </g>
    <g id="line2d_27">
     <path d="M 446.31125 189.174688 
L 456.31125 189.174688 
L 466.31125 189.174688 
" style="fill: none; stroke: #8c564b; stroke-width: 2; stroke-linecap: square"/>
    </g>
    <g id="text_22">
     <!-- Krum -->
     <g transform="translate(474.31125 192.674688) scale(0.1 -0.1)">
      <defs>
       <path id="DejaVuSans-4b" d="M 628 4666 
L 1259 4666 
L 1259 2694 
L 3353 4666 
L 4166 4666 
L 1850 2491 
L 4331 0 
L 3500 0 
L 1259 2247 
L 1259 0 
L 628 0 
L 628 4666 
z
" transform="scale(0.015625)"/>
      </defs>
      <use xlink:href="#DejaVuSans-4b"/>
      <use xlink:href="#DejaVuSans-72" transform="translate(65.576172 0)"/>
      <use xlink:href="#DejaVuSans-75" transform="translate(106.689453 0)"/>
      <use xlink:href="#DejaVuSans-6d" transform="translate(170.068359 0)"/>
     </g>
    </g>
    <g id="line2d_28">
     <path d="M 446.31125 203.852813 
L 456.31125 203.852813 
L 466.31125 203.852813 
" style="fill: none; stroke: #e377c2; stroke-width: 2; stroke-linecap: square"/>
    </g>
    <g id="text_23">
     <!-- OUR -->
     <g transform="translate(474.31125 207.352813) scale(0.1 -0.1)">
      <defs>
       <path id="DejaVuSans-4f" d="M 2522 4238 
Q 1834 4238 1429 3725 
Q 1025 3213 1025 2328 
Q 1025 1447 1429 934 
Q 1834 422 2522 422 
Q 3209 422 3611 934 
Q 4013 1447 4013 2328 
Q 4013 3213 3611 3725 
Q 3209 4238 2522 4238 
z
M 2522 4750 
Q 3503 4750 4090 4092 
Q 4678 3434 4678 2328 
Q 4678 1225 4090 567 
Q 3503 -91 2522 -91 
Q 1538 -91 948 565 
Q 359 1222 359 2328 
Q 359 3434 948 4092 
Q 1538 4750 2522 4750 
z
" transform="scale(0.015625)"/>
       <path id="DejaVuSans-55" d="M 556 4666 
L 1191 4666 
L 1191 1831 
Q 1191 1081 1462 751 
Q 1734 422 2344 422 
Q 2950 422 3222 751 
Q 3494 1081 3494 1831 
L 3494 4666 
L 4128 4666 
L 4128 1753 
Q 4128 841 3676 375 
Q 3225 -91 2344 -91 
Q 1459 -91 1007 375 
Q 556 841 556 1753 
L 556 4666 
z
" transform="scale(0.015625)"/>
       <path id="DejaVuSans-52" d="M 2841 2188 
Q 3044 2119 3236 1894 
Q 3428 1669 3622 1275 
L 4263 0 
L 3584 0 
L 2988 1197 
Q 2756 1666 2539 1819 
Q 2322 1972 1947 1972 
L 1259 1972 
L 1259 0 
L 628 0 
L 628 4666 
L 2053 4666 
Q 2853 4666 3247 4331 
Q 3641 3997 3641 3322 
Q 3641 2881 3436 2590 
Q 3231 2300 2841 2188 
z
M 1259 4147 
L 1259 2491 
L 2053 2491 
Q 2509 2491 2742 2702 
Q 2975 2913 2975 3322 
Q 2975 3731 2742 3939 
Q 2509 4147 2053 4147 
L 1259 4147 
z
" transform="scale(0.015625)"/>
      </defs>
      <use xlink:href="#DejaVuSans-4f"/>
      <use xlink:href="#DejaVuSans-55" transform="translate(78.710938 0)"/>
      <use xlink:href="#DejaVuSans-52" transform="translate(151.904297 0)"/>
     </g>
    </g>
    <g id="line2d_29">
     <path d="M 446.31125 218.530938 
L 456.31125 218.530938 
L 466.31125 218.530938 
" style="fill: none; stroke: #7f7f7f; stroke-width: 2; stroke-linecap: square"/>
    </g>
    <g id="text_24">
     <!-- Trimmed Mean -->
     <g transform="translate(474.31125 222.030938) scale(0.1 -0.1)">
      <defs>
       <path id="DejaVuSans-54" d="M -19 4666 
L 3928 4666 
L 3928 4134 
L 2272 4134 
L 2272 0 
L 1638 0 
L 1638 4134 
L -19 4134 
L -19 4666 
z
" transform="scale(0.015625)"/>
      </defs>
      <use xlink:href="#DejaVuSans-54"/>
      <use xlink:href="#DejaVuSans-72" transform="translate(46.333984 0)"/>
      <use xlink:href="#DejaVuSans-69" transform="translate(87.447266 0)"/>
      <use xlink:href="#DejaVuSans-6d" transform="translate(115.230469 0)"/>
      <use xlink:href="#DejaVuSans-6d" transform="translate(212.642578 0)"/>
      <use xlink:href="#DejaVuSans-65" transform="translate(310.054688 0)"/>
      <use xlink:href="#DejaVuSans-64" transform="translate(371.578125 0)"/>
      <use xlink:href="#DejaVuSans-20" transform="translate(435.054688 0)"/>
      <use xlink:href="#DejaVuSans-4d" transform="translate(466.841797 0)"/>
      <use xlink:href="#DejaVuSans-65" transform="translate(553.121094 0)"/>
      <use xlink:href="#DejaVuSans-61" transform="translate(614.644531 0)"/>
      <use xlink:href="#DejaVuSans-6e" transform="translate(675.923828 0)"/>
     </g>
    </g>
   </g>
  </g>
 </g>
 <defs>
  <clipPath id="p583a845c46">
   <rect x="46.965625" y="22.318125" width="514.33" height="291.16"/>
  </clipPath>
 </defs>
</svg>
