<?xml version="1.0" encoding="utf-8" standalone="no"?>
<!DOCTYPE svg PUBLIC "-//W3C//DTD SVG 1.1//EN"
  "http://www.w3.org/Graphics/SVG/1.1/DTD/svg11.dtd">
<svg xmlns:xlink="http://www.w3.org/1999/xlink" width="568.495625pt" height="351.034375pt" viewBox="0 0 568.495625 351.034375" xmlns="http://www.w3.org/2000/svg" version="1.1">
 <metadata>
  <rdf:RDF xmlns:dc="http://purl.org/dc/elements/1.1/" xmlns:cc="http://creativecommons.org/ns#" xmlns:rdf="http://www.w3.org/1999/02/22-rdf-syntax-ns#">
   <cc:Work>
    <dc:type rdf:resource="http://purl.org/dc/dcmitype/StillImage"/>
    <dc:date>2025-09-01T22:00:04.308287</dc:date>
    <dc:format>image/svg+xml</dc:format>
    <dc:creator>
     <cc:Agent>
      <dc:title>Matplotlib v3.10.3, https://matplotlib.org/</dc:title>
     </cc:Agent>
    </dc:creator>
   </cc:Work>
  </rdf:RDF>
 </metadata>
 <defs>
  <style type="text/css">*{stroke-linejoin: round; stroke-linecap: butt}</style>
 </defs>
 <g id="figure_1">
  <g id="patch_1">
   <path d="M 0 351.034375 
L 568.495625 351.034375 
L 568.495625 0 
L 0 0 
z
" style="fill: #ffffff"/>
  </g>
  <g id="axes_1">
   <g id="patch_2">
    <path d="M 46.965625 313.478125 
L 561.295625 313.478125 
L 561.295625 22.318125 
L 46.965625 22.318125 
z
" style="fill: #ffffff"/>
   </g>
   <g id="matplotlib.axis_1">
    <g id="xtick_1">
     <g id="line2d_1">
      <defs>
       <path id="m5b4c9caf0d" d="M 0 0 
L 0 3.5 
" style="stroke: #000000; stroke-width: 0.8"/>
      </defs>
      <g>
       <use xlink:href="#m5b4c9caf0d" x="70.344261" y="313.478125" style="stroke: #000000; stroke-width: 0.8"/>
      </g>
     </g>
     <g id="text_1">
      <!-- 0 -->
      <g transform="translate(67.163011 328.076563) scale(0.1 -0.1)">
       <defs>
        <path id="DejaVuSans-30" d="M 2034 4250 
Q 1547 4250 1301 3770 
Q 1056 3291 1056 2328 
Q 1056 1369 1301 889 
Q 1547 409 2034 409 
Q 2525 409 2770 889 
Q 3016 1369 3016 2328 
Q 3016 3291 2770 3770 
Q 2525 4250 2034 4250 
z
M 2034 4750 
Q 2819 4750 3233 4129 
Q 3647 3509 3647 2328 
Q 3647 1150 3233 529 
Q 2819 -91 2034 -91 
Q 1250 -91 836 529 
Q 422 1150 422 2328 
Q 422 3509 836 4129 
Q 1250 4750 2034 4750 
z
" transform="scale(0.015625)"/>
       </defs>
       <use xlink:href="#DejaVuSans-30"/>
      </g>
     </g>
    </g>
    <g id="xtick_2">
     <g id="line2d_2">
      <g>
       <use xlink:href="#m5b4c9caf0d" x="164.803398" y="313.478125" style="stroke: #000000; stroke-width: 0.8"/>
      </g>
     </g>
     <g id="text_2">
      <!-- 20 -->
      <g transform="translate(158.440898 328.076563) scale(0.1 -0.1)">
       <defs>
        <path id="DejaVuSans-32" d="M 1228 531 
L 3431 531 
L 3431 0 
L 469 0 
L 469 531 
Q 828 903 1448 1529 
Q 2069 2156 2228 2338 
Q 2531 2678 2651 2914 
Q 2772 3150 2772 3378 
Q 2772 3750 2511 3984 
Q 2250 4219 1831 4219 
Q 1534 4219 1204 4116 
Q 875 4013 500 3803 
L 500 4441 
Q 881 4594 1212 4672 
Q 1544 4750 1819 4750 
Q 2544 4750 2975 4387 
Q 3406 4025 3406 3419 
Q 3406 3131 3298 2873 
Q 3191 2616 2906 2266 
Q 2828 2175 2409 1742 
Q 1991 1309 1228 531 
z
" transform="scale(0.015625)"/>
       </defs>
       <use xlink:href="#DejaVuSans-32"/>
       <use xlink:href="#DejaVuSans-30" transform="translate(63.623047 0)"/>
      </g>
     </g>
    </g>
    <g id="xtick_3">
     <g id="line2d_3">
      <g>
       <use xlink:href="#m5b4c9caf0d" x="259.262535" y="313.478125" style="stroke: #000000; stroke-width: 0.8"/>
      </g>
     </g>
     <g id="text_3">
      <!-- 40 -->
      <g transform="translate(252.900035 328.076563) scale(0.1 -0.1)">
       <defs>
        <path id="DejaVuSans-34" d="M 2419 4116 
L 825 1625 
L 2419 1625 
L 2419 4116 
z
M 2253 4666 
L 3047 4666 
L 3047 1625 
L 3713 1625 
L 3713 1100 
L 3047 1100 
L 3047 0 
L 2419 0 
L 2419 1100 
L 313 1100 
L 313 1709 
L 2253 4666 
z
" transform="scale(0.015625)"/>
       </defs>
       <use xlink:href="#DejaVuSans-34"/>
       <use xlink:href="#DejaVuSans-30" transform="translate(63.623047 0)"/>
      </g>
     </g>
    </g>
    <g id="xtick_4">
     <g id="line2d_4">
      <g>
       <use xlink:href="#m5b4c9caf0d" x="353.721672" y="313.478125" style="stroke: #000000; stroke-width: 0.8"/>
      </g>
     </g>
     <g id="text_4">
      <!-- 60 -->
      <g transform="translate(347.359172 328.076563) scale(0.1 -0.1)">
       <defs>
        <path id="DejaVuSans-36" d="M 2113 2584 
Q 1688 2584 1439 2293 
Q 1191 2003 1191 1497 
Q 1191 994 1439 701 
Q 1688 409 2113 409 
Q 2538 409 2786 701 
Q 3034 994 3034 1497 
Q 3034 2003 2786 2293 
Q 2538 2584 2113 2584 
z
M 3366 4563 
L 3366 3988 
Q 3128 4100 2886 4159 
Q 2644 4219 2406 4219 
Q 1781 4219 1451 3797 
Q 1122 3375 1075 2522 
Q 1259 2794 1537 2939 
Q 1816 3084 2150 3084 
Q 2853 3084 3261 2657 
Q 3669 2231 3669 1497 
Q 3669 778 3244 343 
Q 2819 -91 2113 -91 
Q 1303 -91 875 529 
Q 447 1150 447 2328 
Q 447 3434 972 4092 
Q 1497 4750 2381 4750 
Q 2619 4750 2861 4703 
Q 3103 4656 3366 4563 
z
" transform="scale(0.015625)"/>
       </defs>
       <use xlink:href="#DejaVuSans-36"/>
       <use xlink:href="#DejaVuSans-30" transform="translate(63.623047 0)"/>
      </g>
     </g>
    </g>
    <g id="xtick_5">
     <g id="line2d_5">
      <g>
       <use xlink:href="#m5b4c9caf0d" x="448.180809" y="313.478125" style="stroke: #000000; stroke-width: 0.8"/>
      </g>
     </g>
     <g id="text_5">
      <!-- 80 -->
      <g transform="translate(441.818309 328.076563) scale(0.1 -0.1)">
       <defs>
        <path id="DejaVuSans-38" d="M 2034 2216 
Q 1584 2216 1326 1975 
Q 1069 1734 1069 1313 
Q 1069 891 1326 650 
Q 1584 409 2034 409 
Q 2484 409 2743 651 
Q 3003 894 3003 1313 
Q 3003 1734 2745 1975 
Q 2488 2216 2034 2216 
z
M 1403 2484 
Q 997 2584 770 2862 
Q 544 3141 544 3541 
Q 544 4100 942 4425 
Q 1341 4750 2034 4750 
Q 2731 4750 3128 4425 
Q 3525 4100 3525 3541 
Q 3525 3141 3298 2862 
Q 3072 2584 2669 2484 
Q 3125 2378 3379 2068 
Q 3634 1759 3634 1313 
Q 3634 634 3220 271 
Q 2806 -91 2034 -91 
Q 1263 -91 848 271 
Q 434 634 434 1313 
Q 434 1759 690 2068 
Q 947 2378 1403 2484 
z
M 1172 3481 
Q 1172 3119 1398 2916 
Q 1625 2713 2034 2713 
Q 2441 2713 2670 2916 
Q 2900 3119 2900 3481 
Q 2900 3844 2670 4047 
Q 2441 4250 2034 4250 
Q 1625 4250 1398 4047 
Q 1172 3844 1172 3481 
z
" transform="scale(0.015625)"/>
       </defs>
       <use xlink:href="#DejaVuSans-38"/>
       <use xlink:href="#DejaVuSans-30" transform="translate(63.623047 0)"/>
      </g>
     </g>
    </g>
    <g id="xtick_6">
     <g id="line2d_6">
      <g>
       <use xlink:href="#m5b4c9caf0d" x="542.639945" y="313.478125" style="stroke: #000000; stroke-width: 0.8"/>
      </g>
     </g>
     <g id="text_6">
      <!-- 100 -->
      <g transform="translate(533.096195 328.076563) scale(0.1 -0.1)">
       <defs>
        <path id="DejaVuSans-31" d="M 794 531 
L 1825 531 
L 1825 4091 
L 703 3866 
L 703 4441 
L 1819 4666 
L 2450 4666 
L 2450 531 
L 3481 531 
L 3481 0 
L 794 0 
L 794 531 
z
" transform="scale(0.015625)"/>
       </defs>
       <use xlink:href="#DejaVuSans-31"/>
       <use xlink:href="#DejaVuSans-30" transform="translate(63.623047 0)"/>
       <use xlink:href="#DejaVuSans-30" transform="translate(127.246094 0)"/>
      </g>
     </g>
    </g>
    <g id="text_7">
     <!-- FL training round -->
     <g transform="translate(261.407187 341.754687) scale(0.1 -0.1)">
      <defs>
       <path id="DejaVuSans-46" d="M 628 4666 
L 3309 4666 
L 3309 4134 
L 1259 4134 
L 1259 2759 
L 3109 2759 
L 3109 2228 
L 1259 2228 
L 1259 0 
L 628 0 
L 628 4666 
z
" transform="scale(0.015625)"/>
       <path id="DejaVuSans-4c" d="M 628 4666 
L 1259 4666 
L 1259 531 
L 3531 531 
L 3531 0 
L 628 0 
L 628 4666 
z
" transform="scale(0.015625)"/>
       <path id="DejaVuSans-20" transform="scale(0.015625)"/>
       <path id="DejaVuSans-74" d="M 1172 4494 
L 1172 3500 
L 2356 3500 
L 2356 3053 
L 1172 3053 
L 1172 1153 
Q 1172 725 1289 603 
Q 1406 481 1766 481 
L 2356 481 
L 2356 0 
L 1766 0 
Q 1100 0 847 248 
Q 594 497 594 1153 
L 594 3053 
L 172 3053 
L 172 3500 
L 594 3500 
L 594 4494 
L 1172 4494 
z
" transform="scale(0.015625)"/>
       <path id="DejaVuSans-72" d="M 2631 2963 
Q 2534 3019 2420 3045 
Q 2306 3072 2169 3072 
Q 1681 3072 1420 2755 
Q 1159 2438 1159 1844 
L 1159 0 
L 581 0 
L 581 3500 
L 1159 3500 
L 1159 2956 
Q 1341 3275 1631 3429 
Q 1922 3584 2338 3584 
Q 2397 3584 2469 3576 
Q 2541 3569 2628 3553 
L 2631 2963 
z
" transform="scale(0.015625)"/>
       <path id="DejaVuSans-61" d="M 2194 1759 
Q 1497 1759 1228 1600 
Q 959 1441 959 1056 
Q 959 750 1161 570 
Q 1363 391 1709 391 
Q 2188 391 2477 730 
Q 2766 1069 2766 1631 
L 2766 1759 
L 2194 1759 
z
M 3341 1997 
L 3341 0 
L 2766 0 
L 2766 531 
Q 2569 213 2275 61 
Q 1981 -91 1556 -91 
Q 1019 -91 701 211 
Q 384 513 384 1019 
Q 384 1609 779 1909 
Q 1175 2209 1959 2209 
L 2766 2209 
L 2766 2266 
Q 2766 2663 2505 2880 
Q 2244 3097 1772 3097 
Q 1472 3097 1187 3025 
Q 903 2953 641 2809 
L 641 3341 
Q 956 3463 1253 3523 
Q 1550 3584 1831 3584 
Q 2591 3584 2966 3190 
Q 3341 2797 3341 1997 
z
" transform="scale(0.015625)"/>
       <path id="DejaVuSans-69" d="M 603 3500 
L 1178 3500 
L 1178 0 
L 603 0 
L 603 3500 
z
M 603 4863 
L 1178 4863 
L 1178 4134 
L 603 4134 
L 603 4863 
z
" transform="scale(0.015625)"/>
       <path id="DejaVuSans-6e" d="M 3513 2113 
L 3513 0 
L 2938 0 
L 2938 2094 
Q 2938 2591 2744 2837 
Q 2550 3084 2163 3084 
Q 1697 3084 1428 2787 
Q 1159 2491 1159 1978 
L 1159 0 
L 581 0 
L 581 3500 
L 1159 3500 
L 1159 2956 
Q 1366 3272 1645 3428 
Q 1925 3584 2291 3584 
Q 2894 3584 3203 3211 
Q 3513 2838 3513 2113 
z
" transform="scale(0.015625)"/>
       <path id="DejaVuSans-67" d="M 2906 1791 
Q 2906 2416 2648 2759 
Q 2391 3103 1925 3103 
Q 1463 3103 1205 2759 
Q 947 2416 947 1791 
Q 947 1169 1205 825 
Q 1463 481 1925 481 
Q 2391 481 2648 825 
Q 2906 1169 2906 1791 
z
M 3481 434 
Q 3481 -459 3084 -895 
Q 2688 -1331 1869 -1331 
Q 1566 -1331 1297 -1286 
Q 1028 -1241 775 -1147 
L 775 -588 
Q 1028 -725 1275 -790 
Q 1522 -856 1778 -856 
Q 2344 -856 2625 -561 
Q 2906 -266 2906 331 
L 2906 616 
Q 2728 306 2450 153 
Q 2172 0 1784 0 
Q 1141 0 747 490 
Q 353 981 353 1791 
Q 353 2603 747 3093 
Q 1141 3584 1784 3584 
Q 2172 3584 2450 3431 
Q 2728 3278 2906 2969 
L 2906 3500 
L 3481 3500 
L 3481 434 
z
" transform="scale(0.015625)"/>
       <path id="DejaVuSans-6f" d="M 1959 3097 
Q 1497 3097 1228 2736 
Q 959 2375 959 1747 
Q 959 1119 1226 758 
Q 1494 397 1959 397 
Q 2419 397 2687 759 
Q 2956 1122 2956 1747 
Q 2956 2369 2687 2733 
Q 2419 3097 1959 3097 
z
M 1959 3584 
Q 2709 3584 3137 3096 
Q 3566 2609 3566 1747 
Q 3566 888 3137 398 
Q 2709 -91 1959 -91 
Q 1206 -91 779 398 
Q 353 888 353 1747 
Q 353 2609 779 3096 
Q 1206 3584 1959 3584 
z
" transform="scale(0.015625)"/>
       <path id="DejaVuSans-75" d="M 544 1381 
L 544 3500 
L 1119 3500 
L 1119 1403 
Q 1119 906 1312 657 
Q 1506 409 1894 409 
Q 2359 409 2629 706 
Q 2900 1003 2900 1516 
L 2900 3500 
L 3475 3500 
L 3475 0 
L 2900 0 
L 2900 538 
Q 2691 219 2414 64 
Q 2138 -91 1772 -91 
Q 1169 -91 856 284 
Q 544 659 544 1381 
z
M 1991 3584 
L 1991 3584 
z
" transform="scale(0.015625)"/>
       <path id="DejaVuSans-64" d="M 2906 2969 
L 2906 4863 
L 3481 4863 
L 3481 0 
L 2906 0 
L 2906 525 
Q 2725 213 2448 61 
Q 2172 -91 1784 -91 
Q 1150 -91 751 415 
Q 353 922 353 1747 
Q 353 2572 751 3078 
Q 1150 3584 1784 3584 
Q 2172 3584 2448 3432 
Q 2725 3281 2906 2969 
z
M 947 1747 
Q 947 1113 1208 752 
Q 1469 391 1925 391 
Q 2381 391 2643 752 
Q 2906 1113 2906 1747 
Q 2906 2381 2643 2742 
Q 2381 3103 1925 3103 
Q 1469 3103 1208 2742 
Q 947 2381 947 1747 
z
" transform="scale(0.015625)"/>
      </defs>
      <use xlink:href="#DejaVuSans-46"/>
      <use xlink:href="#DejaVuSans-4c" transform="translate(57.519531 0)"/>
      <use xlink:href="#DejaVuSans-20" transform="translate(113.232422 0)"/>
      <use xlink:href="#DejaVuSans-74" transform="translate(145.019531 0)"/>
      <use xlink:href="#DejaVuSans-72" transform="translate(184.228516 0)"/>
      <use xlink:href="#DejaVuSans-61" transform="translate(225.341797 0)"/>
      <use xlink:href="#DejaVuSans-69" transform="translate(286.621094 0)"/>
      <use xlink:href="#DejaVuSans-6e" transform="translate(314.404297 0)"/>
      <use xlink:href="#DejaVuSans-69" transform="translate(377.783203 0)"/>
      <use xlink:href="#DejaVuSans-6e" transform="translate(405.566406 0)"/>
      <use xlink:href="#DejaVuSans-67" transform="translate(468.945312 0)"/>
      <use xlink:href="#DejaVuSans-20" transform="translate(532.421875 0)"/>
      <use xlink:href="#DejaVuSans-72" transform="translate(564.208984 0)"/>
      <use xlink:href="#DejaVuSans-6f" transform="translate(603.072266 0)"/>
      <use xlink:href="#DejaVuSans-75" transform="translate(664.253906 0)"/>
      <use xlink:href="#DejaVuSans-6e" transform="translate(727.632812 0)"/>
      <use xlink:href="#DejaVuSans-64" transform="translate(791.011719 0)"/>
     </g>
    </g>
   </g>
   <g id="matplotlib.axis_2">
    <g id="ytick_1">
     <g id="line2d_7">
      <defs>
       <path id="mcc9395290e" d="M 0 0 
L -3.5 0 
" style="stroke: #000000; stroke-width: 0.8"/>
      </defs>
      <g>
       <use xlink:href="#mcc9395290e" x="46.965625" y="267.475141" style="stroke: #000000; stroke-width: 0.8"/>
      </g>
     </g>
     <g id="text_8">
      <!-- 20 -->
      <g transform="translate(27.240625 271.274359) scale(0.1 -0.1)">
       <use xlink:href="#DejaVuSans-32"/>
       <use xlink:href="#DejaVuSans-30" transform="translate(63.623047 0)"/>
      </g>
     </g>
    </g>
    <g id="ytick_2">
     <g id="line2d_8">
      <g>
       <use xlink:href="#mcc9395290e" x="46.965625" y="208.326334" style="stroke: #000000; stroke-width: 0.8"/>
      </g>
     </g>
     <g id="text_9">
      <!-- 40 -->
      <g transform="translate(27.240625 212.125553) scale(0.1 -0.1)">
       <use xlink:href="#DejaVuSans-34"/>
       <use xlink:href="#DejaVuSans-30" transform="translate(63.623047 0)"/>
      </g>
     </g>
    </g>
    <g id="ytick_3">
     <g id="line2d_9">
      <g>
       <use xlink:href="#mcc9395290e" x="46.965625" y="149.177528" style="stroke: #000000; stroke-width: 0.8"/>
      </g>
     </g>
     <g id="text_10">
      <!-- 60 -->
      <g transform="translate(27.240625 152.976746) scale(0.1 -0.1)">
       <use xlink:href="#DejaVuSans-36"/>
       <use xlink:href="#DejaVuSans-30" transform="translate(63.623047 0)"/>
      </g>
     </g>
    </g>
    <g id="ytick_4">
     <g id="line2d_10">
      <g>
       <use xlink:href="#mcc9395290e" x="46.965625" y="90.028721" style="stroke: #000000; stroke-width: 0.8"/>
      </g>
     </g>
     <g id="text_11">
      <!-- 80 -->
      <g transform="translate(27.240625 93.82794) scale(0.1 -0.1)">
       <use xlink:href="#DejaVuSans-38"/>
       <use xlink:href="#DejaVuSans-30" transform="translate(63.623047 0)"/>
      </g>
     </g>
    </g>
    <g id="ytick_5">
     <g id="line2d_11">
      <g>
       <use xlink:href="#mcc9395290e" x="46.965625" y="30.879915" style="stroke: #000000; stroke-width: 0.8"/>
      </g>
     </g>
     <g id="text_12">
      <!-- 100 -->
      <g transform="translate(20.878125 34.679133) scale(0.1 -0.1)">
       <use xlink:href="#DejaVuSans-31"/>
       <use xlink:href="#DejaVuSans-30" transform="translate(63.623047 0)"/>
       <use xlink:href="#DejaVuSans-30" transform="translate(127.246094 0)"/>
      </g>
     </g>
    </g>
    <g id="text_13">
     <!-- test accuracy (%) -->
     <g transform="translate(14.798438 211.889531) rotate(-90) scale(0.1 -0.1)">
      <defs>
       <path id="DejaVuSans-65" d="M 3597 1894 
L 3597 1613 
L 953 1613 
Q 991 1019 1311 708 
Q 1631 397 2203 397 
Q 2534 397 2845 478 
Q 3156 559 3463 722 
L 3463 178 
Q 3153 47 2828 -22 
Q 2503 -91 2169 -91 
Q 1331 -91 842 396 
Q 353 884 353 1716 
Q 353 2575 817 3079 
Q 1281 3584 2069 3584 
Q 2775 3584 3186 3129 
Q 3597 2675 3597 1894 
z
M 3022 2063 
Q 3016 2534 2758 2815 
Q 2500 3097 2075 3097 
Q 1594 3097 1305 2825 
Q 1016 2553 972 2059 
L 3022 2063 
z
" transform="scale(0.015625)"/>
       <path id="DejaVuSans-73" d="M 2834 3397 
L 2834 2853 
Q 2591 2978 2328 3040 
Q 2066 3103 1784 3103 
Q 1356 3103 1142 2972 
Q 928 2841 928 2578 
Q 928 2378 1081 2264 
Q 1234 2150 1697 2047 
L 1894 2003 
Q 2506 1872 2764 1633 
Q 3022 1394 3022 966 
Q 3022 478 2636 193 
Q 2250 -91 1575 -91 
Q 1294 -91 989 -36 
Q 684 19 347 128 
L 347 722 
Q 666 556 975 473 
Q 1284 391 1588 391 
Q 1994 391 2212 530 
Q 2431 669 2431 922 
Q 2431 1156 2273 1281 
Q 2116 1406 1581 1522 
L 1381 1569 
Q 847 1681 609 1914 
Q 372 2147 372 2553 
Q 372 3047 722 3315 
Q 1072 3584 1716 3584 
Q 2034 3584 2315 3537 
Q 2597 3491 2834 3397 
z
" transform="scale(0.015625)"/>
       <path id="DejaVuSans-63" d="M 3122 3366 
L 3122 2828 
Q 2878 2963 2633 3030 
Q 2388 3097 2138 3097 
Q 1578 3097 1268 2742 
Q 959 2388 959 1747 
Q 959 1106 1268 751 
Q 1578 397 2138 397 
Q 2388 397 2633 464 
Q 2878 531 3122 666 
L 3122 134 
Q 2881 22 2623 -34 
Q 2366 -91 2075 -91 
Q 1284 -91 818 406 
Q 353 903 353 1747 
Q 353 2603 823 3093 
Q 1294 3584 2113 3584 
Q 2378 3584 2631 3529 
Q 2884 3475 3122 3366 
z
" transform="scale(0.015625)"/>
       <path id="DejaVuSans-79" d="M 2059 -325 
Q 1816 -950 1584 -1140 
Q 1353 -1331 966 -1331 
L 506 -1331 
L 506 -850 
L 844 -850 
Q 1081 -850 1212 -737 
Q 1344 -625 1503 -206 
L 1606 56 
L 191 3500 
L 800 3500 
L 1894 763 
L 2988 3500 
L 3597 3500 
L 2059 -325 
z
" transform="scale(0.015625)"/>
       <path id="DejaVuSans-28" d="M 1984 4856 
Q 1566 4138 1362 3434 
Q 1159 2731 1159 2009 
Q 1159 1288 1364 580 
Q 1569 -128 1984 -844 
L 1484 -844 
Q 1016 -109 783 600 
Q 550 1309 550 2009 
Q 550 2706 781 3412 
Q 1013 4119 1484 4856 
L 1984 4856 
z
" transform="scale(0.015625)"/>
       <path id="DejaVuSans-25" d="M 4653 2053 
Q 4381 2053 4226 1822 
Q 4072 1591 4072 1178 
Q 4072 772 4226 539 
Q 4381 306 4653 306 
Q 4919 306 5073 539 
Q 5228 772 5228 1178 
Q 5228 1588 5073 1820 
Q 4919 2053 4653 2053 
z
M 4653 2450 
Q 5147 2450 5437 2106 
Q 5728 1763 5728 1178 
Q 5728 594 5436 251 
Q 5144 -91 4653 -91 
Q 4153 -91 3862 251 
Q 3572 594 3572 1178 
Q 3572 1766 3864 2108 
Q 4156 2450 4653 2450 
z
M 1428 4353 
Q 1159 4353 1004 4120 
Q 850 3888 850 3481 
Q 850 3069 1003 2837 
Q 1156 2606 1428 2606 
Q 1700 2606 1854 2837 
Q 2009 3069 2009 3481 
Q 2009 3884 1853 4118 
Q 1697 4353 1428 4353 
z
M 4250 4750 
L 4750 4750 
L 1831 -91 
L 1331 -91 
L 4250 4750 
z
M 1428 4750 
Q 1922 4750 2215 4408 
Q 2509 4066 2509 3481 
Q 2509 2891 2217 2550 
Q 1925 2209 1428 2209 
Q 931 2209 642 2551 
Q 353 2894 353 3481 
Q 353 4063 643 4406 
Q 934 4750 1428 4750 
z
" transform="scale(0.015625)"/>
       <path id="DejaVuSans-29" d="M 513 4856 
L 1013 4856 
Q 1481 4119 1714 3412 
Q 1947 2706 1947 2009 
Q 1947 1309 1714 600 
Q 1481 -109 1013 -844 
L 513 -844 
Q 928 -128 1133 580 
Q 1338 1288 1338 2009 
Q 1338 2731 1133 3434 
Q 928 4138 513 4856 
z
" transform="scale(0.015625)"/>
      </defs>
      <use xlink:href="#DejaVuSans-74"/>
      <use xlink:href="#DejaVuSans-65" transform="translate(39.208984 0)"/>
      <use xlink:href="#DejaVuSans-73" transform="translate(100.732422 0)"/>
      <use xlink:href="#DejaVuSans-74" transform="translate(152.832031 0)"/>
      <use xlink:href="#DejaVuSans-20" transform="translate(192.041016 0)"/>
      <use xlink:href="#DejaVuSans-61" transform="translate(223.828125 0)"/>
      <use xlink:href="#DejaVuSans-63" transform="translate(285.107422 0)"/>
      <use xlink:href="#DejaVuSans-63" transform="translate(340.087891 0)"/>
      <use xlink:href="#DejaVuSans-75" transform="translate(395.068359 0)"/>
      <use xlink:href="#DejaVuSans-72" transform="translate(458.447266 0)"/>
      <use xlink:href="#DejaVuSans-61" transform="translate(499.560547 0)"/>
      <use xlink:href="#DejaVuSans-63" transform="translate(560.839844 0)"/>
      <use xlink:href="#DejaVuSans-79" transform="translate(615.820312 0)"/>
      <use xlink:href="#DejaVuSans-20" transform="translate(675 0)"/>
      <use xlink:href="#DejaVuSans-28" transform="translate(706.787109 0)"/>
      <use xlink:href="#DejaVuSans-25" transform="translate(745.800781 0)"/>
      <use xlink:href="#DejaVuSans-29" transform="translate(840.820312 0)"/>
     </g>
    </g>
   </g>
   <g id="line2d_12">
    <path d="M 70.344261 264.399403 
L 75.067218 208.858674 
L 79.790175 113.629095 
L 84.513132 126.198216 
L 89.236089 91.241272 
L 93.959046 94.080414 
L 98.682002 56.787092 
L 103.404959 63.382184 
L 108.127916 58.324961 
L 112.850873 51.256679 
L 117.57383 48.151366 
L 122.296787 48.594982 
L 127.019743 51.818592 
L 131.7427 45.992435 
L 136.465657 46.613497 
L 141.188614 44.602438 
L 145.911571 46.465625 
L 150.634528 44.040524 
L 155.357485 44.306694 
L 160.080441 42.620953 
L 164.803398 41.704146 
L 169.526355 41.644998 
L 174.249312 42.53223 
L 178.972269 45.046054 
L 183.695226 42.295634 
L 188.418182 41.112658 
L 193.141139 40.373298 
L 197.864096 41.704146 
L 202.587053 39.30862 
L 207.31001 39.072024 
L 212.032967 39.397343 
L 216.755923 39.190322 
L 221.47888 38.746706 
L 226.201837 40.550745 
L 230.924794 38.450962 
L 235.647751 40.166277 
L 240.370708 38.894578 
L 245.093664 37.948197 
L 249.816621 38.362239 
L 254.539578 37.386283 
L 259.262535 38.066495 
L 263.985492 37.090539 
L 268.708449 37.327135 
L 273.431406 38.687557 
L 278.154362 38.243941 
L 282.877319 37.208837 
L 287.600276 37.770751 
L 292.323233 37.445432 
L 297.04619 37.327135 
L 301.769147 37.386283 
L 306.492103 37.593304 
L 311.21506 52.735399 
L 315.938017 152.223691 
L 320.660974 296.103163 
L 325.383931 296.103163 
L 330.106888 297.641032 
L 334.829844 297.641032 
L 339.552801 297.641032 
L 344.275758 297.641032 
L 348.998715 297.641032 
L 353.721672 297.641032 
L 358.444629 297.641032 
L 363.167586 297.641032 
L 367.890542 297.641032 
L 372.613499 297.641032 
L 377.336456 297.641032 
L 382.059413 297.641032 
L 386.78237 297.641032 
L 391.505327 297.641032 
L 396.228283 297.641032 
L 400.95124 297.641032 
L 405.674197 297.641032 
L 410.397154 297.641032 
L 415.120111 297.641032 
L 419.843068 297.641032 
L 424.566024 297.641032 
L 429.288981 297.641032 
L 434.011938 297.641032 
L 438.734895 297.641032 
L 443.457852 297.641032 
L 448.180809 297.641032 
L 452.903765 297.641032 
L 457.626722 297.641032 
L 462.349679 297.641032 
L 467.072636 297.641032 
L 471.795593 297.641032 
L 476.51855 297.641032 
L 481.241507 297.641032 
L 485.964463 297.641032 
L 490.68742 297.641032 
L 495.410377 297.641032 
L 500.133334 297.641032 
L 504.856291 297.641032 
L 509.579248 297.641032 
L 514.302204 297.641032 
L 519.025161 297.641032 
L 523.748118 297.641032 
L 528.471075 297.641032 
L 533.194032 297.641032 
L 537.916989 297.641032 
" clip-path="url(#p6c54d52f31)" style="fill: none; stroke: #1f77b4; stroke-width: 2; stroke-linecap: square"/>
   </g>
   <g id="line2d_13">
    <path d="M 70.344261 206.936337 
L 75.067218 291.223387 
L 79.790175 243.194556 
L 84.513132 191.380201 
L 89.236089 195.698064 
L 93.959046 140.364356 
L 98.682002 167.809402 
L 103.404959 171.062586 
L 108.127916 113.599521 
L 112.850873 87.899364 
L 117.57383 80.41704 
L 122.296787 76.306198 
L 127.019743 79.67768 
L 131.7427 75.330243 
L 136.465657 86.568516 
L 141.188614 70.716636 
L 145.911571 59.064321 
L 150.634528 63.55963 
L 155.357485 59.567086 
L 160.080441 54.864756 
L 164.803398 56.609646 
L 169.526355 54.450714 
L 174.249312 55.929434 
L 178.972269 53.68178 
L 183.695226 52.853696 
L 188.418182 50.546893 
L 193.141139 51.345402 
L 197.864096 59.360065 
L 202.587053 53.770503 
L 207.31001 52.025613 
L 212.032967 52.291783 
L 216.755923 52.912845 
L 221.47888 51.108807 
L 226.201837 50.192 
L 230.924794 52.143911 
L 235.647751 50.073702 
L 240.370708 51.315827 
L 245.093664 49.659661 
L 249.816621 47.678176 
L 254.539578 48.358387 
L 259.262535 47.500729 
L 263.985492 48.71328 
L 268.708449 51.996039 
L 273.431406 47.471155 
L 278.154362 48.180941 
L 282.877319 51.079232 
L 287.600276 46.643072 
L 292.323233 47.264134 
L 297.04619 47.796473 
L 301.769147 48.565408 
L 306.492103 54.746458 
L 311.21506 46.554348 
L 315.938017 50.576467 
L 320.660974 51.049658 
L 325.383931 49.659661 
L 330.106888 53.267738 
L 334.829844 46.347328 
L 339.552801 47.559878 
L 344.275758 59.034747 
L 348.998715 52.173485 
L 353.721672 49.777958 
L 358.444629 53.770503 
L 363.167586 51.93689 
L 367.890542 54.243693 
L 372.613499 58.472833 
L 377.336456 50.517318 
L 382.059413 46.820518 
L 386.78237 46.199456 
L 391.505327 45.48967 
L 396.228283 46.879667 
L 400.95124 48.269664 
L 405.674197 51.020083 
L 410.397154 49.334342 
L 415.120111 47.619027 
L 419.843068 53.119866 
L 424.566024 50.044128 
L 429.288981 49.837107 
L 434.011938 46.436051 
L 438.734895 48.683705 
L 443.457852 46.672646 
L 448.180809 44.513715 
L 452.903765 49.541363 
L 457.626722 47.766899 
L 462.349679 44.070099 
L 467.072636 46.731795 
L 471.795593 51.108807 
L 476.51855 45.548819 
L 481.241507 49.363917 
L 485.964463 49.541363 
L 490.68742 50.665191 
L 495.410377 45.075628 
L 500.133334 48.476685 
L 504.856291 47.944345 
L 509.579248 45.400947 
L 514.302204 45.075628 
L 519.025161 59.507937 
L 523.748118 44.129247 
L 528.471075 44.779884 
L 533.194032 44.158822 
L 537.916989 51.315827 
" clip-path="url(#p6c54d52f31)" style="fill: none; stroke: #ff7f0e; stroke-width: 2; stroke-linecap: square"/>
   </g>
   <g id="line2d_14">
    <path d="M 70.344261 291.7853 
L 75.067218 296.132737 
L 79.790175 268.924287 
L 84.513132 286.284461 
L 89.236089 212.644197 
L 93.959046 133.384796 
L 98.682002 129.037359 
L 103.404959 107.004429 
L 108.127916 56.875815 
L 112.850873 61.430273 
L 117.57383 53.593056 
L 122.296787 60.365595 
L 127.019743 83.019588 
L 131.7427 54.214119 
L 136.465657 50.192 
L 141.188614 51.522848 
L 145.911571 50.546893 
L 150.634528 52.203059 
L 155.357485 46.406476 
L 160.080441 58.413684 
L 164.803398 51.789018 
L 169.526355 52.291783 
L 174.249312 47.559878 
L 178.972269 51.049658 
L 183.695226 47.057113 
L 188.418182 44.188396 
L 193.141139 46.140307 
L 197.864096 44.040524 
L 202.587053 47.826048 
L 207.31001 46.850092 
L 212.032967 42.798399 
L 216.755923 43.153292 
L 221.47888 43.123718 
L 226.201837 41.940742 
L 230.924794 45.637542 
L 235.647751 41.378828 
L 240.370708 41.201381 
L 245.093664 41.674572 
L 249.816621 40.994361 
L 254.539578 41.704146 
L 259.262535 42.680102 
L 263.985492 40.077554 
L 268.708449 41.378828 
L 273.431406 41.319679 
L 278.154362 42.059039 
L 282.877319 40.195852 
L 287.600276 40.462021 
L 292.323233 41.023935 
L 297.04619 40.077554 
L 301.769147 39.338194 
L 306.492103 42.384358 
L 311.21506 39.279045 
L 315.938017 38.362239 
L 320.660974 39.367768 
L 325.383931 38.480536 
L 330.106888 39.545215 
L 334.829844 40.580319 
L 339.552801 38.924152 
L 344.275758 38.066495 
L 348.998715 41.319679 
L 353.721672 39.959257 
L 358.444629 38.214367 
L 363.167586 38.03692 
L 367.890542 38.184792 
L 372.613499 38.184792 
L 377.336456 37.8299 
L 382.059413 39.397343 
L 386.78237 44.365843 
L 391.505327 38.03692 
L 396.228283 39.752236 
L 400.95124 36.972242 
L 405.674197 37.327135 
L 410.397154 36.972242 
L 415.120111 38.510111 
L 419.843068 37.120114 
L 424.566024 37.179263 
L 429.288981 37.504581 
L 434.011938 36.292031 
L 438.734895 36.114584 
L 443.457852 37.001816 
L 448.180809 36.351179 
L 452.903765 37.031391 
L 457.626722 36.528626 
L 462.349679 36.08501 
L 467.072636 36.676498 
L 471.795593 36.706072 
L 476.51855 36.380754 
L 481.241507 36.587775 
L 485.964463 36.853944 
L 490.68742 36.380754 
L 495.410377 36.528626 
L 500.133334 36.735647 
L 504.856291 36.351179 
L 509.579248 37.386283 
L 514.302204 36.676498 
L 519.025161 36.883519 
L 523.748118 36.82437 
L 528.471075 37.267986 
L 533.194032 37.179263 
L 537.916989 36.706072 
" clip-path="url(#p6c54d52f31)" style="fill: none; stroke: #2ca02c; stroke-width: 2; stroke-linecap: square"/>
   </g>
   <g id="line2d_15">
    <path d="M 70.344261 273.153426 
L 75.067218 292.140193 
L 79.790175 228.732672 
L 84.513132 232.459047 
L 89.236089 181.798095 
L 93.959046 141.990948 
L 98.682002 158.25687 
L 103.404959 105.377837 
L 108.127916 78.908746 
L 112.850873 85.001073 
L 117.57383 68.52813 
L 122.296787 80.742359 
L 127.019743 56.136455 
L 131.7427 55.130925 
L 136.465657 56.698369 
L 141.188614 59.12347 
L 145.911571 48.210515 
L 150.634528 56.018158 
L 155.357485 51.049658 
L 160.080441 48.654131 
L 164.803398 53.652205 
L 169.526355 45.371372 
L 174.249312 46.790944 
L 178.972269 49.866682 
L 183.695226 47.914771 
L 188.418182 46.672646 
L 193.141139 44.040524 
L 197.864096 55.042202 
L 202.587053 49.127322 
L 207.31001 47.559878 
L 212.032967 47.589453 
L 216.755923 48.920301 
L 221.47888 41.99989 
L 226.201837 43.449036 
L 230.924794 43.27159 
L 235.647751 43.951801 
L 240.370708 42.73925 
L 245.093664 47.914771 
L 249.816621 46.879667 
L 254.539578 45.75584 
L 259.262535 41.852018 
L 263.985492 42.768825 
L 268.708449 44.040524 
L 273.431406 42.088614 
L 278.154362 44.572863 
L 282.877319 42.827974 
L 287.600276 40.432447 
L 292.323233 39.545215 
L 297.04619 39.633938 
L 301.769147 43.212441 
L 306.492103 40.935212 
L 311.21506 44.040524 
L 315.938017 40.876063 
L 320.660974 40.639468 
L 325.383931 42.53223 
L 330.106888 42.177337 
L 334.829844 39.870533 
L 339.552801 41.497126 
L 344.275758 40.728191 
L 348.998715 37.770751 
L 353.721672 37.889048 
L 358.444629 38.746706 
L 363.167586 38.214367 
L 367.890542 38.125644 
L 372.613499 45.578393 
L 377.336456 39.101599 
L 382.059413 38.480536 
L 386.78237 38.687557 
L 391.505327 38.539685 
L 396.228283 38.717132 
L 400.95124 39.160748 
L 405.674197 39.633938 
L 410.397154 38.953727 
L 415.120111 39.78181 
L 419.843068 38.480536 
L 424.566024 38.184792 
L 429.288981 37.208837 
L 434.011938 37.29756 
L 438.734895 39.131173 
L 443.457852 37.356709 
L 448.180809 37.238411 
L 452.903765 36.528626 
L 457.626722 37.267986 
L 462.349679 36.706072 
L 467.072636 38.362239 
L 471.795593 36.765221 
L 476.51855 36.617349 
L 481.241507 36.5582 
L 485.964463 36.203307 
L 490.68742 36.883519 
L 495.410377 35.700542 
L 500.133334 38.894578 
L 504.856291 35.55267 
L 509.579248 37.622879 
L 514.302204 37.327135 
L 519.025161 37.001816 
L 523.748118 37.622879 
L 528.471075 35.907563 
L 533.194032 36.439903 
L 537.916989 38.03692 
" clip-path="url(#p6c54d52f31)" style="fill: none; stroke: #d62728; stroke-width: 2; stroke-linecap: square"/>
   </g>
   <g id="line2d_16">
    <path d="M 70.344261 297.818478 
L 75.067218 246.151996 
L 79.790175 200.636989 
L 84.513132 119.691848 
L 89.236089 113.806541 
L 93.959046 74.620457 
L 98.682002 74.383862 
L 103.404959 72.579823 
L 108.127916 53.001568 
L 112.850873 49.18647 
L 117.57383 51.996039 
L 122.296787 53.445184 
L 127.019743 45.667116 
L 131.7427 44.158822 
L 136.465657 47.885197 
L 141.188614 42.946271 
L 145.911571 42.413932 
L 150.634528 42.650527 
L 155.357485 42.236486 
L 160.080441 41.497126 
L 164.803398 41.083084 
L 169.526355 41.201381 
L 174.249312 43.656057 
L 178.972269 40.846489 
L 183.695226 40.728191 
L 188.418182 40.343724 
L 193.141139 39.929682 
L 197.864096 38.805855 
L 202.587053 39.072024 
L 207.31001 39.101599 
L 212.032967 39.072024 
L 216.755923 38.894578 
L 221.47888 38.598834 
L 226.201837 38.421388 
L 230.924794 38.953727 
L 235.647751 38.805855 
L 240.370708 37.652453 
L 245.093664 37.711602 
L 249.816621 38.125644 
L 254.539578 38.510111 
L 259.262535 38.805855 
L 263.985492 38.421388 
L 268.708449 38.096069 
L 273.431406 37.977772 
L 278.154362 38.273516 
L 282.877319 39.456492 
L 287.600276 37.090539 
L 292.323233 37.031391 
L 297.04619 36.972242 
L 301.769147 36.913093 
L 306.492103 37.29756 
L 311.21506 68.971746 
L 315.938017 142.966903 
L 320.660974 300.24358 
L 325.383931 300.24358 
L 330.106888 296.221461 
L 334.829844 297.641032 
L 339.552801 297.641032 
L 344.275758 297.641032 
L 348.998715 297.641032 
L 353.721672 297.641032 
L 358.444629 297.641032 
L 363.167586 297.641032 
L 367.890542 297.641032 
L 372.613499 297.641032 
L 377.336456 297.641032 
L 382.059413 297.641032 
L 386.78237 297.641032 
L 391.505327 297.641032 
L 396.228283 297.641032 
L 400.95124 297.641032 
L 405.674197 297.641032 
L 410.397154 297.641032 
L 415.120111 297.641032 
L 419.843068 297.641032 
L 424.566024 297.641032 
L 429.288981 297.641032 
L 434.011938 297.641032 
L 438.734895 297.641032 
L 443.457852 297.641032 
L 448.180809 297.641032 
L 452.903765 297.641032 
L 457.626722 297.641032 
L 462.349679 297.641032 
L 467.072636 297.641032 
L 471.795593 297.641032 
L 476.51855 297.641032 
L 481.241507 297.641032 
L 485.964463 297.641032 
L 490.68742 297.641032 
L 495.410377 297.641032 
L 500.133334 297.641032 
L 504.856291 297.641032 
L 509.579248 297.641032 
L 514.302204 297.641032 
L 519.025161 297.641032 
L 523.748118 297.641032 
L 528.471075 297.641032 
L 533.194032 297.641032 
L 537.916989 297.641032 
" clip-path="url(#p6c54d52f31)" style="fill: none; stroke: #9467bd; stroke-width: 2; stroke-linecap: square"/>
   </g>
   <g id="line2d_17">
    <path d="M 70.344261 300.24358 
L 75.067218 293.057 
L 79.790175 293.057 
L 84.513132 294.801889 
L 89.236089 274.247679 
L 93.959046 296.103163 
L 98.682002 296.103163 
L 103.404959 297.818478 
L 108.127916 263.77834 
L 112.850873 240.769455 
L 117.57383 297.641032 
L 122.296787 275.341932 
L 127.019743 248.843267 
L 131.7427 275.66725 
L 136.465657 264.133233 
L 141.188614 265.464081 
L 145.911571 244.200085 
L 150.634528 233.109684 
L 155.357485 243.933916 
L 160.080441 222.610771 
L 164.803398 207.232081 
L 169.526355 212.289304 
L 174.249312 259.371754 
L 178.972269 242.928386 
L 183.695226 261.382814 
L 188.418182 205.161873 
L 193.141139 208.119313 
L 197.864096 137.702659 
L 202.587053 182.212136 
L 207.31001 230.950753 
L 212.032967 166.803872 
L 216.755923 118.035681 
L 221.47888 141.695204 
L 226.201837 116.823131 
L 230.924794 115.107815 
L 235.647751 97.954661 
L 240.370708 116.497812 
L 245.093664 79.41151 
L 249.816621 77.045558 
L 254.539578 114.39803 
L 259.262535 98.871468 
L 263.985492 94.612754 
L 268.708449 99.433381 
L 273.431406 73.171311 
L 278.154362 83.374481 
L 282.877319 67.345154 
L 287.600276 94.524031 
L 292.323233 125.28141 
L 297.04619 94.701477 
L 301.769147 93.015736 
L 306.492103 76.956835 
L 311.21506 82.605546 
L 315.938017 77.814493 
L 320.660974 79.441085 
L 325.383931 85.592561 
L 330.106888 129.599273 
L 334.829844 108.867616 
L 339.552801 96.830834 
L 344.275758 82.250653 
L 348.998715 80.062147 
L 353.721672 79.855127 
L 358.444629 78.731299 
L 363.167586 120.549505 
L 367.890542 121.643758 
L 372.613499 86.036177 
L 377.336456 65.777711 
L 382.059413 54.243693 
L 386.78237 54.302842 
L 391.505327 55.101351 
L 396.228283 66.724091 
L 400.95124 103.869542 
L 405.674197 63.441333 
L 410.397154 50.162426 
L 415.120111 50.103277 
L 419.843068 91.507441 
L 424.566024 83.522353 
L 429.288981 63.441333 
L 434.011938 68.764725 
L 438.734895 58.768577 
L 443.457852 55.722413 
L 448.180809 71.219401 
L 452.903765 48.654131 
L 457.626722 55.071777 
L 462.349679 56.491348 
L 467.072636 57.822196 
L 471.795593 50.694765 
L 476.51855 58.354535 
L 481.241507 54.095821 
L 485.964463 63.204737 
L 490.68742 60.690913 
L 495.410377 62.761121 
L 500.133334 64.653883 
L 504.856291 64.742606 
L 509.579248 66.753666 
L 514.302204 52.67625 
L 519.025161 50.162426 
L 523.748118 47.944345 
L 528.471075 62.199208 
L 533.194032 55.456244 
L 537.916989 51.966464 
" clip-path="url(#p6c54d52f31)" style="fill: none; stroke: #8c564b; stroke-width: 2; stroke-linecap: square"/>
   </g>
   <g id="line2d_18">
    <path d="M 70.344261 296.103163 
L 75.067218 271.822578 
L 79.790175 175.469172 
L 84.513132 154.264325 
L 89.236089 132.822883 
L 93.959046 147.31434 
L 98.682002 111.706759 
L 103.404959 105.170816 
L 108.127916 72.75727 
L 112.850873 81.807037 
L 117.57383 63.944098 
L 122.296787 70.775785 
L 127.019743 55.63369 
L 131.7427 55.751988 
L 136.465657 54.243693 
L 141.188614 61.489422 
L 145.911571 53.8888 
L 150.634528 51.789018 
L 155.357485 50.310298 
L 160.080441 51.552423 
L 164.803398 46.96839 
L 169.526355 50.901786 
L 174.249312 48.624557 
L 178.972269 48.033069 
L 183.695226 50.339872 
L 188.418182 47.530304 
L 193.141139 45.548819 
L 197.864096 45.75584 
L 202.587053 44.779884 
L 207.31001 45.75584 
L 212.032967 45.016479 
L 216.755923 44.454566 
L 221.47888 49.393491 
L 226.201837 45.75584 
L 230.924794 44.306694 
L 235.647751 44.48414 
L 240.370708 42.620953 
L 245.093664 42.887122 
L 249.816621 42.53223 
L 254.539578 44.424991 
L 259.262535 42.650527 
L 263.985492 41.79287 
L 268.708449 42.473081 
L 273.431406 41.704146 
L 278.154362 41.408402 
L 282.877319 41.290105 
L 287.600276 40.935212 
L 292.323233 42.827974 
L 297.04619 41.79287 
L 301.769147 40.846489 
L 306.492103 40.728191 
L 311.21506 41.763295 
L 315.938017 43.389887 
L 320.660974 45.844563 
L 325.383931 44.188396 
L 330.106888 45.2235 
L 334.829844 43.803929 
L 339.552801 41.644998 
L 344.275758 41.290105 
L 348.998715 40.876063 
L 353.721672 41.230956 
L 358.444629 43.478611 
L 363.167586 39.988831 
L 367.890542 40.698617 
L 372.613499 45.016479 
L 377.336456 44.336268 
L 382.059413 42.354783 
L 386.78237 41.674572 
L 391.505327 43.981375 
L 396.228283 45.371372 
L 400.95124 43.478611 
L 405.674197 41.585849 
L 410.397154 41.940742 
L 415.120111 41.26053 
L 419.843068 40.846489 
L 424.566024 42.620953 
L 429.288981 43.951801 
L 434.011938 46.22903 
L 438.734895 41.822444 
L 443.457852 41.053509 
L 448.180809 42.118188 
L 452.903765 43.00542 
L 457.626722 42.798399 
L 462.349679 43.596908 
L 467.072636 49.630086 
L 471.795593 44.277119 
L 476.51855 51.138381 
L 481.241507 44.809459 
L 485.964463 43.123718 
L 490.68742 41.615423 
L 495.410377 40.550745 
L 500.133334 41.970316 
L 504.856291 43.478611 
L 509.579248 41.171807 
L 514.302204 41.911167 
L 519.025161 41.585849 
L 523.748118 40.698617 
L 528.471075 40.314149 
L 533.194032 41.881593 
L 537.916989 42.975846 
" clip-path="url(#p6c54d52f31)" style="fill: none; stroke: #e377c2; stroke-width: 2; stroke-linecap: square"/>
   </g>
   <g id="line2d_19">
    <path d="M 70.344261 246.743484 
L 75.067218 246.092847 
L 79.790175 94.524031 
L 84.513132 92.927013 
L 89.236089 73.644502 
L 93.959046 81.333847 
L 98.682002 85.799582 
L 103.404959 62.228782 
L 108.127916 60.483892 
L 112.850873 51.641146 
L 117.57383 50.369446 
L 122.296787 47.678176 
L 127.019743 49.570938 
L 131.7427 50.783488 
L 136.465657 45.48967 
L 141.188614 46.199456 
L 145.911571 44.632012 
L 150.634528 43.892652 
L 155.357485 44.720735 
L 160.080441 43.656057 
L 164.803398 43.330739 
L 169.526355 43.182866 
L 174.249312 41.881593 
L 178.972269 42.591378 
L 183.695226 41.704146 
L 188.418182 40.78734 
L 193.141139 40.04798 
L 197.864096 41.023935 
L 202.587053 40.78734 
L 207.31001 40.669042 
L 212.032967 40.402873 
L 216.755923 40.225426 
L 221.47888 40.166277 
L 226.201837 39.988831 
L 230.924794 39.722661 
L 235.647751 39.072024 
L 240.370708 38.450962 
L 245.093664 39.51564 
L 249.816621 38.746706 
L 254.539578 38.598834 
L 259.262535 39.072024 
L 263.985492 38.391813 
L 268.708449 38.510111 
L 273.431406 38.362239 
L 278.154362 37.859474 
L 282.877319 38.155218 
L 287.600276 38.480536 
L 292.323233 38.184792 
L 297.04619 37.356709 
L 301.769147 38.214367 
L 306.492103 38.539685 
L 311.21506 40.255001 
L 315.938017 42.887122 
L 320.660974 46.199456 
L 325.383931 49.92583 
L 330.106888 60.543041 
L 334.829844 109.252083 
L 339.552801 186.145532 
L 344.275758 237.486696 
L 348.998715 300.24358 
L 353.721672 300.24358 
L 358.444629 297.641032 
L 363.167586 297.641032 
L 367.890542 297.641032 
L 372.613499 297.641032 
L 377.336456 297.641032 
L 382.059413 297.641032 
L 386.78237 297.641032 
L 391.505327 297.641032 
L 396.228283 297.641032 
L 400.95124 297.641032 
L 405.674197 297.641032 
L 410.397154 297.641032 
L 415.120111 297.641032 
L 419.843068 297.641032 
L 424.566024 297.641032 
L 429.288981 297.641032 
L 434.011938 297.641032 
L 438.734895 297.641032 
L 443.457852 297.641032 
L 448.180809 297.641032 
L 452.903765 297.641032 
L 457.626722 297.641032 
L 462.349679 297.641032 
L 467.072636 297.641032 
L 471.795593 297.641032 
L 476.51855 297.641032 
L 481.241507 297.641032 
L 485.964463 297.641032 
L 490.68742 297.641032 
L 495.410377 297.641032 
L 500.133334 297.641032 
L 504.856291 297.641032 
L 509.579248 297.641032 
L 514.302204 297.641032 
L 519.025161 297.641032 
L 523.748118 297.641032 
L 528.471075 297.641032 
L 533.194032 297.641032 
L 537.916989 297.641032 
" clip-path="url(#p6c54d52f31)" style="fill: none; stroke: #7f7f7f; stroke-width: 2; stroke-linecap: square"/>
   </g>
   <g id="patch_3">
    <path d="M 46.965625 313.478125 
L 46.965625 22.318125 
" style="fill: none; stroke: #000000; stroke-width: 0.8; stroke-linejoin: miter; stroke-linecap: square"/>
   </g>
   <g id="patch_4">
    <path d="M 561.295625 313.478125 
L 561.295625 22.318125 
" style="fill: none; stroke: #000000; stroke-width: 0.8; stroke-linejoin: miter; stroke-linecap: square"/>
   </g>
   <g id="patch_5">
    <path d="M 46.965625 313.478125 
L 561.295625 313.478125 
" style="fill: none; stroke: #000000; stroke-width: 0.8; stroke-linejoin: miter; stroke-linecap: square"/>
   </g>
   <g id="patch_6">
    <path d="M 46.965625 22.318125 
L 561.295625 22.318125 
" style="fill: none; stroke: #000000; stroke-width: 0.8; stroke-linejoin: miter; stroke-linecap: square"/>
   </g>
   <g id="text_14">
    <!-- mnist, IPM attack, clients=100 -->
    <g transform="translate(212.323125 16.318125) scale(0.12 -0.12)">
     <defs>
      <path id="DejaVuSans-6d" d="M 3328 2828 
Q 3544 3216 3844 3400 
Q 4144 3584 4550 3584 
Q 5097 3584 5394 3201 
Q 5691 2819 5691 2113 
L 5691 0 
L 5113 0 
L 5113 2094 
Q 5113 2597 4934 2840 
Q 4756 3084 4391 3084 
Q 3944 3084 3684 2787 
Q 3425 2491 3425 1978 
L 3425 0 
L 2847 0 
L 2847 2094 
Q 2847 2600 2669 2842 
Q 2491 3084 2119 3084 
Q 1678 3084 1418 2786 
Q 1159 2488 1159 1978 
L 1159 0 
L 581 0 
L 581 3500 
L 1159 3500 
L 1159 2956 
Q 1356 3278 1631 3431 
Q 1906 3584 2284 3584 
Q 2666 3584 2933 3390 
Q 3200 3197 3328 2828 
z
" transform="scale(0.015625)"/>
      <path id="DejaVuSans-2c" d="M 750 794 
L 1409 794 
L 1409 256 
L 897 -744 
L 494 -744 
L 750 256 
L 750 794 
z
" transform="scale(0.015625)"/>
      <path id="DejaVuSans-49" d="M 628 4666 
L 1259 4666 
L 1259 0 
L 628 0 
L 628 4666 
z
" transform="scale(0.015625)"/>
      <path id="DejaVuSans-50" d="M 1259 4147 
L 1259 2394 
L 2053 2394 
Q 2494 2394 2734 2622 
Q 2975 2850 2975 3272 
Q 2975 3691 2734 3919 
Q 2494 4147 2053 4147 
L 1259 4147 
z
M 628 4666 
L 2053 4666 
Q 2838 4666 3239 4311 
Q 3641 3956 3641 3272 
Q 3641 2581 3239 2228 
Q 2838 1875 2053 1875 
L 1259 1875 
L 1259 0 
L 628 0 
L 628 4666 
z
" transform="scale(0.015625)"/>
      <path id="DejaVuSans-4d" d="M 628 4666 
L 1569 4666 
L 2759 1491 
L 3956 4666 
L 4897 4666 
L 4897 0 
L 4281 0 
L 4281 4097 
L 3078 897 
L 2444 897 
L 1241 4097 
L 1241 0 
L 628 0 
L 628 4666 
z
" transform="scale(0.015625)"/>
      <path id="DejaVuSans-6b" d="M 581 4863 
L 1159 4863 
L 1159 1991 
L 2875 3500 
L 3609 3500 
L 1753 1863 
L 3688 0 
L 2938 0 
L 1159 1709 
L 1159 0 
L 581 0 
L 581 4863 
z
" transform="scale(0.015625)"/>
      <path id="DejaVuSans-6c" d="M 603 4863 
L 1178 4863 
L 1178 0 
L 603 0 
L 603 4863 
z
" transform="scale(0.015625)"/>
      <path id="DejaVuSans-3d" d="M 678 2906 
L 4684 2906 
L 4684 2381 
L 678 2381 
L 678 2906 
z
M 678 1631 
L 4684 1631 
L 4684 1100 
L 678 1100 
L 678 1631 
z
" transform="scale(0.015625)"/>
     </defs>
     <use xlink:href="#DejaVuSans-6d"/>
     <use xlink:href="#DejaVuSans-6e" transform="translate(97.412109 0)"/>
     <use xlink:href="#DejaVuSans-69" transform="translate(160.791016 0)"/>
     <use xlink:href="#DejaVuSans-73" transform="translate(188.574219 0)"/>
     <use xlink:href="#DejaVuSans-74" transform="translate(240.673828 0)"/>
     <use xlink:href="#DejaVuSans-2c" transform="translate(279.882812 0)"/>
     <use xlink:href="#DejaVuSans-20" transform="translate(311.669922 0)"/>
     <use xlink:href="#DejaVuSans-49" transform="translate(343.457031 0)"/>
     <use xlink:href="#DejaVuSans-50" transform="translate(372.949219 0)"/>
     <use xlink:href="#DejaVuSans-4d" transform="translate(433.251953 0)"/>
     <use xlink:href="#DejaVuSans-20" transform="translate(519.53125 0)"/>
     <use xlink:href="#DejaVuSans-61" transform="translate(551.318359 0)"/>
     <use xlink:href="#DejaVuSans-74" transform="translate(612.597656 0)"/>
     <use xlink:href="#DejaVuSans-74" transform="translate(651.806641 0)"/>
     <use xlink:href="#DejaVuSans-61" transform="translate(691.015625 0)"/>
     <use xlink:href="#DejaVuSans-63" transform="translate(752.294922 0)"/>
     <use xlink:href="#DejaVuSans-6b" transform="translate(807.275391 0)"/>
     <use xlink:href="#DejaVuSans-2c" transform="translate(865.185547 0)"/>
     <use xlink:href="#DejaVuSans-20" transform="translate(896.972656 0)"/>
     <use xlink:href="#DejaVuSans-63" transform="translate(928.759766 0)"/>
     <use xlink:href="#DejaVuSans-6c" transform="translate(983.740234 0)"/>
     <use xlink:href="#DejaVuSans-69" transform="translate(1011.523438 0)"/>
     <use xlink:href="#DejaVuSans-65" transform="translate(1039.306641 0)"/>
     <use xlink:href="#DejaVuSans-6e" transform="translate(1100.830078 0)"/>
     <use xlink:href="#DejaVuSans-74" transform="translate(1164.208984 0)"/>
     <use xlink:href="#DejaVuSans-73" transform="translate(1203.417969 0)"/>
     <use xlink:href="#DejaVuSans-3d" transform="translate(1255.517578 0)"/>
     <use xlink:href="#DejaVuSans-31" transform="translate(1339.306641 0)"/>
     <use xlink:href="#DejaVuSans-30" transform="translate(1402.929688 0)"/>
     <use xlink:href="#DejaVuSans-30" transform="translate(1466.552734 0)"/>
    </g>
   </g>
   <g id="legend_1">
    <g id="patch_7">
     <path d="M 444.31125 228.110625 
L 554.295625 228.110625 
Q 556.295625 228.110625 556.295625 226.110625 
L 556.295625 109.685625 
Q 556.295625 107.685625 554.295625 107.685625 
L 444.31125 107.685625 
Q 442.31125 107.685625 442.31125 109.685625 
L 442.31125 226.110625 
Q 442.31125 228.110625 444.31125 228.110625 
z
" style="fill: #ffffff; opacity: 0.8; stroke: #cccccc; stroke-linejoin: miter"/>
    </g>
    <g id="line2d_20">
     <path d="M 446.31125 115.784063 
L 456.31125 115.784063 
L 466.31125 115.784063 
" style="fill: none; stroke: #1f77b4; stroke-width: 2; stroke-linecap: square"/>
    </g>
    <g id="text_15">
     <!-- Average -->
     <g transform="translate(474.31125 119.284063) scale(0.1 -0.1)">
      <defs>
       <path id="DejaVuSans-41" d="M 2188 4044 
L 1331 1722 
L 3047 1722 
L 2188 4044 
z
M 1831 4666 
L 2547 4666 
L 4325 0 
L 3669 0 
L 3244 1197 
L 1141 1197 
L 716 0 
L 50 0 
L 1831 4666 
z
" transform="scale(0.015625)"/>
       <path id="DejaVuSans-76" d="M 191 3500 
L 800 3500 
L 1894 563 
L 2988 3500 
L 3597 3500 
L 2284 0 
L 1503 0 
L 191 3500 
z
" transform="scale(0.015625)"/>
      </defs>
      <use xlink:href="#DejaVuSans-41"/>
      <use xlink:href="#DejaVuSans-76" transform="translate(62.533203 0)"/>
      <use xlink:href="#DejaVuSans-65" transform="translate(121.712891 0)"/>
      <use xlink:href="#DejaVuSans-72" transform="translate(183.236328 0)"/>
      <use xlink:href="#DejaVuSans-61" transform="translate(224.349609 0)"/>
      <use xlink:href="#DejaVuSans-67" transform="translate(285.628906 0)"/>
      <use xlink:href="#DejaVuSans-65" transform="translate(349.105469 0)"/>
     </g>
    </g>
    <g id="line2d_21">
     <path d="M 446.31125 130.462188 
L 456.31125 130.462188 
L 466.31125 130.462188 
" style="fill: none; stroke: #ff7f0e; stroke-width: 2; stroke-linecap: square"/>
    </g>
    <g id="text_16">
     <!-- Clip Median -->
     <g transform="translate(474.31125 133.962188) scale(0.1 -0.1)">
      <defs>
       <path id="DejaVuSans-43" d="M 4122 4306 
L 4122 3641 
Q 3803 3938 3442 4084 
Q 3081 4231 2675 4231 
Q 1875 4231 1450 3742 
Q 1025 3253 1025 2328 
Q 1025 1406 1450 917 
Q 1875 428 2675 428 
Q 3081 428 3442 575 
Q 3803 722 4122 1019 
L 4122 359 
Q 3791 134 3420 21 
Q 3050 -91 2638 -91 
Q 1578 -91 968 557 
Q 359 1206 359 2328 
Q 359 3453 968 4101 
Q 1578 4750 2638 4750 
Q 3056 4750 3426 4639 
Q 3797 4528 4122 4306 
z
" transform="scale(0.015625)"/>
       <path id="DejaVuSans-70" d="M 1159 525 
L 1159 -1331 
L 581 -1331 
L 581 3500 
L 1159 3500 
L 1159 2969 
Q 1341 3281 1617 3432 
Q 1894 3584 2278 3584 
Q 2916 3584 3314 3078 
Q 3713 2572 3713 1747 
Q 3713 922 3314 415 
Q 2916 -91 2278 -91 
Q 1894 -91 1617 61 
Q 1341 213 1159 525 
z
M 3116 1747 
Q 3116 2381 2855 2742 
Q 2594 3103 2138 3103 
Q 1681 3103 1420 2742 
Q 1159 2381 1159 1747 
Q 1159 1113 1420 752 
Q 1681 391 2138 391 
Q 2594 391 2855 752 
Q 3116 1113 3116 1747 
z
" transform="scale(0.015625)"/>
      </defs>
      <use xlink:href="#DejaVuSans-43"/>
      <use xlink:href="#DejaVuSans-6c" transform="translate(69.824219 0)"/>
      <use xlink:href="#DejaVuSans-69" transform="translate(97.607422 0)"/>
      <use xlink:href="#DejaVuSans-70" transform="translate(125.390625 0)"/>
      <use xlink:href="#DejaVuSans-20" transform="translate(188.867188 0)"/>
      <use xlink:href="#DejaVuSans-4d" transform="translate(220.654297 0)"/>
      <use xlink:href="#DejaVuSans-65" transform="translate(306.933594 0)"/>
      <use xlink:href="#DejaVuSans-64" transform="translate(368.457031 0)"/>
      <use xlink:href="#DejaVuSans-69" transform="translate(431.933594 0)"/>
      <use xlink:href="#DejaVuSans-61" transform="translate(459.716797 0)"/>
      <use xlink:href="#DejaVuSans-6e" transform="translate(520.996094 0)"/>
     </g>
    </g>
    <g id="line2d_22">
     <path d="M 446.31125 145.140313 
L 456.31125 145.140313 
L 466.31125 145.140313 
" style="fill: none; stroke: #2ca02c; stroke-width: 2; stroke-linecap: square"/>
    </g>
    <g id="text_17">
     <!-- Cosine Defense -->
     <g transform="translate(474.31125 148.640313) scale(0.1 -0.1)">
      <defs>
       <path id="DejaVuSans-44" d="M 1259 4147 
L 1259 519 
L 2022 519 
Q 2988 519 3436 956 
Q 3884 1394 3884 2338 
Q 3884 3275 3436 3711 
Q 2988 4147 2022 4147 
L 1259 4147 
z
M 628 4666 
L 1925 4666 
Q 3281 4666 3915 4102 
Q 4550 3538 4550 2338 
Q 4550 1131 3912 565 
Q 3275 0 1925 0 
L 628 0 
L 628 4666 
z
" transform="scale(0.015625)"/>
       <path id="DejaVuSans-66" d="M 2375 4863 
L 2375 4384 
L 1825 4384 
Q 1516 4384 1395 4259 
Q 1275 4134 1275 3809 
L 1275 3500 
L 2222 3500 
L 2222 3053 
L 1275 3053 
L 1275 0 
L 697 0 
L 697 3053 
L 147 3053 
L 147 3500 
L 697 3500 
L 697 3744 
Q 697 4328 969 4595 
Q 1241 4863 1831 4863 
L 2375 4863 
z
" transform="scale(0.015625)"/>
      </defs>
      <use xlink:href="#DejaVuSans-43"/>
      <use xlink:href="#DejaVuSans-6f" transform="translate(69.824219 0)"/>
      <use xlink:href="#DejaVuSans-73" transform="translate(131.005859 0)"/>
      <use xlink:href="#DejaVuSans-69" transform="translate(183.105469 0)"/>
      <use xlink:href="#DejaVuSans-6e" transform="translate(210.888672 0)"/>
      <use xlink:href="#DejaVuSans-65" transform="translate(274.267578 0)"/>
      <use xlink:href="#DejaVuSans-20" transform="translate(335.791016 0)"/>
      <use xlink:href="#DejaVuSans-44" transform="translate(367.578125 0)"/>
      <use xlink:href="#DejaVuSans-65" transform="translate(444.580078 0)"/>
      <use xlink:href="#DejaVuSans-66" transform="translate(506.103516 0)"/>
      <use xlink:href="#DejaVuSans-65" transform="translate(541.308594 0)"/>
      <use xlink:href="#DejaVuSans-6e" transform="translate(602.832031 0)"/>
      <use xlink:href="#DejaVuSans-73" transform="translate(666.210938 0)"/>
      <use xlink:href="#DejaVuSans-65" transform="translate(718.310547 0)"/>
     </g>
    </g>
    <g id="line2d_23">
     <path d="M 446.31125 159.818438 
L 456.31125 159.818438 
L 466.31125 159.818438 
" style="fill: none; stroke: #d62728; stroke-width: 2; stroke-linecap: square"/>
    </g>
    <g id="text_18">
     <!-- DDFed -->
     <g transform="translate(474.31125 163.318438) scale(0.1 -0.1)">
      <use xlink:href="#DejaVuSans-44"/>
      <use xlink:href="#DejaVuSans-44" transform="translate(77.001953 0)"/>
      <use xlink:href="#DejaVuSans-46" transform="translate(154.003906 0)"/>
      <use xlink:href="#DejaVuSans-65" transform="translate(206.023438 0)"/>
      <use xlink:href="#DejaVuSans-64" transform="translate(267.546875 0)"/>
     </g>
    </g>
    <g id="line2d_24">
     <path d="M 446.31125 174.496563 
L 456.31125 174.496563 
L 466.31125 174.496563 
" style="fill: none; stroke: #9467bd; stroke-width: 2; stroke-linecap: square"/>
    </g>
    <g id="text_19">
     <!-- FedAvg -->
     <g transform="translate(474.31125 177.996563) scale(0.1 -0.1)">
      <use xlink:href="#DejaVuSans-46"/>
      <use xlink:href="#DejaVuSans-65" transform="translate(52.019531 0)"/>
      <use xlink:href="#DejaVuSans-64" transform="translate(113.542969 0)"/>
      <use xlink:href="#DejaVuSans-41" transform="translate(177.019531 0)"/>
      <use xlink:href="#DejaVuSans-76" transform="translate(239.552734 0)"/>
      <use xlink:href="#DejaVuSans-67" transform="translate(298.732422 0)"/>
     </g>
    </g>
    <g id="line2d_25">
     <path d="M 446.31125 189.174688 
L 456.31125 189.174688 
L 466.31125 189.174688 
" style="fill: none; stroke: #8c564b; stroke-width: 2; stroke-linecap: square"/>
    </g>
    <g id="text_20">
     <!-- Krum -->
     <g transform="translate(474.31125 192.674688) scale(0.1 -0.1)">
      <defs>
       <path id="DejaVuSans-4b" d="M 628 4666 
L 1259 4666 
L 1259 2694 
L 3353 4666 
L 4166 4666 
L 1850 2491 
L 4331 0 
L 3500 0 
L 1259 2247 
L 1259 0 
L 628 0 
L 628 4666 
z
" transform="scale(0.015625)"/>
      </defs>
      <use xlink:href="#DejaVuSans-4b"/>
      <use xlink:href="#DejaVuSans-72" transform="translate(65.576172 0)"/>
      <use xlink:href="#DejaVuSans-75" transform="translate(106.689453 0)"/>
      <use xlink:href="#DejaVuSans-6d" transform="translate(170.068359 0)"/>
     </g>
    </g>
    <g id="line2d_26">
     <path d="M 446.31125 203.852813 
L 456.31125 203.852813 
L 466.31125 203.852813 
" style="fill: none; stroke: #e377c2; stroke-width: 2; stroke-linecap: square"/>
    </g>
    <g id="text_21">
     <!-- OUR -->
     <g transform="translate(474.31125 207.352813) scale(0.1 -0.1)">
      <defs>
       <path id="DejaVuSans-4f" d="M 2522 4238 
Q 1834 4238 1429 3725 
Q 1025 3213 1025 2328 
Q 1025 1447 1429 934 
Q 1834 422 2522 422 
Q 3209 422 3611 934 
Q 4013 1447 4013 2328 
Q 4013 3213 3611 3725 
Q 3209 4238 2522 4238 
z
M 2522 4750 
Q 3503 4750 4090 4092 
Q 4678 3434 4678 2328 
Q 4678 1225 4090 567 
Q 3503 -91 2522 -91 
Q 1538 -91 948 565 
Q 359 1222 359 2328 
Q 359 3434 948 4092 
Q 1538 4750 2522 4750 
z
" transform="scale(0.015625)"/>
       <path id="DejaVuSans-55" d="M 556 4666 
L 1191 4666 
L 1191 1831 
Q 1191 1081 1462 751 
Q 1734 422 2344 422 
Q 2950 422 3222 751 
Q 3494 1081 3494 1831 
L 3494 4666 
L 4128 4666 
L 4128 1753 
Q 4128 841 3676 375 
Q 3225 -91 2344 -91 
Q 1459 -91 1007 375 
Q 556 841 556 1753 
L 556 4666 
z
" transform="scale(0.015625)"/>
       <path id="DejaVuSans-52" d="M 2841 2188 
Q 3044 2119 3236 1894 
Q 3428 1669 3622 1275 
L 4263 0 
L 3584 0 
L 2988 1197 
Q 2756 1666 2539 1819 
Q 2322 1972 1947 1972 
L 1259 1972 
L 1259 0 
L 628 0 
L 628 4666 
L 2053 4666 
Q 2853 4666 3247 4331 
Q 3641 3997 3641 3322 
Q 3641 2881 3436 2590 
Q 3231 2300 2841 2188 
z
M 1259 4147 
L 1259 2491 
L 2053 2491 
Q 2509 2491 2742 2702 
Q 2975 2913 2975 3322 
Q 2975 3731 2742 3939 
Q 2509 4147 2053 4147 
L 1259 4147 
z
" transform="scale(0.015625)"/>
      </defs>
      <use xlink:href="#DejaVuSans-4f"/>
      <use xlink:href="#DejaVuSans-55" transform="translate(78.710938 0)"/>
      <use xlink:href="#DejaVuSans-52" transform="translate(151.904297 0)"/>
     </g>
    </g>
    <g id="line2d_27">
     <path d="M 446.31125 218.530938 
L 456.31125 218.530938 
L 466.31125 218.530938 
" style="fill: none; stroke: #7f7f7f; stroke-width: 2; stroke-linecap: square"/>
    </g>
    <g id="text_22">
     <!-- Trimmed Mean -->
     <g transform="translate(474.31125 222.030938) scale(0.1 -0.1)">
      <defs>
       <path id="DejaVuSans-54" d="M -19 4666 
L 3928 4666 
L 3928 4134 
L 2272 4134 
L 2272 0 
L 1638 0 
L 1638 4134 
L -19 4134 
L -19 4666 
z
" transform="scale(0.015625)"/>
      </defs>
      <use xlink:href="#DejaVuSans-54"/>
      <use xlink:href="#DejaVuSans-72" transform="translate(46.333984 0)"/>
      <use xlink:href="#DejaVuSans-69" transform="translate(87.447266 0)"/>
      <use xlink:href="#DejaVuSans-6d" transform="translate(115.230469 0)"/>
      <use xlink:href="#DejaVuSans-6d" transform="translate(212.642578 0)"/>
      <use xlink:href="#DejaVuSans-65" transform="translate(310.054688 0)"/>
      <use xlink:href="#DejaVuSans-64" transform="translate(371.578125 0)"/>
      <use xlink:href="#DejaVuSans-20" transform="translate(435.054688 0)"/>
      <use xlink:href="#DejaVuSans-4d" transform="translate(466.841797 0)"/>
      <use xlink:href="#DejaVuSans-65" transform="translate(553.121094 0)"/>
      <use xlink:href="#DejaVuSans-61" transform="translate(614.644531 0)"/>
      <use xlink:href="#DejaVuSans-6e" transform="translate(675.923828 0)"/>
     </g>
    </g>
   </g>
  </g>
 </g>
 <defs>
  <clipPath id="p6c54d52f31">
   <rect x="46.965625" y="22.318125" width="514.33" height="291.16"/>
  </clipPath>
 </defs>
</svg>
