<?xml version="1.0" encoding="utf-8" standalone="no"?>
<!DOCTYPE svg PUBLIC "-//W3C//DTD SVG 1.1//EN"
  "http://www.w3.org/Graphics/SVG/1.1/DTD/svg11.dtd">
<svg xmlns:xlink="http://www.w3.org/1999/xlink" width="568.495625pt" height="351.034375pt" viewBox="0 0 568.495625 351.034375" xmlns="http://www.w3.org/2000/svg" version="1.1">
 <metadata>
  <rdf:RDF xmlns:dc="http://purl.org/dc/elements/1.1/" xmlns:cc="http://creativecommons.org/ns#" xmlns:rdf="http://www.w3.org/1999/02/22-rdf-syntax-ns#">
   <cc:Work>
    <dc:type rdf:resource="http://purl.org/dc/dcmitype/StillImage"/>
    <dc:date>2025-09-01T22:00:04.142048</dc:date>
    <dc:format>image/svg+xml</dc:format>
    <dc:creator>
     <cc:Agent>
      <dc:title>Matplotlib v3.10.3, https://matplotlib.org/</dc:title>
     </cc:Agent>
    </dc:creator>
   </cc:Work>
  </rdf:RDF>
 </metadata>
 <defs>
  <style type="text/css">*{stroke-linejoin: round; stroke-linecap: butt}</style>
 </defs>
 <g id="figure_1">
  <g id="patch_1">
   <path d="M 0 351.034375 
L 568.495625 351.034375 
L 568.495625 0 
L 0 0 
z
" style="fill: #ffffff"/>
  </g>
  <g id="axes_1">
   <g id="patch_2">
    <path d="M 46.965625 313.478125 
L 561.295625 313.478125 
L 561.295625 22.318125 
L 46.965625 22.318125 
z
" style="fill: #ffffff"/>
   </g>
   <g id="matplotlib.axis_1">
    <g id="xtick_1">
     <g id="line2d_1">
      <defs>
       <path id="me4f67921ac" d="M 0 0 
L 0 3.5 
" style="stroke: #000000; stroke-width: 0.8"/>
      </defs>
      <g>
       <use xlink:href="#me4f67921ac" x="70.344261" y="313.478125" style="stroke: #000000; stroke-width: 0.8"/>
      </g>
     </g>
     <g id="text_1">
      <!-- 0 -->
      <g transform="translate(67.163011 328.076563) scale(0.1 -0.1)">
       <defs>
        <path id="DejaVuSans-30" d="M 2034 4250 
Q 1547 4250 1301 3770 
Q 1056 3291 1056 2328 
Q 1056 1369 1301 889 
Q 1547 409 2034 409 
Q 2525 409 2770 889 
Q 3016 1369 3016 2328 
Q 3016 3291 2770 3770 
Q 2525 4250 2034 4250 
z
M 2034 4750 
Q 2819 4750 3233 4129 
Q 3647 3509 3647 2328 
Q 3647 1150 3233 529 
Q 2819 -91 2034 -91 
Q 1250 -91 836 529 
Q 422 1150 422 2328 
Q 422 3509 836 4129 
Q 1250 4750 2034 4750 
z
" transform="scale(0.015625)"/>
       </defs>
       <use xlink:href="#DejaVuSans-30"/>
      </g>
     </g>
    </g>
    <g id="xtick_2">
     <g id="line2d_2">
      <g>
       <use xlink:href="#me4f67921ac" x="133.105701" y="313.478125" style="stroke: #000000; stroke-width: 0.8"/>
      </g>
     </g>
     <g id="text_2">
      <!-- 20 -->
      <g transform="translate(126.743201 328.076563) scale(0.1 -0.1)">
       <defs>
        <path id="DejaVuSans-32" d="M 1228 531 
L 3431 531 
L 3431 0 
L 469 0 
L 469 531 
Q 828 903 1448 1529 
Q 2069 2156 2228 2338 
Q 2531 2678 2651 2914 
Q 2772 3150 2772 3378 
Q 2772 3750 2511 3984 
Q 2250 4219 1831 4219 
Q 1534 4219 1204 4116 
Q 875 4013 500 3803 
L 500 4441 
Q 881 4594 1212 4672 
Q 1544 4750 1819 4750 
Q 2544 4750 2975 4387 
Q 3406 4025 3406 3419 
Q 3406 3131 3298 2873 
Q 3191 2616 2906 2266 
Q 2828 2175 2409 1742 
Q 1991 1309 1228 531 
z
" transform="scale(0.015625)"/>
       </defs>
       <use xlink:href="#DejaVuSans-32"/>
       <use xlink:href="#DejaVuSans-30" transform="translate(63.623047 0)"/>
      </g>
     </g>
    </g>
    <g id="xtick_3">
     <g id="line2d_3">
      <g>
       <use xlink:href="#me4f67921ac" x="195.867141" y="313.478125" style="stroke: #000000; stroke-width: 0.8"/>
      </g>
     </g>
     <g id="text_3">
      <!-- 40 -->
      <g transform="translate(189.504641 328.076563) scale(0.1 -0.1)">
       <defs>
        <path id="DejaVuSans-34" d="M 2419 4116 
L 825 1625 
L 2419 1625 
L 2419 4116 
z
M 2253 4666 
L 3047 4666 
L 3047 1625 
L 3713 1625 
L 3713 1100 
L 3047 1100 
L 3047 0 
L 2419 0 
L 2419 1100 
L 313 1100 
L 313 1709 
L 2253 4666 
z
" transform="scale(0.015625)"/>
       </defs>
       <use xlink:href="#DejaVuSans-34"/>
       <use xlink:href="#DejaVuSans-30" transform="translate(63.623047 0)"/>
      </g>
     </g>
    </g>
    <g id="xtick_4">
     <g id="line2d_4">
      <g>
       <use xlink:href="#me4f67921ac" x="258.628581" y="313.478125" style="stroke: #000000; stroke-width: 0.8"/>
      </g>
     </g>
     <g id="text_4">
      <!-- 60 -->
      <g transform="translate(252.266081 328.076563) scale(0.1 -0.1)">
       <defs>
        <path id="DejaVuSans-36" d="M 2113 2584 
Q 1688 2584 1439 2293 
Q 1191 2003 1191 1497 
Q 1191 994 1439 701 
Q 1688 409 2113 409 
Q 2538 409 2786 701 
Q 3034 994 3034 1497 
Q 3034 2003 2786 2293 
Q 2538 2584 2113 2584 
z
M 3366 4563 
L 3366 3988 
Q 3128 4100 2886 4159 
Q 2644 4219 2406 4219 
Q 1781 4219 1451 3797 
Q 1122 3375 1075 2522 
Q 1259 2794 1537 2939 
Q 1816 3084 2150 3084 
Q 2853 3084 3261 2657 
Q 3669 2231 3669 1497 
Q 3669 778 3244 343 
Q 2819 -91 2113 -91 
Q 1303 -91 875 529 
Q 447 1150 447 2328 
Q 447 3434 972 4092 
Q 1497 4750 2381 4750 
Q 2619 4750 2861 4703 
Q 3103 4656 3366 4563 
z
" transform="scale(0.015625)"/>
       </defs>
       <use xlink:href="#DejaVuSans-36"/>
       <use xlink:href="#DejaVuSans-30" transform="translate(63.623047 0)"/>
      </g>
     </g>
    </g>
    <g id="xtick_5">
     <g id="line2d_5">
      <g>
       <use xlink:href="#me4f67921ac" x="321.390021" y="313.478125" style="stroke: #000000; stroke-width: 0.8"/>
      </g>
     </g>
     <g id="text_5">
      <!-- 80 -->
      <g transform="translate(315.027521 328.076563) scale(0.1 -0.1)">
       <defs>
        <path id="DejaVuSans-38" d="M 2034 2216 
Q 1584 2216 1326 1975 
Q 1069 1734 1069 1313 
Q 1069 891 1326 650 
Q 1584 409 2034 409 
Q 2484 409 2743 651 
Q 3003 894 3003 1313 
Q 3003 1734 2745 1975 
Q 2488 2216 2034 2216 
z
M 1403 2484 
Q 997 2584 770 2862 
Q 544 3141 544 3541 
Q 544 4100 942 4425 
Q 1341 4750 2034 4750 
Q 2731 4750 3128 4425 
Q 3525 4100 3525 3541 
Q 3525 3141 3298 2862 
Q 3072 2584 2669 2484 
Q 3125 2378 3379 2068 
Q 3634 1759 3634 1313 
Q 3634 634 3220 271 
Q 2806 -91 2034 -91 
Q 1263 -91 848 271 
Q 434 634 434 1313 
Q 434 1759 690 2068 
Q 947 2378 1403 2484 
z
M 1172 3481 
Q 1172 3119 1398 2916 
Q 1625 2713 2034 2713 
Q 2441 2713 2670 2916 
Q 2900 3119 2900 3481 
Q 2900 3844 2670 4047 
Q 2441 4250 2034 4250 
Q 1625 4250 1398 4047 
Q 1172 3844 1172 3481 
z
" transform="scale(0.015625)"/>
       </defs>
       <use xlink:href="#DejaVuSans-38"/>
       <use xlink:href="#DejaVuSans-30" transform="translate(63.623047 0)"/>
      </g>
     </g>
    </g>
    <g id="xtick_6">
     <g id="line2d_6">
      <g>
       <use xlink:href="#me4f67921ac" x="384.151461" y="313.478125" style="stroke: #000000; stroke-width: 0.8"/>
      </g>
     </g>
     <g id="text_6">
      <!-- 100 -->
      <g transform="translate(374.607711 328.076563) scale(0.1 -0.1)">
       <defs>
        <path id="DejaVuSans-31" d="M 794 531 
L 1825 531 
L 1825 4091 
L 703 3866 
L 703 4441 
L 1819 4666 
L 2450 4666 
L 2450 531 
L 3481 531 
L 3481 0 
L 794 0 
L 794 531 
z
" transform="scale(0.015625)"/>
       </defs>
       <use xlink:href="#DejaVuSans-31"/>
       <use xlink:href="#DejaVuSans-30" transform="translate(63.623047 0)"/>
       <use xlink:href="#DejaVuSans-30" transform="translate(127.246094 0)"/>
      </g>
     </g>
    </g>
    <g id="xtick_7">
     <g id="line2d_7">
      <g>
       <use xlink:href="#me4f67921ac" x="446.912901" y="313.478125" style="stroke: #000000; stroke-width: 0.8"/>
      </g>
     </g>
     <g id="text_7">
      <!-- 120 -->
      <g transform="translate(437.369151 328.076563) scale(0.1 -0.1)">
       <use xlink:href="#DejaVuSans-31"/>
       <use xlink:href="#DejaVuSans-32" transform="translate(63.623047 0)"/>
       <use xlink:href="#DejaVuSans-30" transform="translate(127.246094 0)"/>
      </g>
     </g>
    </g>
    <g id="xtick_8">
     <g id="line2d_8">
      <g>
       <use xlink:href="#me4f67921ac" x="509.674341" y="313.478125" style="stroke: #000000; stroke-width: 0.8"/>
      </g>
     </g>
     <g id="text_8">
      <!-- 140 -->
      <g transform="translate(500.130591 328.076563) scale(0.1 -0.1)">
       <use xlink:href="#DejaVuSans-31"/>
       <use xlink:href="#DejaVuSans-34" transform="translate(63.623047 0)"/>
       <use xlink:href="#DejaVuSans-30" transform="translate(127.246094 0)"/>
      </g>
     </g>
    </g>
    <g id="text_9">
     <!-- FL training round -->
     <g transform="translate(261.407187 341.754687) scale(0.1 -0.1)">
      <defs>
       <path id="DejaVuSans-46" d="M 628 4666 
L 3309 4666 
L 3309 4134 
L 1259 4134 
L 1259 2759 
L 3109 2759 
L 3109 2228 
L 1259 2228 
L 1259 0 
L 628 0 
L 628 4666 
z
" transform="scale(0.015625)"/>
       <path id="DejaVuSans-4c" d="M 628 4666 
L 1259 4666 
L 1259 531 
L 3531 531 
L 3531 0 
L 628 0 
L 628 4666 
z
" transform="scale(0.015625)"/>
       <path id="DejaVuSans-20" transform="scale(0.015625)"/>
       <path id="DejaVuSans-74" d="M 1172 4494 
L 1172 3500 
L 2356 3500 
L 2356 3053 
L 1172 3053 
L 1172 1153 
Q 1172 725 1289 603 
Q 1406 481 1766 481 
L 2356 481 
L 2356 0 
L 1766 0 
Q 1100 0 847 248 
Q 594 497 594 1153 
L 594 3053 
L 172 3053 
L 172 3500 
L 594 3500 
L 594 4494 
L 1172 4494 
z
" transform="scale(0.015625)"/>
       <path id="DejaVuSans-72" d="M 2631 2963 
Q 2534 3019 2420 3045 
Q 2306 3072 2169 3072 
Q 1681 3072 1420 2755 
Q 1159 2438 1159 1844 
L 1159 0 
L 581 0 
L 581 3500 
L 1159 3500 
L 1159 2956 
Q 1341 3275 1631 3429 
Q 1922 3584 2338 3584 
Q 2397 3584 2469 3576 
Q 2541 3569 2628 3553 
L 2631 2963 
z
" transform="scale(0.015625)"/>
       <path id="DejaVuSans-61" d="M 2194 1759 
Q 1497 1759 1228 1600 
Q 959 1441 959 1056 
Q 959 750 1161 570 
Q 1363 391 1709 391 
Q 2188 391 2477 730 
Q 2766 1069 2766 1631 
L 2766 1759 
L 2194 1759 
z
M 3341 1997 
L 3341 0 
L 2766 0 
L 2766 531 
Q 2569 213 2275 61 
Q 1981 -91 1556 -91 
Q 1019 -91 701 211 
Q 384 513 384 1019 
Q 384 1609 779 1909 
Q 1175 2209 1959 2209 
L 2766 2209 
L 2766 2266 
Q 2766 2663 2505 2880 
Q 2244 3097 1772 3097 
Q 1472 3097 1187 3025 
Q 903 2953 641 2809 
L 641 3341 
Q 956 3463 1253 3523 
Q 1550 3584 1831 3584 
Q 2591 3584 2966 3190 
Q 3341 2797 3341 1997 
z
" transform="scale(0.015625)"/>
       <path id="DejaVuSans-69" d="M 603 3500 
L 1178 3500 
L 1178 0 
L 603 0 
L 603 3500 
z
M 603 4863 
L 1178 4863 
L 1178 4134 
L 603 4134 
L 603 4863 
z
" transform="scale(0.015625)"/>
       <path id="DejaVuSans-6e" d="M 3513 2113 
L 3513 0 
L 2938 0 
L 2938 2094 
Q 2938 2591 2744 2837 
Q 2550 3084 2163 3084 
Q 1697 3084 1428 2787 
Q 1159 2491 1159 1978 
L 1159 0 
L 581 0 
L 581 3500 
L 1159 3500 
L 1159 2956 
Q 1366 3272 1645 3428 
Q 1925 3584 2291 3584 
Q 2894 3584 3203 3211 
Q 3513 2838 3513 2113 
z
" transform="scale(0.015625)"/>
       <path id="DejaVuSans-67" d="M 2906 1791 
Q 2906 2416 2648 2759 
Q 2391 3103 1925 3103 
Q 1463 3103 1205 2759 
Q 947 2416 947 1791 
Q 947 1169 1205 825 
Q 1463 481 1925 481 
Q 2391 481 2648 825 
Q 2906 1169 2906 1791 
z
M 3481 434 
Q 3481 -459 3084 -895 
Q 2688 -1331 1869 -1331 
Q 1566 -1331 1297 -1286 
Q 1028 -1241 775 -1147 
L 775 -588 
Q 1028 -725 1275 -790 
Q 1522 -856 1778 -856 
Q 2344 -856 2625 -561 
Q 2906 -266 2906 331 
L 2906 616 
Q 2728 306 2450 153 
Q 2172 0 1784 0 
Q 1141 0 747 490 
Q 353 981 353 1791 
Q 353 2603 747 3093 
Q 1141 3584 1784 3584 
Q 2172 3584 2450 3431 
Q 2728 3278 2906 2969 
L 2906 3500 
L 3481 3500 
L 3481 434 
z
" transform="scale(0.015625)"/>
       <path id="DejaVuSans-6f" d="M 1959 3097 
Q 1497 3097 1228 2736 
Q 959 2375 959 1747 
Q 959 1119 1226 758 
Q 1494 397 1959 397 
Q 2419 397 2687 759 
Q 2956 1122 2956 1747 
Q 2956 2369 2687 2733 
Q 2419 3097 1959 3097 
z
M 1959 3584 
Q 2709 3584 3137 3096 
Q 3566 2609 3566 1747 
Q 3566 888 3137 398 
Q 2709 -91 1959 -91 
Q 1206 -91 779 398 
Q 353 888 353 1747 
Q 353 2609 779 3096 
Q 1206 3584 1959 3584 
z
" transform="scale(0.015625)"/>
       <path id="DejaVuSans-75" d="M 544 1381 
L 544 3500 
L 1119 3500 
L 1119 1403 
Q 1119 906 1312 657 
Q 1506 409 1894 409 
Q 2359 409 2629 706 
Q 2900 1003 2900 1516 
L 2900 3500 
L 3475 3500 
L 3475 0 
L 2900 0 
L 2900 538 
Q 2691 219 2414 64 
Q 2138 -91 1772 -91 
Q 1169 -91 856 284 
Q 544 659 544 1381 
z
M 1991 3584 
L 1991 3584 
z
" transform="scale(0.015625)"/>
       <path id="DejaVuSans-64" d="M 2906 2969 
L 2906 4863 
L 3481 4863 
L 3481 0 
L 2906 0 
L 2906 525 
Q 2725 213 2448 61 
Q 2172 -91 1784 -91 
Q 1150 -91 751 415 
Q 353 922 353 1747 
Q 353 2572 751 3078 
Q 1150 3584 1784 3584 
Q 2172 3584 2448 3432 
Q 2725 3281 2906 2969 
z
M 947 1747 
Q 947 1113 1208 752 
Q 1469 391 1925 391 
Q 2381 391 2643 752 
Q 2906 1113 2906 1747 
Q 2906 2381 2643 2742 
Q 2381 3103 1925 3103 
Q 1469 3103 1208 2742 
Q 947 2381 947 1747 
z
" transform="scale(0.015625)"/>
      </defs>
      <use xlink:href="#DejaVuSans-46"/>
      <use xlink:href="#DejaVuSans-4c" transform="translate(57.519531 0)"/>
      <use xlink:href="#DejaVuSans-20" transform="translate(113.232422 0)"/>
      <use xlink:href="#DejaVuSans-74" transform="translate(145.019531 0)"/>
      <use xlink:href="#DejaVuSans-72" transform="translate(184.228516 0)"/>
      <use xlink:href="#DejaVuSans-61" transform="translate(225.341797 0)"/>
      <use xlink:href="#DejaVuSans-69" transform="translate(286.621094 0)"/>
      <use xlink:href="#DejaVuSans-6e" transform="translate(314.404297 0)"/>
      <use xlink:href="#DejaVuSans-69" transform="translate(377.783203 0)"/>
      <use xlink:href="#DejaVuSans-6e" transform="translate(405.566406 0)"/>
      <use xlink:href="#DejaVuSans-67" transform="translate(468.945312 0)"/>
      <use xlink:href="#DejaVuSans-20" transform="translate(532.421875 0)"/>
      <use xlink:href="#DejaVuSans-72" transform="translate(564.208984 0)"/>
      <use xlink:href="#DejaVuSans-6f" transform="translate(603.072266 0)"/>
      <use xlink:href="#DejaVuSans-75" transform="translate(664.253906 0)"/>
      <use xlink:href="#DejaVuSans-6e" transform="translate(727.632812 0)"/>
      <use xlink:href="#DejaVuSans-64" transform="translate(791.011719 0)"/>
     </g>
    </g>
   </g>
   <g id="matplotlib.axis_2">
    <g id="ytick_1">
     <g id="line2d_9">
      <defs>
       <path id="m21072eb4ad" d="M 0 0 
L -3.5 0 
" style="stroke: #000000; stroke-width: 0.8"/>
      </defs>
      <g>
       <use xlink:href="#m21072eb4ad" x="46.965625" y="268.86973" style="stroke: #000000; stroke-width: 0.8"/>
      </g>
     </g>
     <g id="text_10">
      <!-- 20 -->
      <g transform="translate(27.240625 272.668949) scale(0.1 -0.1)">
       <use xlink:href="#DejaVuSans-32"/>
       <use xlink:href="#DejaVuSans-30" transform="translate(63.623047 0)"/>
      </g>
     </g>
    </g>
    <g id="ytick_2">
     <g id="line2d_10">
      <g>
       <use xlink:href="#m21072eb4ad" x="46.965625" y="209.561886" style="stroke: #000000; stroke-width: 0.8"/>
      </g>
     </g>
     <g id="text_11">
      <!-- 40 -->
      <g transform="translate(27.240625 213.361104) scale(0.1 -0.1)">
       <use xlink:href="#DejaVuSans-34"/>
       <use xlink:href="#DejaVuSans-30" transform="translate(63.623047 0)"/>
      </g>
     </g>
    </g>
    <g id="ytick_3">
     <g id="line2d_11">
      <g>
       <use xlink:href="#m21072eb4ad" x="46.965625" y="150.254041" style="stroke: #000000; stroke-width: 0.8"/>
      </g>
     </g>
     <g id="text_12">
      <!-- 60 -->
      <g transform="translate(27.240625 154.05326) scale(0.1 -0.1)">
       <use xlink:href="#DejaVuSans-36"/>
       <use xlink:href="#DejaVuSans-30" transform="translate(63.623047 0)"/>
      </g>
     </g>
    </g>
    <g id="ytick_4">
     <g id="line2d_12">
      <g>
       <use xlink:href="#m21072eb4ad" x="46.965625" y="90.946197" style="stroke: #000000; stroke-width: 0.8"/>
      </g>
     </g>
     <g id="text_13">
      <!-- 80 -->
      <g transform="translate(27.240625 94.745416) scale(0.1 -0.1)">
       <use xlink:href="#DejaVuSans-38"/>
       <use xlink:href="#DejaVuSans-30" transform="translate(63.623047 0)"/>
      </g>
     </g>
    </g>
    <g id="ytick_5">
     <g id="line2d_13">
      <g>
       <use xlink:href="#m21072eb4ad" x="46.965625" y="31.638353" style="stroke: #000000; stroke-width: 0.8"/>
      </g>
     </g>
     <g id="text_14">
      <!-- 100 -->
      <g transform="translate(20.878125 35.437571) scale(0.1 -0.1)">
       <use xlink:href="#DejaVuSans-31"/>
       <use xlink:href="#DejaVuSans-30" transform="translate(63.623047 0)"/>
       <use xlink:href="#DejaVuSans-30" transform="translate(127.246094 0)"/>
      </g>
     </g>
    </g>
    <g id="text_15">
     <!-- test accuracy (%) -->
     <g transform="translate(14.798438 211.889531) rotate(-90) scale(0.1 -0.1)">
      <defs>
       <path id="DejaVuSans-65" d="M 3597 1894 
L 3597 1613 
L 953 1613 
Q 991 1019 1311 708 
Q 1631 397 2203 397 
Q 2534 397 2845 478 
Q 3156 559 3463 722 
L 3463 178 
Q 3153 47 2828 -22 
Q 2503 -91 2169 -91 
Q 1331 -91 842 396 
Q 353 884 353 1716 
Q 353 2575 817 3079 
Q 1281 3584 2069 3584 
Q 2775 3584 3186 3129 
Q 3597 2675 3597 1894 
z
M 3022 2063 
Q 3016 2534 2758 2815 
Q 2500 3097 2075 3097 
Q 1594 3097 1305 2825 
Q 1016 2553 972 2059 
L 3022 2063 
z
" transform="scale(0.015625)"/>
       <path id="DejaVuSans-73" d="M 2834 3397 
L 2834 2853 
Q 2591 2978 2328 3040 
Q 2066 3103 1784 3103 
Q 1356 3103 1142 2972 
Q 928 2841 928 2578 
Q 928 2378 1081 2264 
Q 1234 2150 1697 2047 
L 1894 2003 
Q 2506 1872 2764 1633 
Q 3022 1394 3022 966 
Q 3022 478 2636 193 
Q 2250 -91 1575 -91 
Q 1294 -91 989 -36 
Q 684 19 347 128 
L 347 722 
Q 666 556 975 473 
Q 1284 391 1588 391 
Q 1994 391 2212 530 
Q 2431 669 2431 922 
Q 2431 1156 2273 1281 
Q 2116 1406 1581 1522 
L 1381 1569 
Q 847 1681 609 1914 
Q 372 2147 372 2553 
Q 372 3047 722 3315 
Q 1072 3584 1716 3584 
Q 2034 3584 2315 3537 
Q 2597 3491 2834 3397 
z
" transform="scale(0.015625)"/>
       <path id="DejaVuSans-63" d="M 3122 3366 
L 3122 2828 
Q 2878 2963 2633 3030 
Q 2388 3097 2138 3097 
Q 1578 3097 1268 2742 
Q 959 2388 959 1747 
Q 959 1106 1268 751 
Q 1578 397 2138 397 
Q 2388 397 2633 464 
Q 2878 531 3122 666 
L 3122 134 
Q 2881 22 2623 -34 
Q 2366 -91 2075 -91 
Q 1284 -91 818 406 
Q 353 903 353 1747 
Q 353 2603 823 3093 
Q 1294 3584 2113 3584 
Q 2378 3584 2631 3529 
Q 2884 3475 3122 3366 
z
" transform="scale(0.015625)"/>
       <path id="DejaVuSans-79" d="M 2059 -325 
Q 1816 -950 1584 -1140 
Q 1353 -1331 966 -1331 
L 506 -1331 
L 506 -850 
L 844 -850 
Q 1081 -850 1212 -737 
Q 1344 -625 1503 -206 
L 1606 56 
L 191 3500 
L 800 3500 
L 1894 763 
L 2988 3500 
L 3597 3500 
L 2059 -325 
z
" transform="scale(0.015625)"/>
       <path id="DejaVuSans-28" d="M 1984 4856 
Q 1566 4138 1362 3434 
Q 1159 2731 1159 2009 
Q 1159 1288 1364 580 
Q 1569 -128 1984 -844 
L 1484 -844 
Q 1016 -109 783 600 
Q 550 1309 550 2009 
Q 550 2706 781 3412 
Q 1013 4119 1484 4856 
L 1984 4856 
z
" transform="scale(0.015625)"/>
       <path id="DejaVuSans-25" d="M 4653 2053 
Q 4381 2053 4226 1822 
Q 4072 1591 4072 1178 
Q 4072 772 4226 539 
Q 4381 306 4653 306 
Q 4919 306 5073 539 
Q 5228 772 5228 1178 
Q 5228 1588 5073 1820 
Q 4919 2053 4653 2053 
z
M 4653 2450 
Q 5147 2450 5437 2106 
Q 5728 1763 5728 1178 
Q 5728 594 5436 251 
Q 5144 -91 4653 -91 
Q 4153 -91 3862 251 
Q 3572 594 3572 1178 
Q 3572 1766 3864 2108 
Q 4156 2450 4653 2450 
z
M 1428 4353 
Q 1159 4353 1004 4120 
Q 850 3888 850 3481 
Q 850 3069 1003 2837 
Q 1156 2606 1428 2606 
Q 1700 2606 1854 2837 
Q 2009 3069 2009 3481 
Q 2009 3884 1853 4118 
Q 1697 4353 1428 4353 
z
M 4250 4750 
L 4750 4750 
L 1831 -91 
L 1331 -91 
L 4250 4750 
z
M 1428 4750 
Q 1922 4750 2215 4408 
Q 2509 4066 2509 3481 
Q 2509 2891 2217 2550 
Q 1925 2209 1428 2209 
Q 931 2209 642 2551 
Q 353 2894 353 3481 
Q 353 4063 643 4406 
Q 934 4750 1428 4750 
z
" transform="scale(0.015625)"/>
       <path id="DejaVuSans-29" d="M 513 4856 
L 1013 4856 
Q 1481 4119 1714 3412 
Q 1947 2706 1947 2009 
Q 1947 1309 1714 600 
Q 1481 -109 1013 -844 
L 513 -844 
Q 928 -128 1133 580 
Q 1338 1288 1338 2009 
Q 1338 2731 1133 3434 
Q 928 4138 513 4856 
z
" transform="scale(0.015625)"/>
      </defs>
      <use xlink:href="#DejaVuSans-74"/>
      <use xlink:href="#DejaVuSans-65" transform="translate(39.208984 0)"/>
      <use xlink:href="#DejaVuSans-73" transform="translate(100.732422 0)"/>
      <use xlink:href="#DejaVuSans-74" transform="translate(152.832031 0)"/>
      <use xlink:href="#DejaVuSans-20" transform="translate(192.041016 0)"/>
      <use xlink:href="#DejaVuSans-61" transform="translate(223.828125 0)"/>
      <use xlink:href="#DejaVuSans-63" transform="translate(285.107422 0)"/>
      <use xlink:href="#DejaVuSans-63" transform="translate(340.087891 0)"/>
      <use xlink:href="#DejaVuSans-75" transform="translate(395.068359 0)"/>
      <use xlink:href="#DejaVuSans-72" transform="translate(458.447266 0)"/>
      <use xlink:href="#DejaVuSans-61" transform="translate(499.560547 0)"/>
      <use xlink:href="#DejaVuSans-63" transform="translate(560.839844 0)"/>
      <use xlink:href="#DejaVuSans-79" transform="translate(615.820312 0)"/>
      <use xlink:href="#DejaVuSans-20" transform="translate(675 0)"/>
      <use xlink:href="#DejaVuSans-28" transform="translate(706.787109 0)"/>
      <use xlink:href="#DejaVuSans-25" transform="translate(745.800781 0)"/>
      <use xlink:href="#DejaVuSans-29" transform="translate(840.820312 0)"/>
     </g>
    </g>
   </g>
   <g id="line2d_14">
    <path d="M 70.344261 298.227113 
L 73.482333 246.273441 
L 76.620405 152.181546 
L 79.758477 113.394216 
L 82.896549 117.011995 
L 86.034621 87.239457 
L 89.172693 63.812858 
L 92.310765 56.844187 
L 95.448837 65.354862 
L 98.586909 56.636609 
L 101.724981 57.70415 
L 104.863053 54.175334 
L 108.001125 54.82772 
L 111.139197 56.784879 
L 114.277269 46.376352 
L 117.415341 50.557555 
L 120.553413 46.139121 
L 123.691485 49.46036 
L 126.829557 44.834348 
L 129.967629 47.473547 
L 133.105701 44.448847 
L 136.243773 46.406006 
L 139.381845 44.152308 
L 142.519917 44.033692 
L 145.657989 42.788227 
L 148.796061 43.41096 
L 151.934133 42.639958 
L 155.072205 41.127608 
L 158.210277 42.106187 
L 161.348349 40.860723 
L 164.486421 41.335185 
L 167.624493 41.038646 
L 170.762565 40.415914 
L 173.900637 40.089721 
L 177.038709 40.089721 
L 180.176781 41.424147 
L 183.314853 41.75034 
L 186.452925 39.733873 
L 189.590997 40.475222 
L 192.729069 39.793181 
L 195.867141 39.55595 
L 199.005213 41.513109 
L 202.143285 39.111141 
L 205.281357 40.060067 
L 208.419429 38.992525 
L 211.557501 38.784948 
L 214.695573 38.755294 
L 224.109789 39.466988 
L 227.247861 38.666332 
L 230.385933 41.21657 
L 233.524005 39.70422 
L 236.662077 40.149028 
L 239.800149 41.335185 
L 242.938221 41.394493 
L 246.076293 42.758574 
L 249.214365 45.397773 
L 252.352437 41.246224 
L 255.490509 41.394493 
L 258.628581 41.305531 
L 261.766653 42.135841 
L 264.904725 42.046879 
L 268.042797 41.097954 
L 271.180869 44.033692 
L 274.318941 43.559229 
L 277.457013 40.801415 
L 280.595085 42.046879 
L 283.733157 42.58065 
L 286.871229 41.305531 
L 290.009301 42.135841 
L 293.147373 44.597117 
L 296.285445 42.343419 
L 299.423517 41.453801 
L 302.561589 42.995805 
L 305.699661 42.135841 
L 308.837733 43.499922 
L 311.975805 41.186916 
L 315.113877 43.588883 
L 318.251949 41.127608 
L 321.390021 43.529576 
L 324.528093 41.305531 
L 327.666165 44.893656 
L 330.804237 41.839302 
L 333.942309 41.186916 
L 337.080381 40.030413 
L 340.218453 40.534529 
L 343.356525 42.343419 
L 346.494597 40.564183 
L 349.632669 40.979338 
L 352.770741 42.817881 
L 355.908813 41.305531 
L 359.046885 41.779994 
L 362.184957 42.046879 
L 365.323029 41.424147 
L 368.461101 40.682799 
L 371.599173 41.335185 
L 374.737245 41.720686 
L 377.875317 41.809648 
L 381.013389 42.046879 
L 384.151461 41.097954 
L 387.289533 41.513109 
L 390.427605 42.106187 
L 396.703749 40.831069 
L 399.841821 42.284111 
L 402.979893 43.173728 
L 406.117965 43.025459 
L 409.256037 43.974384 
L 412.394109 43.292344 
L 415.532181 41.275877 
L 418.670253 41.394493 
L 421.808325 42.699266 
L 424.946397 42.462034 
L 428.084469 39.674566 
L 431.222541 41.542763 
L 434.360613 40.949684 
L 437.498685 43.025459 
L 440.636757 41.572417 
L 443.774829 43.173728 
L 446.912901 40.415914 
L 450.050973 40.860723 
L 453.189045 42.639958 
L 456.327117 42.343419 
L 459.465189 42.43238 
L 462.603261 42.669612 
L 465.741333 43.233036 
L 468.879405 41.038646 
L 472.017477 40.653145 
L 475.155549 40.089721 
L 478.293621 41.0683 
L 481.431693 41.21657 
L 484.569765 42.758574 
L 487.707837 42.224803 
L 490.845909 42.284111 
L 493.983981 40.742107 
L 497.122053 41.839302 
L 500.260125 41.839302 
L 503.398197 41.275877 
L 506.536269 41.483455 
L 509.674341 42.106187 
L 512.812413 40.356606 
L 515.950485 40.178682 
L 519.088557 40.831069 
L 522.226629 41.839302 
L 525.364701 43.470268 
L 528.502773 43.114421 
L 531.640845 43.173728 
L 534.778917 41.127608 
L 537.916989 41.008992 
L 537.916989 41.008992 
" clip-path="url(#p1f07ad64a7)" style="fill: none; stroke: #1f77b4; stroke-width: 2; stroke-linecap: square"/>
   </g>
   <g id="line2d_15">
    <path d="M 70.344261 298.108497 
L 73.482333 235.775953 
L 76.620405 175.904684 
L 79.758477 178.306652 
L 82.896549 191.502647 
L 86.034621 172.316559 
L 89.172693 137.680778 
L 92.310765 143.700525 
L 95.448837 138.362819 
L 98.586909 104.112538 
L 101.724981 114.580373 
L 104.863053 90.768273 
L 108.001125 95.068092 
L 111.139197 78.313626 
L 114.277269 75.615119 
L 117.415341 71.819417 
L 120.553413 74.48827 
L 123.691485 67.786484 
L 126.829557 65.354862 
L 129.967629 92.577163 
L 133.105701 92.755086 
L 136.243773 86.676032 
L 139.381845 82.672753 
L 142.519917 63.664589 
L 145.657989 66.985828 
L 148.796061 61.114351 
L 151.934133 61.766738 
L 155.072205 54.82772 
L 158.210277 54.442219 
L 161.348349 59.157192 
L 164.486421 56.043531 
L 167.624493 52.63333 
L 170.762565 63.90182 
L 173.900637 67.193405 
L 177.038709 65.325208 
L 180.176781 55.895261 
L 183.314853 51.180287 
L 186.452925 51.832674 
L 189.590997 49.193475 
L 192.729069 49.430706 
L 195.867141 56.221454 
L 199.005213 54.086372 
L 202.143285 48.689358 
L 205.281357 49.341744 
L 208.419429 50.527901 
L 211.557501 47.681125 
L 214.695573 49.549322 
L 217.833645 47.829394 
L 220.971717 52.129213 
L 224.109789 47.028738 
L 227.247861 49.163821 
L 230.385933 51.536134 
L 233.524005 48.985897 
L 236.662077 48.214895 
L 239.800149 46.732199 
L 242.938221 45.397773 
L 246.076293 45.664658 
L 249.214365 46.494968 
L 252.352437 50.616863 
L 255.490509 45.486734 
L 258.628581 45.664658 
L 261.766653 47.473547 
L 264.904725 45.249503 
L 268.042797 45.012272 
L 271.180869 44.626771 
L 274.318941 45.101233 
L 277.457013 44.063346 
L 280.595085 43.588883 
L 283.733157 44.033692 
L 286.871229 44.330231 
L 290.009301 43.94473 
L 293.147373 45.130887 
L 296.285445 44.804694 
L 299.423517 44.359885 
L 302.561589 43.618537 
L 305.699661 42.639958 
L 308.837733 42.995805 
L 311.975805 43.737153 
L 315.113877 42.521342 
L 318.251949 43.559229 
L 321.390021 43.677845 
L 324.528093 42.995805 
L 327.666165 43.114421 
L 330.804237 44.270924 
L 333.942309 44.152308 
L 337.080381 44.24127 
L 340.218453 43.559229 
L 343.356525 43.440614 
L 346.494597 43.618537 
L 349.632669 42.699266 
L 352.770741 42.491688 
L 355.908813 45.961197 
L 359.046885 43.796461 
L 362.184957 42.995805 
L 368.461101 44.181962 
L 371.599173 42.462034 
L 374.737245 41.157262 
L 381.013389 43.766807 
L 384.151461 46.999084 
L 387.289533 44.508155 
L 390.427605 43.025459 
L 393.565677 42.788227 
L 396.703749 43.707499 
L 402.979893 41.839302 
L 406.117965 43.559229 
L 409.256037 45.101233 
L 412.394109 44.093 
L 415.532181 43.915077 
L 418.670253 42.373073 
L 421.808325 42.462034 
L 424.946397 44.063346 
L 428.084469 41.453801 
L 431.222541 46.643237 
L 434.360613 42.284111 
L 437.498685 42.284111 
L 443.774829 42.669612 
L 446.912901 42.462034 
L 450.050973 41.868956 
L 453.189045 40.890376 
L 456.327117 41.75034 
L 459.465189 42.284111 
L 462.603261 41.513109 
L 465.741333 41.483455 
L 468.879405 42.373073 
L 472.017477 41.453801 
L 475.155549 43.499922 
L 478.293621 40.890376 
L 481.431693 40.504875 
L 484.569765 40.979338 
L 487.707837 40.297298 
L 490.845909 41.483455 
L 493.983981 41.364839 
L 497.122053 43.144075 
L 500.260125 41.75034 
L 503.398197 41.720686 
L 506.536269 41.453801 
L 509.674341 42.135841 
L 512.812413 43.885423 
L 515.950485 41.631724 
L 519.088557 44.537809 
L 522.226629 41.75034 
L 525.364701 41.305531 
L 528.502773 41.364839 
L 531.640845 41.275877 
L 534.778917 40.979338 
L 537.916989 41.097954 
L 537.916989 41.097954 
" clip-path="url(#p1f07ad64a7)" style="fill: none; stroke: #ff7f0e; stroke-width: 2; stroke-linecap: square"/>
   </g>
   <g id="line2d_16">
    <path d="M 70.344261 297.396803 
L 73.482333 239.097192 
L 76.620405 254.665501 
L 79.758477 227.0577 
L 82.896549 196.988623 
L 86.034621 147.911381 
L 89.172693 149.779579 
L 92.310765 98.745179 
L 95.448837 91.064813 
L 98.586909 61.144005 
L 101.724981 73.005574 
L 104.863053 52.929869 
L 108.001125 60.106118 
L 111.139197 51.091326 
L 114.277269 57.17038 
L 117.415341 49.756899 
L 120.553413 49.045205 
L 123.691485 48.748666 
L 126.829557 51.061672 
L 129.967629 55.213221 
L 133.105701 47.562509 
L 136.243773 48.066626 
L 139.381845 50.527901 
L 142.519917 48.007318 
L 145.657989 46.228082 
L 148.796061 49.549322 
L 151.934133 47.829394 
L 155.072205 50.468593 
L 158.210277 47.770086 
L 161.348349 47.384585 
L 164.486421 42.550996 
L 167.624493 42.43238 
L 170.762565 44.122654 
L 173.900637 54.353257 
L 177.038709 44.359885 
L 180.176781 46.554276 
L 186.452925 42.58065 
L 189.590997 43.885423 
L 192.729069 42.906843 
L 195.867141 40.979338 
L 199.005213 45.723966 
L 202.143285 42.758574 
L 205.281357 45.397773 
L 208.419429 42.521342 
L 211.557501 42.817881 
L 214.695573 44.063346 
L 217.833645 41.424147 
L 220.971717 40.326952 
L 224.109789 42.847535 
L 227.247861 45.101233 
L 230.385933 40.060067 
L 233.524005 42.966151 
L 236.662077 42.195149 
L 239.800149 40.682799 
L 242.938221 41.572417 
L 246.076293 40.682799 
L 249.214365 38.962872 
L 252.352437 40.475222 
L 255.490509 40.771761 
L 261.766653 39.051833 
L 264.904725 40.712453 
L 268.042797 38.962872 
L 274.318941 38.458755 
L 277.457013 41.631724 
L 280.595085 38.695986 
L 283.733157 39.229757 
L 286.871229 38.458755 
L 290.009301 38.19187 
L 293.147373 37.628445 
L 296.285445 37.687753 
L 299.423517 38.695986 
L 302.561589 39.140795 
L 308.837733 38.488409 
L 311.975805 39.70422 
L 315.113877 39.051833 
L 318.251949 37.450521 
L 321.390021 37.242944 
L 324.528093 37.242944 
L 327.666165 38.132562 
L 330.804237 39.496642 
L 333.942309 37.687753 
L 337.080381 37.598791 
L 340.218453 39.200103 
L 343.356525 37.776715 
L 346.494597 37.89533 
L 349.632669 37.124328 
L 352.770741 38.013946 
L 355.908813 37.598791 
L 359.046885 37.391214 
L 362.184957 37.005713 
L 371.599173 37.183636 
L 374.737245 37.005713 
L 377.875317 37.836022 
L 381.013389 37.183636 
L 384.151461 36.827789 
L 387.289533 37.21329 
L 390.427605 36.887097 
L 393.565677 37.183636 
L 396.703749 37.717407 
L 399.841821 37.687753 
L 402.979893 36.38298 
L 406.117965 36.145749 
L 409.256037 37.450521 
L 412.394109 36.056787 
L 415.532181 36.976059 
L 418.670253 37.124328 
L 421.808325 35.938171 
L 424.946397 36.679519 
L 428.084469 36.442288 
L 431.222541 36.946405 
L 434.360613 36.294019 
L 437.498685 36.649866 
L 440.636757 36.145749 
L 443.774829 35.819556 
L 446.912901 36.442288 
L 450.050973 36.946405 
L 456.327117 36.264365 
L 459.465189 35.641632 
L 462.603261 35.819556 
L 465.741333 36.205057 
L 468.879405 35.908518 
L 472.017477 36.116095 
L 475.155549 35.997479 
L 478.293621 35.55267 
L 484.569765 36.827789 
L 487.707837 35.997479 
L 490.845909 35.908518 
L 493.983981 36.53125 
L 497.122053 36.145749 
L 500.260125 36.056787 
L 503.398197 35.55267 
L 506.536269 35.730594 
L 509.674341 35.789902 
L 512.812413 36.175403 
L 515.950485 36.264365 
L 519.088557 35.84921 
L 522.226629 36.086441 
L 525.364701 35.671286 
L 528.502773 36.027133 
L 531.640845 35.84921 
L 537.916989 36.471942 
L 537.916989 36.471942 
" clip-path="url(#p1f07ad64a7)" style="fill: none; stroke: #2ca02c; stroke-width: 2; stroke-linecap: square"/>
   </g>
   <g id="line2d_17">
    <path d="M 70.344261 297.930574 
L 73.482333 269.55177 
L 76.620405 248.645755 
L 79.758477 195.83212 
L 82.896549 208.168151 
L 86.034621 182.60647 
L 92.310765 116.240993 
L 95.448837 120.184964 
L 98.586909 92.636471 
L 101.724981 125.344747 
L 104.863053 84.778181 
L 108.001125 86.112608 
L 111.139197 80.596978 
L 114.277269 90.768273 
L 117.415341 72.827651 
L 120.553413 64.109397 
L 123.691485 59.008923 
L 126.829557 56.013877 
L 129.967629 50.379632 
L 133.105701 48.066626 
L 136.243773 53.345024 
L 139.381845 59.572347 
L 142.519917 55.65803 
L 145.657989 49.46036 
L 148.796061 82.524483 
L 151.934133 51.387865 
L 155.072205 60.72885 
L 158.210277 46.494968 
L 161.348349 45.041926 
L 164.486421 50.1424 
L 167.624493 44.300577 
L 170.762565 45.249503 
L 173.900637 46.317044 
L 177.038709 49.163821 
L 180.176781 48.09628 
L 183.314853 49.074859 
L 186.452925 47.918356 
L 189.590997 52.900215 
L 192.729069 45.872235 
L 195.867141 42.165495 
L 199.005213 43.559229 
L 202.143285 50.438939 
L 205.281357 43.529576 
L 208.419429 48.659704 
L 211.557501 48.244549 
L 214.695573 46.999084 
L 217.833645 42.017225 
L 220.971717 40.653145 
L 224.109789 41.779994 
L 227.247861 44.033692 
L 230.385933 175.845376 
L 233.524005 199.716783 
L 236.662077 257.126777 
L 239.800149 115.499645 
L 242.938221 85.519529 
L 246.076293 86.112608 
L 249.214365 66.748597 
L 252.352437 112.208059 
L 255.490509 68.468524 
L 258.628581 62.686009 
L 261.766653 53.938102 
L 264.904725 51.476827 
L 268.042797 52.33679 
L 271.180869 50.112746 
L 274.318941 49.934823 
L 277.457013 48.659704 
L 280.595085 51.625096 
L 283.733157 45.546042 
L 286.871229 46.554276 
L 290.009301 45.338465 
L 296.285445 44.359885 
L 299.423517 45.575696 
L 302.561589 44.893656 
L 308.837733 45.308811 
L 311.975805 47.384585 
L 315.113877 44.537809 
L 318.251949 47.473547 
L 321.390021 43.529576 
L 324.528093 43.084767 
L 327.666165 43.618537 
L 330.804237 44.300577 
L 333.942309 44.804694 
L 337.080381 44.626771 
L 340.218453 43.855769 
L 343.356525 45.308811 
L 346.494597 47.592163 
L 349.632669 43.114421 
L 352.770741 47.443893 
L 355.908813 47.592163 
L 359.046885 41.957918 
L 362.184957 41.275877 
L 365.323029 42.610304 
L 368.461101 46.109467 
L 371.599173 44.478501 
L 374.737245 43.470268 
L 377.875317 41.157262 
L 381.013389 42.313765 
L 384.151461 41.453801 
L 387.289533 40.890376 
L 390.427605 41.572417 
L 393.565677 41.157262 
L 396.703749 42.550996 
L 399.841821 42.877189 
L 402.979893 40.801415 
L 406.117965 43.233036 
L 412.394109 39.793181 
L 415.532181 40.92003 
L 418.670253 44.478501 
L 421.808325 40.504875 
L 424.946397 40.38626 
L 428.084469 40.742107 
L 431.222541 40.504875 
L 434.360613 40.593837 
L 437.498685 40.415914 
L 440.636757 40.890376 
L 443.774829 40.23799 
L 450.050973 40.38626 
L 453.189045 39.140795 
L 456.327117 40.326952 
L 459.465189 39.378026 
L 462.603261 39.081487 
L 465.741333 39.911797 
L 468.879405 41.038646 
L 472.017477 38.962872 
L 475.155549 41.957918 
L 478.293621 40.356606 
L 481.431693 39.585604 
L 484.569765 40.119374 
L 487.707837 41.453801 
L 490.845909 38.933218 
L 493.983981 38.577371 
L 497.122053 38.933218 
L 500.260125 40.742107 
L 503.398197 39.644912 
L 506.536269 40.000759 
L 509.674341 39.70422 
L 512.812413 40.178682 
L 515.950485 39.259411 
L 519.088557 39.585604 
L 522.226629 40.890376 
L 525.364701 39.70422 
L 528.502773 40.149028 
L 531.640845 38.636678 
L 537.916989 39.526296 
L 537.916989 39.526296 
" clip-path="url(#p1f07ad64a7)" style="fill: none; stroke: #d62728; stroke-width: 2; stroke-linecap: square"/>
   </g>
   <g id="line2d_18">
    <path d="M 70.344261 228.036279 
L 73.482333 157.667522 
L 76.620405 140.646171 
L 79.758477 101.32507 
L 82.896549 77.987433 
L 86.034621 62.893587 
L 89.172693 74.013807 
L 92.310765 68.705755 
L 95.448837 54.501527 
L 98.586909 49.934823 
L 101.724981 50.705825 
L 104.863053 48.007318 
L 108.001125 46.880469 
L 111.139197 45.990851 
L 114.277269 46.376352 
L 117.415341 46.317044 
L 120.553413 43.233036 
L 123.691485 44.389539 
L 126.829557 44.211616 
L 129.967629 43.559229 
L 133.105701 46.228082 
L 136.243773 40.860723 
L 139.381845 42.195149 
L 142.519917 42.195149 
L 145.657989 43.94473 
L 148.796061 41.008992 
L 151.934133 41.008992 
L 155.072205 39.763527 
L 158.210277 41.691032 
L 161.348349 39.971105 
L 164.486421 38.607024 
L 167.624493 39.170449 
L 173.900637 38.607024 
L 177.038709 39.526296 
L 180.176781 38.0436 
L 183.314853 38.695986 
L 186.452925 40.712453 
L 189.590997 37.954638 
L 192.729069 37.658099 
L 195.867141 38.784948 
L 199.005213 37.628445 
L 202.143285 37.658099 
L 205.281357 37.924984 
L 208.419429 38.013946 
L 211.557501 37.21329 
L 214.695573 38.132562 
L 217.833645 37.21329 
L 224.109789 37.094674 
L 227.247861 37.658099 
L 230.385933 37.391214 
L 233.524005 39.763527 
L 236.662077 38.962872 
L 239.800149 40.534529 
L 242.938221 38.903564 
L 246.076293 39.466988 
L 249.214365 40.297298 
L 252.352437 38.280831 
L 255.490509 41.839302 
L 258.628581 42.906843 
L 261.766653 42.254457 
L 264.904725 42.877189 
L 268.042797 39.793181 
L 271.180869 40.23799 
L 274.318941 43.381306 
L 277.457013 40.712453 
L 280.595085 47.473547 
L 283.733157 41.809648 
L 286.871229 41.038646 
L 290.009301 40.92003 
L 293.147373 41.305531 
L 296.285445 41.335185 
L 299.423517 41.186916 
L 302.561589 39.526296 
L 305.699661 40.297298 
L 308.837733 39.70422 
L 311.975805 41.720686 
L 315.113877 42.195149 
L 318.251949 40.979338 
L 327.666165 42.788227 
L 330.804237 44.567463 
L 333.942309 45.812928 
L 337.080381 44.448847 
L 340.218453 42.462034 
L 343.356525 43.707499 
L 346.494597 44.033692 
L 349.632669 42.788227 
L 352.770741 43.292344 
L 355.908813 41.839302 
L 359.046885 41.631724 
L 362.184957 43.084767 
L 368.461101 44.508155 
L 371.599173 40.890376 
L 374.737245 43.321998 
L 377.875317 42.462034 
L 381.013389 42.343419 
L 384.151461 44.478501 
L 387.289533 42.254457 
L 390.427605 41.89861 
L 396.703749 44.300577 
L 399.841821 41.75034 
L 402.979893 42.106187 
L 406.117965 43.173728 
L 409.256037 43.144075 
L 412.394109 41.157262 
L 415.532181 42.610304 
L 418.670253 41.275877 
L 421.808325 40.445568 
L 424.946397 40.653145 
L 428.084469 41.572417 
L 431.222541 41.483455 
L 434.360613 42.936497 
L 437.498685 43.321998 
L 440.636757 41.275877 
L 443.774829 41.127608 
L 446.912901 44.181962 
L 450.050973 42.017225 
L 453.189045 42.462034 
L 459.465189 41.305531 
L 462.603261 42.610304 
L 465.741333 41.394493 
L 468.879405 40.682799 
L 472.017477 41.542763 
L 475.155549 41.75034 
L 478.293621 42.550996 
L 481.431693 42.313765 
L 484.569765 42.758574 
L 487.707837 42.165495 
L 490.845909 42.491688 
L 493.983981 41.424147 
L 497.122053 43.41096 
L 500.260125 42.106187 
L 503.398197 41.21657 
L 506.536269 41.661378 
L 509.674341 39.911797 
L 512.812413 40.801415 
L 515.950485 42.046879 
L 519.088557 41.127608 
L 522.226629 42.758574 
L 525.364701 41.809648 
L 528.502773 44.004038 
L 531.640845 42.165495 
L 534.778917 42.817881 
L 537.916989 40.949684 
L 537.916989 40.949684 
" clip-path="url(#p1f07ad64a7)" style="fill: none; stroke: #9467bd; stroke-width: 2; stroke-linecap: square"/>
   </g>
   <g id="line2d_19">
    <path d="M 70.344261 299.265 
L 73.482333 299.294654 
L 76.620405 294.520373 
L 79.758477 281.472647 
L 82.896549 294.520373 
L 86.034621 254.606193 
L 89.172693 298.256767 
L 92.310765 299.057423 
L 95.448837 299.057423 
L 98.586909 266.616032 
L 101.724981 297.574727 
L 104.863053 298.256767 
L 108.001125 235.15322 
L 111.139197 292.770791 
L 114.277269 290.991556 
L 117.415341 232.484367 
L 120.553413 292.889407 
L 123.691485 204.046256 
L 126.829557 163.123844 
L 129.967629 240.461272 
L 133.105701 206.95234 
L 136.243773 182.725086 
L 139.381845 174.51095 
L 142.519917 166.711968 
L 145.657989 177.624611 
L 148.796061 151.351236 
L 151.934133 172.642753 
L 155.072205 116.122377 
L 158.210277 90.916543 
L 161.348349 108.115818 
L 164.486421 141.002018 
L 167.624493 99.041718 
L 170.762565 102.807766 
L 173.900637 70.158798 
L 180.176781 128.250831 
L 183.314853 97.32179 
L 186.452925 62.863933 
L 189.590997 74.63654 
L 192.729069 88.366306 
L 195.867141 67.341675 
L 199.005213 86.498109 
L 202.143285 174.392334 
L 205.281357 98.241062 
L 208.419429 93.704012 
L 211.557501 114.016948 
L 214.695573 110.013669 
L 217.833645 79.559091 
L 220.971717 71.107723 
L 224.109789 67.045136 
L 227.247861 88.366306 
L 230.385933 89.078 
L 233.524005 81.51625 
L 236.662077 110.992248 
L 239.800149 87.506342 
L 242.938221 83.977525 
L 246.076293 72.501457 
L 249.214365 57.200034 
L 252.352437 49.905169 
L 255.490509 61.321929 
L 258.628581 60.135772 
L 261.766653 81.931405 
L 264.904725 68.201639 
L 268.042797 69.95122 
L 271.180869 58.445498 
L 274.318941 61.292275 
L 277.457013 54.916682 
L 280.595085 57.318649 
L 283.733157 53.048485 
L 286.871229 53.819486 
L 290.009301 51.773366 
L 293.147373 54.116026 
L 296.285445 78.699127 
L 299.423517 61.737084 
L 302.561589 69.891912 
L 305.699661 50.765133 
L 308.837733 50.409285 
L 311.975805 61.084697 
L 315.113877 67.727176 
L 318.251949 57.318649 
L 321.390021 55.005643 
L 324.528093 59.928194 
L 327.666165 62.181893 
L 330.804237 46.524622 
L 333.942309 54.234641 
L 337.080381 60.284042 
L 340.218453 65.147285 
L 343.356525 52.040251 
L 346.494597 55.539414 
L 349.632669 49.638283 
L 352.770741 48.481781 
L 355.908813 53.671217 
L 359.046885 49.490014 
L 362.184957 48.77832 
L 365.323029 47.206662 
L 368.461101 49.638283 
L 371.599173 49.934823 
L 374.737245 51.684404 
L 377.875317 52.751945 
L 381.013389 54.14568 
L 384.151461 47.26597 
L 387.289533 49.578976 
L 390.427605 53.256062 
L 393.565677 46.346698 
L 396.703749 44.063346 
L 399.841821 51.684404 
L 402.979893 50.201708 
L 406.117965 62.952895 
L 409.256037 67.223059 
L 412.394109 65.858979 
L 415.532181 54.175334 
L 418.670253 55.717338 
L 421.808325 56.992456 
L 424.946397 50.557555 
L 428.084469 53.463639 
L 431.222541 47.503201 
L 434.360613 48.066626 
L 437.498685 48.511434 
L 440.636757 45.901889 
L 443.774829 44.982618 
L 446.912901 44.686078 
L 450.050973 44.004038 
L 453.189045 44.656425 
L 456.327117 47.473547 
L 459.465189 47.651471 
L 462.603261 48.155587 
L 465.741333 48.363165 
L 468.879405 54.056718 
L 472.017477 63.545973 
L 475.155549 50.053438 
L 478.293621 46.168775 
L 481.431693 52.277483 
L 484.569765 48.570742 
L 487.707837 46.43566 
L 490.845909 52.425752 
L 493.983981 46.28739 
L 497.122053 52.781599 
L 500.260125 50.1424 
L 503.398197 50.409285 
L 506.536269 46.28739 
L 509.674341 44.330231 
L 512.812413 45.101233 
L 515.950485 57.822766 
L 519.088557 46.139121 
L 522.226629 48.659704 
L 525.364701 44.211616 
L 528.502773 48.392819 
L 531.640845 47.740432 
L 534.778917 48.007318 
L 537.916989 58.119305 
L 537.916989 58.119305 
" clip-path="url(#p1f07ad64a7)" style="fill: none; stroke: #8c564b; stroke-width: 2; stroke-linecap: square"/>
   </g>
   <g id="line2d_20">
    <path d="M 70.344261 300.24358 
L 73.482333 278.714832 
L 76.620405 196.395544 
L 79.758477 188.596563 
L 82.896549 155.354516 
L 86.034621 99.071372 
L 89.172693 107.018623 
L 92.310765 78.817743 
L 95.448837 66.007249 
L 98.586909 70.366375 
L 101.724981 67.934753 
L 104.863053 69.832604 
L 108.001125 54.501527 
L 111.139197 54.531181 
L 114.277269 55.242875 
L 117.415341 52.662984 
L 120.553413 49.875515 
L 123.691485 49.104513 
L 126.829557 56.162146 
L 129.967629 47.651471 
L 133.105701 51.328557 
L 136.243773 45.041926 
L 139.381845 46.524622 
L 142.519917 47.443893 
L 145.657989 45.901889 
L 148.796061 52.040251 
L 151.934133 45.249503 
L 155.072205 45.427427 
L 158.210277 49.964477 
L 161.348349 44.656425 
L 164.486421 44.033692 
L 167.624493 43.173728 
L 170.762565 47.770086 
L 173.900637 43.826115 
L 177.038709 42.550996 
L 180.176781 41.542763 
L 183.314853 42.165495 
L 186.452925 41.186916 
L 189.590997 41.928264 
L 192.729069 41.246224 
L 195.867141 41.779994 
L 199.005213 41.928264 
L 202.143285 42.224803 
L 205.281357 42.224803 
L 208.419429 42.402726 
L 211.557501 41.987572 
L 214.695573 41.364839 
L 217.833645 43.084767 
L 220.971717 40.742107 
L 224.109789 42.195149 
L 227.247861 41.483455 
L 230.385933 40.504875 
L 233.524005 40.771761 
L 236.662077 41.779994 
L 239.800149 40.208336 
L 242.938221 40.92003 
L 246.076293 40.504875 
L 249.214365 41.987572 
L 252.352437 44.152308 
L 255.490509 42.491688 
L 258.628581 40.297298 
L 261.766653 40.089721 
L 264.904725 40.593837 
L 268.042797 39.674566 
L 271.180869 39.70422 
L 274.318941 40.534529 
L 277.457013 39.051833 
L 280.595085 39.229757 
L 283.733157 40.593837 
L 286.871229 43.233036 
L 290.009301 39.496642 
L 293.147373 39.378026 
L 296.285445 39.793181 
L 299.423517 40.653145 
L 302.561589 38.695986 
L 305.699661 38.903564 
L 308.837733 39.437334 
L 311.975805 39.378026 
L 315.113877 41.987572 
L 318.251949 38.607024 
L 324.528093 39.644912 
L 327.666165 38.310485 
L 333.942309 39.111141 
L 337.080381 38.19187 
L 340.218453 38.636678 
L 343.356525 38.280831 
L 346.494597 38.251177 
L 349.632669 38.369793 
L 352.770741 39.496642 
L 355.908813 37.450521 
L 359.046885 38.784948 
L 362.184957 37.480175 
L 365.323029 39.170449 
L 368.461101 39.852489 
L 374.737245 38.0436 
L 377.875317 39.378026 
L 381.013389 38.369793 
L 384.151461 37.687753 
L 387.289533 37.747061 
L 390.427605 40.38626 
L 393.565677 38.013946 
L 396.703749 38.547717 
L 402.979893 37.598791 
L 406.117965 38.102908 
L 409.256037 37.539483 
L 412.394109 37.598791 
L 415.532181 39.051833 
L 418.670253 38.814602 
L 421.808325 37.598791 
L 424.946397 37.153982 
L 428.084469 37.242944 
L 431.222541 37.89533 
L 434.360613 37.806369 
L 437.498685 38.72564 
L 443.774829 37.420868 
L 446.912901 37.509829 
L 450.050973 37.272598 
L 453.189045 37.153982 
L 456.327117 39.170449 
L 459.465189 37.153982 
L 462.603261 38.340139 
L 465.741333 37.153982 
L 468.879405 37.776715 
L 472.017477 36.53125 
L 475.155549 37.36156 
L 478.293621 36.976059 
L 481.431693 37.183636 
L 484.569765 39.022179 
L 487.707837 36.768481 
L 490.845909 37.21329 
L 493.983981 36.916751 
L 497.122053 38.458755 
L 500.260125 37.865676 
L 503.398197 37.124328 
L 506.536269 36.946405 
L 509.674341 37.035367 
L 512.812413 38.369793 
L 515.950485 37.569137 
L 519.088557 37.124328 
L 522.226629 36.827789 
L 525.364701 37.005713 
L 528.502773 38.162216 
L 531.640845 36.353326 
L 534.778917 37.06502 
L 537.916989 37.183636 
L 537.916989 37.183636 
" clip-path="url(#p1f07ad64a7)" style="fill: none; stroke: #e377c2; stroke-width: 2; stroke-linecap: square"/>
   </g>
   <g id="line2d_21">
    <path d="M 70.344261 264.925758 
L 73.482333 202.919407 
L 76.620405 157.459944 
L 79.758477 105.03181 
L 82.896549 90.323465 
L 86.034621 88.277344 
L 89.172693 62.419124 
L 92.310765 57.70415 
L 95.448837 52.455406 
L 98.586909 57.081418 
L 101.724981 49.786553 
L 104.863053 52.188521 
L 108.001125 47.977664 
L 111.139197 47.859048 
L 114.277269 46.732199 
L 117.415341 46.198429 
L 120.553413 48.244549 
L 123.691485 44.626771 
L 126.829557 44.122654 
L 129.967629 44.093 
L 133.105701 44.864002 
L 136.243773 44.77504 
L 139.381845 44.24127 
L 142.519917 47.473547 
L 145.657989 42.135841 
L 148.796061 44.537809 
L 151.934133 43.203382 
L 155.072205 41.661378 
L 158.210277 41.602071 
L 161.348349 43.737153 
L 164.486421 42.076533 
L 167.624493 41.957918 
L 170.762565 40.831069 
L 173.900637 40.682799 
L 177.038709 40.149028 
L 180.176781 40.653145 
L 183.314853 40.326952 
L 186.452925 40.801415 
L 189.590997 39.882143 
L 192.729069 39.971105 
L 195.867141 40.593837 
L 199.005213 38.962872 
L 202.143285 38.992525 
L 205.281357 39.733873 
L 208.419429 40.000759 
L 211.557501 39.971105 
L 214.695573 39.585604 
L 217.833645 38.784948 
L 220.971717 38.992525 
L 224.109789 38.547717 
L 227.247861 38.962872 
L 230.385933 38.784948 
L 233.524005 40.060067 
L 236.662077 39.318719 
L 239.800149 40.475222 
L 242.938221 39.378026 
L 246.076293 38.518063 
L 249.214365 39.229757 
L 252.352437 39.733873 
L 255.490509 39.526296 
L 258.628581 39.911797 
L 261.766653 39.674566 
L 264.904725 40.178682 
L 268.042797 40.475222 
L 271.180869 39.644912 
L 274.318941 40.890376 
L 277.457013 40.860723 
L 280.595085 38.666332 
L 283.733157 39.289065 
L 286.871229 39.615258 
L 290.009301 38.962872 
L 293.147373 40.060067 
L 296.285445 39.259411 
L 299.423517 41.038646 
L 302.561589 41.957918 
L 305.699661 39.289065 
L 308.837733 40.030413 
L 311.975805 39.140795 
L 315.113877 40.000759 
L 318.251949 38.162216 
L 321.390021 38.903564 
L 324.528093 38.013946 
L 327.666165 38.844256 
L 330.804237 38.518063 
L 333.942309 38.903564 
L 337.080381 38.695986 
L 340.218453 39.674566 
L 343.356525 38.666332 
L 346.494597 38.280831 
L 349.632669 38.399447 
L 352.770741 39.111141 
L 355.908813 38.755294 
L 359.046885 40.623491 
L 362.184957 38.844256 
L 365.323029 38.666332 
L 368.461101 38.102908 
L 371.599173 38.399447 
L 374.737245 38.518063 
L 377.875317 38.903564 
L 384.151461 38.429101 
L 390.427605 39.111141 
L 393.565677 38.073254 
L 396.703749 37.984292 
L 399.841821 38.577371 
L 402.979893 38.280831 
L 406.117965 38.310485 
L 409.256037 38.102908 
L 412.394109 38.340139 
L 415.532181 38.132562 
L 418.670253 40.149028 
L 421.808325 38.458755 
L 424.946397 38.458755 
L 428.084469 38.636678 
L 431.222541 38.280831 
L 434.360613 38.547717 
L 437.498685 39.022179 
L 440.636757 38.399447 
L 443.774829 39.348372 
L 446.912901 38.962872 
L 450.050973 39.348372 
L 453.189045 38.132562 
L 456.327117 37.569137 
L 459.465189 38.607024 
L 462.603261 37.776715 
L 468.879405 37.658099 
L 472.017477 38.073254 
L 475.155549 37.89533 
L 478.293621 38.280831 
L 481.431693 39.200103 
L 484.569765 38.280831 
L 487.707837 38.518063 
L 490.845909 37.836022 
L 493.983981 37.420868 
L 497.122053 37.806369 
L 500.260125 37.687753 
L 503.398197 38.458755 
L 506.536269 37.539483 
L 509.674341 37.420868 
L 512.812413 36.976059 
L 519.088557 39.348372 
L 522.226629 37.806369 
L 525.364701 37.094674 
L 528.502773 37.658099 
L 531.640845 37.272598 
L 537.916989 36.798135 
L 537.916989 36.798135 
" clip-path="url(#p1f07ad64a7)" style="fill: none; stroke: #7f7f7f; stroke-width: 2; stroke-linecap: square"/>
   </g>
   <g id="patch_3">
    <path d="M 46.965625 313.478125 
L 46.965625 22.318125 
" style="fill: none; stroke: #000000; stroke-width: 0.8; stroke-linejoin: miter; stroke-linecap: square"/>
   </g>
   <g id="patch_4">
    <path d="M 561.295625 313.478125 
L 561.295625 22.318125 
" style="fill: none; stroke: #000000; stroke-width: 0.8; stroke-linejoin: miter; stroke-linecap: square"/>
   </g>
   <g id="patch_5">
    <path d="M 46.965625 313.478125 
L 561.295625 313.478125 
" style="fill: none; stroke: #000000; stroke-width: 0.8; stroke-linejoin: miter; stroke-linecap: square"/>
   </g>
   <g id="patch_6">
    <path d="M 46.965625 22.318125 
L 561.295625 22.318125 
" style="fill: none; stroke: #000000; stroke-width: 0.8; stroke-linejoin: miter; stroke-linecap: square"/>
   </g>
   <g id="text_16">
    <!-- mnist, ALIE attack, clients=100 -->
    <g transform="translate(209.879062 16.318125) scale(0.12 -0.12)">
     <defs>
      <path id="DejaVuSans-6d" d="M 3328 2828 
Q 3544 3216 3844 3400 
Q 4144 3584 4550 3584 
Q 5097 3584 5394 3201 
Q 5691 2819 5691 2113 
L 5691 0 
L 5113 0 
L 5113 2094 
Q 5113 2597 4934 2840 
Q 4756 3084 4391 3084 
Q 3944 3084 3684 2787 
Q 3425 2491 3425 1978 
L 3425 0 
L 2847 0 
L 2847 2094 
Q 2847 2600 2669 2842 
Q 2491 3084 2119 3084 
Q 1678 3084 1418 2786 
Q 1159 2488 1159 1978 
L 1159 0 
L 581 0 
L 581 3500 
L 1159 3500 
L 1159 2956 
Q 1356 3278 1631 3431 
Q 1906 3584 2284 3584 
Q 2666 3584 2933 3390 
Q 3200 3197 3328 2828 
z
" transform="scale(0.015625)"/>
      <path id="DejaVuSans-2c" d="M 750 794 
L 1409 794 
L 1409 256 
L 897 -744 
L 494 -744 
L 750 256 
L 750 794 
z
" transform="scale(0.015625)"/>
      <path id="DejaVuSans-41" d="M 2188 4044 
L 1331 1722 
L 3047 1722 
L 2188 4044 
z
M 1831 4666 
L 2547 4666 
L 4325 0 
L 3669 0 
L 3244 1197 
L 1141 1197 
L 716 0 
L 50 0 
L 1831 4666 
z
" transform="scale(0.015625)"/>
      <path id="DejaVuSans-49" d="M 628 4666 
L 1259 4666 
L 1259 0 
L 628 0 
L 628 4666 
z
" transform="scale(0.015625)"/>
      <path id="DejaVuSans-45" d="M 628 4666 
L 3578 4666 
L 3578 4134 
L 1259 4134 
L 1259 2753 
L 3481 2753 
L 3481 2222 
L 1259 2222 
L 1259 531 
L 3634 531 
L 3634 0 
L 628 0 
L 628 4666 
z
" transform="scale(0.015625)"/>
      <path id="DejaVuSans-6b" d="M 581 4863 
L 1159 4863 
L 1159 1991 
L 2875 3500 
L 3609 3500 
L 1753 1863 
L 3688 0 
L 2938 0 
L 1159 1709 
L 1159 0 
L 581 0 
L 581 4863 
z
" transform="scale(0.015625)"/>
      <path id="DejaVuSans-6c" d="M 603 4863 
L 1178 4863 
L 1178 0 
L 603 0 
L 603 4863 
z
" transform="scale(0.015625)"/>
      <path id="DejaVuSans-3d" d="M 678 2906 
L 4684 2906 
L 4684 2381 
L 678 2381 
L 678 2906 
z
M 678 1631 
L 4684 1631 
L 4684 1100 
L 678 1100 
L 678 1631 
z
" transform="scale(0.015625)"/>
     </defs>
     <use xlink:href="#DejaVuSans-6d"/>
     <use xlink:href="#DejaVuSans-6e" transform="translate(97.412109 0)"/>
     <use xlink:href="#DejaVuSans-69" transform="translate(160.791016 0)"/>
     <use xlink:href="#DejaVuSans-73" transform="translate(188.574219 0)"/>
     <use xlink:href="#DejaVuSans-74" transform="translate(240.673828 0)"/>
     <use xlink:href="#DejaVuSans-2c" transform="translate(279.882812 0)"/>
     <use xlink:href="#DejaVuSans-20" transform="translate(311.669922 0)"/>
     <use xlink:href="#DejaVuSans-41" transform="translate(343.457031 0)"/>
     <use xlink:href="#DejaVuSans-4c" transform="translate(411.865234 0)"/>
     <use xlink:href="#DejaVuSans-49" transform="translate(467.578125 0)"/>
     <use xlink:href="#DejaVuSans-45" transform="translate(497.070312 0)"/>
     <use xlink:href="#DejaVuSans-20" transform="translate(560.253906 0)"/>
     <use xlink:href="#DejaVuSans-61" transform="translate(592.041016 0)"/>
     <use xlink:href="#DejaVuSans-74" transform="translate(653.320312 0)"/>
     <use xlink:href="#DejaVuSans-74" transform="translate(692.529297 0)"/>
     <use xlink:href="#DejaVuSans-61" transform="translate(731.738281 0)"/>
     <use xlink:href="#DejaVuSans-63" transform="translate(793.017578 0)"/>
     <use xlink:href="#DejaVuSans-6b" transform="translate(847.998047 0)"/>
     <use xlink:href="#DejaVuSans-2c" transform="translate(905.908203 0)"/>
     <use xlink:href="#DejaVuSans-20" transform="translate(937.695312 0)"/>
     <use xlink:href="#DejaVuSans-63" transform="translate(969.482422 0)"/>
     <use xlink:href="#DejaVuSans-6c" transform="translate(1024.462891 0)"/>
     <use xlink:href="#DejaVuSans-69" transform="translate(1052.246094 0)"/>
     <use xlink:href="#DejaVuSans-65" transform="translate(1080.029297 0)"/>
     <use xlink:href="#DejaVuSans-6e" transform="translate(1141.552734 0)"/>
     <use xlink:href="#DejaVuSans-74" transform="translate(1204.931641 0)"/>
     <use xlink:href="#DejaVuSans-73" transform="translate(1244.140625 0)"/>
     <use xlink:href="#DejaVuSans-3d" transform="translate(1296.240234 0)"/>
     <use xlink:href="#DejaVuSans-31" transform="translate(1380.029297 0)"/>
     <use xlink:href="#DejaVuSans-30" transform="translate(1443.652344 0)"/>
     <use xlink:href="#DejaVuSans-30" transform="translate(1507.275391 0)"/>
    </g>
   </g>
   <g id="legend_1">
    <g id="patch_7">
     <path d="M 444.31125 308.478125 
L 554.295625 308.478125 
Q 556.295625 308.478125 556.295625 306.478125 
L 556.295625 190.053125 
Q 556.295625 188.053125 554.295625 188.053125 
L 444.31125 188.053125 
Q 442.31125 188.053125 442.31125 190.053125 
L 442.31125 306.478125 
Q 442.31125 308.478125 444.31125 308.478125 
z
" style="fill: #ffffff; opacity: 0.8; stroke: #cccccc; stroke-linejoin: miter"/>
    </g>
    <g id="line2d_22">
     <path d="M 446.31125 196.151563 
L 456.31125 196.151563 
L 466.31125 196.151563 
" style="fill: none; stroke: #1f77b4; stroke-width: 2; stroke-linecap: square"/>
    </g>
    <g id="text_17">
     <!-- Average -->
     <g transform="translate(474.31125 199.651563) scale(0.1 -0.1)">
      <defs>
       <path id="DejaVuSans-76" d="M 191 3500 
L 800 3500 
L 1894 563 
L 2988 3500 
L 3597 3500 
L 2284 0 
L 1503 0 
L 191 3500 
z
" transform="scale(0.015625)"/>
      </defs>
      <use xlink:href="#DejaVuSans-41"/>
      <use xlink:href="#DejaVuSans-76" transform="translate(62.533203 0)"/>
      <use xlink:href="#DejaVuSans-65" transform="translate(121.712891 0)"/>
      <use xlink:href="#DejaVuSans-72" transform="translate(183.236328 0)"/>
      <use xlink:href="#DejaVuSans-61" transform="translate(224.349609 0)"/>
      <use xlink:href="#DejaVuSans-67" transform="translate(285.628906 0)"/>
      <use xlink:href="#DejaVuSans-65" transform="translate(349.105469 0)"/>
     </g>
    </g>
    <g id="line2d_23">
     <path d="M 446.31125 210.829688 
L 456.31125 210.829688 
L 466.31125 210.829688 
" style="fill: none; stroke: #ff7f0e; stroke-width: 2; stroke-linecap: square"/>
    </g>
    <g id="text_18">
     <!-- Clip Median -->
     <g transform="translate(474.31125 214.329688) scale(0.1 -0.1)">
      <defs>
       <path id="DejaVuSans-43" d="M 4122 4306 
L 4122 3641 
Q 3803 3938 3442 4084 
Q 3081 4231 2675 4231 
Q 1875 4231 1450 3742 
Q 1025 3253 1025 2328 
Q 1025 1406 1450 917 
Q 1875 428 2675 428 
Q 3081 428 3442 575 
Q 3803 722 4122 1019 
L 4122 359 
Q 3791 134 3420 21 
Q 3050 -91 2638 -91 
Q 1578 -91 968 557 
Q 359 1206 359 2328 
Q 359 3453 968 4101 
Q 1578 4750 2638 4750 
Q 3056 4750 3426 4639 
Q 3797 4528 4122 4306 
z
" transform="scale(0.015625)"/>
       <path id="DejaVuSans-70" d="M 1159 525 
L 1159 -1331 
L 581 -1331 
L 581 3500 
L 1159 3500 
L 1159 2969 
Q 1341 3281 1617 3432 
Q 1894 3584 2278 3584 
Q 2916 3584 3314 3078 
Q 3713 2572 3713 1747 
Q 3713 922 3314 415 
Q 2916 -91 2278 -91 
Q 1894 -91 1617 61 
Q 1341 213 1159 525 
z
M 3116 1747 
Q 3116 2381 2855 2742 
Q 2594 3103 2138 3103 
Q 1681 3103 1420 2742 
Q 1159 2381 1159 1747 
Q 1159 1113 1420 752 
Q 1681 391 2138 391 
Q 2594 391 2855 752 
Q 3116 1113 3116 1747 
z
" transform="scale(0.015625)"/>
       <path id="DejaVuSans-4d" d="M 628 4666 
L 1569 4666 
L 2759 1491 
L 3956 4666 
L 4897 4666 
L 4897 0 
L 4281 0 
L 4281 4097 
L 3078 897 
L 2444 897 
L 1241 4097 
L 1241 0 
L 628 0 
L 628 4666 
z
" transform="scale(0.015625)"/>
      </defs>
      <use xlink:href="#DejaVuSans-43"/>
      <use xlink:href="#DejaVuSans-6c" transform="translate(69.824219 0)"/>
      <use xlink:href="#DejaVuSans-69" transform="translate(97.607422 0)"/>
      <use xlink:href="#DejaVuSans-70" transform="translate(125.390625 0)"/>
      <use xlink:href="#DejaVuSans-20" transform="translate(188.867188 0)"/>
      <use xlink:href="#DejaVuSans-4d" transform="translate(220.654297 0)"/>
      <use xlink:href="#DejaVuSans-65" transform="translate(306.933594 0)"/>
      <use xlink:href="#DejaVuSans-64" transform="translate(368.457031 0)"/>
      <use xlink:href="#DejaVuSans-69" transform="translate(431.933594 0)"/>
      <use xlink:href="#DejaVuSans-61" transform="translate(459.716797 0)"/>
      <use xlink:href="#DejaVuSans-6e" transform="translate(520.996094 0)"/>
     </g>
    </g>
    <g id="line2d_24">
     <path d="M 446.31125 225.507812 
L 456.31125 225.507812 
L 466.31125 225.507812 
" style="fill: none; stroke: #2ca02c; stroke-width: 2; stroke-linecap: square"/>
    </g>
    <g id="text_19">
     <!-- Cosine Defense -->
     <g transform="translate(474.31125 229.007812) scale(0.1 -0.1)">
      <defs>
       <path id="DejaVuSans-44" d="M 1259 4147 
L 1259 519 
L 2022 519 
Q 2988 519 3436 956 
Q 3884 1394 3884 2338 
Q 3884 3275 3436 3711 
Q 2988 4147 2022 4147 
L 1259 4147 
z
M 628 4666 
L 1925 4666 
Q 3281 4666 3915 4102 
Q 4550 3538 4550 2338 
Q 4550 1131 3912 565 
Q 3275 0 1925 0 
L 628 0 
L 628 4666 
z
" transform="scale(0.015625)"/>
       <path id="DejaVuSans-66" d="M 2375 4863 
L 2375 4384 
L 1825 4384 
Q 1516 4384 1395 4259 
Q 1275 4134 1275 3809 
L 1275 3500 
L 2222 3500 
L 2222 3053 
L 1275 3053 
L 1275 0 
L 697 0 
L 697 3053 
L 147 3053 
L 147 3500 
L 697 3500 
L 697 3744 
Q 697 4328 969 4595 
Q 1241 4863 1831 4863 
L 2375 4863 
z
" transform="scale(0.015625)"/>
      </defs>
      <use xlink:href="#DejaVuSans-43"/>
      <use xlink:href="#DejaVuSans-6f" transform="translate(69.824219 0)"/>
      <use xlink:href="#DejaVuSans-73" transform="translate(131.005859 0)"/>
      <use xlink:href="#DejaVuSans-69" transform="translate(183.105469 0)"/>
      <use xlink:href="#DejaVuSans-6e" transform="translate(210.888672 0)"/>
      <use xlink:href="#DejaVuSans-65" transform="translate(274.267578 0)"/>
      <use xlink:href="#DejaVuSans-20" transform="translate(335.791016 0)"/>
      <use xlink:href="#DejaVuSans-44" transform="translate(367.578125 0)"/>
      <use xlink:href="#DejaVuSans-65" transform="translate(444.580078 0)"/>
      <use xlink:href="#DejaVuSans-66" transform="translate(506.103516 0)"/>
      <use xlink:href="#DejaVuSans-65" transform="translate(541.308594 0)"/>
      <use xlink:href="#DejaVuSans-6e" transform="translate(602.832031 0)"/>
      <use xlink:href="#DejaVuSans-73" transform="translate(666.210938 0)"/>
      <use xlink:href="#DejaVuSans-65" transform="translate(718.310547 0)"/>
     </g>
    </g>
    <g id="line2d_25">
     <path d="M 446.31125 240.185938 
L 456.31125 240.185938 
L 466.31125 240.185938 
" style="fill: none; stroke: #d62728; stroke-width: 2; stroke-linecap: square"/>
    </g>
    <g id="text_20">
     <!-- DDFed -->
     <g transform="translate(474.31125 243.685938) scale(0.1 -0.1)">
      <use xlink:href="#DejaVuSans-44"/>
      <use xlink:href="#DejaVuSans-44" transform="translate(77.001953 0)"/>
      <use xlink:href="#DejaVuSans-46" transform="translate(154.003906 0)"/>
      <use xlink:href="#DejaVuSans-65" transform="translate(206.023438 0)"/>
      <use xlink:href="#DejaVuSans-64" transform="translate(267.546875 0)"/>
     </g>
    </g>
    <g id="line2d_26">
     <path d="M 446.31125 254.864063 
L 456.31125 254.864063 
L 466.31125 254.864063 
" style="fill: none; stroke: #9467bd; stroke-width: 2; stroke-linecap: square"/>
    </g>
    <g id="text_21">
     <!-- FedAvg -->
     <g transform="translate(474.31125 258.364063) scale(0.1 -0.1)">
      <use xlink:href="#DejaVuSans-46"/>
      <use xlink:href="#DejaVuSans-65" transform="translate(52.019531 0)"/>
      <use xlink:href="#DejaVuSans-64" transform="translate(113.542969 0)"/>
      <use xlink:href="#DejaVuSans-41" transform="translate(177.019531 0)"/>
      <use xlink:href="#DejaVuSans-76" transform="translate(239.552734 0)"/>
      <use xlink:href="#DejaVuSans-67" transform="translate(298.732422 0)"/>
     </g>
    </g>
    <g id="line2d_27">
     <path d="M 446.31125 269.542188 
L 456.31125 269.542188 
L 466.31125 269.542188 
" style="fill: none; stroke: #8c564b; stroke-width: 2; stroke-linecap: square"/>
    </g>
    <g id="text_22">
     <!-- Krum -->
     <g transform="translate(474.31125 273.042188) scale(0.1 -0.1)">
      <defs>
       <path id="DejaVuSans-4b" d="M 628 4666 
L 1259 4666 
L 1259 2694 
L 3353 4666 
L 4166 4666 
L 1850 2491 
L 4331 0 
L 3500 0 
L 1259 2247 
L 1259 0 
L 628 0 
L 628 4666 
z
" transform="scale(0.015625)"/>
      </defs>
      <use xlink:href="#DejaVuSans-4b"/>
      <use xlink:href="#DejaVuSans-72" transform="translate(65.576172 0)"/>
      <use xlink:href="#DejaVuSans-75" transform="translate(106.689453 0)"/>
      <use xlink:href="#DejaVuSans-6d" transform="translate(170.068359 0)"/>
     </g>
    </g>
    <g id="line2d_28">
     <path d="M 446.31125 284.220312 
L 456.31125 284.220312 
L 466.31125 284.220312 
" style="fill: none; stroke: #e377c2; stroke-width: 2; stroke-linecap: square"/>
    </g>
    <g id="text_23">
     <!-- OUR -->
     <g transform="translate(474.31125 287.720312) scale(0.1 -0.1)">
      <defs>
       <path id="DejaVuSans-4f" d="M 2522 4238 
Q 1834 4238 1429 3725 
Q 1025 3213 1025 2328 
Q 1025 1447 1429 934 
Q 1834 422 2522 422 
Q 3209 422 3611 934 
Q 4013 1447 4013 2328 
Q 4013 3213 3611 3725 
Q 3209 4238 2522 4238 
z
M 2522 4750 
Q 3503 4750 4090 4092 
Q 4678 3434 4678 2328 
Q 4678 1225 4090 567 
Q 3503 -91 2522 -91 
Q 1538 -91 948 565 
Q 359 1222 359 2328 
Q 359 3434 948 4092 
Q 1538 4750 2522 4750 
z
" transform="scale(0.015625)"/>
       <path id="DejaVuSans-55" d="M 556 4666 
L 1191 4666 
L 1191 1831 
Q 1191 1081 1462 751 
Q 1734 422 2344 422 
Q 2950 422 3222 751 
Q 3494 1081 3494 1831 
L 3494 4666 
L 4128 4666 
L 4128 1753 
Q 4128 841 3676 375 
Q 3225 -91 2344 -91 
Q 1459 -91 1007 375 
Q 556 841 556 1753 
L 556 4666 
z
" transform="scale(0.015625)"/>
       <path id="DejaVuSans-52" d="M 2841 2188 
Q 3044 2119 3236 1894 
Q 3428 1669 3622 1275 
L 4263 0 
L 3584 0 
L 2988 1197 
Q 2756 1666 2539 1819 
Q 2322 1972 1947 1972 
L 1259 1972 
L 1259 0 
L 628 0 
L 628 4666 
L 2053 4666 
Q 2853 4666 3247 4331 
Q 3641 3997 3641 3322 
Q 3641 2881 3436 2590 
Q 3231 2300 2841 2188 
z
M 1259 4147 
L 1259 2491 
L 2053 2491 
Q 2509 2491 2742 2702 
Q 2975 2913 2975 3322 
Q 2975 3731 2742 3939 
Q 2509 4147 2053 4147 
L 1259 4147 
z
" transform="scale(0.015625)"/>
      </defs>
      <use xlink:href="#DejaVuSans-4f"/>
      <use xlink:href="#DejaVuSans-55" transform="translate(78.710938 0)"/>
      <use xlink:href="#DejaVuSans-52" transform="translate(151.904297 0)"/>
     </g>
    </g>
    <g id="line2d_29">
     <path d="M 446.31125 298.898438 
L 456.31125 298.898438 
L 466.31125 298.898438 
" style="fill: none; stroke: #7f7f7f; stroke-width: 2; stroke-linecap: square"/>
    </g>
    <g id="text_24">
     <!-- Trimmed Mean -->
     <g transform="translate(474.31125 302.398438) scale(0.1 -0.1)">
      <defs>
       <path id="DejaVuSans-54" d="M -19 4666 
L 3928 4666 
L 3928 4134 
L 2272 4134 
L 2272 0 
L 1638 0 
L 1638 4134 
L -19 4134 
L -19 4666 
z
" transform="scale(0.015625)"/>
      </defs>
      <use xlink:href="#DejaVuSans-54"/>
      <use xlink:href="#DejaVuSans-72" transform="translate(46.333984 0)"/>
      <use xlink:href="#DejaVuSans-69" transform="translate(87.447266 0)"/>
      <use xlink:href="#DejaVuSans-6d" transform="translate(115.230469 0)"/>
      <use xlink:href="#DejaVuSans-6d" transform="translate(212.642578 0)"/>
      <use xlink:href="#DejaVuSans-65" transform="translate(310.054688 0)"/>
      <use xlink:href="#DejaVuSans-64" transform="translate(371.578125 0)"/>
      <use xlink:href="#DejaVuSans-20" transform="translate(435.054688 0)"/>
      <use xlink:href="#DejaVuSans-4d" transform="translate(466.841797 0)"/>
      <use xlink:href="#DejaVuSans-65" transform="translate(553.121094 0)"/>
      <use xlink:href="#DejaVuSans-61" transform="translate(614.644531 0)"/>
      <use xlink:href="#DejaVuSans-6e" transform="translate(675.923828 0)"/>
     </g>
    </g>
   </g>
  </g>
 </g>
 <defs>
  <clipPath id="p1f07ad64a7">
   <rect x="46.965625" y="22.318125" width="514.33" height="291.16"/>
  </clipPath>
 </defs>
</svg>
